0
SECTION
2
HEADER
9
$ACADVER
1
AC1002
9
$INSUNITS
70
4
0
ENDSEC
0
SECTION
2
TABLES
0
TABLE
2
LTYPE
70
1
0
LTYPE
2
DASH
70
0
3
---
72
65
73
2
40
0.6
49
0.3
49
-0.3
0
ENDTAB
0
ENDSEC
0
SECTION
2
ENTITIES
0
POLYLINE
66
1
8
Sketch
62
0
0
VERTEX
8
Sketch
10
-36.72
20
-4.28
0
VERTEX
8
Sketch
10
-36.56
20
-4.36
0
SEQEND
0
POLYLINE
66
1
8
Sketch
62
0
0
VERTEX
8
Sketch
10
-31.68
20
-8.64
0
VERTEX
8
Sketch
10
-31.52
20
-8.76
0
SEQEND
0
POINT
8
Sketch
62
0
10
-29.68
20
-10.08
0
POLYLINE
66
1
8
Sketch
62
0
0
VERTEX
8
Sketch
10
-30.52
20
-10
0
VERTEX
8
Sketch
10
-30.24
20
-10.28
0
SEQEND
0
POLYLINE
66
1
8
Sketch
62
0
0
VERTEX
8
Sketch
10
-31.64
20
-7.32
0
VERTEX
8
Sketch
10
-31.16
20
-7.76
0
SEQEND
0
POINT
8
Sketch
62
0
10
-28.28
20
-4.44
0
POINT
8
Sketch
62
0
10
-29.6
20
-3.76
0
POINT
8
Sketch
62
0
10
-30.84
20
-3.64
0
POLYLINE
66
1
8
Sketch
62
0
0
VERTEX
8
Sketch
10
-32.6
20
-3.52
0
VERTEX
8
Sketch
10
-32.52
20
-3.6
0
SEQEND
0
POLYLINE
66
1
8
Sketch
62
0
0
VERTEX
8
Sketch
10
-34.52
20
-3.8
0
VERTEX
8
Sketch
10
-34.56
20
-3.88
0
VERTEX
8
Sketch
10
-34.56
20
-4.08
0
SEQEND
0
POLYLINE
66
1
8
Sketch
62
0
0
VERTEX
8
Sketch
10
-35.12
20
-3.4
0
VERTEX
8
Sketch
10
-34.76
20
-3.6
0
SEQEND
0
POLYLINE
66
1
8
Sketch
62
0
0
VERTEX
8
Sketch
10
-34.8
20
-2.12
0
VERTEX
8
Sketch
10
-34.64
20
-2.16
0
SEQEND
0
POLYLINE
66
1
8
Sketch
62
0
0
VERTEX
8
Sketch
10
-34.84
20
-2.88
0
VERTEX
8
Sketch
10
-34.56
20
-2.96
0
SEQEND
0
POLYLINE
66
1
8
Sketch
62
0
0
VERTEX
8
Sketch
10
-35.36
20
-5.32
0
VERTEX
8
Sketch
10
-34.48
20
-5.4
0
VERTEX
8
Sketch
10
-34.28
20
-5.36
0
SEQEND
0
POLYLINE
66
1
8
Sketch
62
0
0
VERTEX
8
Sketch
10
-33.84
20
-5.64
0
VERTEX
8
Sketch
10
-33.48
20
-5.76
0
SEQEND
0
POLYLINE
66
1
8
Sketch
62
0
0
VERTEX
8
Sketch
10
-31.28
20
-4.32
0
VERTEX
8
Sketch
10
-30.28
20
-4.48
0
SEQEND
0
POLYLINE
66
1
8
Sketch
62
0
0
VERTEX
8
Sketch
10
-29.24
20
-3.84
0
VERTEX
8
Sketch
10
-29.04
20
-3.8
0
VERTEX
8
Sketch
10
-28.96
20
-3.84
0
SEQEND
0
POLYLINE
66
1
8
Sketch
62
0
0
VERTEX
8
Sketch
10
-29.28
20
-4.4
0
VERTEX
8
Sketch
10
-29.2
20
-4.44
0
SEQEND
0
POLYLINE
66
1
8
Sketch
62
0
0
VERTEX
8
Sketch
10
-30
20
-5
0
VERTEX
8
Sketch
10
-29.88
20
-5.04
0
VERTEX
8
Sketch
10
-29.4
20
-5.08
0
VERTEX
8
Sketch
10
-29.32
20
-5.12
0
SEQEND
0
POLYLINE
66
1
8
Sketch
62
0
0
VERTEX
8
Sketch
10
-28.8
20
-8.8
0
VERTEX
8
Sketch
10
-28.88
20
-8.76
0
VERTEX
8
Sketch
10
-29.32
20
-8.8
0
VERTEX
8
Sketch
10
-29.4
20
-8.84
0
SEQEND
0
POLYLINE
66
1
8
Sketch
62
0
0
VERTEX
8
Sketch
10
-28.76
20
-6.44
0
VERTEX
8
Sketch
10
-28.92
20
-6.44
0
SEQEND
0
POINT
8
Sketch
62
0
10
-27.16
20
-6.44
0
POLYLINE
66
1
8
Sketch
62
0
0
VERTEX
8
Sketch
10
-28.56
20
-4.64
0
VERTEX
8
Sketch
10
-28.48
20
-4.64
0
SEQEND
0
POINT
8
Sketch
62
0
10
-28.68
20
-5
0
POINT
8
Sketch
62
0
10
-29.52
20
-5.72
0
POLYLINE
66
1
8
Sketch
62
0
0
VERTEX
8
Sketch
10
-31.96
20
-6.84
0
VERTEX
8
Sketch
10
-31.6
20
-6.84
0
VERTEX
8
Sketch
10
-31.24
20
-6.76
0
SEQEND
0
POINT
8
Sketch
62
0
10
-30.64
20
-7.8
0
POLYLINE
66
1
8
Sketch
62
0
0
VERTEX
8
Sketch
10
-31.16
20
-8.8
0
VERTEX
8
Sketch
10
-31.08
20
-8.88
0
SEQEND
0
POLYLINE
66
1
8
Sketch
62
0
0
VERTEX
8
Sketch
10
-33.04
20
-8.36
0
VERTEX
8
Sketch
10
-32.72
20
-8.52
0
SEQEND
0
POLYLINE
66
1
8
Sketch
62
0
0
VERTEX
8
Sketch
10
-34.32
20
-7.24
0
VERTEX
8
Sketch
10
-34.24
20
-7.44
0
VERTEX
8
Sketch
10
-33.96
20
-7.6
0
VERTEX
8
Sketch
10
-33.68
20
-7.64
0
VERTEX
8
Sketch
10
-33.44
20
-7.76
0
VERTEX
8
Sketch
10
-33.04
20
-7.8
0
SEQEND
0
POLYLINE
66
1
8
Sketch
62
0
0
VERTEX
8
Sketch
10
-32.52
20
-5.16
0
VERTEX
8
Sketch
10
-32.56
20
-5.28
0
SEQEND
0
POLYLINE
66
1
8
Sketch
62
0
0
VERTEX
8
Sketch
10
-32.12
20
-3.52
0
VERTEX
8
Sketch
10
-31.96
20
-3.88
0
VERTEX
8
Sketch
10
-31.68
20
-4.08
0
SEQEND
0
POLYLINE
66
1
8
Sketch
62
0
0
VERTEX
8
Sketch
10
-33.84
20
-3.2
0
VERTEX
8
Sketch
10
-33.68
20
-3.32
0
VERTEX
8
Sketch
10
-33.08
20
-3.56
0
VERTEX
8
Sketch
10
-32.56
20
-3.64
0
SEQEND
0
POINT
8
Sketch
62
0
10
-35.56
20
-3.52
0
POLYLINE
66
1
8
Sketch
62
0
0
VERTEX
8
Sketch
10
-37.44
20
-5.76
0
VERTEX
8
Sketch
10
-37.36
20
-5.72
0
VERTEX
8
Sketch
10
-37.24
20
-5.76
0
VERTEX
8
Sketch
10
-37.04
20
-5.72
0
VERTEX
8
Sketch
10
-36.92
20
-5.76
0
VERTEX
8
Sketch
10
-36.8
20
-5.72
0
SEQEND
0
POLYLINE
66
1
8
Sketch
62
0
0
VERTEX
8
Sketch
10
-36.84
20
-5.6
0
VERTEX
8
Sketch
10
-36.28
20
-5.8
0
VERTEX
8
Sketch
10
-35.96
20
-5.84
0
VERTEX
8
Sketch
10
-35.76
20
-5.92
0
SEQEND
0
POLYLINE
66
1
8
Sketch
62
0
0
VERTEX
8
Sketch
10
-36.44
20
-3.6
0
VERTEX
8
Sketch
10
-35.92
20
-3.48
0
SEQEND
0
POLYLINE
66
1
8
Sketch
62
0
0
VERTEX
8
Sketch
10
-36.44
20
-3.32
0
VERTEX
8
Sketch
10
-36
20
-3.08
0
SEQEND
0
POLYLINE
66
1
8
Sketch
62
0
0
VERTEX
8
Sketch
10
-36.64
20
-4.96
0
VERTEX
8
Sketch
10
-36.52
20
-4.96
0
VERTEX
8
Sketch
10
-36.32
20
-4.92
0
VERTEX
8
Sketch
10
-36
20
-4.92
0
VERTEX
8
Sketch
10
-35.88
20
-4.96
0
SEQEND
0
POINT
8
Sketch
62
0
10
-35.72
20
3.28
0
POLYLINE
66
1
8
Sketch
62
0
0
VERTEX
8
Sketch
10
-37.48
20
-1
0
VERTEX
8
Sketch
10
-37.32
20
-1.16
0
VERTEX
8
Sketch
10
-36.96
20
-1.2
0
VERTEX
8
Sketch
10
-36.6
20
-1.28
0
VERTEX
8
Sketch
10
-36.44
20
-1.32
0
VERTEX
8
Sketch
10
-36.08
20
-1.44
0
VERTEX
8
Sketch
10
-35.96
20
-1.44
0
VERTEX
8
Sketch
10
-35.8
20
-1.48
0
VERTEX
8
Sketch
10
-35.6
20
-1.52
0
VERTEX
8
Sketch
10
-35.44
20
-1.6
0
VERTEX
8
Sketch
10
-35.36
20
-1.56
0
VERTEX
8
Sketch
10
-35.28
20
-1.6
0
VERTEX
8
Sketch
10
-35.16
20
-1.56
0
VERTEX
8
Sketch
10
-34.96
20
-1.6
0
VERTEX
8
Sketch
10
-34.76
20
-1.6
0
VERTEX
8
Sketch
10
-34.68
20
-1.56
0
VERTEX
8
Sketch
10
-34.56
20
-1.6
0
VERTEX
8
Sketch
10
-34.44
20
-1.56
0
VERTEX
8
Sketch
10
-34.28
20
-1.6
0
VERTEX
8
Sketch
10
-33.88
20
-1.64
0
VERTEX
8
Sketch
10
-33.72
20
-1.72
0
VERTEX
8
Sketch
10
-33.6
20
-1.68
0
VERTEX
8
Sketch
10
-33.36
20
-1.72
0
VERTEX
8
Sketch
10
-33.08
20
-1.72
0
VERTEX
8
Sketch
10
-32.84
20
-1.84
0
VERTEX
8
Sketch
10
-32.64
20
-1.88
0
VERTEX
8
Sketch
10
-32.52
20
-1.84
0
VERTEX
8
Sketch
10
-32.16
20
-1.96
0
VERTEX
8
Sketch
10
-31.96
20
-1.96
0
VERTEX
8
Sketch
10
-31.88
20
-2.04
0
VERTEX
8
Sketch
10
-31.72
20
-2.04
0
VERTEX
8
Sketch
10
-31.56
20
-2.12
0
VERTEX
8
Sketch
10
-31.44
20
-2.12
0
VERTEX
8
Sketch
10
-31.36
20
-2.16
0
VERTEX
8
Sketch
10
-31.24
20
-2.12
0
VERTEX
8
Sketch
10
-31.08
20
-2.24
0
VERTEX
8
Sketch
10
-30.72
20
-2.24
0
VERTEX
8
Sketch
10
-30.2
20
-2.4
0
VERTEX
8
Sketch
10
-30.04
20
-2.4
0
VERTEX
8
Sketch
10
-29.76
20
-2.48
0
VERTEX
8
Sketch
10
-29.68
20
-2.44
0
VERTEX
8
Sketch
10
-29.32
20
-2.6
0
VERTEX
8
Sketch
10
-29.04
20
-2.6
0
VERTEX
8
Sketch
10
-28.96
20
-2.68
0
VERTEX
8
Sketch
10
-28.72
20
-2.68
0
VERTEX
8
Sketch
10
-28.48
20
-2.76
0
VERTEX
8
Sketch
10
-28.16
20
-2.8
0
VERTEX
8
Sketch
10
-27.92
20
-2.92
0
VERTEX
8
Sketch
10
-27.76
20
-2.92
0
VERTEX
8
Sketch
10
-27.4
20
-3.04
0
VERTEX
8
Sketch
10
-27.32
20
-3
0
VERTEX
8
Sketch
10
-27.6
20
-2.96
0
VERTEX
8
Sketch
10
-27.88
20
-2.92
0
SEQEND
0
POLYLINE
66
1
8
Sketch
62
32
0
VERTEX
8
Sketch
10
-39.16
20
-4.6
0
VERTEX
8
Sketch
10
-38.88
20
-4.8
0
VERTEX
8
Sketch
10
-38.8
20
-4.8
0
SEQEND
0
POLYLINE
66
1
8
Sketch
62
32
0
VERTEX
8
Sketch
10
-38.72
20
-3
0
VERTEX
8
Sketch
10
-38.52
20
-3.24
0
VERTEX
8
Sketch
10
-38.2
20
-3.4
0
SEQEND
0
POLYLINE
66
1
8
Sketch
62
32
0
VERTEX
8
Sketch
10
-38.36
20
-1.96
0
VERTEX
8
Sketch
10
-37.6
20
-1.64
0
VERTEX
8
Sketch
10
-37.28
20
-1.52
0
VERTEX
8
Sketch
10
-37.16
20
-1.52
0
SEQEND
0
POLYLINE
66
1
8
Sketch
62
1
0
VERTEX
8
Sketch
10
-45.36
20
-2.44
0
VERTEX
8
Sketch
10
-45.32
20
-2.64
0
VERTEX
8
Sketch
10
-45.32
20
-2.76
0
VERTEX
8
Sketch
10
-45.28
20
-2.84
0
VERTEX
8
Sketch
10
-45.28
20
-3.32
0
VERTEX
8
Sketch
10
-45.24
20
-3.48
0
VERTEX
8
Sketch
10
-45.28
20
-3.56
0
VERTEX
8
Sketch
10
-45.32
20
-3.16
0
VERTEX
8
Sketch
10
-45.28
20
-3.08
0
VERTEX
8
Sketch
10
-45.24
20
-2.6
0
VERTEX
8
Sketch
10
-45
20
-2.04
0
VERTEX
8
Sketch
10
-44.6
20
-1.56
0
VERTEX
8
Sketch
10
-44.4
20
-1.52
0
VERTEX
8
Sketch
10
-44.2
20
-1.72
0
VERTEX
8
Sketch
10
-44.16
20
-2
0
VERTEX
8
Sketch
10
-44.36
20
-2.36
0
VERTEX
8
Sketch
10
-44.84
20
-2.64
0
SEQEND
0
POLYLINE
66
1
8
Sketch
62
1
0
VERTEX
8
Sketch
10
-46.72
20
-3.84
0
VERTEX
8
Sketch
10
-46.72
20
-4.12
0
VERTEX
8
Sketch
10
-46.68
20
-4.28
0
VERTEX
8
Sketch
10
-46.68
20
-4.64
0
VERTEX
8
Sketch
10
-46.52
20
-4.04
0
VERTEX
8
Sketch
10
-46.32
20
-3.52
0
VERTEX
8
Sketch
10
-46.24
20
-3.44
0
VERTEX
8
Sketch
10
-46
20
-3.8
0
VERTEX
8
Sketch
10
-45.88
20
-3.68
0
VERTEX
8
Sketch
10
-45.84
20
-3.6
0
VERTEX
8
Sketch
10
-45.72
20
-3.6
0
VERTEX
8
Sketch
10
-45.52
20
-3.8
0
VERTEX
8
Sketch
10
-45.4
20
-4.08
0
SEQEND
0
POLYLINE
66
1
8
Sketch
62
1
0
VERTEX
8
Sketch
10
-47.84
20
-4.44
0
VERTEX
8
Sketch
10
-47.84
20
-4.56
0
VERTEX
8
Sketch
10
-47.6
20
-5.24
0
VERTEX
8
Sketch
10
-47.52
20
-5.32
0
VERTEX
8
Sketch
10
-47.32
20
-5.12
0
VERTEX
8
Sketch
10
-47.2
20
-4.76
0
VERTEX
8
Sketch
10
-47.16
20
-4.6
0
VERTEX
8
Sketch
10
-47.12
20
-4.88
0
SEQEND
0
POLYLINE
66
1
8
Sketch
62
1
0
VERTEX
8
Sketch
10
-48.36
20
-3.84
0
VERTEX
8
Sketch
10
-48.76
20
-4.32
0
VERTEX
8
Sketch
10
-48.8
20
-4.48
0
VERTEX
8
Sketch
10
-48.8
20
-4.56
0
VERTEX
8
Sketch
10
-48.2
20
-4.84
0
VERTEX
8
Sketch
10
-48.08
20
-5
0
VERTEX
8
Sketch
10
-48.2
20
-5.2
0
VERTEX
8
Sketch
10
-48.28
20
-5.24
0
SEQEND
0
POLYLINE
66
1
8
Sketch
62
5
0
VERTEX
8
Sketch
10
-41.44
20
-1.04
0
VERTEX
8
Sketch
10
-41.16
20
-2.64
0
VERTEX
8
Sketch
10
-40.92
20
-4.32
0
VERTEX
8
Sketch
10
-40.84
20
-4.88
0
VERTEX
8
Sketch
10
-40.76
20
-5.28
0
VERTEX
8
Sketch
10
-40.44
20
-6.32
0
VERTEX
8
Sketch
10
-40.44
20
-6.44
0
VERTEX
8
Sketch
10
-40.4
20
-6.52
0
SEQEND
0
POLYLINE
66
1
8
Sketch
62
5
0
VERTEX
8
Sketch
10
-41.92
20
-4.12
0
VERTEX
8
Sketch
10
-41.48
20
-3.92
0
VERTEX
8
Sketch
10
-41.12
20
-3.76
0
VERTEX
8
Sketch
10
-40.92
20
-3.64
0
SEQEND
0
POLYLINE
66
1
8
Sketch
62
5
0
VERTEX
8
Sketch
10
-42.12
20
-6.24
0
VERTEX
8
Sketch
10
-41.96
20
-6.32
0
VERTEX
8
Sketch
10
-41.64
20
-6.28
0
VERTEX
8
Sketch
10
-40.52
20
-5.84
0
VERTEX
8
Sketch
10
-40.4
20
-5.84
0
VERTEX
8
Sketch
10
-40.2
20
-5.72
0
SEQEND
0
POLYLINE
66
1
8
Sketch
62
5
0
VERTEX
8
Sketch
10
-42
20
-2
0
VERTEX
8
Sketch
10
-41.96
20
-2.08
0
VERTEX
8
Sketch
10
-41.92
20
-2.88
0
VERTEX
8
Sketch
10
-41.84
20
-3.32
0
VERTEX
8
Sketch
10
-41.84
20
-3.56
0
VERTEX
8
Sketch
10
-41.76
20
-4.24
0
VERTEX
8
Sketch
10
-41.68
20
-4.56
0
VERTEX
8
Sketch
10
-41.6
20
-5.24
0
VERTEX
8
Sketch
10
-41.2
20
-7.4
0
VERTEX
8
Sketch
10
-41.04
20
-7.96
0
SEQEND
0
POLYLINE
66
1
8
Sketch
62
5
0
VERTEX
8
Sketch
10
-42.96
20
-2.04
0
VERTEX
8
Sketch
10
-42.8
20
-2.84
0
VERTEX
8
Sketch
10
-42.68
20
-3.92
0
VERTEX
8
Sketch
10
-42.52
20
-5.16
0
VERTEX
8
Sketch
10
-42.44
20
-5.48
0
VERTEX
8
Sketch
10
-42.44
20
-5.68
0
VERTEX
8
Sketch
10
-42.08
20
-7.48
0
VERTEX
8
Sketch
10
-41.76
20
-8.36
0
SEQEND
0
POLYLINE
66
1
8
Sketch
62
5
0
VERTEX
8
Sketch
10
-43.76
20
-2.8
0
VERTEX
8
Sketch
10
-43.6
20
-3.24
0
VERTEX
8
Sketch
10
-43.48
20
-3.84
0
VERTEX
8
Sketch
10
-43.4
20
-4.4
0
VERTEX
8
Sketch
10
-43.24
20
-5.36
0
VERTEX
8
Sketch
10
-43.04
20
-6.92
0
VERTEX
8
Sketch
10
-42.76
20
-8.32
0
VERTEX
8
Sketch
10
-42.68
20
-8.52
0
SEQEND
0
POLYLINE
66
1
8
Sketch
62
5
0
VERTEX
8
Sketch
10
-44.44
20
-4.76
0
VERTEX
8
Sketch
10
-43.64
20
-7.8
0
VERTEX
8
Sketch
10
-43.12
20
-9.36
0
VERTEX
8
Sketch
10
-42.92
20
-9.68
0
SEQEND
0
POLYLINE
66
1
8
Sketch
62
5
0
VERTEX
8
Sketch
10
-44.72
20
-5.96
0
VERTEX
8
Sketch
10
-44.68
20
-6.2
0
VERTEX
8
Sketch
10
-44.16
20
-8.36
0
VERTEX
8
Sketch
10
-43.84
20
-9.4
0
VERTEX
8
Sketch
10
-43.68
20
-9.68
0
SEQEND
0
POINT
8
Sketch
62
5
10
-43.84
20
-9.96
0
POLYLINE
66
1
8
Sketch
62
5
0
VERTEX
8
Sketch
10
-44.36
20
-9.48
0
VERTEX
8
Sketch
10
-44.2
20
-9.52
0
VERTEX
8
Sketch
10
-43.76
20
-9.44
0
VERTEX
8
Sketch
10
-43.24
20
-9.2
0
VERTEX
8
Sketch
10
-42.24
20
-8.56
0
VERTEX
8
Sketch
10
-42
20
-8.48
0
SEQEND
0
POLYLINE
66
1
8
Sketch
62
5
0
VERTEX
8
Sketch
10
-44.72
20
-8.84
0
VERTEX
8
Sketch
10
-44.32
20
-8.64
0
VERTEX
8
Sketch
10
-43.72
20
-8.2
0
VERTEX
8
Sketch
10
-43.12
20
-7.84
0
VERTEX
8
Sketch
10
-42.44
20
-7.4
0
VERTEX
8
Sketch
10
-41.72
20
-7.08
0
VERTEX
8
Sketch
10
-41.64
20
-7
0
SEQEND
0
POLYLINE
66
1
8
Sketch
62
5
0
VERTEX
8
Sketch
10
-44.8
20
-7.4
0
VERTEX
8
Sketch
10
-44.64
20
-7.4
0
VERTEX
8
Sketch
10
-43.44
20
-6.76
0
VERTEX
8
Sketch
10
-42.4
20
-6.28
0
VERTEX
8
Sketch
10
-41.2
20
-5.96
0
VERTEX
8
Sketch
10
-41.12
20
-5.92
0
SEQEND
0
POLYLINE
66
1
8
Sketch
62
5
0
VERTEX
8
Sketch
10
-42.88
20
-4.68
0
VERTEX
8
Sketch
10
-42.84
20
-4.76
0
VERTEX
8
Sketch
10
-43.08
20
-5.12
0
VERTEX
8
Sketch
10
-43.8
20
-5.8
0
VERTEX
8
Sketch
10
-45.2
20
-6.88
0
VERTEX
8
Sketch
10
-45.28
20
-6.88
0
SEQEND
0
POLYLINE
66
1
8
Sketch
62
5
0
VERTEX
8
Sketch
10
-43.48
20
-4.16
0
VERTEX
8
Sketch
10
-44.4
20
-5.28
0
VERTEX
8
Sketch
10
-44.72
20
-5.6
0
SEQEND
0
POLYLINE
66
1
8
Sketch
62
5
0
VERTEX
8
Sketch
10
-43.32
20
-3.4
0
VERTEX
8
Sketch
10
-43.68
20
-3.64
0
VERTEX
8
Sketch
10
-44.88
20
-4.68
0
SEQEND
0
POLYLINE
66
1
8
Sketch
62
5
0
VERTEX
8
Sketch
10
-41.52
20
-1.56
0
VERTEX
8
Sketch
10
-41.4
20
-1.56
0
VERTEX
8
Sketch
10
-41.32
20
-1.48
0
VERTEX
8
Sketch
10
-40.96
20
-1.44
0
VERTEX
8
Sketch
10
-41.8
20
-1.84
0
VERTEX
8
Sketch
10
-42.12
20
-1.96
0
VERTEX
8
Sketch
10
-42.64
20
-2.28
0
SEQEND
0
POLYLINE
66
1
8
Sketch
62
5
0
VERTEX
8
Sketch
10
-41
20
-1.96
0
VERTEX
8
Sketch
10
-40.92
20
-1.88
0
VERTEX
8
Sketch
10
-40.6
20
-1.8
0
VERTEX
8
Sketch
10
-40.16
20
-1.64
0
SEQEND
0
POLYLINE
66
1
8
Sketch
62
5
0
VERTEX
8
Sketch
10
-43.84
20
-4.72
0
VERTEX
8
Sketch
10
-43.48
20
-4.56
0
VERTEX
8
Sketch
10
-42.4
20
-4.04
0
VERTEX
8
Sketch
10
-41.84
20
-3.92
0
VERTEX
8
Sketch
10
-41
20
-3.68
0
SEQEND
0
POLYLINE
66
1
8
Sketch
62
5
0
VERTEX
8
Sketch
10
-40.32
20
-1.04
0
VERTEX
8
Sketch
10
-40.16
20
-1.04
0
VERTEX
8
Sketch
10
-39.92
20
-1.28
0
VERTEX
8
Sketch
10
-39.8
20
-1.48
0
VERTEX
8
Sketch
10
-39.68
20
-2
0
VERTEX
8
Sketch
10
-39.72
20
-2.44
0
VERTEX
8
Sketch
10
-40
20
-3.16
0
VERTEX
8
Sketch
10
-40
20
-3.28
0
VERTEX
8
Sketch
10
-39.76
20
-4.04
0
VERTEX
8
Sketch
10
-39.76
20
-4.48
0
VERTEX
8
Sketch
10
-39.8
20
-4.64
0
VERTEX
8
Sketch
10
-39.8
20
-4.88
0
VERTEX
8
Sketch
10
-39.92
20
-5.2
0
VERTEX
8
Sketch
10
-39.92
20
-5.32
0
VERTEX
8
Sketch
10
-40
20
-5.72
0
VERTEX
8
Sketch
10
-40
20
-6.08
0
VERTEX
8
Sketch
10
-39.88
20
-6.44
0
VERTEX
8
Sketch
10
-39.88
20
-6.56
0
VERTEX
8
Sketch
10
-39.92
20
-6.72
0
VERTEX
8
Sketch
10
-39.92
20
-6.8
0
SEQEND
0
POLYLINE
66
1
8
Sketch
62
5
0
VERTEX
8
Sketch
10
-42.88
20
-2.52
0
VERTEX
8
Sketch
10
-42.68
20
-2.4
0
VERTEX
8
Sketch
10
-42.12
20
-2.28
0
VERTEX
8
Sketch
10
-42
20
-2.28
0
VERTEX
8
Sketch
10
-41.52
20
-2.16
0
VERTEX
8
Sketch
10
-41.24
20
-2.12
0
VERTEX
8
Sketch
10
-41.04
20
-2
0
VERTEX
8
Sketch
10
-40.84
20
-1.96
0
SEQEND
0
POLYLINE
66
1
8
Sketch
62
5
0
VERTEX
8
Sketch
10
-43.8
20
-3.12
0
VERTEX
8
Sketch
10
-43.4
20
-3.16
0
VERTEX
8
Sketch
10
-42.44
20
-2.96
0
VERTEX
8
Sketch
10
-41.96
20
-2.72
0
VERTEX
8
Sketch
10
-41.88
20
-2.72
0
SEQEND
0
POLYLINE
66
1
8
Sketch
62
0
0
VERTEX
8
Sketch
10
-45.5
20
-7.7
0
VERTEX
8
Sketch
10
-45.5
20
-8.3
0
VERTEX
8
Sketch
10
-45.6
20
-8.8
0
VERTEX
8
Sketch
10
-45.5
20
-9.2
0
VERTEX
8
Sketch
10
-45.5
20
-10
0
VERTEX
8
Sketch
10
-45.4
20
-10.3
0
VERTEX
8
Sketch
10
-45.1
20
-10.3
0
VERTEX
8
Sketch
10
-44.8
20
-10.7
0
VERTEX
8
Sketch
10
-44.4
20
-10.7
0
VERTEX
8
Sketch
10
-43.8
20
-10.9
0
VERTEX
8
Sketch
10
-43.4
20
-10.8
0
VERTEX
8
Sketch
10
-41.8
20
-9.4
0
VERTEX
8
Sketch
10
-41.6
20
-8.9
0
VERTEX
8
Sketch
10
-41.4
20
-8.9
0
VERTEX
8
Sketch
10
-40.9
20
-8.2
0
VERTEX
8
Sketch
10
-40.2
20
-7.5
0
VERTEX
8
Sketch
10
-39.7
20
-6.7
0
VERTEX
8
Sketch
10
-39.1
20
-5.9
0
VERTEX
8
Sketch
10
-38.9
20
-5.8
0
VERTEX
8
Sketch
10
-38.8
20
-5.5
0
VERTEX
8
Sketch
10
-38.2
20
-5.6
0
VERTEX
8
Sketch
10
-37.1
20
-6.3
0
VERTEX
8
Sketch
10
-36.9
20
-6.4
0
VERTEX
8
Sketch
10
-36.8
20
-6.7
0
VERTEX
8
Sketch
10
-35.8
20
-7.6
0
VERTEX
8
Sketch
10
-35.5
20
-7.7
0
VERTEX
8
Sketch
10
-34.5
20
-8.7
0
VERTEX
8
Sketch
10
-33.3
20
-9.5
0
VERTEX
8
Sketch
10
-32.3
20
-9.9
0
VERTEX
8
Sketch
10
-31.9
20
-10.2
0
VERTEX
8
Sketch
10
-31.4
20
-10.4
0
VERTEX
8
Sketch
10
-31
20
-10.7
0
VERTEX
8
Sketch
10
-30.5
20
-10.9
0
VERTEX
8
Sketch
10
-30
20
-10.8
0
VERTEX
8
Sketch
10
-29.3
20
-11.2
0
VERTEX
8
Sketch
10
-29.1
20
-11.2
0
VERTEX
8
Sketch
10
-28.9
20
-11.4
0
VERTEX
8
Sketch
10
-28.6
20
-11.4
0
VERTEX
8
Sketch
10
-28.4
20
-11.6
0
SEQEND
0
POLYLINE
66
1
8
Sketch
62
0
0
VERTEX
8
Sketch
10
-45.9
20
-9.6
0
VERTEX
8
Sketch
10
-45.9
20
-9.2
0
VERTEX
8
Sketch
10
-45.8
20
-8.8
0
VERTEX
8
Sketch
10
-45.8
20
-8.3
0
VERTEX
8
Sketch
10
-45.7
20
-7.9
0
VERTEX
8
Sketch
10
-45.7
20
-6.2
0
VERTEX
8
Sketch
10
-45.3
20
-4.8
0
VERTEX
8
Sketch
10
-44.8
20
-3.9
0
VERTEX
8
Sketch
10
-44.5
20
-3.1
0
VERTEX
8
Sketch
10
-43.1
20
-1.7
0
VERTEX
8
Sketch
10
-42.3
20
-1.2
0
VERTEX
8
Sketch
10
-41.9
20
-1.2
0
VERTEX
8
Sketch
10
-41.1
20
-0.9
0
VERTEX
8
Sketch
10
-40.7
20
-0.9
0
VERTEX
8
Sketch
10
-40.3
20
-0.7
0
VERTEX
8
Sketch
10
-39.9
20
-0.8
0
VERTEX
8
Sketch
10
-39
20
-0.6
0
VERTEX
8
Sketch
10
-38.6
20
-0.8
0
VERTEX
8
Sketch
10
-38.2
20
-0.7
0
VERTEX
8
Sketch
10
-37.6
20
-0.8
0
VERTEX
8
Sketch
10
-37.4
20
-1
0
SEQEND
0
POLYLINE
66
1
8
Sketch
62
32
0
VERTEX
8
Sketch
10
-27.3
20
-6.8
0
VERTEX
8
Sketch
10
-27.4
20
-7
0
VERTEX
8
Sketch
10
-27
20
-7.5
0
SEQEND
0
POINT
8
Sketch
62
32
10
-27.5
20
-4.5
0
POLYLINE
66
1
8
Sketch
62
32
0
VERTEX
8
Sketch
10
-27.1
20
-5.9
0
VERTEX
8
Sketch
10
-26.6
20
-5.8
0
SEQEND
0
POLYLINE
66
1
8
Sketch
62
32
0
VERTEX
8
Sketch
10
-28.1
20
-11.1
0
VERTEX
8
Sketch
10
-27.6
20
-11.4
0
VERTEX
8
Sketch
10
-26.9
20
-11.5
0
VERTEX
8
Sketch
10
-26.7
20
-11.4
0
SEQEND
0
POLYLINE
66
1
8
Sketch
62
32
0
VERTEX
8
Sketch
10
-26.8
20
-9.8
0
VERTEX
8
Sketch
10
-26.8
20
-10
0
VERTEX
8
Sketch
10
-26.1
20
-10.1
0
SEQEND
0
POLYLINE
66
1
8
Sketch
62
32
0
VERTEX
8
Sketch
10
-25.7
20
-8.4
0
VERTEX
8
Sketch
10
-25.7
20
-8.6
0
VERTEX
8
Sketch
10
-24.7
20
-8.6
0
SEQEND
0
POLYLINE
66
1
8
Sketch
62
32
0
VERTEX
8
Sketch
10
-23.9
20
-7.6
0
VERTEX
8
Sketch
10
-23.5
20
-7.9
0
SEQEND
0
POLYLINE
66
1
8
Sketch
62
32
0
VERTEX
8
Sketch
10
-23.8
20
-6.5
0
VERTEX
8
Sketch
10
-23.6
20
-6.4
0
VERTEX
8
Sketch
10
-23.4
20
-6.6
0
SEQEND
0
POLYLINE
66
1
8
Sketch
62
32
0
VERTEX
8
Sketch
10
-26.8
20
-5.9
0
VERTEX
8
Sketch
10
-26.1
20
-6.1
0
VERTEX
8
Sketch
10
-25.2
20
-6.1
0
SEQEND
0
POLYLINE
66
1
8
Sketch
62
32
0
VERTEX
8
Sketch
10
-25.1
20
-4.4
0
VERTEX
8
Sketch
10
-25.1
20
-4.6
0
VERTEX
8
Sketch
10
-24.7
20
-4.7
0
VERTEX
8
Sketch
10
-24.1
20
-4.8
0
VERTEX
8
Sketch
10
-23.9
20
-4.9
0
SEQEND
0
POLYLINE
66
1
8
Sketch
62
32
0
VERTEX
8
Sketch
10
-25
20
-4
0
VERTEX
8
Sketch
10
-24.6
20
-4.1
0
VERTEX
8
Sketch
10
-24.2
20
-4.2
0
VERTEX
8
Sketch
10
-24
20
-4.1
0
SEQEND
0
POLYLINE
66
1
8
Sketch
62
32
0
VERTEX
8
Sketch
10
-21.9
20
-3.4
0
VERTEX
8
Sketch
10
-21.5
20
-3.3
0
VERTEX
8
Sketch
10
-21.1
20
-3.4
0
SEQEND
0
POLYLINE
66
1
8
Sketch
62
32
0
VERTEX
8
Sketch
10
-19.9
20
-2.1
0
VERTEX
8
Sketch
10
-20.1
20
-2.1
0
SEQEND
0
POLYLINE
66
1
8
Sketch
62
32
0
VERTEX
8
Sketch
10
-20
20
-3.1
0
VERTEX
8
Sketch
10
-19.6
20
-3
0
VERTEX
8
Sketch
10
-19.2
20
-3
0
SEQEND
0
POLYLINE
66
1
8
Sketch
62
32
0
VERTEX
8
Sketch
10
-22.4
20
-4.6
0
VERTEX
8
Sketch
10
-22.4
20
-4.4
0
VERTEX
8
Sketch
10
-21.5
20
-3.9
0
VERTEX
8
Sketch
10
-21
20
-3.9
0
SEQEND
0
POLYLINE
66
1
8
Sketch
62
32
0
VERTEX
8
Sketch
10
-21
20
-5.8
0
VERTEX
8
Sketch
10
-20.4
20
-6.3
0
VERTEX
8
Sketch
10
-20.2
20
-6.3
0
SEQEND
0
POLYLINE
66
1
8
Sketch
62
32
0
VERTEX
8
Sketch
10
-21.5
20
-9
0
VERTEX
8
Sketch
10
-21.1
20
-9
0
VERTEX
8
Sketch
10
-20.7
20
-8.7
0
SEQEND
0
POLYLINE
66
1
8
Sketch
62
32
0
VERTEX
8
Sketch
10
-21
20
-7.3
0
VERTEX
8
Sketch
10
-20.8
20
-7.5
0
VERTEX
8
Sketch
10
-20.4
20
-7.6
0
VERTEX
8
Sketch
10
-20.1
20
-7.8
0
SEQEND
0
POLYLINE
66
1
8
Sketch
62
32
0
VERTEX
8
Sketch
10
-23.3
20
-10.5
0
VERTEX
8
Sketch
10
-22.2
20
-9.8
0
SEQEND
0
POLYLINE
66
1
8
Sketch
62
32
0
VERTEX
8
Sketch
10
-22.7
20
-9.2
0
VERTEX
8
Sketch
10
-21.4
20
-9.8
0
SEQEND
0
POLYLINE
66
1
8
Sketch
62
32
0
VERTEX
8
Sketch
10
-17.5
20
-7.6
0
VERTEX
8
Sketch
10
-17.3
20
-7.8
0
VERTEX
8
Sketch
10
-16.9
20
-7.8
0
SEQEND
0
POLYLINE
66
1
8
Sketch
62
32
0
VERTEX
8
Sketch
10
-17.3
20
-5.7
0
VERTEX
8
Sketch
10
-16.4
20
-5.5
0
VERTEX
8
Sketch
10
-16.1
20
-5.5
0
SEQEND
0
POLYLINE
66
1
8
Sketch
62
32
0
VERTEX
8
Sketch
10
-16.8
20
-6.7
0
VERTEX
8
Sketch
10
-16.4
20
-6.7
0
VERTEX
8
Sketch
10
-16.2
20
-6.6
0
SEQEND
0
POINT
8
Sketch
62
32
10
-17.1
20
-8.2
0
POLYLINE
66
1
8
Sketch
62
32
0
VERTEX
8
Sketch
10
-18.9
20
-10
0
VERTEX
8
Sketch
10
-18.6
20
-10.1
0
SEQEND
0
POLYLINE
66
1
8
Sketch
62
32
0
VERTEX
8
Sketch
10
-19.1
20
-8.6
0
VERTEX
8
Sketch
10
-18.7
20
-8.9
0
SEQEND
0
POLYLINE
66
1
8
Sketch
62
32
0
VERTEX
8
Sketch
10
-19.5
20
-5.8
0
VERTEX
8
Sketch
10
-18.9
20
-6.2
0
SEQEND
0
POLYLINE
66
1
8
Sketch
62
32
0
VERTEX
8
Sketch
10
-18.6
20
-2.3
0
VERTEX
8
Sketch
10
-18.1
20
-2.4
0
VERTEX
8
Sketch
10
-17.5
20
-2.3
0
SEQEND
0
POLYLINE
66
1
8
Sketch
62
32
0
VERTEX
8
Sketch
10
-18.7
20
-3.5
0
VERTEX
8
Sketch
10
-18.2
20
-3.8
0
VERTEX
8
Sketch
10
-17.5
20
-3.8
0
SEQEND
0
POLYLINE
66
1
8
Sketch
62
0
0
VERTEX
8
Sketch
10
-29.7
20
-11.9
0
VERTEX
8
Sketch
10
-28.8
20
-12.1
0
VERTEX
8
Sketch
10
-28.4
20
-12
0
VERTEX
8
Sketch
10
-27.6
20
-11.9
0
VERTEX
8
Sketch
10
-27.2
20
-11.9
0
VERTEX
8
Sketch
10
-26.5
20
-11.7
0
VERTEX
8
Sketch
10
-26
20
-11.7
0
VERTEX
8
Sketch
10
-25.8
20
-11.5
0
VERTEX
8
Sketch
10
-25.2
20
-11.5
0
VERTEX
8
Sketch
10
-24.4
20
-11.2
0
VERTEX
8
Sketch
10
-23.9
20
-11.3
0
VERTEX
8
Sketch
10
-23.4
20
-11.1
0
VERTEX
8
Sketch
10
-22.2
20
-11.1
0
VERTEX
8
Sketch
10
-21.7
20
-11
0
VERTEX
8
Sketch
10
-19.4
20
-10.9
0
VERTEX
8
Sketch
10
-19
20
-10.8
0
VERTEX
8
Sketch
10
-18.6
20
-10.9
0
VERTEX
8
Sketch
10
-18.3
20
-10.9
0
VERTEX
8
Sketch
10
-17.9
20
-10.8
0
VERTEX
8
Sketch
10
-17.5
20
-10.8
0
VERTEX
8
Sketch
10
-17.3
20
-10.7
0
VERTEX
8
Sketch
10
-17.1
20
-10.8
0
VERTEX
8
Sketch
10
-17
20
-10.6
0
VERTEX
8
Sketch
10
-15.1
20
-10.6
0
VERTEX
8
Sketch
10
-14.9
20
-10.5
0
VERTEX
8
Sketch
10
-14.9
20
-10.7
0
SEQEND
0
POLYLINE
66
1
8
Sketch
62
0
0
VERTEX
8
Sketch
10
-27.5
20
-3
0
VERTEX
8
Sketch
10
-27.3
20
-3.2
0
VERTEX
8
Sketch
10
-26.1
20
-3.4
0
VERTEX
8
Sketch
10
-25.7
20
-3.5
0
VERTEX
8
Sketch
10
-25.5
20
-3.4
0
VERTEX
8
Sketch
10
-25.3
20
-3.5
0
VERTEX
8
Sketch
10
-24.7
20
-3.3
0
VERTEX
8
Sketch
10
-24.3
20
-3.3
0
VERTEX
8
Sketch
10
-23.4
20
-2.8
0
VERTEX
8
Sketch
10
-22.8
20
-2.5
0
VERTEX
8
Sketch
10
-22.4
20
-2.4
0
VERTEX
8
Sketch
10
-21.8
20
-2
0
VERTEX
8
Sketch
10
-21.6
20
-2
0
VERTEX
8
Sketch
10
-20.7
20
-1.5
0
VERTEX
8
Sketch
10
-20.3
20
-1.4
0
VERTEX
8
Sketch
10
-20.1
20
-1.5
0
VERTEX
8
Sketch
10
-19.5
20
-1.2
0
VERTEX
8
Sketch
10
-19.1
20
-1.2
0
VERTEX
8
Sketch
10
-18.7
20
-1
0
VERTEX
8
Sketch
10
-18.5
20
-1.1
0
VERTEX
8
Sketch
10
-18.1
20
-1
0
SEQEND
0
POLYLINE
66
1
8
Sketch
62
32
0
VERTEX
8
Sketch
10
-3
20
-7
0
VERTEX
8
Sketch
10
-3.1
20
-7.2
0
SEQEND
0
POINT
8
Sketch
62
32
10
-5.4
20
1.3
0
POLYLINE
66
1
8
Sketch
62
32
0
VERTEX
8
Sketch
10
-4.2
20
0.6
0
VERTEX
8
Sketch
10
-3.8
20
0.7
0
SEQEND
0
POLYLINE
66
1
8
Sketch
62
32
0
VERTEX
8
Sketch
10
-4.2
20
-3.1
0
VERTEX
8
Sketch
10
-3.5
20
-2.7
0
SEQEND
0
POLYLINE
66
1
8
Sketch
62
32
0
VERTEX
8
Sketch
10
-4
20
-5.4
0
VERTEX
8
Sketch
10
-3.8
20
-5.4
0
SEQEND
0
POLYLINE
66
1
8
Sketch
62
32
0
VERTEX
8
Sketch
10
-4.1
20
-5.9
0
VERTEX
8
Sketch
10
-3.6
20
-6
0
SEQEND
0
POLYLINE
66
1
8
Sketch
62
32
0
VERTEX
8
Sketch
10
-4.9
20
-3.4
0
VERTEX
8
Sketch
10
-4.5
20
-3.4
0
SEQEND
0
POLYLINE
66
1
8
Sketch
62
32
0
VERTEX
8
Sketch
10
-6.4
20
-5
0
VERTEX
8
Sketch
10
-5.4
20
-4.2
0
SEQEND
0
POLYLINE
66
1
8
Sketch
62
32
0
VERTEX
8
Sketch
10
-6.5
20
-6.9
0
VERTEX
8
Sketch
10
-6.3
20
-7
0
VERTEX
8
Sketch
10
-6.1
20
-6.9
0
SEQEND
0
POLYLINE
66
1
8
Sketch
62
32
0
VERTEX
8
Sketch
10
-7.1
20
-6.2
0
VERTEX
8
Sketch
10
-6.6
20
-6.2
0
SEQEND
0
POLYLINE
66
1
8
Sketch
62
32
0
VERTEX
8
Sketch
10
-10.4
20
-6.3
0
VERTEX
8
Sketch
10
-9.8
20
-6.1
0
VERTEX
8
Sketch
10
-9.3
20
-6.1
0
VERTEX
8
Sketch
10
-8.3
20
-5.8
0
SEQEND
0
POLYLINE
66
1
8
Sketch
62
32
0
VERTEX
8
Sketch
10
-14.5
20
-8.8
0
VERTEX
8
Sketch
10
-13.7
20
-8.4
0
VERTEX
8
Sketch
10
-13.3
20
-8.1
0
SEQEND
0
POLYLINE
66
1
8
Sketch
62
32
0
VERTEX
8
Sketch
10
-12.3
20
-6.8
0
VERTEX
8
Sketch
10
-11.4
20
-6.4
0
VERTEX
8
Sketch
10
-11
20
-6.1
0
SEQEND
0
POLYLINE
66
1
8
Sketch
62
32
0
VERTEX
8
Sketch
10
-11.6
20
-7.8
0
VERTEX
8
Sketch
10
-11.3
20
-7.8
0
VERTEX
8
Sketch
10
-9.4
20
-6.8
0
VERTEX
8
Sketch
10
-9.2
20
-6.6
0
SEQEND
0
POLYLINE
66
1
8
Sketch
62
32
0
VERTEX
8
Sketch
10
-8.8
20
-4.1
0
VERTEX
8
Sketch
10
-8
20
-4.1
0
SEQEND
0
POLYLINE
66
1
8
Sketch
62
32
0
VERTEX
8
Sketch
10
-9.7
20
-2.2
0
VERTEX
8
Sketch
10
-9.3
20
-2.2
0
SEQEND
0
POLYLINE
66
1
8
Sketch
62
32
0
VERTEX
8
Sketch
10
-8.4
20
0
0
VERTEX
8
Sketch
10
-8
20
0.1
0
SEQEND
0
POLYLINE
66
1
8
Sketch
62
32
0
VERTEX
8
Sketch
10
-10.5
20
-1.3
0
VERTEX
8
Sketch
10
-10.1
20
-1.2
0
VERTEX
8
Sketch
10
-9.1
20
-0.9
0
SEQEND
0
POLYLINE
66
1
8
Sketch
62
32
0
VERTEX
8
Sketch
10
-12.3
20
-1.7
0
VERTEX
8
Sketch
10
-11.9
20
-1.6
0
VERTEX
8
Sketch
10
-11.7
20
-1.5
0
SEQEND
0
POLYLINE
66
1
8
Sketch
62
32
0
VERTEX
8
Sketch
10
-15.6
20
-2.1
0
VERTEX
8
Sketch
10
-15.2
20
-2
0
VERTEX
8
Sketch
10
-15
20
-1.9
0
SEQEND
0
POLYLINE
66
1
8
Sketch
62
32
0
VERTEX
8
Sketch
10
-14.8
20
-7
0
VERTEX
8
Sketch
10
-14.6
20
-7.1
0
VERTEX
8
Sketch
10
-14.2
20
-7
0
SEQEND
0
POLYLINE
66
1
8
Sketch
62
32
0
VERTEX
8
Sketch
10
-14.6
20
-5.5
0
VERTEX
8
Sketch
10
-14.2
20
-5.6
0
SEQEND
0
POLYLINE
66
1
8
Sketch
62
32
0
VERTEX
8
Sketch
10
-15.3
20
-3.7
0
VERTEX
8
Sketch
10
-14.9
20
-3.8
0
VERTEX
8
Sketch
10
-14.4
20
-3.7
0
VERTEX
8
Sketch
10
-14
20
-3.5
0
SEQEND
0
POLYLINE
66
1
8
Sketch
62
32
0
VERTEX
8
Sketch
10
-13.6
20
-2.2
0
VERTEX
8
Sketch
10
-13.2
20
-2.1
0
VERTEX
8
Sketch
10
-12.8
20
-1.8
0
VERTEX
8
Sketch
10
-12.3
20
-1.7
0
SEQEND
0
POLYLINE
66
1
8
Sketch
62
32
0
VERTEX
8
Sketch
10
-11.7
20
-4.5
0
VERTEX
8
Sketch
10
-11.1
20
-4.5
0
VERTEX
8
Sketch
10
-10.6
20
-4.4
0
VERTEX
8
Sketch
10
-10.4
20
-4.5
0
VERTEX
8
Sketch
10
-10.1
20
-4.4
0
SEQEND
0
POLYLINE
66
1
8
Sketch
62
0
0
VERTEX
8
Sketch
10
-16.1
20
-10.8
0
VERTEX
8
Sketch
10
-15.3
20
-10.2
0
VERTEX
8
Sketch
10
-14.8
20
-10.1
0
VERTEX
8
Sketch
10
-14.2
20
-9.6
0
VERTEX
8
Sketch
10
-13.6
20
-9.5
0
VERTEX
8
Sketch
10
-13.2
20
-9.2
0
VERTEX
8
Sketch
10
-12.8
20
-9.3
0
VERTEX
8
Sketch
10
-12.4
20
-9.2
0
VERTEX
8
Sketch
10
-12.1
20
-9.3
0
VERTEX
8
Sketch
10
-11.9
20
-9.1
0
VERTEX
8
Sketch
10
-11
20
-9
0
VERTEX
8
Sketch
10
-10.8
20
-8.9
0
VERTEX
8
Sketch
10
-10.6
20
-9
0
VERTEX
8
Sketch
10
-10
20
-8.8
0
VERTEX
8
Sketch
10
-9.3
20
-8.8
0
VERTEX
8
Sketch
10
-8.6
20
-8.7
0
VERTEX
8
Sketch
10
-8.1
20
-8.7
0
VERTEX
8
Sketch
10
-6.9
20
-8.3
0
VERTEX
8
Sketch
10
-6.5
20
-8.2
0
VERTEX
8
Sketch
10
-6.1
20
-8.1
0
VERTEX
8
Sketch
10
-5.7
20
-8
0
VERTEX
8
Sketch
10
-5.3
20
-8.1
0
VERTEX
8
Sketch
10
-4.9
20
-8.1
0
VERTEX
8
Sketch
10
-4.4
20
-8
0
VERTEX
8
Sketch
10
-4
20
-8
0
VERTEX
8
Sketch
10
-3.6
20
-8.1
0
VERTEX
8
Sketch
10
-3.4
20
-8
0
VERTEX
8
Sketch
10
-3.2
20
-8.2
0
VERTEX
8
Sketch
10
-2.8
20
-8.2
0
VERTEX
8
Sketch
10
-2.4
20
-8.3
0
SEQEND
0
POLYLINE
66
1
8
Sketch
62
0
0
VERTEX
8
Sketch
10
-18.4
20
-0.6
0
VERTEX
8
Sketch
10
-18
20
-0.7
0
VERTEX
8
Sketch
10
-17.5
20
-0.7
0
VERTEX
8
Sketch
10
-17.3
20
-0.6
0
VERTEX
8
Sketch
10
-17.1
20
-0.7
0
VERTEX
8
Sketch
10
-16.5
20
-0.5
0
VERTEX
8
Sketch
10
-15.9
20
-0.7
0
VERTEX
8
Sketch
10
-15
20
-0.7
0
VERTEX
8
Sketch
10
-13.9
20
-0.3
0
VERTEX
8
Sketch
10
-13.6
20
-0.3
0
VERTEX
8
Sketch
10
-12.6
20
0.2
0
VERTEX
8
Sketch
10
-12
20
0.2
0
VERTEX
8
Sketch
10
-11.1
20
0.5
0
VERTEX
8
Sketch
10
-10.8
20
0.5
0
VERTEX
8
Sketch
10
-10.6
20
0.7
0
VERTEX
8
Sketch
10
-10.2
20
0.7
0
VERTEX
8
Sketch
10
-9.4
20
0.9
0
VERTEX
8
Sketch
10
-8.9
20
0.9
0
VERTEX
8
Sketch
10
-8.5
20
1.2
0
VERTEX
8
Sketch
10
-7.7
20
1.4
0
VERTEX
8
Sketch
10
-6.8
20
1.8
0
VERTEX
8
Sketch
10
-6.2
20
1.8
0
VERTEX
8
Sketch
10
-6.1
20
2.1
0
VERTEX
8
Sketch
10
-5.7
20
2.2
0
VERTEX
8
Sketch
10
-4.4
20
2.8
0
VERTEX
8
Sketch
10
-4.2
20
2.8
0
VERTEX
8
Sketch
10
-4.1
20
3
0
SEQEND
0
POINT
8
Sketch
62
0
10
-18.4
20
-0.7
0
LINE
8
Shots
62
1
10
-37.084
20
-1.206
11
-45.724
21
-8.17
0
CIRCLE
8
Shots
62
1
10
-45.724
20
-8.17
40
0.1
0
TEXT
8
Label
40
1
1
24.4
10
-45.724
20
-8.17
0
LINE
8
Shots
62
1
10
-29.614
20
-7.684
11
-37.084
21
-1.206
0
CIRCLE
8
Shots
62
1
10
-37.084
20
-1.206
40
0.1
0
TEXT
8
Label
40
1
1
24.3
10
-37.084
20
-1.206
0
LINE
8
XSect
62
1
10
-37.084
20
-1.206
11
-38.432
21
-5.18
0
LINE
8
XSect
62
1
6
DASH
10
-37.084
20
-1.206
11
-37.154
21
-1.418
0
LINE
8
XSect
62
1
6
DASH
10
-37.084
20
-1.206
11
-37.402
21
-1.45
0
LINE
8
Shots
62
1
10
-16.118
20
-4.518
11
-29.614
21
-7.684
0
CIRCLE
8
Shots
62
1
10
-29.614
20
-7.684
40
0.1
0
TEXT
8
Label
40
1
1
24.2
10
-29.614
20
-7.684
0
LINE
8
XSect
62
1
10
-29.614
20
-7.684
11
-29.798
21
-11.624
0
LINE
8
XSect
62
1
10
-29.614
20
-7.684
11
-27.768
21
-3.112
0
LINE
8
XSect
62
1
6
DASH
10
-29.614
20
-7.684
11
-29.848
21
-7.324
0
LINE
8
XSect
62
1
6
DASH
10
-29.614
20
-7.684
11
-29.434
21
-7.7
0
LINE
8
Shots
62
1
10
0
20
0
11
-16.118
21
-4.518
0
CIRCLE
8
Shots
62
1
10
-16.118
20
-4.518
40
0.1
0
TEXT
8
Label
40
1
1
24.1
10
-16.118
20
-4.518
0
LINE
8
XSect
62
1
10
-16.118
20
-4.518
11
-15.484
21
-10.428
0
LINE
8
XSect
62
1
10
-16.118
20
-4.518
11
-17.962
21
-0.88
0
LINE
8
XSect
62
1
6
DASH
10
-16.118
20
-4.518
11
-16.396
21
-4.322
0
LINE
8
XSect
62
1
6
DASH
10
-16.118
20
-4.518
11
-16.094
21
-4.678
0
LINE
8
Shots
62
1
10
0
20
0
11
0
21
0
0
CIRCLE
8
Shots
62
1
10
0
20
0
40
0.1
0
LINE
8
XSect
62
1
10
0
20
0
11
-2.908
21
-7.904
0
LINE
8
XSect
62
1
10
0
20
0
11
-3.854
21
2.708
0
LINE
8
XSect
62
1
6
DASH
10
0
20
0
11
-0.3
21
-0.068
0
LINE
8
XSect
62
1
6
DASH
10
0
20
0
11
0.384
21
0.144
0
LINE
8
Grid
62
255
10
-48
20
4
11
-48
21
-12
0
LINE
8
Grid
62
255
10
-46
20
4
11
-46
21
-12
0
LINE
8
Grid
62
255
10
-44
20
4
11
-44
21
-12
0
LINE
8
Grid
62
255
10
-42
20
4
11
-42
21
-12
0
LINE
8
Grid
62
255
10
-40
20
4
11
-40
21
-12
0
LINE
8
Grid
62
255
10
-38
20
4
11
-38
21
-12
0
LINE
8
Grid
62
255
10
-36
20
4
11
-36
21
-12
0
LINE
8
Grid
62
255
10
-34
20
4
11
-34
21
-12
0
LINE
8
Grid
62
255
10
-32
20
4
11
-32
21
-12
0
LINE
8
Grid
62
255
10
-30
20
4
11
-30
21
-12
0
LINE
8
Grid
62
255
10
-28
20
4
11
-28
21
-12
0
LINE
8
Grid
62
255
10
-26
20
4
11
-26
21
-12
0
LINE
8
Grid
62
255
10
-24
20
4
11
-24
21
-12
0
LINE
8
Grid
62
255
10
-22
20
4
11
-22
21
-12
0
LINE
8
Grid
62
255
10
-20
20
4
11
-20
21
-12
0
LINE
8
Grid
62
255
10
-18
20
4
11
-18
21
-12
0
LINE
8
Grid
62
255
10
-16
20
4
11
-16
21
-12
0
LINE
8
Grid
62
255
10
-14
20
4
11
-14
21
-12
0
LINE
8
Grid
62
255
10
-12
20
4
11
-12
21
-12
0
LINE
8
Grid
62
255
10
-10
20
4
11
-10
21
-12
0
LINE
8
Grid
62
255
10
-8
20
4
11
-8
21
-12
0
LINE
8
Grid
62
255
10
-6
20
4
11
-6
21
-12
0
LINE
8
Grid
62
255
10
-4
20
4
11
-4
21
-12
0
LINE
8
Grid
62
255
10
-2
20
4
11
-2
21
-12
0
LINE
8
Grid
62
255
10
0
20
4
11
0
21
-12
0
LINE
8
Grid
62
255
10
2
20
4
11
2
21
-12
0
LINE
8
Grid
62
255
10
4
20
4
11
4
21
-12
0
LINE
8
Grid
62
255
10
-48
20
4
11
4
21
4
0
LINE
8
Grid
62
255
10
-48
20
2
11
4
21
2
0
LINE
8
Grid
62
255
10
-48
20
0
11
4
21
0
0
LINE
8
Grid
62
255
10
-48
20
-2
11
4
21
-2
0
LINE
8
Grid
62
255
10
-48
20
-4
11
4
21
-4
0
LINE
8
Grid
62
255
10
-48
20
-6
11
4
21
-6
0
LINE
8
Grid
62
255
10
-48
20
-8
11
4
21
-8
0
LINE
8
Grid
62
255
10
-48
20
-10
11
4
21
-10
0
LINE
8
Grid
62
255
10
-48
20
-12
11
4
21
-12
0
ENDSEC
0
EOF
