0
SECTION
2
HEADER
9
$ACADVER
1
AC1002
9
$INSUNITS
70
4
0
ENDSEC
0
SECTION
2
TABLES
0
TABLE
2
LTYPE
70
1
0
LTYPE
2
DASH
70
0
3
---
72
65
73
2
40
0.6
49
0.3
49
-0.3
0
ENDTAB
0
ENDSEC
0
SECTION
2
ENTITIES
0
LINE
8
Shots
62
1
10
40.492
20
-3.024
11
51.588
21
-5.09
0
CIRCLE
8
Shots
62
1
10
51.588
20
-5.09
40
0.1
0
TEXT
8
Label
40
1
1
24.4
10
51.588
20
-5.09
0
LINE
8
Shots
62
1
10
30.602
20
-0.534
11
40.492
21
-3.024
0
CIRCLE
8
Shots
62
1
10
40.492
20
-3.024
40
0.1
0
TEXT
8
Label
40
1
1
24.3
10
40.492
20
-3.024
0
LINE
8
XSect
62
1
6
DASH
10
40.492
20
-3.024
11
43.238
21
-2.92
0
LINE
8
XSect
62
1
10
40.492
20
-3.024
11
40.634
21
-4.63
0
LINE
8
XSect
62
1
10
40.492
20
-3.024
11
40.89
21
-0.052
0
LINE
8
Shots
62
1
10
16.74
20
3.07
11
30.602
21
-0.534
0
CIRCLE
8
Shots
62
1
10
30.602
20
-0.534
40
0.1
0
TEXT
8
Label
40
1
1
24.2
10
30.602
20
-0.534
0
LINE
8
XSect
62
1
6
DASH
10
30.602
20
-0.534
11
29.944
21
-2.204
0
LINE
8
XSect
62
1
6
DASH
10
30.602
20
-0.534
11
29.466
21
2.722
0
LINE
8
XSect
62
1
10
30.602
20
-0.534
11
31.014
21
-1.848
0
LINE
8
XSect
62
1
10
30.602
20
-0.534
11
30.43
21
6.388
0
LINE
8
Shots
62
1
10
0
20
0
11
16.74
21
3.07
0
CIRCLE
8
Shots
62
1
10
16.74
20
3.07
40
0.1
0
TEXT
8
Label
40
1
1
24.1
10
16.74
20
3.07
0
LINE
8
XSect
62
1
6
DASH
10
16.74
20
3.07
11
17.58
21
7.39
0
LINE
8
XSect
62
1
6
DASH
10
16.74
20
3.07
11
17.636
21
3.886
0
LINE
8
XSect
62
1
10
16.74
20
3.07
11
16.962
21
6.164
0
LINE
8
XSect
62
1
10
16.74
20
3.07
11
16.754
21
0.268
0
LINE
8
Shots
62
1
10
0
20
0
11
0
21
0
0
CIRCLE
8
Shots
62
1
10
0
20
0
40
0.1
0
LINE
8
XSect
62
1
6
DASH
10
0
20
0
11
4.938
21
4.03
0
LINE
8
XSect
62
1
10
0
20
0
11
2.976
21
2.706
0
LINE
8
XSect
62
1
10
0
20
0
11
0.306
21
5.698
0
LINE
8
XSect
62
1
10
0
20
0
11
-0.41
21
-2.144
0
LINE
8
Grid
62
255
10
-4
20
6
11
-4
21
-8
0
LINE
8
Grid
62
255
10
-2
20
6
11
-2
21
-8
0
LINE
8
Grid
62
255
10
0
20
6
11
0
21
-8
0
LINE
8
Grid
62
255
10
2
20
6
11
2
21
-8
0
LINE
8
Grid
62
255
10
4
20
6
11
4
21
-8
0
LINE
8
Grid
62
255
10
6
20
6
11
6
21
-8
0
LINE
8
Grid
62
255
10
8
20
6
11
8
21
-8
0
LINE
8
Grid
62
255
10
10
20
6
11
10
21
-8
0
LINE
8
Grid
62
255
10
12
20
6
11
12
21
-8
0
LINE
8
Grid
62
255
10
14
20
6
11
14
21
-8
0
LINE
8
Grid
62
255
10
16
20
6
11
16
21
-8
0
LINE
8
Grid
62
255
10
18
20
6
11
18
21
-8
0
LINE
8
Grid
62
255
10
20
20
6
11
20
21
-8
0
LINE
8
Grid
62
255
10
22
20
6
11
22
21
-8
0
LINE
8
Grid
62
255
10
24
20
6
11
24
21
-8
0
LINE
8
Grid
62
255
10
26
20
6
11
26
21
-8
0
LINE
8
Grid
62
255
10
28
20
6
11
28
21
-8
0
LINE
8
Grid
62
255
10
30
20
6
11
30
21
-8
0
LINE
8
Grid
62
255
10
32
20
6
11
32
21
-8
0
LINE
8
Grid
62
255
10
34
20
6
11
34
21
-8
0
LINE
8
Grid
62
255
10
36
20
6
11
36
21
-8
0
LINE
8
Grid
62
255
10
38
20
6
11
38
21
-8
0
LINE
8
Grid
62
255
10
40
20
6
11
40
21
-8
0
LINE
8
Grid
62
255
10
42
20
6
11
42
21
-8
0
LINE
8
Grid
62
255
10
44
20
6
11
44
21
-8
0
LINE
8
Grid
62
255
10
46
20
6
11
46
21
-8
0
LINE
8
Grid
62
255
10
48
20
6
11
48
21
-8
0
LINE
8
Grid
62
255
10
50
20
6
11
50
21
-8
0
LINE
8
Grid
62
255
10
52
20
6
11
52
21
-8
0
LINE
8
Grid
62
255
10
54
20
6
11
54
21
-8
0
LINE
8
Grid
62
255
10
-4
20
6
11
54
21
6
0
LINE
8
Grid
62
255
10
-4
20
4
11
54
21
4
0
LINE
8
Grid
62
255
10
-4
20
2
11
54
21
2
0
LINE
8
Grid
62
255
10
-4
20
0
11
54
21
0
0
LINE
8
Grid
62
255
10
-4
20
-2
11
54
21
-2
0
LINE
8
Grid
62
255
10
-4
20
-4
11
54
21
-4
0
LINE
8
Grid
62
255
10
-4
20
-6
11
54
21
-6
0
LINE
8
Grid
62
255
10
-4
20
-8
11
54
21
-8
0
ENDSEC
0
EOF
