0
SECTION
2
HEADER
9
$ACADVER
1
AC1002
9
$INSUNITS
70
4
0
ENDSEC
0
SECTION
2
TABLES
0
TABLE
2
LTYPE
70
1
0
LTYPE
2
DASH
70
0
3
---
72
65
73
2
40
0.6
49
0.3
49
-0.3
0
ENDTAB
0
ENDSEC
0
SECTION
2
ENTITIES
0
POLYLINE
66
1
8
Sketch
62
0
0
VERTEX
8
Sketch
10
67.2
20
-85.59
0
VERTEX
8
Sketch
10
66.6
20
-85.59
0
VERTEX
8
Sketch
10
66.2
20
-85.29
0
VERTEX
8
Sketch
10
66
20
-85.29
0
VERTEX
8
Sketch
10
65.6
20
-84.99
0
VERTEX
8
Sketch
10
65.4
20
-84.99
0
VERTEX
8
Sketch
10
65.3
20
-84.79
0
SEQEND
0
POLYLINE
66
1
8
Sketch
62
0
0
VERTEX
8
Sketch
10
64.6
20
-84.19
0
VERTEX
8
Sketch
10
64.7
20
-84.39
0
VERTEX
8
Sketch
10
64.9
20
-84.39
0
VERTEX
8
Sketch
10
65.1
20
-84.59
0
VERTEX
8
Sketch
10
65.3
20
-84.49
0
VERTEX
8
Sketch
10
65.7
20
-85.19
0
SEQEND
0
POLYLINE
66
1
8
Sketch
62
5
0
VERTEX
8
Sketch
10
-12.2
20
14.51
0
VERTEX
8
Sketch
10
-12
20
14.71
0
SEQEND
0
POINT
8
Sketch
62
5
10
-12.4
20
13.31
0
POLYLINE
66
1
8
Sketch
62
5
0
VERTEX
8
Sketch
10
-2.08
20
-1.19
0
VERTEX
8
Sketch
10
-3.34
20
-4.01
0
SEQEND
0
POLYLINE
66
1
8
Sketch
62
5
0
VERTEX
8
Sketch
10
-3.1
20
-1.07
0
VERTEX
8
Sketch
10
-3.28
20
-1.67
0
VERTEX
8
Sketch
10
-3.4
20
-1.85
0
VERTEX
8
Sketch
10
-4.12
20
-3.95
0
VERTEX
8
Sketch
10
-4.42
20
-4.61
0
SEQEND
0
POLYLINE
66
1
8
Sketch
62
5
0
VERTEX
8
Sketch
10
-0.64
20
0.31
0
VERTEX
8
Sketch
10
-1.36
20
-1.73
0
VERTEX
8
Sketch
10
-2.38
20
-4.43
0
VERTEX
8
Sketch
10
-2.86
20
-5.93
0
VERTEX
8
Sketch
10
-2.98
20
-6.29
0
VERTEX
8
Sketch
10
-3.16
20
-6.89
0
SEQEND
0
POLYLINE
66
1
8
Sketch
62
5
0
VERTEX
8
Sketch
10
0.26
20
-0.41
0
VERTEX
8
Sketch
10
-0.76
20
-3.89
0
VERTEX
8
Sketch
10
-0.88
20
-4.43
0
VERTEX
8
Sketch
10
-1.18
20
-5.15
0
VERTEX
8
Sketch
10
-1.66
20
-6.83
0
SEQEND
0
POLYLINE
66
1
8
Sketch
62
5
0
VERTEX
8
Sketch
10
-0.28
20
-1.19
0
VERTEX
8
Sketch
10
-0.16
20
-1.31
0
VERTEX
8
Sketch
10
-0.1
20
-1.07
0
SEQEND
0
POLYLINE
66
1
8
Sketch
62
5
0
VERTEX
8
Sketch
10
2.06
20
-3.05
0
VERTEX
8
Sketch
10
2
20
-3.59
0
VERTEX
8
Sketch
10
1.76
20
-4.55
0
VERTEX
8
Sketch
10
1.58
20
-6.53
0
SEQEND
0
POLYLINE
66
1
8
Sketch
62
5
0
VERTEX
8
Sketch
10
1.34
20
-1.49
0
VERTEX
8
Sketch
10
1.16
20
-2.09
0
VERTEX
8
Sketch
10
0.92
20
-2.87
0
VERTEX
8
Sketch
10
0.56
20
-4.43
0
SEQEND
0
POLYLINE
66
1
8
Sketch
62
5
0
VERTEX
8
Sketch
10
26.24
20
-33.47
0
VERTEX
8
Sketch
10
26.3
20
-33.71
0
VERTEX
8
Sketch
10
26.3
20
-34.91
0
SEQEND
0
POLYLINE
66
1
8
Sketch
62
5
0
VERTEX
8
Sketch
10
25.46
20
-32.21
0
VERTEX
8
Sketch
10
25.52
20
-32.45
0
VERTEX
8
Sketch
10
25.4
20
-33.41
0
VERTEX
8
Sketch
10
25.16
20
-34.37
0
VERTEX
8
Sketch
10
25.16
20
-35.09
0
VERTEX
8
Sketch
10
25.1
20
-35.51
0
VERTEX
8
Sketch
10
25.1
20
-35.69
0
VERTEX
8
Sketch
10
25.04
20
-35.99
0
VERTEX
8
Sketch
10
25.04
20
-36.41
0
VERTEX
8
Sketch
10
24.98
20
-36.53
0
VERTEX
8
Sketch
10
25.04
20
-36.71
0
VERTEX
8
Sketch
10
24.98
20
-36.83
0
VERTEX
8
Sketch
10
25.04
20
-37.13
0
VERTEX
8
Sketch
10
24.98
20
-37.43
0
VERTEX
8
Sketch
10
24.98
20
-37.67
0
VERTEX
8
Sketch
10
24.92
20
-37.91
0
VERTEX
8
Sketch
10
24.92
20
-38.21
0
VERTEX
8
Sketch
10
24.8
20
-38.57
0
VERTEX
8
Sketch
10
24.8
20
-38.87
0
VERTEX
8
Sketch
10
24.68
20
-39.29
0
SEQEND
0
POLYLINE
66
1
8
Sketch
62
5
0
VERTEX
8
Sketch
10
23.72
20
-30.05
0
VERTEX
8
Sketch
10
24.38
20
-31.19
0
VERTEX
8
Sketch
10
24.2
20
-31.97
0
VERTEX
8
Sketch
10
24.02
20
-33.23
0
VERTEX
8
Sketch
10
23.78
20
-34.01
0
VERTEX
8
Sketch
10
23.78
20
-34.19
0
VERTEX
8
Sketch
10
23.66
20
-34.73
0
VERTEX
8
Sketch
10
23.66
20
-34.97
0
VERTEX
8
Sketch
10
23.54
20
-35.39
0
VERTEX
8
Sketch
10
23.54
20
-35.63
0
VERTEX
8
Sketch
10
23.42
20
-36.47
0
VERTEX
8
Sketch
10
23.36
20
-36.71
0
VERTEX
8
Sketch
10
23.36
20
-37.25
0
VERTEX
8
Sketch
10
23.24
20
-37.67
0
SEQEND
0
POLYLINE
66
1
8
Sketch
62
5
0
VERTEX
8
Sketch
10
24.2
20
-31.25
0
VERTEX
8
Sketch
10
24.26
20
-31.13
0
SEQEND
0
POLYLINE
66
1
8
Sketch
62
5
0
VERTEX
8
Sketch
10
23.3
20
-29.33
0
VERTEX
8
Sketch
10
23.3
20
-30.65
0
VERTEX
8
Sketch
10
23.12
20
-32.09
0
VERTEX
8
Sketch
10
22.88
20
-33.05
0
VERTEX
8
Sketch
10
22.76
20
-33.53
0
VERTEX
8
Sketch
10
22.52
20
-34.31
0
VERTEX
8
Sketch
10
22.52
20
-34.49
0
VERTEX
8
Sketch
10
22.4
20
-35.03
0
VERTEX
8
Sketch
10
22.28
20
-35.81
0
VERTEX
8
Sketch
10
22.34
20
-36.11
0
VERTEX
8
Sketch
10
22.28
20
-36.35
0
VERTEX
8
Sketch
10
22.28
20
-36.71
0
VERTEX
8
Sketch
10
22.22
20
-36.95
0
VERTEX
8
Sketch
10
22.22
20
-37.07
0
SEQEND
0
POLYLINE
66
1
8
Sketch
62
5
0
VERTEX
8
Sketch
10
31.88
20
-45.17
0
VERTEX
8
Sketch
10
31.94
20
-45.41
0
VERTEX
8
Sketch
10
31.88
20
-45.53
0
SEQEND
0
POLYLINE
66
1
8
Sketch
62
5
0
VERTEX
8
Sketch
10
33.5
20
-45.23
0
VERTEX
8
Sketch
10
33.74
20
-46.07
0
VERTEX
8
Sketch
10
33.74
20
-46.61
0
VERTEX
8
Sketch
10
33.68
20
-46.85
0
VERTEX
8
Sketch
10
33.68
20
-47.33
0
SEQEND
0
POLYLINE
66
1
8
Sketch
62
5
0
VERTEX
8
Sketch
10
38.24
20
-52.13
0
VERTEX
8
Sketch
10
38.24
20
-54.05
0
VERTEX
8
Sketch
10
38.18
20
-54.29
0
VERTEX
8
Sketch
10
38.24
20
-54.53
0
VERTEX
8
Sketch
10
38.24
20
-54.65
0
VERTEX
8
Sketch
10
38.12
20
-54.53
0
SEQEND
0
POLYLINE
66
1
8
Sketch
62
5
0
VERTEX
8
Sketch
10
37.16
20
-51.41
0
VERTEX
8
Sketch
10
37.04
20
-51.95
0
VERTEX
8
Sketch
10
37.04
20
-52.97
0
VERTEX
8
Sketch
10
37.1
20
-53.45
0
VERTEX
8
Sketch
10
37.04
20
-53.69
0
SEQEND
0
POLYLINE
66
1
8
Sketch
62
5
0
VERTEX
8
Sketch
10
35.78
20
-47.15
0
VERTEX
8
Sketch
10
35.84
20
-47.03
0
VERTEX
8
Sketch
10
35.84
20
-47.03
0
VERTEX
8
Sketch
10
35.96
20
-47.93
0
VERTEX
8
Sketch
10
35.9
20
-48.11
0
VERTEX
8
Sketch
10
35.96
20
-48.47
0
VERTEX
8
Sketch
10
35.9
20
-49.13
0
VERTEX
8
Sketch
10
35.9
20
-50.09
0
VERTEX
8
Sketch
10
35.78
20
-50.69
0
VERTEX
8
Sketch
10
35.84
20
-51.05
0
SEQEND
0
POLYLINE
66
1
8
Sketch
62
5
0
VERTEX
8
Sketch
10
34.34
20
-46.67
0
VERTEX
8
Sketch
10
34.4
20
-46.91
0
VERTEX
8
Sketch
10
34.34
20
-47.15
0
VERTEX
8
Sketch
10
34.4
20
-47.39
0
VERTEX
8
Sketch
10
34.34
20
-47.81
0
VERTEX
8
Sketch
10
34.34
20
-48.35
0
VERTEX
8
Sketch
10
34.28
20
-48.59
0
VERTEX
8
Sketch
10
34.28
20
-49.07
0
SEQEND
0
POINT
8
Sketch
62
5
10
52.19
20
-43.68
0
POLYLINE
66
1
8
Sketch
62
5
0
VERTEX
8
Sketch
10
63.71
20
-53.4
0
VERTEX
8
Sketch
10
63.39
20
-53.92
0
SEQEND
0
POLYLINE
66
1
8
Sketch
62
5
0
VERTEX
8
Sketch
10
63.83
20
-52.48
0
VERTEX
8
Sketch
10
63.27
20
-53.04
0
VERTEX
8
Sketch
10
62.99
20
-53.44
0
VERTEX
8
Sketch
10
62.71
20
-53.76
0
VERTEX
8
Sketch
10
62.43
20
-54.16
0
SEQEND
0
POLYLINE
66
1
8
Sketch
62
5
0
VERTEX
8
Sketch
10
63.27
20
-52.16
0
VERTEX
8
Sketch
10
63.11
20
-52.28
0
VERTEX
8
Sketch
10
62.47
20
-53.12
0
VERTEX
8
Sketch
10
61.75
20
-53.84
0
VERTEX
8
Sketch
10
61.39
20
-54.36
0
VERTEX
8
Sketch
10
61.35
20
-54.48
0
SEQEND
0
POLYLINE
66
1
8
Sketch
62
5
0
VERTEX
8
Sketch
10
63.11
20
-52.04
0
VERTEX
8
Sketch
10
62.99
20
-52.16
0
VERTEX
8
Sketch
10
62.87
20
-52.32
0
SEQEND
0
POLYLINE
66
1
8
Sketch
62
5
0
VERTEX
8
Sketch
10
63.91
20
-51.92
0
VERTEX
8
Sketch
10
63.67
20
-52.16
0
VERTEX
8
Sketch
10
63.35
20
-52.52
0
SEQEND
0
POLYLINE
66
1
8
Sketch
62
5
0
VERTEX
8
Sketch
10
63.31
20
-52
0
VERTEX
8
Sketch
10
63.31
20
-51.88
0
VERTEX
8
Sketch
10
63.11
20
-51.96
0
VERTEX
8
Sketch
10
62.87
20
-52.24
0
SEQEND
0
POLYLINE
66
1
8
Sketch
62
5
0
VERTEX
8
Sketch
10
62.51
20
-51.92
0
VERTEX
8
Sketch
10
61.87
20
-52.64
0
VERTEX
8
Sketch
10
61.75
20
-52.72
0
VERTEX
8
Sketch
10
61.39
20
-53.24
0
SEQEND
0
POLYLINE
66
1
8
Sketch
62
5
0
VERTEX
8
Sketch
10
61.63
20
-52.08
0
VERTEX
8
Sketch
10
61.31
20
-52.52
0
VERTEX
8
Sketch
10
60.95
20
-52.88
0
VERTEX
8
Sketch
10
60.67
20
-53.36
0
SEQEND
0
POLYLINE
66
1
8
Sketch
62
5
0
VERTEX
8
Sketch
10
60.91
20
-52.16
0
VERTEX
8
Sketch
10
60.27
20
-52.84
0
VERTEX
8
Sketch
10
59.91
20
-53.36
0
VERTEX
8
Sketch
10
59.87
20
-53.44
0
SEQEND
0
POLYLINE
66
1
8
Sketch
62
5
0
VERTEX
8
Sketch
10
60.43
20
-51.76
0
VERTEX
8
Sketch
10
60.43
20
-51.84
0
VERTEX
8
Sketch
10
59.67
20
-52.6
0
VERTEX
8
Sketch
10
59.39
20
-52.96
0
VERTEX
8
Sketch
10
59.27
20
-53.24
0
SEQEND
0
POLYLINE
66
1
8
Sketch
62
5
0
VERTEX
8
Sketch
10
59.79
20
-51.88
0
VERTEX
8
Sketch
10
58.95
20
-52.76
0
VERTEX
8
Sketch
10
58.59
20
-53.28
0
VERTEX
8
Sketch
10
58.55
20
-53.36
0
SEQEND
0
POLYLINE
66
1
8
Sketch
62
5
0
VERTEX
8
Sketch
10
59.31
20
-51.68
0
VERTEX
8
Sketch
10
58.47
20
-52.44
0
VERTEX
8
Sketch
10
57.99
20
-53.04
0
SEQEND
0
POINT
8
Sketch
62
0
10
86.36
20
-67.79
0
POINT
8
Sketch
62
0
10
71.84
20
-68.51
0
POINT
8
Sketch
62
0
10
48.26
20
11.46
0
POLYLINE
66
1
8
Sketch
62
0
0
VERTEX
8
Sketch
10
48.11
20
12.21
0
VERTEX
8
Sketch
10
49.46
20
10.41
0
SEQEND
0
POLYLINE
66
1
8
Sketch
62
5
0
VERTEX
8
Sketch
10
22.248
20
-12.564
0
VERTEX
8
Sketch
10
22.08
20
-12.704
0
VERTEX
8
Sketch
10
22.01
20
-12.746
0
SEQEND
0
POLYLINE
66
1
8
Sketch
62
5
0
VERTEX
8
Sketch
10
22.276
20
-12.074
0
VERTEX
8
Sketch
10
22.15
20
-12.186
0
VERTEX
8
Sketch
10
21.898
20
-12.424
0
VERTEX
8
Sketch
10
21.744
20
-12.592
0
SEQEND
0
POLYLINE
66
1
8
Sketch
62
5
0
VERTEX
8
Sketch
10
22.206
20
-11.346
0
VERTEX
8
Sketch
10
21.898
20
-11.738
0
VERTEX
8
Sketch
10
21.772
20
-11.934
0
VERTEX
8
Sketch
10
21.674
20
-12.13
0
VERTEX
8
Sketch
10
21.478
20
-12.438
0
VERTEX
8
Sketch
10
21.394
20
-12.536
0
VERTEX
8
Sketch
10
21.282
20
-12.676
0
VERTEX
8
Sketch
10
21.268
20
-12.718
0
VERTEX
8
Sketch
10
21.24
20
-12.732
0
SEQEND
0
POLYLINE
66
1
8
Sketch
62
5
0
VERTEX
8
Sketch
10
22.22
20
-10.73
0
VERTEX
8
Sketch
10
21.94
20
-11.136
0
VERTEX
8
Sketch
10
21.66
20
-11.472
0
VERTEX
8
Sketch
10
21.506
20
-11.766
0
VERTEX
8
Sketch
10
21.436
20
-11.906
0
VERTEX
8
Sketch
10
21.268
20
-12.116
0
VERTEX
8
Sketch
10
21.044
20
-12.382
0
VERTEX
8
Sketch
10
20.82
20
-12.592
0
VERTEX
8
Sketch
10
20.806
20
-12.634
0
VERTEX
8
Sketch
10
20.708
20
-12.746
0
VERTEX
8
Sketch
10
20.694
20
-12.774
0
SEQEND
0
POLYLINE
66
1
8
Sketch
62
5
0
VERTEX
8
Sketch
10
22.108
20
-10.422
0
VERTEX
8
Sketch
10
22.052
20
-10.506
0
VERTEX
8
Sketch
10
21.996
20
-10.618
0
VERTEX
8
Sketch
10
21.828
20
-10.912
0
VERTEX
8
Sketch
10
21.786
20
-11.01
0
VERTEX
8
Sketch
10
21.646
20
-11.192
0
VERTEX
8
Sketch
10
21.492
20
-11.36
0
VERTEX
8
Sketch
10
21.422
20
-11.458
0
VERTEX
8
Sketch
10
21.366
20
-11.5
0
VERTEX
8
Sketch
10
21.086
20
-11.906
0
VERTEX
8
Sketch
10
20.82
20
-12.214
0
VERTEX
8
Sketch
10
20.54
20
-12.564
0
VERTEX
8
Sketch
10
20.414
20
-12.704
0
VERTEX
8
Sketch
10
20.4
20
-12.746
0
VERTEX
8
Sketch
10
20.316
20
-12.872
0
VERTEX
8
Sketch
10
20.246
20
-12.998
0
VERTEX
8
Sketch
10
20.176
20
-13.082
0
SEQEND
0
POLYLINE
66
1
8
Sketch
62
5
0
VERTEX
8
Sketch
10
21.842
20
-10.338
0
VERTEX
8
Sketch
10
21.814
20
-10.352
0
VERTEX
8
Sketch
10
21.73
20
-10.45
0
VERTEX
8
Sketch
10
21.604
20
-10.646
0
VERTEX
8
Sketch
10
21.52
20
-10.814
0
VERTEX
8
Sketch
10
21.128
20
-11.388
0
VERTEX
8
Sketch
10
21.002
20
-11.556
0
VERTEX
8
Sketch
10
20.75
20
-11.836
0
VERTEX
8
Sketch
10
20.47
20
-12.102
0
VERTEX
8
Sketch
10
20.442
20
-12.144
0
VERTEX
8
Sketch
10
20.4
20
-12.172
0
VERTEX
8
Sketch
10
20.064
20
-12.606
0
VERTEX
8
Sketch
10
19.784
20
-12.9
0
VERTEX
8
Sketch
10
19.686
20
-13.04
0
SEQEND
0
POLYLINE
66
1
8
Sketch
62
5
0
VERTEX
8
Sketch
10
21.436
20
-10.324
0
VERTEX
8
Sketch
10
21.436
20
-10.352
0
VERTEX
8
Sketch
10
21.324
20
-10.52
0
VERTEX
8
Sketch
10
21.114
20
-10.73
0
VERTEX
8
Sketch
10
20.89
20
-10.982
0
VERTEX
8
Sketch
10
20.61
20
-11.22
0
VERTEX
8
Sketch
10
20.26
20
-11.612
0
VERTEX
8
Sketch
10
20.05
20
-11.962
0
VERTEX
8
Sketch
10
20.022
20
-11.99
0
VERTEX
8
Sketch
10
19.98
20
-12.074
0
VERTEX
8
Sketch
10
19.798
20
-12.27
0
VERTEX
8
Sketch
10
19.63
20
-12.396
0
VERTEX
8
Sketch
10
19.602
20
-12.396
0
VERTEX
8
Sketch
10
19.546
20
-12.466
0
VERTEX
8
Sketch
10
19.448
20
-12.522
0
VERTEX
8
Sketch
10
19.42
20
-12.564
0
VERTEX
8
Sketch
10
19.35
20
-12.62
0
VERTEX
8
Sketch
10
19.21
20
-12.788
0
SEQEND
0
POLYLINE
66
1
8
Sketch
62
5
0
VERTEX
8
Sketch
10
19.462
20
-11.164
0
VERTEX
8
Sketch
10
19.518
20
-11.5
0
VERTEX
8
Sketch
10
19.504
20
-11.794
0
VERTEX
8
Sketch
10
19.462
20
-11.976
0
VERTEX
8
Sketch
10
19.406
20
-12.116
0
VERTEX
8
Sketch
10
19.308
20
-12.256
0
VERTEX
8
Sketch
10
19.266
20
-12.284
0
VERTEX
8
Sketch
10
19.028
20
-12.62
0
VERTEX
8
Sketch
10
18.944
20
-12.732
0
SEQEND
0
POLYLINE
66
1
8
Sketch
62
5
0
VERTEX
8
Sketch
10
20.778
20
-10.268
0
VERTEX
8
Sketch
10
20.708
20
-10.492
0
VERTEX
8
Sketch
10
20.54
20
-10.758
0
VERTEX
8
Sketch
10
20.344
20
-11.024
0
VERTEX
8
Sketch
10
20.064
20
-11.304
0
VERTEX
8
Sketch
10
20.022
20
-11.332
0
VERTEX
8
Sketch
10
19.966
20
-11.346
0
SEQEND
0
POLYLINE
66
1
8
Sketch
62
5
0
VERTEX
8
Sketch
10
20.33
20
-10.38
0
VERTEX
8
Sketch
10
20.302
20
-10.45
0
VERTEX
8
Sketch
10
20.218
20
-10.548
0
VERTEX
8
Sketch
10
20.176
20
-10.576
0
VERTEX
8
Sketch
10
19.98
20
-10.8
0
VERTEX
8
Sketch
10
19.882
20
-10.912
0
VERTEX
8
Sketch
10
19.462
20
-11.304
0
VERTEX
8
Sketch
10
19.098
20
-11.78
0
VERTEX
8
Sketch
10
18.972
20
-11.948
0
VERTEX
8
Sketch
10
18.86
20
-12.116
0
VERTEX
8
Sketch
10
18.804
20
-12.228
0
VERTEX
8
Sketch
10
18.678
20
-12.368
0
SEQEND
0
POLYLINE
66
1
8
Sketch
62
5
0
VERTEX
8
Sketch
10
19.91
20
-10.394
0
VERTEX
8
Sketch
10
19.658
20
-10.702
0
VERTEX
8
Sketch
10
19.616
20
-10.73
0
VERTEX
8
Sketch
10
19.532
20
-10.828
0
VERTEX
8
Sketch
10
19.462
20
-10.884
0
VERTEX
8
Sketch
10
19.392
20
-10.968
0
VERTEX
8
Sketch
10
19.35
20
-10.996
0
VERTEX
8
Sketch
10
19.042
20
-11.346
0
VERTEX
8
Sketch
10
19.014
20
-11.388
0
VERTEX
8
Sketch
10
18.972
20
-11.402
0
VERTEX
8
Sketch
10
18.776
20
-11.64
0
VERTEX
8
Sketch
10
18.678
20
-11.808
0
VERTEX
8
Sketch
10
18.58
20
-11.92
0
VERTEX
8
Sketch
10
18.454
20
-12.074
0
VERTEX
8
Sketch
10
18.44
20
-12.116
0
VERTEX
8
Sketch
10
18.356
20
-12.186
0
SEQEND
0
POLYLINE
66
1
8
Sketch
62
5
0
VERTEX
8
Sketch
10
19.476
20
-10.296
0
VERTEX
8
Sketch
10
19.476
20
-10.324
0
VERTEX
8
Sketch
10
19.392
20
-10.436
0
VERTEX
8
Sketch
10
19.322
20
-10.492
0
VERTEX
8
Sketch
10
19.126
20
-10.716
0
VERTEX
8
Sketch
10
18.902
20
-10.968
0
VERTEX
8
Sketch
10
18.832
20
-11.066
0
VERTEX
8
Sketch
10
18.692
20
-11.234
0
VERTEX
8
Sketch
10
18.622
20
-11.29
0
VERTEX
8
Sketch
10
18.552
20
-11.374
0
VERTEX
8
Sketch
10
18.538
20
-11.416
0
VERTEX
8
Sketch
10
18.454
20
-11.5
0
VERTEX
8
Sketch
10
18.44
20
-11.542
0
VERTEX
8
Sketch
10
18.328
20
-11.654
0
SEQEND
0
POLYLINE
66
1
8
Sketch
62
5
0
VERTEX
8
Sketch
10
18.986
20
-10.212
0
VERTEX
8
Sketch
10
18.888
20
-10.394
0
VERTEX
8
Sketch
10
18.692
20
-10.618
0
VERTEX
8
Sketch
10
18.566
20
-10.758
0
VERTEX
8
Sketch
10
18.496
20
-10.856
0
VERTEX
8
Sketch
10
18.468
20
-10.884
0
VERTEX
8
Sketch
10
18.426
20
-10.898
0
VERTEX
8
Sketch
10
18.37
20
-10.982
0
VERTEX
8
Sketch
10
18.356
20
-11.024
0
VERTEX
8
Sketch
10
18.286
20
-11.108
0
VERTEX
8
Sketch
10
18.258
20
-11.178
0
VERTEX
8
Sketch
10
18.188
20
-11.262
0
SEQEND
0
POLYLINE
66
1
8
Sketch
62
5
0
VERTEX
8
Sketch
10
18.426
20
-10.268
0
VERTEX
8
Sketch
10
18.426
20
-10.296
0
VERTEX
8
Sketch
10
18.244
20
-10.492
0
VERTEX
8
Sketch
10
18.216
20
-10.506
0
SEQEND
0
POLYLINE
66
1
8
Sketch
62
32
0
VERTEX
8
Sketch
10
22.192
20
-8.196
0
VERTEX
8
Sketch
10
22.164
20
-8.182
0
VERTEX
8
Sketch
10
22.122
20
-8.182
0
VERTEX
8
Sketch
10
22.066
20
-8.154
0
VERTEX
8
Sketch
10
22.01
20
-8.168
0
VERTEX
8
Sketch
10
21.926
20
-8.14
0
VERTEX
8
Sketch
10
21.828
20
-8.14
0
VERTEX
8
Sketch
10
21.716
20
-8.126
0
VERTEX
8
Sketch
10
21.646
20
-8.126
0
VERTEX
8
Sketch
10
21.618
20
-8.112
0
VERTEX
8
Sketch
10
21.492
20
-8.112
0
VERTEX
8
Sketch
10
21.422
20
-8.098
0
VERTEX
8
Sketch
10
21.394
20
-8.112
0
VERTEX
8
Sketch
10
21.338
20
-8.098
0
VERTEX
8
Sketch
10
21.31
20
-8.098
0
VERTEX
8
Sketch
10
21.254
20
-8.07
0
VERTEX
8
Sketch
10
21.226
20
-8.084
0
VERTEX
8
Sketch
10
21.198
20
-8.056
0
VERTEX
8
Sketch
10
21.17
20
-8.07
0
VERTEX
8
Sketch
10
21.114
20
-8.042
0
VERTEX
8
Sketch
10
21.086
20
-8.042
0
VERTEX
8
Sketch
10
21.058
20
-8.028
0
VERTEX
8
Sketch
10
20.988
20
-8.042
0
VERTEX
8
Sketch
10
20.932
20
-8.014
0
VERTEX
8
Sketch
10
20.904
20
-8.028
0
VERTEX
8
Sketch
10
20.848
20
-8.014
0
VERTEX
8
Sketch
10
20.764
20
-8.014
0
VERTEX
8
Sketch
10
20.708
20
-8.028
0
VERTEX
8
Sketch
10
20.596
20
-8
0
VERTEX
8
Sketch
10
20.442
20
-8
0
VERTEX
8
Sketch
10
20.386
20
-7.972
0
VERTEX
8
Sketch
10
20.302
20
-7.972
0
VERTEX
8
Sketch
10
20.246
20
-8
0
VERTEX
8
Sketch
10
20.176
20
-7.986
0
VERTEX
8
Sketch
10
20.148
20
-7.986
0
VERTEX
8
Sketch
10
20.12
20
-8
0
VERTEX
8
Sketch
10
20.022
20
-7.986
0
VERTEX
8
Sketch
10
19.868
20
-7.986
0
VERTEX
8
Sketch
10
19.798
20
-8
0
VERTEX
8
Sketch
10
19.574
20
-8
0
VERTEX
8
Sketch
10
19.49
20
-8.042
0
VERTEX
8
Sketch
10
19.434
20
-8.028
0
VERTEX
8
Sketch
10
19.364
20
-8.042
0
VERTEX
8
Sketch
10
19.308
20
-8.028
0
VERTEX
8
Sketch
10
19.238
20
-8.056
0
VERTEX
8
Sketch
10
19.21
20
-8.056
0
VERTEX
8
Sketch
10
19.182
20
-8.042
0
VERTEX
8
Sketch
10
19.084
20
-8.042
0
VERTEX
8
Sketch
10
19.028
20
-8.028
0
VERTEX
8
Sketch
10
18.972
20
-8.056
0
VERTEX
8
Sketch
10
18.846
20
-8.07
0
VERTEX
8
Sketch
10
18.762
20
-8.042
0
VERTEX
8
Sketch
10
18.734
20
-8.07
0
VERTEX
8
Sketch
10
18.664
20
-8.07
0
VERTEX
8
Sketch
10
18.608
20
-8.056
0
VERTEX
8
Sketch
10
18.58
20
-8.056
0
VERTEX
8
Sketch
10
18.524
20
-8.084
0
VERTEX
8
Sketch
10
18.454
20
-8.07
0
VERTEX
8
Sketch
10
18.426
20
-8.07
0
VERTEX
8
Sketch
10
18.37
20
-8.098
0
VERTEX
8
Sketch
10
18.328
20
-8.084
0
VERTEX
8
Sketch
10
18.3
20
-8.112
0
VERTEX
8
Sketch
10
18.272
20
-8.084
0
VERTEX
8
Sketch
10
18.244
20
-8.084
0
VERTEX
8
Sketch
10
18.216
20
-8.112
0
VERTEX
8
Sketch
10
18.188
20
-8.112
0
VERTEX
8
Sketch
10
18.104
20
-8.154
0
VERTEX
8
Sketch
10
18.076
20
-8.14
0
VERTEX
8
Sketch
10
18.076
20
-8.21
0
VERTEX
8
Sketch
10
18.104
20
-8.308
0
VERTEX
8
Sketch
10
18.104
20
-8.336
0
VERTEX
8
Sketch
10
18.132
20
-8.392
0
VERTEX
8
Sketch
10
18.132
20
-8.42
0
VERTEX
8
Sketch
10
18.146
20
-8.476
0
VERTEX
8
Sketch
10
18.118
20
-8.546
0
VERTEX
8
Sketch
10
18.118
20
-8.574
0
VERTEX
8
Sketch
10
18.076
20
-8.658
0
VERTEX
8
Sketch
10
18.118
20
-8.77
0
VERTEX
8
Sketch
10
18.118
20
-8.798
0
VERTEX
8
Sketch
10
18.16
20
-8.896
0
VERTEX
8
Sketch
10
18.16
20
-8.952
0
VERTEX
8
Sketch
10
18.132
20
-9.05
0
VERTEX
8
Sketch
10
18.132
20
-9.078
0
VERTEX
8
Sketch
10
18.118
20
-9.134
0
VERTEX
8
Sketch
10
18.118
20
-9.19
0
SEQEND
0
POLYLINE
66
1
8
Sketch
62
32
0
VERTEX
8
Sketch
10
22.234
20
-10.044
0
VERTEX
8
Sketch
10
22.234
20
-10.016
0
VERTEX
8
Sketch
10
22.22
20
-9.96
0
VERTEX
8
Sketch
10
22.22
20
-9.918
0
VERTEX
8
Sketch
10
22.164
20
-9.792
0
VERTEX
8
Sketch
10
22.164
20
-9.764
0
VERTEX
8
Sketch
10
22.192
20
-9.68
0
VERTEX
8
Sketch
10
22.178
20
-9.61
0
VERTEX
8
Sketch
10
22.178
20
-9.582
0
VERTEX
8
Sketch
10
22.22
20
-9.498
0
VERTEX
8
Sketch
10
22.22
20
-9.47
0
VERTEX
8
Sketch
10
22.234
20
-9.414
0
VERTEX
8
Sketch
10
22.234
20
-9.386
0
VERTEX
8
Sketch
10
22.248
20
-9.33
0
VERTEX
8
Sketch
10
22.248
20
-9.302
0
VERTEX
8
Sketch
10
22.262
20
-9.246
0
VERTEX
8
Sketch
10
22.262
20
-9.204
0
VERTEX
8
Sketch
10
22.276
20
-9.148
0
VERTEX
8
Sketch
10
22.276
20
-8.924
0
VERTEX
8
Sketch
10
22.29
20
-8.868
0
VERTEX
8
Sketch
10
22.29
20
-8.84
0
VERTEX
8
Sketch
10
22.304
20
-8.784
0
VERTEX
8
Sketch
10
22.304
20
-8.742
0
VERTEX
8
Sketch
10
22.318
20
-8.686
0
VERTEX
8
Sketch
10
22.318
20
-8.252
0
VERTEX
8
Sketch
10
22.29
20
-8.14
0
VERTEX
8
Sketch
10
22.29
20
-8.112
0
SEQEND
0
POLYLINE
66
1
8
Sketch
62
32
0
VERTEX
8
Sketch
10
18.188
20
-10.184
0
VERTEX
8
Sketch
10
18.188
20
-10.128
0
VERTEX
8
Sketch
10
18.174
20
-10.072
0
VERTEX
8
Sketch
10
18.174
20
-10.044
0
VERTEX
8
Sketch
10
18.16
20
-9.988
0
VERTEX
8
Sketch
10
18.16
20
-9.96
0
VERTEX
8
Sketch
10
18.146
20
-9.932
0
VERTEX
8
Sketch
10
18.146
20
-9.806
0
VERTEX
8
Sketch
10
18.132
20
-9.75
0
VERTEX
8
Sketch
10
18.146
20
-9.68
0
VERTEX
8
Sketch
10
18.146
20
-9.596
0
VERTEX
8
Sketch
10
18.16
20
-9.54
0
VERTEX
8
Sketch
10
18.16
20
-9.484
0
VERTEX
8
Sketch
10
18.174
20
-9.428
0
VERTEX
8
Sketch
10
18.174
20
-9.092
0
VERTEX
8
Sketch
10
18.16
20
-9.036
0
VERTEX
8
Sketch
10
18.174
20
-9.008
0
SEQEND
0
POINT
8
Sketch
62
5
10
22.234
20
-10.072
0
POLYLINE
66
1
8
Sketch
62
5
0
VERTEX
8
Sketch
10
22.136
20
-10.1
0
VERTEX
8
Sketch
10
22.108
20
-10.086
0
VERTEX
8
Sketch
10
22.094
20
-10.058
0
VERTEX
8
Sketch
10
22.122
20
-10.086
0
SEQEND
0
POLYLINE
66
1
8
Sketch
62
5
0
VERTEX
8
Sketch
10
18.244
20
-10.142
0
VERTEX
8
Sketch
10
18.272
20
-10.142
0
VERTEX
8
Sketch
10
18.3
20
-10.156
0
VERTEX
8
Sketch
10
18.328
20
-10.142
0
VERTEX
8
Sketch
10
18.426
20
-10.142
0
VERTEX
8
Sketch
10
18.454
20
-10.156
0
VERTEX
8
Sketch
10
18.566
20
-10.156
0
VERTEX
8
Sketch
10
18.622
20
-10.142
0
VERTEX
8
Sketch
10
18.748
20
-10.142
0
VERTEX
8
Sketch
10
18.776
20
-10.156
0
VERTEX
8
Sketch
10
18.874
20
-10.156
0
VERTEX
8
Sketch
10
19
20
-10.142
0
VERTEX
8
Sketch
10
19.028
20
-10.128
0
VERTEX
8
Sketch
10
19.098
20
-10.142
0
VERTEX
8
Sketch
10
19.196
20
-10.142
0
VERTEX
8
Sketch
10
19.252
20
-10.128
0
VERTEX
8
Sketch
10
19.434
20
-10.156
0
VERTEX
8
Sketch
10
19.504
20
-10.156
0
VERTEX
8
Sketch
10
19.616
20
-10.198
0
VERTEX
8
Sketch
10
19.672
20
-10.198
0
VERTEX
8
Sketch
10
19.756
20
-10.24
0
VERTEX
8
Sketch
10
19.784
20
-10.24
0
VERTEX
8
Sketch
10
19.84
20
-10.254
0
VERTEX
8
Sketch
10
19.91
20
-10.254
0
VERTEX
8
Sketch
10
20.008
20
-10.282
0
VERTEX
8
Sketch
10
20.064
20
-10.268
0
VERTEX
8
Sketch
10
20.134
20
-10.268
0
VERTEX
8
Sketch
10
20.232
20
-10.24
0
VERTEX
8
Sketch
10
20.26
20
-10.24
0
VERTEX
8
Sketch
10
20.386
20
-10.184
0
VERTEX
8
Sketch
10
20.414
20
-10.156
0
VERTEX
8
Sketch
10
20.512
20
-10.156
0
VERTEX
8
Sketch
10
20.582
20
-10.128
0
VERTEX
8
Sketch
10
20.666
20
-10.128
0
VERTEX
8
Sketch
10
20.722
20
-10.114
0
VERTEX
8
Sketch
10
20.82
20
-10.114
0
VERTEX
8
Sketch
10
20.876
20
-10.1
0
VERTEX
8
Sketch
10
20.974
20
-10.1
0
VERTEX
8
Sketch
10
21.03
20
-10.114
0
VERTEX
8
Sketch
10
21.058
20
-10.114
0
VERTEX
8
Sketch
10
21.086
20
-10.1
0
VERTEX
8
Sketch
10
21.142
20
-10.128
0
VERTEX
8
Sketch
10
21.198
20
-10.128
0
VERTEX
8
Sketch
10
21.226
20
-10.114
0
VERTEX
8
Sketch
10
21.254
20
-10.128
0
VERTEX
8
Sketch
10
21.324
20
-10.114
0
VERTEX
8
Sketch
10
21.352
20
-10.114
0
VERTEX
8
Sketch
10
21.408
20
-10.128
0
VERTEX
8
Sketch
10
21.478
20
-10.128
0
VERTEX
8
Sketch
10
21.534
20
-10.114
0
VERTEX
8
Sketch
10
21.87
20
-10.114
0
VERTEX
8
Sketch
10
22.052
20
-10.058
0
VERTEX
8
Sketch
10
22.08
20
-10.044
0
VERTEX
8
Sketch
10
22.136
20
-10.058
0
VERTEX
8
Sketch
10
22.192
20
-10.044
0
VERTEX
8
Sketch
10
22.22
20
-10.044
0
VERTEX
8
Sketch
10
22.276
20
-10.072
0
SEQEND
0
LINE
8
Sketch
62
255
6
DASH
10
22.34
20
-9.63
11
9.542
21
-21.144
0
CIRCLE
8
Shots
62
1
10
22.34
20
-9.63
40
0.1
0
LINE
8
XSect
62
1
10
22.34
20
-9.63
11
18.194
21
-9.726
0
LINE
8
XSect
62
1
10
22.34
20
-9.63
11
21.986
21
-8.104
0
LINE
8
XSect
62
1
10
22.34
20
-9.63
11
22.332
21
-10.144
0
TEXT
8
Label
40
1
1
50.1
10
22.34
20
-9.63
0
POLYLINE
66
1
8
Sketch
62
5
0
VERTEX
8
Sketch
10
60.74
20
-71.73
0
VERTEX
8
Sketch
10
60.74
20
-72.33
0
VERTEX
8
Sketch
10
60.64
20
-72.83
0
VERTEX
8
Sketch
10
60.64
20
-73.53
0
VERTEX
8
Sketch
10
60.74
20
-73.93
0
VERTEX
8
Sketch
10
60.74
20
-76.33
0
SEQEND
0
POLYLINE
66
1
8
Sketch
62
5
0
VERTEX
8
Sketch
10
53.44
20
-64.43
0
VERTEX
8
Sketch
10
53.54
20
-64.93
0
VERTEX
8
Sketch
10
53.54
20
-65.53
0
VERTEX
8
Sketch
10
53.64
20
-66.33
0
VERTEX
8
Sketch
10
53.64
20
-68.73
0
VERTEX
8
Sketch
10
53.74
20
-69.23
0
VERTEX
8
Sketch
10
53.74
20
-71.53
0
SEQEND
0
POLYLINE
66
1
8
Sketch
62
5
0
VERTEX
8
Sketch
10
52.04
20
-62.53
0
VERTEX
8
Sketch
10
51.94
20
-62.93
0
VERTEX
8
Sketch
10
51.74
20
-64.73
0
VERTEX
8
Sketch
10
51.64
20
-67.43
0
VERTEX
8
Sketch
10
51.54
20
-67.73
0
VERTEX
8
Sketch
10
51.54
20
-70.03
0
VERTEX
8
Sketch
10
51.64
20
-70.73
0
VERTEX
8
Sketch
10
51.64
20
-70.93
0
SEQEND
0
POLYLINE
66
1
8
Sketch
62
5
0
VERTEX
8
Sketch
10
50.44
20
-60.03
0
VERTEX
8
Sketch
10
50.44
20
-61.43
0
VERTEX
8
Sketch
10
50.34
20
-62.03
0
VERTEX
8
Sketch
10
50.34
20
-65.73
0
VERTEX
8
Sketch
10
50.44
20
-66.13
0
VERTEX
8
Sketch
10
50.44
20
-66.73
0
VERTEX
8
Sketch
10
50.34
20
-67.13
0
VERTEX
8
Sketch
10
50.34
20
-67.83
0
VERTEX
8
Sketch
10
50.24
20
-68.23
0
SEQEND
0
POLYLINE
66
1
8
Sketch
62
5
0
VERTEX
8
Sketch
10
49.24
20
-58.33
0
VERTEX
8
Sketch
10
49.34
20
-58.83
0
VERTEX
8
Sketch
10
49.24
20
-59.03
0
VERTEX
8
Sketch
10
49.24
20
-59.93
0
VERTEX
8
Sketch
10
49.14
20
-60.13
0
VERTEX
8
Sketch
10
49.04
20
-61.33
0
VERTEX
8
Sketch
10
48.84
20
-62.63
0
VERTEX
8
Sketch
10
48.84
20
-64.63
0
VERTEX
8
Sketch
10
48.74
20
-65.13
0
VERTEX
8
Sketch
10
48.74
20
-66.43
0
SEQEND
0
POLYLINE
66
1
8
Sketch
62
5
0
VERTEX
8
Sketch
10
98.84
20
-74.93
0
VERTEX
8
Sketch
10
98.54
20
-75.73
0
VERTEX
8
Sketch
10
98.44
20
-76.13
0
VERTEX
8
Sketch
10
98.34
20
-76.43
0
SEQEND
0
POLYLINE
66
1
8
Sketch
62
5
0
VERTEX
8
Sketch
10
98.04
20
-72.53
0
VERTEX
8
Sketch
10
98.14
20
-72.93
0
VERTEX
8
Sketch
10
97.04
20
-74.83
0
VERTEX
8
Sketch
10
96.84
20
-75.33
0
VERTEX
8
Sketch
10
96.54
20
-75.73
0
VERTEX
8
Sketch
10
96.34
20
-76.23
0
SEQEND
0
POLYLINE
66
1
8
Sketch
62
5
0
VERTEX
8
Sketch
10
96.44
20
-72.73
0
VERTEX
8
Sketch
10
96.54
20
-72.93
0
VERTEX
8
Sketch
10
95.74
20
-74.03
0
VERTEX
8
Sketch
10
95.24
20
-74.83
0
VERTEX
8
Sketch
10
94.64
20
-75.83
0
VERTEX
8
Sketch
10
94.54
20
-76.13
0
SEQEND
0
POLYLINE
66
1
8
Sketch
62
5
0
VERTEX
8
Sketch
10
94.74
20
-72.63
0
VERTEX
8
Sketch
10
94.64
20
-73.03
0
VERTEX
8
Sketch
10
93.84
20
-74.33
0
VERTEX
8
Sketch
10
92.24
20
-76.23
0
SEQEND
0
POLYLINE
66
1
8
Sketch
62
5
0
VERTEX
8
Sketch
10
92.94
20
-72.23
0
VERTEX
8
Sketch
10
93.04
20
-72.73
0
VERTEX
8
Sketch
10
92.34
20
-74.23
0
VERTEX
8
Sketch
10
91.44
20
-75.53
0
VERTEX
8
Sketch
10
90.84
20
-76.33
0
SEQEND
0
POLYLINE
66
1
8
Sketch
62
5
0
VERTEX
8
Sketch
10
90.84
20
-72.23
0
VERTEX
8
Sketch
10
90.74
20
-72.73
0
VERTEX
8
Sketch
10
89.54
20
-74.73
0
VERTEX
8
Sketch
10
88.84
20
-75.63
0
VERTEX
8
Sketch
10
88.54
20
-76.03
0
SEQEND
0
POLYLINE
66
1
8
Sketch
62
5
0
VERTEX
8
Sketch
10
89.34
20
-72.53
0
VERTEX
8
Sketch
10
89.24
20
-72.93
0
VERTEX
8
Sketch
10
87.74
20
-75.23
0
SEQEND
0
POLYLINE
66
1
8
Sketch
62
5
0
VERTEX
8
Sketch
10
98.84
20
-72.03
0
VERTEX
8
Sketch
10
99.24
20
-73.73
0
VERTEX
8
Sketch
10
99.24
20
-74.33
0
VERTEX
8
Sketch
10
99.14
20
-74.73
0
VERTEX
8
Sketch
10
99.04
20
-75.13
0
VERTEX
8
Sketch
10
98.94
20
-75.53
0
VERTEX
8
Sketch
10
98.94
20
-75.93
0
VERTEX
8
Sketch
10
98.84
20
-76.43
0
VERTEX
8
Sketch
10
98.84
20
-77.03
0
SEQEND
0
POLYLINE
66
1
8
Sketch
62
5
0
VERTEX
8
Sketch
10
87.14
20
-72.33
0
VERTEX
8
Sketch
10
87.84
20
-73.33
0
VERTEX
8
Sketch
10
87.84
20
-73.63
0
VERTEX
8
Sketch
10
87.94
20
-74.03
0
VERTEX
8
Sketch
10
88.04
20
-74.93
0
VERTEX
8
Sketch
10
88.04
20
-75.53
0
VERTEX
8
Sketch
10
88.34
20
-76.13
0
VERTEX
8
Sketch
10
88.54
20
-76.23
0
SEQEND
0
POLYLINE
66
1
8
Sketch
62
5
0
VERTEX
8
Sketch
10
86.94
20
-71.73
0
VERTEX
8
Sketch
10
87.14
20
-71.73
0
VERTEX
8
Sketch
10
87.84
20
-72.13
0
VERTEX
8
Sketch
10
88.04
20
-72.03
0
VERTEX
8
Sketch
10
88.54
20
-72.23
0
VERTEX
8
Sketch
10
89.04
20
-72.23
0
VERTEX
8
Sketch
10
89.24
20
-72.13
0
VERTEX
8
Sketch
10
89.64
20
-72.23
0
VERTEX
8
Sketch
10
89.84
20
-72.23
0
VERTEX
8
Sketch
10
90.04
20
-72.03
0
VERTEX
8
Sketch
10
90.44
20
-72.13
0
VERTEX
8
Sketch
10
91.04
20
-72.03
0
VERTEX
8
Sketch
10
91.24
20
-72.13
0
VERTEX
8
Sketch
10
91.74
20
-71.93
0
VERTEX
8
Sketch
10
91.94
20
-72.03
0
VERTEX
8
Sketch
10
92.14
20
-71.93
0
VERTEX
8
Sketch
10
92.54
20
-72.03
0
VERTEX
8
Sketch
10
93.34
20
-72.13
0
VERTEX
8
Sketch
10
94.24
20
-72.23
0
VERTEX
8
Sketch
10
94.54
20
-72.23
0
VERTEX
8
Sketch
10
94.94
20
-72.33
0
VERTEX
8
Sketch
10
95.24
20
-72.33
0
VERTEX
8
Sketch
10
95.64
20
-72.23
0
VERTEX
8
Sketch
10
96.04
20
-72.23
0
VERTEX
8
Sketch
10
96.44
20
-72.33
0
VERTEX
8
Sketch
10
96.74
20
-72.33
0
VERTEX
8
Sketch
10
96.94
20
-72.43
0
VERTEX
8
Sketch
10
97.14
20
-72.33
0
VERTEX
8
Sketch
10
97.54
20
-72.33
0
VERTEX
8
Sketch
10
98.44
20
-72.03
0
SEQEND
0
POLYLINE
66
1
8
Sketch
62
32
0
VERTEX
8
Sketch
10
99.34
20
-71.73
0
VERTEX
8
Sketch
10
98.94
20
-71.13
0
VERTEX
8
Sketch
10
98.84
20
-70.73
0
VERTEX
8
Sketch
10
98.54
20
-70.13
0
VERTEX
8
Sketch
10
97.94
20
-69.63
0
VERTEX
8
Sketch
10
97.54
20
-69.53
0
VERTEX
8
Sketch
10
97.34
20
-69.63
0
VERTEX
8
Sketch
10
96.94
20
-69.53
0
VERTEX
8
Sketch
10
96.54
20
-69.63
0
VERTEX
8
Sketch
10
96.14
20
-69.53
0
VERTEX
8
Sketch
10
95.74
20
-69.63
0
VERTEX
8
Sketch
10
95.14
20
-69.73
0
VERTEX
8
Sketch
10
94.74
20
-69.63
0
VERTEX
8
Sketch
10
94.34
20
-69.53
0
VERTEX
8
Sketch
10
94.14
20
-69.43
0
VERTEX
8
Sketch
10
93.74
20
-69.53
0
VERTEX
8
Sketch
10
93.34
20
-69.43
0
VERTEX
8
Sketch
10
92.94
20
-69.33
0
VERTEX
8
Sketch
10
92.84
20
-68.93
0
VERTEX
8
Sketch
10
92.84
20
-68.03
0
VERTEX
8
Sketch
10
92.24
20
-67.63
0
VERTEX
8
Sketch
10
91.74
20
-68.23
0
VERTEX
8
Sketch
10
91.64
20
-68.63
0
VERTEX
8
Sketch
10
91.14
20
-69.43
0
VERTEX
8
Sketch
10
90.94
20
-69.33
0
VERTEX
8
Sketch
10
90.74
20
-69.53
0
VERTEX
8
Sketch
10
90.54
20
-69.43
0
VERTEX
8
Sketch
10
89.94
20
-69.63
0
VERTEX
8
Sketch
10
89.54
20
-69.63
0
VERTEX
8
Sketch
10
89.14
20
-69.73
0
VERTEX
8
Sketch
10
88.74
20
-69.83
0
VERTEX
8
Sketch
10
88.34
20
-69.93
0
VERTEX
8
Sketch
10
87.84
20
-70.73
0
VERTEX
8
Sketch
10
87.74
20
-71.53
0
VERTEX
8
Sketch
10
87.84
20
-71.93
0
SEQEND
0
LINE
8
Sketch
62
255
6
DASH
10
88.44
20
-70.33
11
71.548
21
-74.542
0
CIRCLE
8
Shots
62
1
10
88.44
20
-70.33
40
0.1
0
LINE
8
XSect
62
1
10
88.44
20
-70.33
11
99.632
21
-70.896
0
LINE
8
XSect
62
1
10
88.44
20
-70.33
11
88.822
21
-69.744
0
LINE
8
XSect
62
1
10
88.44
20
-70.33
11
88.396
21
-71.13
0
TEXT
8
Label
40
1
1
50.5
10
88.44
20
-70.33
0
POLYLINE
66
1
8
Sketch
62
5
0
VERTEX
8
Sketch
10
83.94
20
-128.93
0
VERTEX
8
Sketch
10
84.04
20
-129.13
0
VERTEX
8
Sketch
10
84.14
20
-128.93
0
VERTEX
8
Sketch
10
84.04
20
-128.73
0
VERTEX
8
Sketch
10
83.94
20
-129.13
0
SEQEND
0
POLYLINE
66
1
8
Sketch
62
5
0
VERTEX
8
Sketch
10
84.54
20
-122.13
0
VERTEX
8
Sketch
10
85.14
20
-121.13
0
VERTEX
8
Sketch
10
85.74
20
-121.03
0
VERTEX
8
Sketch
10
86.34
20
-121.43
0
VERTEX
8
Sketch
10
86.54
20
-122.23
0
VERTEX
8
Sketch
10
86.44
20
-122.63
0
VERTEX
8
Sketch
10
86.14
20
-122.93
0
VERTEX
8
Sketch
10
85.04
20
-124.03
0
VERTEX
8
Sketch
10
84.64
20
-124.93
0
VERTEX
8
Sketch
10
84.44
20
-126.03
0
VERTEX
8
Sketch
10
84.44
20
-126.63
0
SEQEND
0
POLYLINE
66
1
8
Sketch
62
5
0
VERTEX
8
Sketch
10
83.44
20
-112.83
0
VERTEX
8
Sketch
10
84.14
20
-113.03
0
VERTEX
8
Sketch
10
84.54
20
-113.33
0
VERTEX
8
Sketch
10
85.24
20
-113.63
0
SEQEND
0
POLYLINE
66
1
8
Sketch
62
5
0
VERTEX
8
Sketch
10
81.24
20
-118.23
0
VERTEX
8
Sketch
10
82.94
20
-119.53
0
VERTEX
8
Sketch
10
83.64
20
-119.83
0
VERTEX
8
Sketch
10
83.84
20
-120.03
0
SEQEND
0
POLYLINE
66
1
8
Sketch
62
5
0
VERTEX
8
Sketch
10
80.64
20
-115.33
0
VERTEX
8
Sketch
10
81.34
20
-115.53
0
VERTEX
8
Sketch
10
82.14
20
-116.23
0
VERTEX
8
Sketch
10
83.34
20
-116.73
0
VERTEX
8
Sketch
10
83.74
20
-116.83
0
VERTEX
8
Sketch
10
85.54
20
-117.83
0
VERTEX
8
Sketch
10
85.74
20
-117.83
0
VERTEX
8
Sketch
10
87.04
20
-118.53
0
SEQEND
0
POLYLINE
66
1
8
Sketch
62
5
0
VERTEX
8
Sketch
10
82.04
20
-113.03
0
VERTEX
8
Sketch
10
82.24
20
-113.03
0
VERTEX
8
Sketch
10
83.54
20
-114.13
0
VERTEX
8
Sketch
10
84.84
20
-114.63
0
VERTEX
8
Sketch
10
85.94
20
-115.33
0
SEQEND
0
POLYLINE
66
1
8
Sketch
62
5
0
VERTEX
8
Sketch
10
86.04
20
-115.03
0
VERTEX
8
Sketch
10
86.14
20
-115.43
0
VERTEX
8
Sketch
10
86.14
20
-116.13
0
VERTEX
8
Sketch
10
85.64
20
-117.93
0
VERTEX
8
Sketch
10
85.04
20
-119.23
0
VERTEX
8
Sketch
10
85.04
20
-119.43
0
VERTEX
8
Sketch
10
84.74
20
-119.83
0
SEQEND
0
POLYLINE
66
1
8
Sketch
62
5
0
VERTEX
8
Sketch
10
85.24
20
-112.13
0
VERTEX
8
Sketch
10
84.44
20
-114.53
0
VERTEX
8
Sketch
10
83.54
20
-116.83
0
VERTEX
8
Sketch
10
83.14
20
-117.43
0
VERTEX
8
Sketch
10
82.44
20
-119.03
0
VERTEX
8
Sketch
10
82.34
20
-119.43
0
VERTEX
8
Sketch
10
82.14
20
-119.93
0
SEQEND
0
POLYLINE
66
1
8
Sketch
62
5
0
VERTEX
8
Sketch
10
83.14
20
-112.03
0
VERTEX
8
Sketch
10
82.74
20
-113.53
0
VERTEX
8
Sketch
10
82.44
20
-113.93
0
VERTEX
8
Sketch
10
82.04
20
-114.93
0
VERTEX
8
Sketch
10
81.74
20
-115.33
0
VERTEX
8
Sketch
10
81.64
20
-115.73
0
VERTEX
8
Sketch
10
81.24
20
-117.13
0
VERTEX
8
Sketch
10
81.14
20
-117.53
0
SEQEND
0
POLYLINE
66
1
8
Sketch
62
5
0
VERTEX
8
Sketch
10
81.24
20
-112.03
0
VERTEX
8
Sketch
10
81.04
20
-113.53
0
VERTEX
8
Sketch
10
80.34
20
-115.33
0
SEQEND
0
POLYLINE
66
1
8
Sketch
62
5
0
VERTEX
8
Sketch
10
85.14
20
-111.33
0
VERTEX
8
Sketch
10
85.44
20
-111.63
0
VERTEX
8
Sketch
10
86.34
20
-113.43
0
VERTEX
8
Sketch
10
86.54
20
-113.63
0
VERTEX
8
Sketch
10
86.94
20
-114.83
0
VERTEX
8
Sketch
10
87.84
20
-116.63
0
VERTEX
8
Sketch
10
87.84
20
-116.83
0
SEQEND
0
POLYLINE
66
1
8
Sketch
62
5
0
VERTEX
8
Sketch
10
80.24
20
-112.23
0
VERTEX
8
Sketch
10
80.74
20
-113.33
0
VERTEX
8
Sketch
10
80.94
20
-115.03
0
VERTEX
8
Sketch
10
81.04
20
-115.43
0
VERTEX
8
Sketch
10
81.24
20
-116.93
0
VERTEX
8
Sketch
10
81.34
20
-117.33
0
VERTEX
8
Sketch
10
81.34
20
-118.03
0
VERTEX
8
Sketch
10
81.44
20
-118.43
0
VERTEX
8
Sketch
10
81.44
20
-118.93
0
VERTEX
8
Sketch
10
81.54
20
-119.43
0
SEQEND
0
POLYLINE
66
1
8
Sketch
62
5
0
VERTEX
8
Sketch
10
82.34
20
-104.23
0
VERTEX
8
Sketch
10
82.34
20
-107.23
0
VERTEX
8
Sketch
10
82.24
20
-107.73
0
VERTEX
8
Sketch
10
82.24
20
-108.53
0
VERTEX
8
Sketch
10
82.14
20
-109.03
0
VERTEX
8
Sketch
10
82.04
20
-109.43
0
SEQEND
0
POLYLINE
66
1
8
Sketch
62
5
0
VERTEX
8
Sketch
10
80.04
20
-99.73
0
VERTEX
8
Sketch
10
80.14
20
-100.13
0
VERTEX
8
Sketch
10
80.24
20
-101.53
0
VERTEX
8
Sketch
10
80.24
20
-102.53
0
VERTEX
8
Sketch
10
80.44
20
-104.03
0
VERTEX
8
Sketch
10
80.44
20
-107.53
0
VERTEX
8
Sketch
10
80.54
20
-107.73
0
SEQEND
0
POLYLINE
66
1
8
Sketch
62
5
0
VERTEX
8
Sketch
10
79.04
20
-89.93
0
VERTEX
8
Sketch
10
79.04
20
-90.43
0
VERTEX
8
Sketch
10
79.34
20
-92.23
0
VERTEX
8
Sketch
10
79.24
20
-94.13
0
VERTEX
8
Sketch
10
79.04
20
-95.33
0
VERTEX
8
Sketch
10
79.04
20
-97.43
0
VERTEX
8
Sketch
10
78.84
20
-99.33
0
VERTEX
8
Sketch
10
78.24
20
-103.93
0
VERTEX
8
Sketch
10
78.04
20
-105.13
0
SEQEND
0
POLYLINE
66
1
8
Sketch
62
5
0
VERTEX
8
Sketch
10
77.04
20
-91.93
0
VERTEX
8
Sketch
10
77.14
20
-93.83
0
VERTEX
8
Sketch
10
77.14
20
-95.73
0
SEQEND
0
POLYLINE
66
1
8
Sketch
62
0
0
VERTEX
8
Sketch
10
80.24
20
-90.73
0
VERTEX
8
Sketch
10
80.34
20
-90.93
0
VERTEX
8
Sketch
10
80.34
20
-90.93
0
VERTEX
8
Sketch
10
80.54
20
-91.33
0
VERTEX
8
Sketch
10
80.54
20
-92.43
0
VERTEX
8
Sketch
10
80.34
20
-93.03
0
VERTEX
8
Sketch
10
80.14
20
-93.83
0
VERTEX
8
Sketch
10
79.94
20
-94.73
0
VERTEX
8
Sketch
10
79.94
20
-95.33
0
VERTEX
8
Sketch
10
79.84
20
-95.73
0
VERTEX
8
Sketch
10
79.94
20
-96.23
0
SEQEND
0
POLYLINE
66
1
8
Sketch
62
0
0
VERTEX
8
Sketch
10
82.04
20
-102.53
0
VERTEX
8
Sketch
10
82.14
20
-102.33
0
VERTEX
8
Sketch
10
81.84
20
-101.23
0
VERTEX
8
Sketch
10
82.14
20
-99.73
0
VERTEX
8
Sketch
10
82.74
20
-98.93
0
VERTEX
8
Sketch
10
83.84
20
-97.93
0
VERTEX
8
Sketch
10
84.74
20
-97.23
0
VERTEX
8
Sketch
10
85.54
20
-96.93
0
VERTEX
8
Sketch
10
86.64
20
-96.73
0
VERTEX
8
Sketch
10
87.24
20
-96.73
0
VERTEX
8
Sketch
10
87.44
20
-96.63
0
VERTEX
8
Sketch
10
87.64
20
-96.73
0
VERTEX
8
Sketch
10
88.04
20
-96.53
0
VERTEX
8
Sketch
10
88.44
20
-96.63
0
VERTEX
8
Sketch
10
89.04
20
-96.63
0
VERTEX
8
Sketch
10
89.64
20
-96.43
0
VERTEX
8
Sketch
10
90.04
20
-96.43
0
VERTEX
8
Sketch
10
90.64
20
-96.03
0
VERTEX
8
Sketch
10
91.04
20
-95.93
0
VERTEX
8
Sketch
10
91.64
20
-95.53
0
VERTEX
8
Sketch
10
91.84
20
-95.53
0
VERTEX
8
Sketch
10
92.14
20
-95.23
0
VERTEX
8
Sketch
10
92.54
20
-95.13
0
VERTEX
8
Sketch
10
93.64
20
-94.43
0
VERTEX
8
Sketch
10
94.14
20
-93.43
0
VERTEX
8
Sketch
10
93.74
20
-92.83
0
VERTEX
8
Sketch
10
93.34
20
-92.73
0
VERTEX
8
Sketch
10
93.14
20
-92.53
0
VERTEX
8
Sketch
10
92.54
20
-92.53
0
VERTEX
8
Sketch
10
91.94
20
-92.73
0
VERTEX
8
Sketch
10
91.54
20
-92.73
0
VERTEX
8
Sketch
10
90.54
20
-93.23
0
VERTEX
8
Sketch
10
90.14
20
-93.33
0
VERTEX
8
Sketch
10
89.74
20
-93.43
0
VERTEX
8
Sketch
10
89.44
20
-93.43
0
VERTEX
8
Sketch
10
88.84
20
-93.63
0
VERTEX
8
Sketch
10
88.34
20
-93.63
0
VERTEX
8
Sketch
10
87.34
20
-94.13
0
VERTEX
8
Sketch
10
86.94
20
-94.13
0
VERTEX
8
Sketch
10
86.54
20
-94.43
0
VERTEX
8
Sketch
10
86.14
20
-94.53
0
VERTEX
8
Sketch
10
85.74
20
-94.73
0
VERTEX
8
Sketch
10
85.44
20
-94.73
0
VERTEX
8
Sketch
10
84.04
20
-95.53
0
VERTEX
8
Sketch
10
83.64
20
-95.63
0
VERTEX
8
Sketch
10
82.34
20
-96.23
0
VERTEX
8
Sketch
10
82.04
20
-96.53
0
VERTEX
8
Sketch
10
81.24
20
-96.63
0
VERTEX
8
Sketch
10
80.84
20
-96.93
0
VERTEX
8
Sketch
10
80.44
20
-97.03
0
VERTEX
8
Sketch
10
80.44
20
-96.83
0
SEQEND
0
POLYLINE
66
1
8
Sketch
62
0
0
VERTEX
8
Sketch
10
85.44
20
-110.43
0
VERTEX
8
Sketch
10
85.44
20
-110.03
0
VERTEX
8
Sketch
10
85.34
20
-109.83
0
VERTEX
8
Sketch
10
85.44
20
-109.63
0
VERTEX
8
Sketch
10
85.14
20
-108.53
0
VERTEX
8
Sketch
10
84.54
20
-107.33
0
VERTEX
8
Sketch
10
84.44
20
-106.93
0
VERTEX
8
Sketch
10
83.74
20
-105.33
0
VERTEX
8
Sketch
10
83.14
20
-104.33
0
VERTEX
8
Sketch
10
82.94
20
-103.83
0
VERTEX
8
Sketch
10
82.44
20
-103.03
0
VERTEX
8
Sketch
10
82.34
20
-102.63
0
VERTEX
8
Sketch
10
81.74
20
-101.33
0
VERTEX
8
Sketch
10
81.54
20
-100.53
0
VERTEX
8
Sketch
10
81.44
20
-100.13
0
SEQEND
0
POLYLINE
66
1
8
Sketch
62
0
0
VERTEX
8
Sketch
10
80.44
20
-111.03
0
VERTEX
8
Sketch
10
80.54
20
-111.23
0
VERTEX
8
Sketch
10
80.54
20
-110.23
0
VERTEX
8
Sketch
10
80.44
20
-109.73
0
VERTEX
8
Sketch
10
80.44
20
-109.23
0
VERTEX
8
Sketch
10
80.04
20
-108.13
0
VERTEX
8
Sketch
10
79.94
20
-107.73
0
VERTEX
8
Sketch
10
79.64
20
-107.13
0
VERTEX
8
Sketch
10
79.64
20
-106.83
0
VERTEX
8
Sketch
10
79.34
20
-106.23
0
VERTEX
8
Sketch
10
79.24
20
-105.83
0
VERTEX
8
Sketch
10
78.84
20
-104.23
0
VERTEX
8
Sketch
10
78.44
20
-102.43
0
VERTEX
8
Sketch
10
78.34
20
-101.53
0
VERTEX
8
Sketch
10
78.34
20
-101.03
0
VERTEX
8
Sketch
10
78.24
20
-100.63
0
VERTEX
8
Sketch
10
78.14
20
-99.73
0
VERTEX
8
Sketch
10
78.04
20
-99.53
0
SEQEND
0
POLYLINE
66
1
8
Sketch
62
0
0
VERTEX
8
Sketch
10
78.14
20
-101.35
0
VERTEX
8
Sketch
10
78.08
20
-101.05
0
VERTEX
8
Sketch
10
77.96
20
-100.93
0
VERTEX
8
Sketch
10
77.9
20
-100.69
0
VERTEX
8
Sketch
10
77.72
20
-100.15
0
VERTEX
8
Sketch
10
77.72
20
-99.91
0
VERTEX
8
Sketch
10
77.42
20
-98.89
0
VERTEX
8
Sketch
10
77.42
20
-98.71
0
VERTEX
8
Sketch
10
77.36
20
-98.47
0
VERTEX
8
Sketch
10
77.36
20
-98.17
0
VERTEX
8
Sketch
10
77.06
20
-97.15
0
VERTEX
8
Sketch
10
76.88
20
-96.79
0
VERTEX
8
Sketch
10
76.82
20
-96.55
0
VERTEX
8
Sketch
10
76.58
20
-95.65
0
VERTEX
8
Sketch
10
76.52
20
-95.11
0
VERTEX
8
Sketch
10
76.52
20
-94.87
0
VERTEX
8
Sketch
10
76.46
20
-94.63
0
VERTEX
8
Sketch
10
76.4
20
-94.09
0
VERTEX
8
Sketch
10
76.1
20
-93.01
0
VERTEX
8
Sketch
10
75.68
20
-92.53
0
VERTEX
8
Sketch
10
75.62
20
-92.41
0
SEQEND
0
POLYLINE
66
1
8
Sketch
62
0
0
VERTEX
8
Sketch
10
76.46
20
-92.77
0
VERTEX
8
Sketch
10
76.22
20
-92.71
0
VERTEX
8
Sketch
10
75.86
20
-92.47
0
VERTEX
8
Sketch
10
75.62
20
-92.17
0
VERTEX
8
Sketch
10
75.5
20
-92.17
0
VERTEX
8
Sketch
10
75.26
20
-91.93
0
VERTEX
8
Sketch
10
75.2
20
-91.75
0
VERTEX
8
Sketch
10
74
20
-90.73
0
VERTEX
8
Sketch
10
72.56
20
-89.47
0
VERTEX
8
Sketch
10
72.32
20
-89.29
0
VERTEX
8
Sketch
10
72.08
20
-89.23
0
VERTEX
8
Sketch
10
71.48
20
-88.87
0
VERTEX
8
Sketch
10
70.94
20
-88.69
0
VERTEX
8
Sketch
10
70.34
20
-88.27
0
VERTEX
8
Sketch
10
70.04
20
-88.15
0
VERTEX
8
Sketch
10
68.18
20
-86.29
0
VERTEX
8
Sketch
10
68
20
-86.23
0
VERTEX
8
Sketch
10
67.94
20
-86.05
0
VERTEX
8
Sketch
10
67.64
20
-85.75
0
VERTEX
8
Sketch
10
67.34
20
-85.57
0
VERTEX
8
Sketch
10
67.1
20
-85.39
0
SEQEND
0
POLYLINE
66
1
8
Sketch
62
0
0
VERTEX
8
Sketch
10
79.76
20
-89.17
0
VERTEX
8
Sketch
10
79.7
20
-88.93
0
VERTEX
8
Sketch
10
79.4
20
-88.03
0
VERTEX
8
Sketch
10
79.28
20
-87.61
0
VERTEX
8
Sketch
10
79.04
20
-87.25
0
VERTEX
8
Sketch
10
79.04
20
-87.13
0
VERTEX
8
Sketch
10
78.8
20
-86.71
0
VERTEX
8
Sketch
10
78.74
20
-86.47
0
VERTEX
8
Sketch
10
77.9
20
-84.73
0
VERTEX
8
Sketch
10
77.54
20
-84.25
0
VERTEX
8
Sketch
10
76.64
20
-82.57
0
VERTEX
8
Sketch
10
76.64
20
-82.45
0
VERTEX
8
Sketch
10
76.04
20
-81.25
0
VERTEX
8
Sketch
10
75.74
20
-80.89
0
VERTEX
8
Sketch
10
75.62
20
-80.59
0
VERTEX
8
Sketch
10
74.54
20
-79.09
0
VERTEX
8
Sketch
10
74.3
20
-78.67
0
VERTEX
8
Sketch
10
74.12
20
-78.37
0
VERTEX
8
Sketch
10
73.58
20
-77.11
0
VERTEX
8
Sketch
10
73.58
20
-76.93
0
VERTEX
8
Sketch
10
73.28
20
-76.03
0
VERTEX
8
Sketch
10
73.16
20
-75.91
0
VERTEX
8
Sketch
10
72.98
20
-75.49
0
VERTEX
8
Sketch
10
72.44
20
-74.77
0
SEQEND
0
POLYLINE
66
1
8
Sketch
62
5
0
VERTEX
8
Sketch
10
70.7
20
-80.71
0
VERTEX
8
Sketch
10
70.52
20
-81.07
0
VERTEX
8
Sketch
10
70.52
20
-81.31
0
SEQEND
0
POLYLINE
66
1
8
Sketch
62
5
0
VERTEX
8
Sketch
10
78.62
20
-86.77
0
VERTEX
8
Sketch
10
78.56
20
-87.01
0
VERTEX
8
Sketch
10
78.5
20
-87.37
0
VERTEX
8
Sketch
10
78.44
20
-87.49
0
VERTEX
8
Sketch
10
78.44
20
-87.85
0
SEQEND
0
POLYLINE
66
1
8
Sketch
62
5
0
VERTEX
8
Sketch
10
76.64
20
-82.39
0
VERTEX
8
Sketch
10
76.7
20
-83.05
0
VERTEX
8
Sketch
10
76.82
20
-84.19
0
VERTEX
8
Sketch
10
77.12
20
-86.17
0
VERTEX
8
Sketch
10
77.24
20
-86.59
0
VERTEX
8
Sketch
10
77.24
20
-86.89
0
VERTEX
8
Sketch
10
77.36
20
-87.55
0
VERTEX
8
Sketch
10
77.36
20
-87.67
0
SEQEND
0
POLYLINE
66
1
8
Sketch
62
5
0
VERTEX
8
Sketch
10
73.64
20
-79.33
0
VERTEX
8
Sketch
10
73.76
20
-80.35
0
VERTEX
8
Sketch
10
73.82
20
-81.67
0
VERTEX
8
Sketch
10
73.88
20
-82.03
0
VERTEX
8
Sketch
10
73.88
20
-82.45
0
VERTEX
8
Sketch
10
73.94
20
-83.23
0
VERTEX
8
Sketch
10
74
20
-83.41
0
VERTEX
8
Sketch
10
74
20
-84.67
0
VERTEX
8
Sketch
10
74.12
20
-85.99
0
VERTEX
8
Sketch
10
74.24
20
-86.71
0
VERTEX
8
Sketch
10
74.3
20
-87.31
0
SEQEND
0
POLYLINE
66
1
8
Sketch
62
5
0
VERTEX
8
Sketch
10
70.94
20
-76.33
0
VERTEX
8
Sketch
10
71.06
20
-76.87
0
VERTEX
8
Sketch
10
71.12
20
-78.07
0
VERTEX
8
Sketch
10
71.12
20
-79.57
0
VERTEX
8
Sketch
10
71.06
20
-80.47
0
VERTEX
8
Sketch
10
71.06
20
-81.55
0
VERTEX
8
Sketch
10
71.12
20
-81.91
0
VERTEX
8
Sketch
10
71.3
20
-83.89
0
VERTEX
8
Sketch
10
71.54
20
-85.87
0
VERTEX
8
Sketch
10
71.6
20
-86.17
0
VERTEX
8
Sketch
10
71.6
20
-86.35
0
VERTEX
8
Sketch
10
71.66
20
-86.59
0
SEQEND
0
POLYLINE
66
1
8
Sketch
62
5
0
VERTEX
8
Sketch
10
68.42
20
-77.11
0
VERTEX
8
Sketch
10
68.42
20
-77.83
0
VERTEX
8
Sketch
10
68.54
20
-78.73
0
VERTEX
8
Sketch
10
68.54
20
-82.39
0
VERTEX
8
Sketch
10
68.6
20
-82.81
0
VERTEX
8
Sketch
10
68.6
20
-85.51
0
VERTEX
8
Sketch
10
68.66
20
-85.69
0
VERTEX
8
Sketch
10
68.6
20
-85.87
0
SEQEND
0
POLYLINE
66
1
8
Sketch
62
5
0
VERTEX
8
Sketch
10
65.42
20
-78.01
0
VERTEX
8
Sketch
10
65.48
20
-78.13
0
VERTEX
8
Sketch
10
65.48
20
-78.73
0
VERTEX
8
Sketch
10
65.42
20
-79.27
0
VERTEX
8
Sketch
10
65.54
20
-81.85
0
VERTEX
8
Sketch
10
65.6
20
-82.63
0
VERTEX
8
Sketch
10
65.66
20
-83.89
0
SEQEND
0
POLYLINE
66
1
8
Sketch
62
5
0
VERTEX
8
Sketch
10
67.94
20
-72.67
0
VERTEX
8
Sketch
10
67.88
20
-72.97
0
VERTEX
8
Sketch
10
67.88
20
-73.33
0
VERTEX
8
Sketch
10
67.94
20
-73.57
0
VERTEX
8
Sketch
10
67.94
20
-74.05
0
VERTEX
8
Sketch
10
68
20
-74.65
0
VERTEX
8
Sketch
10
68
20
-75.97
0
SEQEND
0
POLYLINE
66
1
8
Sketch
62
5
0
VERTEX
8
Sketch
10
65.66
20
-70.99
0
VERTEX
8
Sketch
10
65.6
20
-71.77
0
VERTEX
8
Sketch
10
65.54
20
-73.21
0
VERTEX
8
Sketch
10
65.54
20
-73.45
0
VERTEX
8
Sketch
10
65.48
20
-73.81
0
VERTEX
8
Sketch
10
65.48
20
-74.83
0
VERTEX
8
Sketch
10
65.42
20
-75.13
0
VERTEX
8
Sketch
10
65.42
20
-77.41
0
VERTEX
8
Sketch
10
65.48
20
-77.71
0
VERTEX
8
Sketch
10
65.48
20
-78.37
0
SEQEND
0
POLYLINE
66
1
8
Sketch
62
5
0
VERTEX
8
Sketch
10
63.38
20
-69.37
0
VERTEX
8
Sketch
10
63.5
20
-70.15
0
VERTEX
8
Sketch
10
63.5
20
-71.77
0
VERTEX
8
Sketch
10
63.56
20
-71.89
0
VERTEX
8
Sketch
10
63.56
20
-72.73
0
VERTEX
8
Sketch
10
63.62
20
-73.57
0
VERTEX
8
Sketch
10
63.62
20
-74.35
0
VERTEX
8
Sketch
10
63.56
20
-75.07
0
VERTEX
8
Sketch
10
63.56
20
-75.43
0
VERTEX
8
Sketch
10
63.44
20
-76.15
0
VERTEX
8
Sketch
10
63.44
20
-76.51
0
VERTEX
8
Sketch
10
63.38
20
-76.87
0
VERTEX
8
Sketch
10
63.32
20
-77.53
0
VERTEX
8
Sketch
10
63.26
20
-77.83
0
VERTEX
8
Sketch
10
63.2
20
-78.43
0
VERTEX
8
Sketch
10
63.2
20
-80.89
0
VERTEX
8
Sketch
10
63.32
20
-81.73
0
SEQEND
0
POLYLINE
66
1
8
Sketch
62
5
0
VERTEX
8
Sketch
10
60.62
20
-74.83
0
VERTEX
8
Sketch
10
61.04
20
-75.91
0
VERTEX
8
Sketch
10
61.04
20
-76.93
0
VERTEX
8
Sketch
10
61.1
20
-77.05
0
VERTEX
8
Sketch
10
61.04
20
-77.35
0
VERTEX
8
Sketch
10
61.04
20
-77.77
0
VERTEX
8
Sketch
10
61.1
20
-78.19
0
VERTEX
8
Sketch
10
61.1
20
-78.97
0
VERTEX
8
Sketch
10
61.04
20
-79.27
0
VERTEX
8
Sketch
10
61.04
20
-79.45
0
VERTEX
8
Sketch
10
60.98
20
-79.69
0
VERTEX
8
Sketch
10
61.04
20
-79.81
0
SEQEND
0
POLYLINE
66
1
8
Sketch
62
5
0
VERTEX
8
Sketch
10
61.04
20
-68.29
0
VERTEX
8
Sketch
10
61.22
20
-68.59
0
VERTEX
8
Sketch
10
61.28
20
-68.71
0
VERTEX
8
Sketch
10
61.28
20
-69.79
0
VERTEX
8
Sketch
10
61.22
20
-70.57
0
VERTEX
8
Sketch
10
61.22
20
-71.71
0
VERTEX
8
Sketch
10
61.16
20
-71.95
0
VERTEX
8
Sketch
10
61.16
20
-72.37
0
VERTEX
8
Sketch
10
61.1
20
-72.49
0
SEQEND
0
POLYLINE
66
1
8
Sketch
62
5
0
VERTEX
8
Sketch
10
59.12
20
-67.15
0
VERTEX
8
Sketch
10
59.12
20
-67.75
0
VERTEX
8
Sketch
10
59.18
20
-67.93
0
VERTEX
8
Sketch
10
59.18
20
-68.35
0
VERTEX
8
Sketch
10
59.24
20
-68.59
0
VERTEX
8
Sketch
10
59.18
20
-69.31
0
VERTEX
8
Sketch
10
59.12
20
-69.49
0
VERTEX
8
Sketch
10
59.12
20
-71.11
0
VERTEX
8
Sketch
10
58.94
20
-72.49
0
VERTEX
8
Sketch
10
58.88
20
-73.93
0
VERTEX
8
Sketch
10
58.82
20
-74.77
0
VERTEX
8
Sketch
10
58.82
20
-75.55
0
VERTEX
8
Sketch
10
58.76
20
-75.97
0
VERTEX
8
Sketch
10
58.76
20
-76.57
0
VERTEX
8
Sketch
10
58.82
20
-77.23
0
VERTEX
8
Sketch
10
58.82
20
-77.59
0
VERTEX
8
Sketch
10
58.88
20
-77.89
0
VERTEX
8
Sketch
10
58.88
20
-78.31
0
VERTEX
8
Sketch
10
58.94
20
-78.85
0
SEQEND
0
POLYLINE
66
1
8
Sketch
62
5
0
VERTEX
8
Sketch
10
56.72
20
-65.77
0
VERTEX
8
Sketch
10
56.78
20
-65.65
0
VERTEX
8
Sketch
10
56.9
20
-66.01
0
VERTEX
8
Sketch
10
56.9
20
-66.79
0
VERTEX
8
Sketch
10
56.96
20
-66.91
0
VERTEX
8
Sketch
10
56.96
20
-69.07
0
VERTEX
8
Sketch
10
56.9
20
-69.97
0
VERTEX
8
Sketch
10
56.9
20
-73.45
0
VERTEX
8
Sketch
10
56.84
20
-74.23
0
VERTEX
8
Sketch
10
56.84
20
-74.71
0
VERTEX
8
Sketch
10
56.78
20
-75.07
0
VERTEX
8
Sketch
10
56.84
20
-75.43
0
VERTEX
8
Sketch
10
56.84
20
-76.69
0
VERTEX
8
Sketch
10
56.9
20
-77.29
0
SEQEND
0
POLYLINE
66
1
8
Sketch
62
5
0
VERTEX
8
Sketch
10
55.1
20
-65.29
0
VERTEX
8
Sketch
10
55.28
20
-65.83
0
VERTEX
8
Sketch
10
55.28
20
-66.25
0
VERTEX
8
Sketch
10
55.34
20
-66.55
0
VERTEX
8
Sketch
10
55.34
20
-67.81
0
VERTEX
8
Sketch
10
55.4
20
-68.53
0
VERTEX
8
Sketch
10
55.4
20
-69.31
0
VERTEX
8
Sketch
10
55.34
20
-69.43
0
VERTEX
8
Sketch
10
55.34
20
-69.97
0
VERTEX
8
Sketch
10
55.22
20
-70.75
0
VERTEX
8
Sketch
10
55.22
20
-71.05
0
VERTEX
8
Sketch
10
55.16
20
-71.41
0
VERTEX
8
Sketch
10
55.16
20
-72.25
0
VERTEX
8
Sketch
10
55.1
20
-73.03
0
VERTEX
8
Sketch
10
55.1
20
-74.83
0
SEQEND
0
POLYLINE
66
1
8
Sketch
62
0
0
VERTEX
8
Sketch
10
59.84
20
-80.23
0
VERTEX
8
Sketch
10
59.42
20
-79.99
0
VERTEX
8
Sketch
10
59.18
20
-79.75
0
VERTEX
8
Sketch
10
59.06
20
-79.75
0
VERTEX
8
Sketch
10
58.58
20
-79.27
0
VERTEX
8
Sketch
10
58.16
20
-78.85
0
VERTEX
8
Sketch
10
57.38
20
-78.19
0
VERTEX
8
Sketch
10
56.96
20
-77.77
0
VERTEX
8
Sketch
10
56.78
20
-77.47
0
VERTEX
8
Sketch
10
56.6
20
-77.17
0
VERTEX
8
Sketch
10
56.48
20
-76.87
0
VERTEX
8
Sketch
10
56.18
20
-76.51
0
VERTEX
8
Sketch
10
55.52
20
-75.31
0
VERTEX
8
Sketch
10
55.52
20
-75.19
0
VERTEX
8
Sketch
10
54.86
20
-74.47
0
VERTEX
8
Sketch
10
53.66
20
-73.21
0
VERTEX
8
Sketch
10
53.42
20
-72.79
0
VERTEX
8
Sketch
10
53.12
20
-72.31
0
VERTEX
8
Sketch
10
52.94
20
-72.01
0
VERTEX
8
Sketch
10
52.76
20
-71.77
0
VERTEX
8
Sketch
10
52.22
20
-70.69
0
VERTEX
8
Sketch
10
51.68
20
-69.91
0
VERTEX
8
Sketch
10
51.5
20
-69.67
0
VERTEX
8
Sketch
10
51.38
20
-69.67
0
VERTEX
8
Sketch
10
51.32
20
-69.49
0
VERTEX
8
Sketch
10
51.2
20
-69.49
0
SEQEND
0
POLYLINE
66
1
8
Sketch
62
0
0
VERTEX
8
Sketch
10
64.7
20
-84.07
0
VERTEX
8
Sketch
10
64.1
20
-83.47
0
VERTEX
8
Sketch
10
63.86
20
-83.41
0
VERTEX
8
Sketch
10
63.62
20
-83.23
0
VERTEX
8
Sketch
10
63.32
20
-83.05
0
VERTEX
8
Sketch
10
63.2
20
-83.05
0
VERTEX
8
Sketch
10
62.72
20
-82.75
0
VERTEX
8
Sketch
10
62.6
20
-82.81
0
VERTEX
8
Sketch
10
62.36
20
-82.57
0
VERTEX
8
Sketch
10
62.12
20
-82.27
0
VERTEX
8
Sketch
10
61.94
20
-81.97
0
VERTEX
8
Sketch
10
61.28
20
-81.19
0
VERTEX
8
Sketch
10
60.14
20
-80.23
0
VERTEX
8
Sketch
10
59.6
20
-79.93
0
VERTEX
8
Sketch
10
59.54
20
-79.81
0
SEQEND
0
POINT
8
Sketch
62
0
10
70.1
20
-73.39
0
POLYLINE
66
1
8
Sketch
62
0
0
VERTEX
8
Sketch
10
72.02
20
-74.71
0
VERTEX
8
Sketch
10
71.66
20
-74.59
0
VERTEX
8
Sketch
10
71.18
20
-74.11
0
VERTEX
8
Sketch
10
70.4
20
-73.57
0
VERTEX
8
Sketch
10
70.16
20
-73.33
0
VERTEX
8
Sketch
10
69.68
20
-73.03
0
VERTEX
8
Sketch
10
69.26
20
-72.67
0
VERTEX
8
Sketch
10
68.48
20
-72.19
0
VERTEX
8
Sketch
10
68.36
20
-72.07
0
VERTEX
8
Sketch
10
68.24
20
-72.13
0
VERTEX
8
Sketch
10
67.94
20
-71.83
0
VERTEX
8
Sketch
10
67.04
20
-71.23
0
VERTEX
8
Sketch
10
66.74
20
-71.11
0
VERTEX
8
Sketch
10
66.02
20
-70.57
0
VERTEX
8
Sketch
10
65.72
20
-70.51
0
VERTEX
8
Sketch
10
65.12
20
-70.15
0
VERTEX
8
Sketch
10
65
20
-70.15
0
VERTEX
8
Sketch
10
64.88
20
-70.03
0
VERTEX
8
Sketch
10
64.7
20
-70.03
0
VERTEX
8
Sketch
10
64.22
20
-69.73
0
SEQEND
0
POLYLINE
66
1
8
Sketch
62
0
0
VERTEX
8
Sketch
10
55.7
20
-65.17
0
VERTEX
8
Sketch
10
55.88
20
-65.17
0
VERTEX
8
Sketch
10
56.66
20
-65.53
0
VERTEX
8
Sketch
10
56.96
20
-65.53
0
VERTEX
8
Sketch
10
58.22
20
-66.31
0
VERTEX
8
Sketch
10
58.64
20
-66.61
0
VERTEX
8
Sketch
10
59.18
20
-66.85
0
VERTEX
8
Sketch
10
59.78
20
-67.33
0
VERTEX
8
Sketch
10
60.92
20
-68.17
0
VERTEX
8
Sketch
10
61.82
20
-68.71
0
VERTEX
8
Sketch
10
62.48
20
-69.01
0
VERTEX
8
Sketch
10
62.6
20
-69.13
0
VERTEX
8
Sketch
10
62.96
20
-69.19
0
VERTEX
8
Sketch
10
63.26
20
-69.37
0
VERTEX
8
Sketch
10
64.04
20
-69.73
0
VERTEX
8
Sketch
10
64.34
20
-69.73
0
SEQEND
0
POLYLINE
66
1
8
Sketch
62
0
0
VERTEX
8
Sketch
10
49.28
20
-56.83
0
VERTEX
8
Sketch
10
50.12
20
-57.85
0
VERTEX
8
Sketch
10
50.72
20
-58.69
0
VERTEX
8
Sketch
10
50.84
20
-58.99
0
VERTEX
8
Sketch
10
51.02
20
-59.23
0
VERTEX
8
Sketch
10
51.14
20
-59.53
0
VERTEX
8
Sketch
10
52.64
20
-61.27
0
VERTEX
8
Sketch
10
53.24
20
-62.29
0
VERTEX
8
Sketch
10
53.6
20
-63.25
0
VERTEX
8
Sketch
10
53.72
20
-63.43
0
VERTEX
8
Sketch
10
53.72
20
-63.55
0
VERTEX
8
Sketch
10
53.9
20
-63.85
0
VERTEX
8
Sketch
10
54.56
20
-64.81
0
VERTEX
8
Sketch
10
54.86
20
-64.93
0
VERTEX
8
Sketch
10
55.34
20
-65.29
0
VERTEX
8
Sketch
10
55.52
20
-65.29
0
VERTEX
8
Sketch
10
55.88
20
-65.59
0
SEQEND
0
POLYLINE
66
1
8
Sketch
62
30
0
VERTEX
8
Sketch
10
63.44
20
-52.51
0
VERTEX
8
Sketch
10
62.78
20
-52.69
0
VERTEX
8
Sketch
10
62.42
20
-52.69
0
VERTEX
8
Sketch
10
62.12
20
-52.63
0
VERTEX
8
Sketch
10
62.06
20
-52.87
0
VERTEX
8
Sketch
10
61.88
20
-53.65
0
VERTEX
8
Sketch
10
62.18
20
-53.71
0
VERTEX
8
Sketch
10
62.42
20
-53.77
0
VERTEX
8
Sketch
10
62.6
20
-53.71
0
VERTEX
8
Sketch
10
63.02
20
-53.83
0
VERTEX
8
Sketch
10
63.26
20
-53.83
0
VERTEX
8
Sketch
10
63.62
20
-52.75
0
VERTEX
8
Sketch
10
63.5
20
-52.63
0
VERTEX
8
Sketch
10
63.26
20
-52.63
0
VERTEX
8
Sketch
10
62.96
20
-52.69
0
VERTEX
8
Sketch
10
62.48
20
-52.57
0
VERTEX
8
Sketch
10
62.18
20
-52.57
0
SEQEND
0
POLYLINE
66
1
8
Sketch
62
32
0
VERTEX
8
Sketch
10
62.24
20
-54.25
0
VERTEX
8
Sketch
10
63.14
20
-54.49
0
SEQEND
0
POLYLINE
66
1
8
Sketch
62
32
0
VERTEX
8
Sketch
10
60.98
20
-53.77
0
VERTEX
8
Sketch
10
61.22
20
-53.83
0
VERTEX
8
Sketch
10
61.46
20
-53.77
0
SEQEND
0
POLYLINE
66
1
8
Sketch
62
32
0
VERTEX
8
Sketch
10
61.16
20
-54.85
0
VERTEX
8
Sketch
10
61.28
20
-54.97
0
VERTEX
8
Sketch
10
61.52
20
-54.97
0
VERTEX
8
Sketch
10
61.64
20
-54.91
0
SEQEND
0
POLYLINE
66
1
8
Sketch
62
32
0
VERTEX
8
Sketch
10
60.44
20
-54.07
0
VERTEX
8
Sketch
10
60.44
20
-54.19
0
VERTEX
8
Sketch
10
60.74
20
-54.25
0
VERTEX
8
Sketch
10
61.1
20
-54.37
0
SEQEND
0
POLYLINE
66
1
8
Sketch
62
32
0
VERTEX
8
Sketch
10
59.96
20
-53.53
0
VERTEX
8
Sketch
10
60.2
20
-53.59
0
VERTEX
8
Sketch
10
60.44
20
-53.59
0
SEQEND
0
POLYLINE
66
1
8
Sketch
62
32
0
VERTEX
8
Sketch
10
59.06
20
-54.31
0
VERTEX
8
Sketch
10
59.54
20
-54.31
0
VERTEX
8
Sketch
10
59.78
20
-54.37
0
VERTEX
8
Sketch
10
60.02
20
-54.31
0
SEQEND
0
POLYLINE
66
1
8
Sketch
62
32
0
VERTEX
8
Sketch
10
58.94
20
-53.65
0
VERTEX
8
Sketch
10
59.48
20
-53.47
0
VERTEX
8
Sketch
10
59.72
20
-53.53
0
SEQEND
0
POLYLINE
66
1
8
Sketch
62
32
0
VERTEX
8
Sketch
10
63.98
20
-51.91
0
VERTEX
8
Sketch
10
63.98
20
-52.51
0
VERTEX
8
Sketch
10
63.92
20
-52.75
0
VERTEX
8
Sketch
10
63.86
20
-52.99
0
VERTEX
8
Sketch
10
63.8
20
-53.23
0
VERTEX
8
Sketch
10
63.68
20
-53.35
0
SEQEND
0
POLYLINE
66
1
8
Sketch
62
5
0
VERTEX
8
Sketch
10
61.22
20
-51.97
0
VERTEX
8
Sketch
10
61.82
20
-52.09
0
VERTEX
8
Sketch
10
62.42
20
-51.97
0
VERTEX
8
Sketch
10
62.96
20
-51.97
0
VERTEX
8
Sketch
10
63.2
20
-51.91
0
VERTEX
8
Sketch
10
63.74
20
-51.91
0
VERTEX
8
Sketch
10
63.86
20
-51.97
0
SEQEND
0
POLYLINE
66
1
8
Sketch
62
0
0
VERTEX
8
Sketch
10
64.22
20
-52.15
0
VERTEX
8
Sketch
10
64.1
20
-51.49
0
VERTEX
8
Sketch
10
63.98
20
-50.95
0
VERTEX
8
Sketch
10
63.86
20
-50.59
0
VERTEX
8
Sketch
10
63.68
20
-49.87
0
VERTEX
8
Sketch
10
63.26
20
-49.27
0
VERTEX
8
Sketch
10
63.02
20
-49.09
0
VERTEX
8
Sketch
10
62.78
20
-49.09
0
VERTEX
8
Sketch
10
62.3
20
-48.97
0
VERTEX
8
Sketch
10
62.06
20
-48.91
0
VERTEX
8
Sketch
10
61.94
20
-48.97
0
VERTEX
8
Sketch
10
61.82
20
-48.91
0
SEQEND
0
POINT
8
Sketch
62
32
10
43.28
20
-47.47
0
POLYLINE
66
1
8
Sketch
62
32
0
VERTEX
8
Sketch
10
58.16
20
-52.03
0
VERTEX
8
Sketch
10
58.22
20
-52.51
0
VERTEX
8
Sketch
10
58.22
20
-52.93
0
VERTEX
8
Sketch
10
58.28
20
-53.23
0
VERTEX
8
Sketch
10
58.34
20
-53.47
0
VERTEX
8
Sketch
10
58.46
20
-53.59
0
SEQEND
0
POLYLINE
66
1
8
Sketch
62
5
0
VERTEX
8
Sketch
10
58.34
20
-51.97
0
VERTEX
8
Sketch
10
58.58
20
-52.03
0
VERTEX
8
Sketch
10
59.42
20
-51.73
0
VERTEX
8
Sketch
10
59.72
20
-51.73
0
VERTEX
8
Sketch
10
60.32
20
-52.03
0
VERTEX
8
Sketch
10
60.8
20
-51.91
0
VERTEX
8
Sketch
10
61.04
20
-52.03
0
VERTEX
8
Sketch
10
61.46
20
-52.03
0
VERTEX
8
Sketch
10
61.58
20
-52.09
0
SEQEND
0
POLYLINE
66
1
8
Sketch
62
0
0
VERTEX
8
Sketch
10
62.18
20
-48.85
0
VERTEX
8
Sketch
10
61.94
20
-48.79
0
VERTEX
8
Sketch
10
61.52
20
-48.85
0
VERTEX
8
Sketch
10
60.44
20
-48.85
0
VERTEX
8
Sketch
10
60.2
20
-48.91
0
VERTEX
8
Sketch
10
59.9
20
-48.91
0
VERTEX
8
Sketch
10
59.66
20
-48.97
0
VERTEX
8
Sketch
10
59.42
20
-48.97
0
VERTEX
8
Sketch
10
59.06
20
-49.21
0
VERTEX
8
Sketch
10
58.82
20
-49.27
0
VERTEX
8
Sketch
10
58.7
20
-49.39
0
VERTEX
8
Sketch
10
58.58
20
-49.39
0
VERTEX
8
Sketch
10
58.4
20
-49.63
0
VERTEX
8
Sketch
10
58.34
20
-50.29
0
VERTEX
8
Sketch
10
58.34
20
-50.89
0
VERTEX
8
Sketch
10
58.4
20
-51.13
0
VERTEX
8
Sketch
10
58.4
20
-51.55
0
VERTEX
8
Sketch
10
58.46
20
-51.79
0
VERTEX
8
Sketch
10
58.46
20
-52.15
0
VERTEX
8
Sketch
10
58.52
20
-52.27
0
SEQEND
0
LINE
8
Sketch
62
255
6
DASH
10
58.7
20
-50.95
11
46.466
21
-54.93
0
CIRCLE
8
Shots
62
1
10
58.7
20
-50.95
40
0.1
0
LINE
8
XSect
62
1
10
58.7
20
-50.95
11
64.168
21
-51.076
0
LINE
8
XSect
62
1
10
58.7
20
-50.95
11
59.182
21
-49.652
0
LINE
8
XSect
62
1
10
58.7
20
-50.95
11
58.764
21
-51.592
0
TEXT
8
Label
40
1
1
50.3
10
58.7
20
-50.95
0
POLYLINE
66
1
8
Sketch
62
5
0
VERTEX
8
Sketch
10
39.02
20
-55.87
0
VERTEX
8
Sketch
10
39.26
20
-54.31
0
VERTEX
8
Sketch
10
39.26
20
-54.01
0
VERTEX
8
Sketch
10
39.32
20
-53.89
0
VERTEX
8
Sketch
10
39.32
20
-53.65
0
SEQEND
0
POLYLINE
66
1
8
Sketch
62
5
0
VERTEX
8
Sketch
10
38.54
20
-53.23
0
VERTEX
8
Sketch
10
38.6
20
-52.93
0
VERTEX
8
Sketch
10
38.66
20
-52.57
0
SEQEND
0
POINT
8
Sketch
62
5
10
49.28
20
-67.15
0
POLYLINE
66
1
8
Sketch
62
5
0
VERTEX
8
Sketch
10
47.36
20
-59.35
0
VERTEX
8
Sketch
10
47.42
20
-60.43
0
VERTEX
8
Sketch
10
47.48
20
-61.39
0
VERTEX
8
Sketch
10
47.48
20
-61.87
0
VERTEX
8
Sketch
10
47.54
20
-62.59
0
VERTEX
8
Sketch
10
47.54
20
-62.83
0
SEQEND
0
POLYLINE
66
1
8
Sketch
62
5
0
VERTEX
8
Sketch
10
46.16
20
-63.13
0
VERTEX
8
Sketch
10
46.22
20
-63.55
0
VERTEX
8
Sketch
10
46.22
20
-63.97
0
VERTEX
8
Sketch
10
46.28
20
-64.75
0
VERTEX
8
Sketch
10
46.28
20
-65.05
0
SEQEND
0
POLYLINE
66
1
8
Sketch
62
5
0
VERTEX
8
Sketch
10
46.22
20
-55.99
0
VERTEX
8
Sketch
10
46.1
20
-57.01
0
VERTEX
8
Sketch
10
46.04
20
-58.81
0
VERTEX
8
Sketch
10
46.04
20
-59.59
0
SEQEND
0
POLYLINE
66
1
8
Sketch
62
5
0
VERTEX
8
Sketch
10
44.78
20
-54.85
0
VERTEX
8
Sketch
10
44.78
20
-55.75
0
VERTEX
8
Sketch
10
44.84
20
-55.93
0
VERTEX
8
Sketch
10
44.9
20
-58.15
0
VERTEX
8
Sketch
10
44.9
20
-58.33
0
VERTEX
8
Sketch
10
44.84
20
-58.57
0
VERTEX
8
Sketch
10
44.9
20
-59.05
0
VERTEX
8
Sketch
10
44.84
20
-59.17
0
SEQEND
0
POLYLINE
66
1
8
Sketch
62
5
0
VERTEX
8
Sketch
10
42.92
20
-55.39
0
VERTEX
8
Sketch
10
42.92
20
-56.65
0
VERTEX
8
Sketch
10
42.98
20
-57.61
0
VERTEX
8
Sketch
10
42.98
20
-58.99
0
SEQEND
0
POLYLINE
66
1
8
Sketch
62
5
0
VERTEX
8
Sketch
10
41.24
20
-54.49
0
VERTEX
8
Sketch
10
41.42
20
-55.87
0
VERTEX
8
Sketch
10
41.42
20
-56.65
0
VERTEX
8
Sketch
10
41.48
20
-57.49
0
VERTEX
8
Sketch
10
41.48
20
-57.97
0
VERTEX
8
Sketch
10
41.42
20
-58.27
0
SEQEND
0
POLYLINE
66
1
8
Sketch
62
30
0
VERTEX
8
Sketch
10
43.22
20
-59.29
0
VERTEX
8
Sketch
10
43.16
20
-59.53
0
VERTEX
8
Sketch
10
43.16
20
-60.19
0
VERTEX
8
Sketch
10
43.4
20
-60.67
0
VERTEX
8
Sketch
10
44.06
20
-61.21
0
VERTEX
8
Sketch
10
45.14
20
-62.29
0
VERTEX
8
Sketch
10
45.5
20
-62.53
0
VERTEX
8
Sketch
10
45.62
20
-62.53
0
VERTEX
8
Sketch
10
45.98
20
-62.29
0
VERTEX
8
Sketch
10
46.4
20
-61.81
0
VERTEX
8
Sketch
10
46.34
20
-61.57
0
VERTEX
8
Sketch
10
46.22
20
-61.27
0
VERTEX
8
Sketch
10
45.68
20
-60.49
0
VERTEX
8
Sketch
10
44.9
20
-59.71
0
VERTEX
8
Sketch
10
44.36
20
-59.29
0
VERTEX
8
Sketch
10
44.12
20
-59.29
0
VERTEX
8
Sketch
10
43.88
20
-59.23
0
VERTEX
8
Sketch
10
43.46
20
-59.23
0
VERTEX
8
Sketch
10
43.34
20
-59.29
0
VERTEX
8
Sketch
10
43.58
20
-59.11
0
VERTEX
8
Sketch
10
44.3
20
-58.81
0
VERTEX
8
Sketch
10
44.42
20
-58.81
0
VERTEX
8
Sketch
10
45.26
20
-59.65
0
VERTEX
8
Sketch
10
45.56
20
-59.71
0
VERTEX
8
Sketch
10
45.98
20
-60.19
0
VERTEX
8
Sketch
10
46.1
20
-60.19
0
VERTEX
8
Sketch
10
46.88
20
-61.03
0
VERTEX
8
Sketch
10
46.88
20
-61.15
0
VERTEX
8
Sketch
10
46.52
20
-61.45
0
VERTEX
8
Sketch
10
46.1
20
-61.63
0
VERTEX
8
Sketch
10
45.5
20
-62.11
0
SEQEND
0
POLYLINE
66
1
8
Sketch
62
0
0
VERTEX
8
Sketch
10
49.82
20
-68.11
0
VERTEX
8
Sketch
10
47.42
20
-65.65
0
VERTEX
8
Sketch
10
46.94
20
-65.17
0
VERTEX
8
Sketch
10
46.64
20
-64.99
0
VERTEX
8
Sketch
10
45.8
20
-64.27
0
VERTEX
8
Sketch
10
45.38
20
-63.85
0
VERTEX
8
Sketch
10
44.6
20
-63.19
0
VERTEX
8
Sketch
10
44.48
20
-63.01
0
VERTEX
8
Sketch
10
44.18
20
-62.83
0
VERTEX
8
Sketch
10
43.52
20
-62.05
0
VERTEX
8
Sketch
10
43.1
20
-61.63
0
VERTEX
8
Sketch
10
41.9
20
-59.47
0
VERTEX
8
Sketch
10
41.72
20
-59.17
0
VERTEX
8
Sketch
10
40.82
20
-58.27
0
VERTEX
8
Sketch
10
40.1
20
-57.67
0
VERTEX
8
Sketch
10
39.68
20
-57.13
0
VERTEX
8
Sketch
10
39.44
20
-56.89
0
VERTEX
8
Sketch
10
39.14
20
-56.29
0
VERTEX
8
Sketch
10
38.78
20
-55.81
0
VERTEX
8
Sketch
10
38.6
20
-55.51
0
VERTEX
8
Sketch
10
37.7
20
-54.13
0
VERTEX
8
Sketch
10
37.34
20
-53.83
0
VERTEX
8
Sketch
10
36.98
20
-53.23
0
VERTEX
8
Sketch
10
36.44
20
-52.57
0
VERTEX
8
Sketch
10
35.9
20
-51.73
0
VERTEX
8
Sketch
10
35.42
20
-50.71
0
VERTEX
8
Sketch
10
35.12
20
-50.35
0
VERTEX
8
Sketch
10
35
20
-49.93
0
VERTEX
8
Sketch
10
34.7
20
-49.45
0
VERTEX
8
Sketch
10
34.46
20
-49.03
0
VERTEX
8
Sketch
10
34.28
20
-48.79
0
VERTEX
8
Sketch
10
34.04
20
-48.37
0
VERTEX
8
Sketch
10
33.86
20
-48.07
0
VERTEX
8
Sketch
10
33.68
20
-47.83
0
VERTEX
8
Sketch
10
33.68
20
-47.71
0
VERTEX
8
Sketch
10
33.44
20
-47.47
0
VERTEX
8
Sketch
10
32.6
20
-46.69
0
VERTEX
8
Sketch
10
32.24
20
-46.57
0
VERTEX
8
Sketch
10
32.12
20
-46.45
0
SEQEND
0
POLYLINE
66
1
8
Sketch
62
5
0
VERTEX
8
Sketch
10
43.52
20
-53.17
0
VERTEX
8
Sketch
10
43.46
20
-54.43
0
SEQEND
0
POLYLINE
66
1
8
Sketch
62
5
0
VERTEX
8
Sketch
10
42.08
20
-52.03
0
VERTEX
8
Sketch
10
42.08
20
-52.57
0
VERTEX
8
Sketch
10
42.02
20
-53.11
0
VERTEX
8
Sketch
10
42.02
20
-53.89
0
SEQEND
0
POLYLINE
66
1
8
Sketch
62
5
0
VERTEX
8
Sketch
10
40.82
20
-49.51
0
VERTEX
8
Sketch
10
40.82
20
-50.47
0
VERTEX
8
Sketch
10
40.88
20
-50.83
0
VERTEX
8
Sketch
10
40.82
20
-51.07
0
VERTEX
8
Sketch
10
40.76
20
-52.09
0
VERTEX
8
Sketch
10
40.7
20
-52.57
0
SEQEND
0
POLYLINE
66
1
8
Sketch
62
5
0
VERTEX
8
Sketch
10
39.56
20
-48.73
0
VERTEX
8
Sketch
10
39.5
20
-48.97
0
VERTEX
8
Sketch
10
39.5
20
-49.39
0
VERTEX
8
Sketch
10
39.44
20
-50.11
0
VERTEX
8
Sketch
10
39.44
20
-51.97
0
SEQEND
0
POLYLINE
66
1
8
Sketch
62
5
0
VERTEX
8
Sketch
10
38.42
20
-46.33
0
VERTEX
8
Sketch
10
38.42
20
-47.47
0
VERTEX
8
Sketch
10
38.3
20
-48.31
0
VERTEX
8
Sketch
10
38.3
20
-48.85
0
VERTEX
8
Sketch
10
38.24
20
-49.39
0
VERTEX
8
Sketch
10
38.24
20
-51.19
0
SEQEND
0
POLYLINE
66
1
8
Sketch
62
5
0
VERTEX
8
Sketch
10
37.1
20
-44.71
0
VERTEX
8
Sketch
10
37.16
20
-45.43
0
VERTEX
8
Sketch
10
37.16
20
-46.33
0
VERTEX
8
Sketch
10
37.1
20
-46.45
0
VERTEX
8
Sketch
10
37.1
20
-48.43
0
VERTEX
8
Sketch
10
37.16
20
-49.33
0
VERTEX
8
Sketch
10
37.22
20
-50.71
0
SEQEND
0
POLYLINE
66
1
8
Sketch
62
5
0
VERTEX
8
Sketch
10
35.84
20
-43.27
0
VERTEX
8
Sketch
10
35.84
20
-45.91
0
VERTEX
8
Sketch
10
35.96
20
-46.81
0
SEQEND
0
POLYLINE
66
1
8
Sketch
62
5
0
VERTEX
8
Sketch
10
34.7
20
-41.83
0
VERTEX
8
Sketch
10
34.76
20
-42.13
0
VERTEX
8
Sketch
10
34.76
20
-43.27
0
VERTEX
8
Sketch
10
34.58
20
-45.25
0
VERTEX
8
Sketch
10
34.58
20
-46.03
0
VERTEX
8
Sketch
10
34.52
20
-46.15
0
VERTEX
8
Sketch
10
34.52
20
-46.57
0
SEQEND
0
POLYLINE
66
1
8
Sketch
62
5
0
VERTEX
8
Sketch
10
33.44
20
-40.93
0
VERTEX
8
Sketch
10
33.44
20
-45.31
0
VERTEX
8
Sketch
10
33.38
20
-45.73
0
SEQEND
0
POLYLINE
66
1
8
Sketch
62
5
0
VERTEX
8
Sketch
10
29.18
20
-36.85
0
VERTEX
8
Sketch
10
29.18
20
-39.19
0
VERTEX
8
Sketch
10
29.24
20
-39.85
0
VERTEX
8
Sketch
10
29.24
20
-40.69
0
VERTEX
8
Sketch
10
29.3
20
-41.47
0
VERTEX
8
Sketch
10
29.36
20
-42.61
0
VERTEX
8
Sketch
10
29.42
20
-43.27
0
VERTEX
8
Sketch
10
29.42
20
-43.39
0
SEQEND
0
POLYLINE
66
1
8
Sketch
62
5
0
VERTEX
8
Sketch
10
32.12
20
-39.55
0
VERTEX
8
Sketch
10
32.12
20
-41.53
0
VERTEX
8
Sketch
10
32.06
20
-41.65
0
VERTEX
8
Sketch
10
32.06
20
-44.29
0
VERTEX
8
Sketch
10
31.94
20
-45.13
0
SEQEND
0
POLYLINE
66
1
8
Sketch
62
5
0
VERTEX
8
Sketch
10
30.5
20
-39.01
0
VERTEX
8
Sketch
10
30.56
20
-39.31
0
VERTEX
8
Sketch
10
30.56
20
-43.33
0
VERTEX
8
Sketch
10
30.62
20
-43.51
0
VERTEX
8
Sketch
10
30.62
20
-44.11
0
VERTEX
8
Sketch
10
30.56
20
-44.53
0
SEQEND
0
POLYLINE
66
1
8
Sketch
62
5
0
VERTEX
8
Sketch
10
27.5
20
-35.11
0
VERTEX
8
Sketch
10
27.56
20
-35.35
0
VERTEX
8
Sketch
10
27.56
20
-36.25
0
VERTEX
8
Sketch
10
27.62
20
-36.73
0
VERTEX
8
Sketch
10
27.56
20
-37.57
0
VERTEX
8
Sketch
10
27.62
20
-39.13
0
VERTEX
8
Sketch
10
27.56
20
-39.79
0
VERTEX
8
Sketch
10
27.56
20
-41.95
0
SEQEND
0
POLYLINE
66
1
8
Sketch
62
5
0
VERTEX
8
Sketch
10
26.18
20
-35.29
0
VERTEX
8
Sketch
10
26.18
20
-36.25
0
VERTEX
8
Sketch
10
26.24
20
-36.85
0
VERTEX
8
Sketch
10
26.24
20
-37.51
0
VERTEX
8
Sketch
10
26.12
20
-38.41
0
VERTEX
8
Sketch
10
26.12
20
-38.77
0
VERTEX
8
Sketch
10
26.06
20
-38.95
0
VERTEX
8
Sketch
10
26.06
20
-39.49
0
VERTEX
8
Sketch
10
26
20
-39.61
0
VERTEX
8
Sketch
10
26
20
-40.99
0
SEQEND
0
POLYLINE
66
1
8
Sketch
62
0
0
VERTEX
8
Sketch
10
25.64
20
-40.51
0
VERTEX
8
Sketch
10
25.88
20
-40.75
0
VERTEX
8
Sketch
10
26.12
20
-41.17
0
VERTEX
8
Sketch
10
26.48
20
-41.53
0
VERTEX
8
Sketch
10
26.9
20
-41.95
0
VERTEX
8
Sketch
10
26.96
20
-42.13
0
VERTEX
8
Sketch
10
28.04
20
-43.03
0
VERTEX
8
Sketch
10
28.46
20
-43.45
0
VERTEX
8
Sketch
10
28.76
20
-43.81
0
VERTEX
8
Sketch
10
28.94
20
-43.87
0
VERTEX
8
Sketch
10
29
20
-44.05
0
VERTEX
8
Sketch
10
29.6
20
-44.53
0
VERTEX
8
Sketch
10
30.14
20
-45.07
0
VERTEX
8
Sketch
10
30.86
20
-45.67
0
VERTEX
8
Sketch
10
30.98
20
-45.73
0
SEQEND
0
POLYLINE
66
1
8
Sketch
62
30
0
VERTEX
8
Sketch
10
25.16
20
-38.71
0
VERTEX
8
Sketch
10
25.28
20
-38.71
0
VERTEX
8
Sketch
10
26.12
20
-39.37
0
VERTEX
8
Sketch
10
26.48
20
-39.97
0
VERTEX
8
Sketch
10
26.9
20
-40.51
0
VERTEX
8
Sketch
10
27.26
20
-41.41
0
VERTEX
8
Sketch
10
27.32
20
-41.65
0
VERTEX
8
Sketch
10
27.68
20
-42.37
0
VERTEX
8
Sketch
10
27.98
20
-42.79
0
VERTEX
8
Sketch
10
28.22
20
-43.03
0
VERTEX
8
Sketch
10
28.58
20
-43.57
0
SEQEND
0
POLYLINE
66
1
8
Sketch
62
0
0
VERTEX
8
Sketch
10
46.04
20
-54.43
0
VERTEX
8
Sketch
10
45.86
20
-54.49
0
VERTEX
8
Sketch
10
45.5
20
-54.25
0
VERTEX
8
Sketch
10
45.14
20
-53.71
0
VERTEX
8
Sketch
10
44.36
20
-52.87
0
VERTEX
8
Sketch
10
43.94
20
-52.33
0
VERTEX
8
Sketch
10
43.46
20
-51.73
0
VERTEX
8
Sketch
10
42.02
20
-50.23
0
VERTEX
8
Sketch
10
40.7
20
-48.85
0
VERTEX
8
Sketch
10
40.22
20
-48.25
0
VERTEX
8
Sketch
10
39.86
20
-47.65
0
VERTEX
8
Sketch
10
38.36
20
-45.79
0
VERTEX
8
Sketch
10
37.52
20
-44.65
0
VERTEX
8
Sketch
10
37.16
20
-44.23
0
VERTEX
8
Sketch
10
36.98
20
-43.93
0
VERTEX
8
Sketch
10
36.62
20
-43.69
0
VERTEX
8
Sketch
10
35.12
20
-42.13
0
VERTEX
8
Sketch
10
34.94
20
-42.07
0
VERTEX
8
Sketch
10
34.64
20
-41.71
0
VERTEX
8
Sketch
10
34.52
20
-41.71
0
VERTEX
8
Sketch
10
34.4
20
-41.59
0
VERTEX
8
Sketch
10
34.28
20
-41.59
0
VERTEX
8
Sketch
10
33.92
20
-41.29
0
VERTEX
8
Sketch
10
33.26
20
-40.81
0
VERTEX
8
Sketch
10
32.84
20
-40.39
0
VERTEX
8
Sketch
10
32.3
20
-39.91
0
VERTEX
8
Sketch
10
31.7
20
-39.49
0
VERTEX
8
Sketch
10
31.04
20
-38.53
0
VERTEX
8
Sketch
10
30.86
20
-38.23
0
VERTEX
8
Sketch
10
30.56
20
-38.05
0
VERTEX
8
Sketch
10
29.72
20
-36.97
0
VERTEX
8
Sketch
10
29.48
20
-36.73
0
VERTEX
8
Sketch
10
29.36
20
-36.43
0
VERTEX
8
Sketch
10
28.94
20
-35.95
0
VERTEX
8
Sketch
10
28.34
20
-35.23
0
SEQEND
0
POLYLINE
66
1
8
Sketch
62
5
0
VERTEX
8
Sketch
10
9.74
20
-17.17
0
VERTEX
8
Sketch
10
9.62
20
-17.41
0
SEQEND
0
POLYLINE
66
1
8
Sketch
62
5
0
VERTEX
8
Sketch
10
10.94
20
-17.77
0
VERTEX
8
Sketch
10
10.88
20
-18.61
0
VERTEX
8
Sketch
10
10.76
20
-19.09
0
SEQEND
0
POLYLINE
66
1
8
Sketch
62
5
0
VERTEX
8
Sketch
10
12.92
20
-19.45
0
VERTEX
8
Sketch
10
12.92
20
-19.63
0
VERTEX
8
Sketch
10
12.62
20
-20.95
0
VERTEX
8
Sketch
10
12.44
20
-22.09
0
VERTEX
8
Sketch
10
12.2
20
-23.17
0
VERTEX
8
Sketch
10
11.84
20
-24.25
0
SEQEND
0
POLYLINE
66
1
8
Sketch
62
5
0
VERTEX
8
Sketch
10
16.64
20
-22.99
0
VERTEX
8
Sketch
10
16.64
20
-23.23
0
VERTEX
8
Sketch
10
16.04
20
-26.17
0
VERTEX
8
Sketch
10
15.68
20
-27.61
0
VERTEX
8
Sketch
10
15.62
20
-27.91
0
VERTEX
8
Sketch
10
15.62
20
-28.09
0
SEQEND
0
POLYLINE
66
1
8
Sketch
62
5
0
VERTEX
8
Sketch
10
18.68
20
-25.57
0
VERTEX
8
Sketch
10
18.68
20
-25.93
0
VERTEX
8
Sketch
10
18.56
20
-26.47
0
VERTEX
8
Sketch
10
18.56
20
-26.77
0
VERTEX
8
Sketch
10
18.5
20
-27.19
0
VERTEX
8
Sketch
10
18.32
20
-28.45
0
VERTEX
8
Sketch
10
18.26
20
-29.23
0
VERTEX
8
Sketch
10
18.08
20
-30.73
0
VERTEX
8
Sketch
10
17.9
20
-31.81
0
VERTEX
8
Sketch
10
17.84
20
-32.35
0
VERTEX
8
Sketch
10
17.72
20
-32.77
0
SEQEND
0
POLYLINE
66
1
8
Sketch
62
5
0
VERTEX
8
Sketch
10
22.16
20
-28.93
0
VERTEX
8
Sketch
10
22.16
20
-29.29
0
VERTEX
8
Sketch
10
22.04
20
-29.71
0
VERTEX
8
Sketch
10
21.98
20
-30.25
0
VERTEX
8
Sketch
10
21.56
20
-32.35
0
VERTEX
8
Sketch
10
21.5
20
-32.83
0
VERTEX
8
Sketch
10
21.14
20
-34.93
0
VERTEX
8
Sketch
10
21.08
20
-35.59
0
VERTEX
8
Sketch
10
20.96
20
-36.01
0
SEQEND
0
POLYLINE
66
1
8
Sketch
62
5
0
VERTEX
8
Sketch
10
21.08
20
-27.37
0
VERTEX
8
Sketch
10
20.9
20
-28.57
0
VERTEX
8
Sketch
10
20.72
20
-29.17
0
VERTEX
8
Sketch
10
20.66
20
-29.71
0
VERTEX
8
Sketch
10
20.6
20
-29.83
0
VERTEX
8
Sketch
10
20.6
20
-30.19
0
VERTEX
8
Sketch
10
20.54
20
-30.49
0
VERTEX
8
Sketch
10
20.48
20
-30.91
0
VERTEX
8
Sketch
10
20.42
20
-31.03
0
VERTEX
8
Sketch
10
20.42
20
-31.45
0
VERTEX
8
Sketch
10
20.3
20
-32.29
0
VERTEX
8
Sketch
10
20.24
20
-32.53
0
VERTEX
8
Sketch
10
20.24
20
-32.83
0
VERTEX
8
Sketch
10
20.18
20
-33.07
0
VERTEX
8
Sketch
10
20.06
20
-34.03
0
VERTEX
8
Sketch
10
20
20
-34.69
0
SEQEND
0
POLYLINE
66
1
8
Sketch
62
5
0
VERTEX
8
Sketch
10
20.12
20
-26.17
0
VERTEX
8
Sketch
10
20.12
20
-26.59
0
VERTEX
8
Sketch
10
19.82
20
-28.15
0
VERTEX
8
Sketch
10
19.82
20
-28.57
0
VERTEX
8
Sketch
10
19.76
20
-28.69
0
VERTEX
8
Sketch
10
19.76
20
-28.99
0
VERTEX
8
Sketch
10
19.58
20
-29.89
0
VERTEX
8
Sketch
10
19.52
20
-30.67
0
VERTEX
8
Sketch
10
19.4
20
-31.27
0
VERTEX
8
Sketch
10
19.4
20
-31.57
0
VERTEX
8
Sketch
10
18.98
20
-33.61
0
VERTEX
8
Sketch
10
18.92
20
-34.09
0
SEQEND
0
POLYLINE
66
1
8
Sketch
62
5
0
VERTEX
8
Sketch
10
18.02
20
-24.61
0
VERTEX
8
Sketch
10
17.78
20
-25.99
0
VERTEX
8
Sketch
10
17.48
20
-27.31
0
VERTEX
8
Sketch
10
17.42
20
-28.09
0
VERTEX
8
Sketch
10
17.36
20
-28.57
0
VERTEX
8
Sketch
10
17.24
20
-28.87
0
VERTEX
8
Sketch
10
17.18
20
-29.47
0
VERTEX
8
Sketch
10
17.12
20
-29.77
0
VERTEX
8
Sketch
10
16.94
20
-30.91
0
VERTEX
8
Sketch
10
16.82
20
-31.87
0
VERTEX
8
Sketch
10
16.82
20
-32.23
0
SEQEND
0
POLYLINE
66
1
8
Sketch
62
5
0
VERTEX
8
Sketch
10
15.8
20
-22.39
0
VERTEX
8
Sketch
10
15.62
20
-23.29
0
VERTEX
8
Sketch
10
14.84
20
-25.69
0
VERTEX
8
Sketch
10
14.66
20
-26.47
0
VERTEX
8
Sketch
10
14.48
20
-27.19
0
SEQEND
0
POLYLINE
66
1
8
Sketch
62
5
0
VERTEX
8
Sketch
10
14.42
20
-21.25
0
VERTEX
8
Sketch
10
13.82
20
-23.29
0
VERTEX
8
Sketch
10
13.4
20
-24.97
0
VERTEX
8
Sketch
10
13.4
20
-25.27
0
VERTEX
8
Sketch
10
13.1
20
-25.93
0
SEQEND
0
POLYLINE
66
1
8
Sketch
62
0
0
VERTEX
8
Sketch
10
25.94
20
-32.83
0
VERTEX
8
Sketch
10
25.46
20
-32.23
0
VERTEX
8
Sketch
10
25.16
20
-31.93
0
VERTEX
8
Sketch
10
24.56
20
-31.15
0
VERTEX
8
Sketch
10
24.14
20
-30.73
0
VERTEX
8
Sketch
10
23.78
20
-30.31
0
SEQEND
0
POLYLINE
66
1
8
Sketch
62
0
0
VERTEX
8
Sketch
10
27.86
20
-35.05
0
VERTEX
8
Sketch
10
27.74
20
-34.81
0
VERTEX
8
Sketch
10
27.2
20
-34.33
0
VERTEX
8
Sketch
10
26.96
20
-33.97
0
SEQEND
0
POLYLINE
66
1
8
Sketch
62
0
0
VERTEX
8
Sketch
10
13.1
20
-18.91
0
VERTEX
8
Sketch
10
13.46
20
-19.21
0
VERTEX
8
Sketch
10
13.76
20
-19.39
0
VERTEX
8
Sketch
10
14.36
20
-20.17
0
VERTEX
8
Sketch
10
14.96
20
-20.71
0
VERTEX
8
Sketch
10
15.38
20
-20.95
0
VERTEX
8
Sketch
10
16.52
20
-22.27
0
VERTEX
8
Sketch
10
16.58
20
-22.39
0
VERTEX
8
Sketch
10
16.88
20
-22.57
0
VERTEX
8
Sketch
10
17.72
20
-23.83
0
VERTEX
8
Sketch
10
18.32
20
-24.49
0
VERTEX
8
Sketch
10
19.1
20
-25.03
0
VERTEX
8
Sketch
10
20.06
20
-25.87
0
VERTEX
8
Sketch
10
20.54
20
-26.47
0
VERTEX
8
Sketch
10
21.98
20
-27.97
0
VERTEX
8
Sketch
10
22.82
20
-28.99
0
VERTEX
8
Sketch
10
23.36
20
-29.41
0
VERTEX
8
Sketch
10
23.54
20
-29.71
0
VERTEX
8
Sketch
10
24.44
20
-30.73
0
SEQEND
0
POLYLINE
66
1
8
Sketch
62
0
0
VERTEX
8
Sketch
10
9.02
20
-21.73
0
VERTEX
8
Sketch
10
9.32
20
-21.79
0
VERTEX
8
Sketch
10
9.86
20
-22.39
0
VERTEX
8
Sketch
10
10.1
20
-22.75
0
VERTEX
8
Sketch
10
10.22
20
-22.87
0
VERTEX
8
Sketch
10
10.34
20
-22.87
0
VERTEX
8
Sketch
10
11.24
20
-24.07
0
VERTEX
8
Sketch
10
11.36
20
-24.37
0
VERTEX
8
Sketch
10
11.78
20
-24.85
0
VERTEX
8
Sketch
10
13.16
20
-26.23
0
VERTEX
8
Sketch
10
13.7
20
-26.77
0
VERTEX
8
Sketch
10
14.12
20
-27.37
0
VERTEX
8
Sketch
10
14.42
20
-27.55
0
VERTEX
8
Sketch
10
15.38
20
-28.57
0
VERTEX
8
Sketch
10
15.92
20
-29.23
0
VERTEX
8
Sketch
10
16.4
20
-30.73
0
VERTEX
8
Sketch
10
16.52
20
-30.85
0
VERTEX
8
Sketch
10
16.52
20
-30.97
0
VERTEX
8
Sketch
10
16.7
20
-31.21
0
VERTEX
8
Sketch
10
17.18
20
-32.17
0
VERTEX
8
Sketch
10
17.96
20
-33.25
0
VERTEX
8
Sketch
10
18.68
20
-33.85
0
VERTEX
8
Sketch
10
18.98
20
-34.21
0
VERTEX
8
Sketch
10
19.16
20
-34.27
0
VERTEX
8
Sketch
10
19.4
20
-34.51
0
VERTEX
8
Sketch
10
19.94
20
-35.05
0
VERTEX
8
Sketch
10
20.24
20
-35.17
0
VERTEX
8
Sketch
10
20.96
20
-35.89
0
VERTEX
8
Sketch
10
21.8
20
-36.61
0
VERTEX
8
Sketch
10
22.46
20
-37.27
0
VERTEX
8
Sketch
10
23.12
20
-37.87
0
VERTEX
8
Sketch
10
23.42
20
-38.05
0
VERTEX
8
Sketch
10
23.6
20
-38.47
0
VERTEX
8
Sketch
10
24.44
20
-39.31
0
VERTEX
8
Sketch
10
24.5
20
-39.43
0
SEQEND
0
POLYLINE
66
1
8
Sketch
62
5
0
VERTEX
8
Sketch
10
17.54
20
-25.63
0
VERTEX
8
Sketch
10
17.48
20
-25.75
0
VERTEX
8
Sketch
10
17.36
20
-25.69
0
SEQEND
0
POLYLINE
66
1
8
Sketch
62
5
0
VERTEX
8
Sketch
10
7.88
20
-12.13
0
VERTEX
8
Sketch
10
7.94
20
-12.37
0
VERTEX
8
Sketch
10
7.94
20
-12.73
0
VERTEX
8
Sketch
10
7.58
20
-14.11
0
VERTEX
8
Sketch
10
7.52
20
-14.29
0
SEQEND
0
POLYLINE
66
1
8
Sketch
62
5
0
VERTEX
8
Sketch
10
7.1
20
-11.23
0
VERTEX
8
Sketch
10
6.62
20
-12.85
0
VERTEX
8
Sketch
10
6.5
20
-13.33
0
SEQEND
0
POLYLINE
66
1
8
Sketch
62
5
0
VERTEX
8
Sketch
10
6.2
20
-9.43
0
VERTEX
8
Sketch
10
6.26
20
-9.55
0
VERTEX
8
Sketch
10
6.26
20
-9.97
0
VERTEX
8
Sketch
10
6.08
20
-11.41
0
VERTEX
8
Sketch
10
5.9
20
-12.37
0
SEQEND
0
POLYLINE
66
1
8
Sketch
62
5
0
VERTEX
8
Sketch
10
5.12
20
-8.59
0
VERTEX
8
Sketch
10
5.12
20
-8.83
0
VERTEX
8
Sketch
10
5
20
-9.13
0
VERTEX
8
Sketch
10
4.82
20
-9.91
0
VERTEX
8
Sketch
10
4.64
20
-10.57
0
SEQEND
0
POLYLINE
66
1
8
Sketch
62
5
0
VERTEX
8
Sketch
10
4.4
20
-7.45
0
VERTEX
8
Sketch
10
4.46
20
-7.57
0
VERTEX
8
Sketch
10
4.4
20
-7.69
0
SEQEND
0
POLYLINE
66
1
8
Sketch
62
0
0
VERTEX
8
Sketch
10
-0.43
20
0.74
0
VERTEX
8
Sketch
10
-0.43
20
0.68
0
VERTEX
8
Sketch
10
-0.34
20
0.62
0
VERTEX
8
Sketch
10
0.05
20
0.02
0
VERTEX
8
Sketch
10
0.11
20
-0.13
0
VERTEX
8
Sketch
10
0.32
20
-0.37
0
VERTEX
8
Sketch
10
0.44
20
-0.46
0
VERTEX
8
Sketch
10
0.62
20
-0.67
0
VERTEX
8
Sketch
10
0.83
20
-0.85
0
VERTEX
8
Sketch
10
0.86
20
-0.94
0
VERTEX
8
Sketch
10
1.25
20
-1.48
0
VERTEX
8
Sketch
10
1.37
20
-1.66
0
VERTEX
8
Sketch
10
1.49
20
-1.78
0
VERTEX
8
Sketch
10
1.55
20
-1.96
0
VERTEX
8
Sketch
10
1.7
20
-2.14
0
VERTEX
8
Sketch
10
1.73
20
-2.23
0
VERTEX
8
Sketch
10
2.03
20
-2.68
0
VERTEX
8
Sketch
10
2.45
20
-3.52
0
VERTEX
8
Sketch
10
2.63
20
-3.88
0
VERTEX
8
Sketch
10
2.78
20
-4.21
0
VERTEX
8
Sketch
10
2.99
20
-4.54
0
VERTEX
8
Sketch
10
3.29
20
-4.78
0
VERTEX
8
Sketch
10
3.44
20
-5.11
0
VERTEX
8
Sketch
10
3.44
20
-5.17
0
VERTEX
8
Sketch
10
3.5
20
-5.35
0
VERTEX
8
Sketch
10
3.5
20
-5.44
0
VERTEX
8
Sketch
10
3.56
20
-5.56
0
VERTEX
8
Sketch
10
3.56
20
-5.65
0
VERTEX
8
Sketch
10
3.83
20
-6.16
0
VERTEX
8
Sketch
10
3.95
20
-6.28
0
VERTEX
8
Sketch
10
3.98
20
-6.37
0
VERTEX
8
Sketch
10
4.22
20
-6.73
0
VERTEX
8
Sketch
10
4.73
20
-7.51
0
VERTEX
8
Sketch
10
4.73
20
-7.57
0
VERTEX
8
Sketch
10
4.79
20
-7.69
0
VERTEX
8
Sketch
10
4.79
20
-7.78
0
VERTEX
8
Sketch
10
4.85
20
-7.84
0
VERTEX
8
Sketch
10
4.88
20
-7.99
0
VERTEX
8
Sketch
10
5.09
20
-8.32
0
VERTEX
8
Sketch
10
5.27
20
-8.47
0
VERTEX
8
Sketch
10
5.39
20
-8.5
0
VERTEX
8
Sketch
10
5.72
20
-8.74
0
VERTEX
8
Sketch
10
5.9
20
-8.95
0
VERTEX
8
Sketch
10
5.9
20
-9.07
0
VERTEX
8
Sketch
10
5.99
20
-9.19
0
VERTEX
8
Sketch
10
5.99
20
-9.25
0
VERTEX
8
Sketch
10
6.08
20
-9.37
0
VERTEX
8
Sketch
10
6.08
20
-9.43
0
VERTEX
8
Sketch
10
6.26
20
-9.76
0
VERTEX
8
Sketch
10
6.41
20
-9.94
0
SEQEND
0
POLYLINE
66
1
8
Sketch
62
0
0
VERTEX
8
Sketch
10
13.25
20
-19.09
0
VERTEX
8
Sketch
10
13.04
20
-18.94
0
VERTEX
8
Sketch
10
12.77
20
-18.64
0
VERTEX
8
Sketch
10
12.41
20
-18.1
0
VERTEX
8
Sketch
10
12.2
20
-17.83
0
VERTEX
8
Sketch
10
12.11
20
-17.62
0
VERTEX
8
Sketch
10
11.84
20
-17.32
0
VERTEX
8
Sketch
10
11.48
20
-16.87
0
VERTEX
8
Sketch
10
11.21
20
-16.63
0
VERTEX
8
Sketch
10
10.76
20
-16.12
0
VERTEX
8
Sketch
10
10.67
20
-15.91
0
VERTEX
8
Sketch
10
10.55
20
-15.79
0
VERTEX
8
Sketch
10
10.52
20
-15.7
0
VERTEX
8
Sketch
10
10.13
20
-15.25
0
VERTEX
8
Sketch
10
10.1
20
-15.16
0
VERTEX
8
Sketch
10
9.86
20
-14.83
0
VERTEX
8
Sketch
10
9.44
20
-14.2
0
VERTEX
8
Sketch
10
9.32
20
-13.99
0
VERTEX
8
Sketch
10
9.23
20
-13.93
0
VERTEX
8
Sketch
10
8.87
20
-13.39
0
VERTEX
8
Sketch
10
8.84
20
-13.3
0
VERTEX
8
Sketch
10
8.75
20
-13.21
0
VERTEX
8
Sketch
10
8.66
20
-13
0
VERTEX
8
Sketch
10
8.27
20
-12.31
0
VERTEX
8
Sketch
10
8.21
20
-12.25
0
VERTEX
8
Sketch
10
8.18
20
-12.16
0
VERTEX
8
Sketch
10
8.12
20
-12.1
0
VERTEX
8
Sketch
10
8.12
20
-12.04
0
VERTEX
8
Sketch
10
7.79
20
-11.44
0
VERTEX
8
Sketch
10
7.37
20
-10.81
0
VERTEX
8
Sketch
10
7.19
20
-10.63
0
VERTEX
8
Sketch
10
7.13
20
-10.63
0
VERTEX
8
Sketch
10
6.62
20
-10.21
0
VERTEX
8
Sketch
10
6.59
20
-10.15
0
SEQEND
0
POLYLINE
66
1
8
Sketch
62
0
0
VERTEX
8
Sketch
10
11.6
20
-17.71
0
VERTEX
8
Sketch
10
11.54
20
-17.56
0
VERTEX
8
Sketch
10
11.3
20
-17.29
0
VERTEX
8
Sketch
10
11.09
20
-16.78
0
SEQEND
0
POINT
8
Sketch
62
5
10
9.12
20
-17.4
0
POLYLINE
66
1
8
Sketch
62
5
0
VERTEX
8
Sketch
10
5.84
20
-17.96
0
VERTEX
8
Sketch
10
5.88
20
-17.88
0
SEQEND
0
POLYLINE
66
1
8
Sketch
62
5
0
VERTEX
8
Sketch
10
8.6
20
-20.4
0
VERTEX
8
Sketch
10
8.8
20
-19.56
0
VERTEX
8
Sketch
10
9
20
-19
0
VERTEX
8
Sketch
10
9
20
-18.92
0
VERTEX
8
Sketch
10
9.12
20
-18.72
0
VERTEX
8
Sketch
10
9.32
20
-18.16
0
SEQEND
0
POLYLINE
66
1
8
Sketch
62
5
0
VERTEX
8
Sketch
10
7.64
20
-19.84
0
VERTEX
8
Sketch
10
7.72
20
-19.48
0
VERTEX
8
Sketch
10
7.84
20
-19.08
0
VERTEX
8
Sketch
10
7.88
20
-18.92
0
VERTEX
8
Sketch
10
8.08
20
-18.04
0
VERTEX
8
Sketch
10
8.24
20
-17.56
0
VERTEX
8
Sketch
10
8.28
20
-17.28
0
VERTEX
8
Sketch
10
8.56
20
-16.28
0
SEQEND
0
POLYLINE
66
1
8
Sketch
62
5
0
VERTEX
8
Sketch
10
6.88
20
-18.56
0
VERTEX
8
Sketch
10
6.96
20
-18.48
0
VERTEX
8
Sketch
10
7
20
-18.24
0
VERTEX
8
Sketch
10
7.32
20
-17.28
0
VERTEX
8
Sketch
10
7.36
20
-16.96
0
VERTEX
8
Sketch
10
7.48
20
-16.48
0
VERTEX
8
Sketch
10
7.48
20
-16.28
0
VERTEX
8
Sketch
10
7.52
20
-16.04
0
VERTEX
8
Sketch
10
7.68
20
-15.36
0
VERTEX
8
Sketch
10
7.72
20
-15.2
0
VERTEX
8
Sketch
10
7.8
20
-14.84
0
SEQEND
0
POLYLINE
66
1
8
Sketch
62
5
0
VERTEX
8
Sketch
10
6.72
20
-13.92
0
VERTEX
8
Sketch
10
6.64
20
-14.4
0
VERTEX
8
Sketch
10
6.56
20
-14.64
0
VERTEX
8
Sketch
10
6.56
20
-14.88
0
VERTEX
8
Sketch
10
6.44
20
-15.12
0
VERTEX
8
Sketch
10
6.4
20
-15.28
0
VERTEX
8
Sketch
10
6.36
20
-15.36
0
SEQEND
0
POLYLINE
66
1
8
Sketch
62
5
0
VERTEX
8
Sketch
10
5.8
20
-11.48
0
VERTEX
8
Sketch
10
5.84
20
-11.64
0
VERTEX
8
Sketch
10
5.8
20
-11.84
0
VERTEX
8
Sketch
10
5.76
20
-12.28
0
VERTEX
8
Sketch
10
5.72
20
-12.4
0
VERTEX
8
Sketch
10
5.72
20
-12.6
0
VERTEX
8
Sketch
10
5.64
20
-12.88
0
VERTEX
8
Sketch
10
5.64
20
-13.04
0
VERTEX
8
Sketch
10
5.52
20
-13.56
0
VERTEX
8
Sketch
10
5.52
20
-13.68
0
VERTEX
8
Sketch
10
5.44
20
-13.92
0
VERTEX
8
Sketch
10
5.44
20
-14.04
0
VERTEX
8
Sketch
10
5.28
20
-14.48
0
VERTEX
8
Sketch
10
5.2
20
-14.88
0
VERTEX
8
Sketch
10
5.12
20
-15.28
0
VERTEX
8
Sketch
10
5.12
20
-15.4
0
VERTEX
8
Sketch
10
5.08
20
-15.48
0
SEQEND
0
POLYLINE
66
1
8
Sketch
62
5
0
VERTEX
8
Sketch
10
4.88
20
-10.12
0
VERTEX
8
Sketch
10
4.92
20
-10.2
0
VERTEX
8
Sketch
10
4.84
20
-10.4
0
VERTEX
8
Sketch
10
4.8
20
-10.64
0
VERTEX
8
Sketch
10
4.72
20
-10.96
0
VERTEX
8
Sketch
10
4.64
20
-11.36
0
VERTEX
8
Sketch
10
4.6
20
-11.6
0
VERTEX
8
Sketch
10
4.48
20
-11.96
0
VERTEX
8
Sketch
10
4.48
20
-12.08
0
VERTEX
8
Sketch
10
4.4
20
-12.32
0
VERTEX
8
Sketch
10
4.4
20
-12.44
0
VERTEX
8
Sketch
10
4.32
20
-12.76
0
VERTEX
8
Sketch
10
4.32
20
-12.88
0
VERTEX
8
Sketch
10
4.2
20
-13.36
0
VERTEX
8
Sketch
10
4.12
20
-13.76
0
SEQEND
0
POLYLINE
66
1
8
Sketch
62
5
0
VERTEX
8
Sketch
10
4.2
20
-8
0
VERTEX
8
Sketch
10
4.2
20
-8.28
0
VERTEX
8
Sketch
10
4.08
20
-8.68
0
VERTEX
8
Sketch
10
4.08
20
-8.8
0
VERTEX
8
Sketch
10
4.04
20
-8.96
0
VERTEX
8
Sketch
10
4
20
-9.28
0
VERTEX
8
Sketch
10
3.96
20
-9.52
0
VERTEX
8
Sketch
10
3.92
20
-9.8
0
VERTEX
8
Sketch
10
3.92
20
-10
0
VERTEX
8
Sketch
10
3.88
20
-10.28
0
VERTEX
8
Sketch
10
3.84
20
-10.6
0
VERTEX
8
Sketch
10
3.76
20
-11.24
0
VERTEX
8
Sketch
10
3.64
20
-11.6
0
VERTEX
8
Sketch
10
3.64
20
-11.8
0
VERTEX
8
Sketch
10
3.52
20
-12.32
0
VERTEX
8
Sketch
10
3.48
20
-12.56
0
SEQEND
0
POLYLINE
66
1
8
Sketch
62
5
0
VERTEX
8
Sketch
10
3.4
20
-6.32
0
VERTEX
8
Sketch
10
3.44
20
-6.44
0
VERTEX
8
Sketch
10
3.4
20
-6.64
0
VERTEX
8
Sketch
10
3.08
20
-8
0
VERTEX
8
Sketch
10
2.88
20
-8.84
0
VERTEX
8
Sketch
10
2.88
20
-9.08
0
VERTEX
8
Sketch
10
2.84
20
-9.24
0
VERTEX
8
Sketch
10
2.76
20
-9.8
0
VERTEX
8
Sketch
10
2.72
20
-10.16
0
VERTEX
8
Sketch
10
2.64
20
-10.52
0
VERTEX
8
Sketch
10
2.52
20
-11.08
0
SEQEND
0
POLYLINE
66
1
8
Sketch
62
5
0
VERTEX
8
Sketch
10
0.64
20
-5.12
0
VERTEX
8
Sketch
10
0.56
20
-5.44
0
VERTEX
8
Sketch
10
0.32
20
-6.2
0
VERTEX
8
Sketch
10
0.24
20
-6.6
0
VERTEX
8
Sketch
10
0.2
20
-6.92
0
VERTEX
8
Sketch
10
0.2
20
-7.08
0
VERTEX
8
Sketch
10
0.16
20
-7.28
0
VERTEX
8
Sketch
10
0.16
20
-7.4
0
VERTEX
8
Sketch
10
0.08
20
-7.64
0
VERTEX
8
Sketch
10
0.08
20
-7.76
0
VERTEX
8
Sketch
10
0.04
20
-7.84
0
SEQEND
0
POLYLINE
66
1
8
Sketch
62
5
0
VERTEX
8
Sketch
10
1.56
20
-5
0
VERTEX
8
Sketch
10
1.56
20
-5.28
0
VERTEX
8
Sketch
10
1.6
20
-5.44
0
VERTEX
8
Sketch
10
1.6
20
-5.64
0
VERTEX
8
Sketch
10
1.56
20
-5.8
0
VERTEX
8
Sketch
10
1.56
20
-6.72
0
VERTEX
8
Sketch
10
1.52
20
-7.12
0
VERTEX
8
Sketch
10
1.52
20
-7.28
0
VERTEX
8
Sketch
10
1.48
20
-7.48
0
VERTEX
8
Sketch
10
1.48
20
-7.72
0
VERTEX
8
Sketch
10
1.44
20
-7.88
0
VERTEX
8
Sketch
10
1.44
20
-8.4
0
VERTEX
8
Sketch
10
1.4
20
-8.56
0
VERTEX
8
Sketch
10
1.4
20
-8.92
0
VERTEX
8
Sketch
10
1.36
20
-9.08
0
VERTEX
8
Sketch
10
1.36
20
-9.16
0
SEQEND
0
POLYLINE
66
1
8
Sketch
62
5
0
VERTEX
8
Sketch
10
2.52
20
-5.12
0
VERTEX
8
Sketch
10
2.52
20
-5.32
0
VERTEX
8
Sketch
10
2.48
20
-5.4
0
VERTEX
8
Sketch
10
2.48
20
-5.84
0
VERTEX
8
Sketch
10
2.36
20
-6.64
0
VERTEX
8
Sketch
10
2.28
20
-7
0
VERTEX
8
Sketch
10
2.28
20
-7.32
0
VERTEX
8
Sketch
10
2.2
20
-7.8
0
VERTEX
8
Sketch
10
2.16
20
-7.96
0
VERTEX
8
Sketch
10
2.16
20
-8.08
0
VERTEX
8
Sketch
10
2.12
20
-8.24
0
VERTEX
8
Sketch
10
2.04
20
-8.68
0
VERTEX
8
Sketch
10
2
20
-9.04
0
VERTEX
8
Sketch
10
1.92
20
-9.36
0
VERTEX
8
Sketch
10
1.92
20
-9.56
0
VERTEX
8
Sketch
10
1.84
20
-9.92
0
VERTEX
8
Sketch
10
1.76
20
-10.44
0
SEQEND
0
POLYLINE
66
1
8
Sketch
62
0
0
VERTEX
8
Sketch
10
9.52
20
-21.56
0
VERTEX
8
Sketch
10
9.52
20
-21.64
0
VERTEX
8
Sketch
10
9.08
20
-21.44
0
VERTEX
8
Sketch
10
8.72
20
-21.08
0
VERTEX
8
Sketch
10
8.72
20
-21
0
VERTEX
8
Sketch
10
8.04
20
-20.36
0
VERTEX
8
Sketch
10
7.56
20
-19.92
0
VERTEX
8
Sketch
10
7.36
20
-19.48
0
VERTEX
8
Sketch
10
7.2
20
-19.24
0
VERTEX
8
Sketch
10
7.12
20
-19.2
0
VERTEX
8
Sketch
10
7
20
-19
0
VERTEX
8
Sketch
10
6.6
20
-18.6
0
VERTEX
8
Sketch
10
6.56
20
-18.52
0
VERTEX
8
Sketch
10
6.36
20
-18.4
0
VERTEX
8
Sketch
10
5.96
20
-18.04
0
VERTEX
8
Sketch
10
5.72
20
-17.88
0
VERTEX
8
Sketch
10
5.56
20
-16.6
0
VERTEX
8
Sketch
10
5.52
20
-16.44
0
VERTEX
8
Sketch
10
5.24
20
-16.16
0
VERTEX
8
Sketch
10
4.84
20
-15.68
0
VERTEX
8
Sketch
10
4.48
20
-15.16
0
VERTEX
8
Sketch
10
3.92
20
-14.2
0
VERTEX
8
Sketch
10
3.8
20
-14
0
VERTEX
8
Sketch
10
3.52
20
-13.56
0
VERTEX
8
Sketch
10
3.52
20
-13.44
0
VERTEX
8
Sketch
10
3.36
20
-13.08
0
VERTEX
8
Sketch
10
3.2
20
-12.84
0
VERTEX
8
Sketch
10
3.16
20
-12.68
0
VERTEX
8
Sketch
10
3.08
20
-12.44
0
VERTEX
8
Sketch
10
2.96
20
-12.28
0
VERTEX
8
Sketch
10
2.72
20
-11.8
0
VERTEX
8
Sketch
10
2.64
20
-11.72
0
VERTEX
8
Sketch
10
2.64
20
-11.64
0
VERTEX
8
Sketch
10
2.28
20
-11.16
0
VERTEX
8
Sketch
10
2.16
20
-10.96
0
VERTEX
8
Sketch
10
1.56
20
-10.36
0
VERTEX
8
Sketch
10
1.48
20
-10.16
0
VERTEX
8
Sketch
10
1.28
20
-9.92
0
VERTEX
8
Sketch
10
0.84
20
-9.12
0
VERTEX
8
Sketch
10
0.76
20
-9.04
0
VERTEX
8
Sketch
10
0.76
20
-8.96
0
VERTEX
8
Sketch
10
0.64
20
-8.76
0
VERTEX
8
Sketch
10
0.08
20
-7.84
0
VERTEX
8
Sketch
10
0
20
-7.84
0
VERTEX
8
Sketch
10
-0.12
20
-7.6
0
SEQEND
0
POLYLINE
66
1
8
Sketch
62
0
0
VERTEX
8
Sketch
10
-2.96
20
-7.44
0
VERTEX
8
Sketch
10
-2.84
20
-7.32
0
VERTEX
8
Sketch
10
-2.68
20
-7.28
0
VERTEX
8
Sketch
10
-2.6
20
-7.28
0
VERTEX
8
Sketch
10
-2.44
20
-7.16
0
VERTEX
8
Sketch
10
-2.08
20
-6.96
0
VERTEX
8
Sketch
10
-1.72
20
-6.96
0
VERTEX
8
Sketch
10
-1.48
20
-6.88
0
VERTEX
8
Sketch
10
-1.16
20
-6.88
0
VERTEX
8
Sketch
10
-1.08
20
-6.84
0
VERTEX
8
Sketch
10
-0.92
20
-6.88
0
VERTEX
8
Sketch
10
-0.68
20
-6.92
0
VERTEX
8
Sketch
10
-0.48
20
-7.12
0
VERTEX
8
Sketch
10
-0.36
20
-7.44
0
VERTEX
8
Sketch
10
-0.36
20
-7.72
0
SEQEND
0
LINE
8
Shots
62
1
10
80.542
20
-99.514
11
90.654
21
-93.652
0
CIRCLE
8
Shots
62
1
10
90.654
20
-93.652
40
0.1
0
TEXT
8
Label
40
1
1
51.2
10
90.654
20
-93.652
0
LINE
8
Shots
62
1
10
77.72
20
-99.004
11
80.542
21
-99.514
0
CIRCLE
8
Shots
62
1
10
80.542
20
-99.514
40
0.1
0
TEXT
8
Label
40
1
1
51.1
10
80.542
20
-99.514
0
LINE
8
XSect
62
1
10
80.542
20
-99.514
11
80.212
21
-96.744
0
LINE
8
XSect
62
1
6
DASH
10
80.542
20
-99.514
11
81
21
-100.082
0
LINE
8
XSect
62
1
6
DASH
10
80.542
20
-99.514
11
80.85
21
-98.288
0
LINE
8
XSect
62
1
6
DASH
10
80.542
20
-99.514
11
80.532
21
-99.448
0
LINE
8
Shots
62
1
10
77.72
20
-99.004
11
77.72
21
-99.004
0
CIRCLE
8
Shots
62
1
10
77.72
20
-99.004
40
0.1
0
LINE
8
Shots
62
1
10
77.72
20
-99.004
11
80.93
21
-108.886
0
CIRCLE
8
Shots
62
1
10
80.93
20
-108.886
40
0.1
0
TEXT
8
Label
40
1
1
50.8
10
80.93
20
-108.886
0
LINE
8
Shots
62
1
10
79.612
20
-89.558
11
77.72
21
-99.004
0
CIRCLE
8
Shots
62
1
10
77.72
20
-99.004
40
0.1
0
TEXT
8
Label
40
1
1
50.7
10
77.72
20
-99.004
0
LINE
8
XSect
62
1
10
77.72
20
-99.004
11
80.184
21
-98.914
0
LINE
8
XSect
62
1
10
77.72
20
-99.004
11
91.234
21
-94.69
0
LINE
8
XSect
62
1
6
DASH
10
77.72
20
-99.004
11
78.778
21
-99.276
0
LINE
8
Shots
62
1
10
71.548
20
-74.542
11
79.612
21
-89.558
0
CIRCLE
8
Shots
62
1
10
79.612
20
-89.558
40
0.1
0
TEXT
8
Label
40
1
1
50.6
10
79.612
20
-89.558
0
LINE
8
XSect
62
1
10
79.612
20
-89.558
11
79.95
21
-89.362
0
LINE
8
XSect
62
1
10
79.612
20
-89.558
11
75.718
21
-91.65
0
LINE
8
XSect
62
1
6
DASH
10
79.612
20
-89.558
11
79.478
21
-89.584
0
LINE
8
Shots
62
1
10
50.466
20
-67.786
11
71.548
21
-74.542
0
CIRCLE
8
Shots
62
1
10
71.548
20
-74.542
40
0.1
0
TEXT
8
Label
40
1
1
50.5
10
71.548
20
-74.542
0
LINE
8
XSect
62
1
10
71.548
20
-74.542
11
64.066
21
-82.876
0
LINE
8
XSect
62
1
6
DASH
10
71.548
20
-74.542
11
71.352
21
-74.874
0
LINE
8
XSect
62
1
6
DASH
10
71.548
20
-74.542
11
71.564
21
-74.498
0
LINE
8
Shots
62
1
10
46.466
20
-54.93
11
50.466
21
-67.786
0
CIRCLE
8
Shots
62
1
10
50.466
20
-67.786
40
0.1
0
TEXT
8
Label
40
1
1
50.4
10
50.466
20
-67.786
0
LINE
8
XSect
62
1
10
50.466
20
-67.786
11
53.978
21
-64.644
0
LINE
8
XSect
62
1
6
DASH
10
50.466
20
-67.786
11
50.834
21
-67.512
0
LINE
8
XSect
62
1
6
DASH
10
50.466
20
-67.786
11
50.518
21
-67.792
0
LINE
8
Shots
62
1
10
25.946
20
-38.566
11
46.466
21
-54.93
0
CIRCLE
8
Shots
62
1
10
46.466
20
-54.93
40
0.1
0
TEXT
8
Label
40
1
1
50.3
10
46.466
20
-54.93
0
LINE
8
XSect
62
1
10
46.466
20
-54.93
11
42.924
21
-59.436
0
LINE
8
XSect
62
1
6
DASH
10
46.466
20
-54.93
11
46.252
21
-55.47
0
LINE
8
XSect
62
1
6
DASH
10
46.466
20
-54.93
11
46.386
21
-54.926
0
LINE
8
Shots
62
1
10
9.542
20
-21.144
11
25.946
21
-38.566
0
CIRCLE
8
Shots
62
1
10
25.946
20
-38.566
40
0.1
0
TEXT
8
Label
40
1
1
50.2
10
25.946
20
-38.566
0
LINE
8
XSect
62
1
10
25.946
20
-38.566
11
28.264
21
-36.528
0
LINE
8
XSect
62
1
10
25.946
20
-38.566
11
24.578
21
-39.552
0
LINE
8
XSect
62
1
6
DASH
10
25.946
20
-38.566
11
26.218
21
-38.358
0
LINE
8
XSect
62
1
6
DASH
10
25.946
20
-38.566
11
26.004
21
-38.558
0
LINE
8
Shots
62
1
10
0
20
0
11
9.542
21
-21.144
0
CIRCLE
8
Shots
62
1
10
9.542
20
-21.144
40
0.1
0
TEXT
8
Label
40
1
1
50.1
10
9.542
20
-21.144
0
LINE
8
XSect
62
1
10
9.542
20
-21.144
11
13.256
21
-19.24
0
LINE
8
XSect
62
1
6
DASH
10
9.542
20
-21.144
11
9.812
21
-20.912
0
LINE
8
XSect
62
1
6
DASH
10
9.542
20
-21.144
11
9.57
21
-21.17
0
LINE
8
Shots
62
1
10
0
20
0
11
0
21
0
0
CIRCLE
8
Shots
62
1
10
0
20
0
40
0.1
0
LINE
8
XSect
62
1
10
0
20
0
11
-2.174
21
-6.858
0
LINE
8
XSect
62
1
6
DASH
10
0
20
0
11
0.054
21
-0.252
0
LINE
8
XSect
62
1
6
DASH
10
0
20
0
11
-0.058
21
-0.014
0
LINE
8
XSect
62
1
10
0
20
0
11
-0.444
21
-6.644
0
ENDSEC
0
EOF
