0
SECTION
2
HEADER
9
$ACADVER
1
AC1002
9
$INSUNITS
70
4
0
ENDSEC
0
SECTION
2
TABLES
0
TABLE
2
LTYPE
70
1
0
LTYPE
2
DASH
70
0
3
---
72
65
73
2
40
0.6
49
0.3
49
-0.3
0
ENDTAB
0
ENDSEC
0
SECTION
2
ENTITIES
0
POLYLINE
66
1
8
Sketch
62
0
0
VERTEX
8
Sketch
10
74.57
20
0.69
0
VERTEX
8
Sketch
10
74.77
20
0.89
0
VERTEX
8
Sketch
10
75.01
20
0.81
0
VERTEX
8
Sketch
10
75.13
20
0.73
0
VERTEX
8
Sketch
10
75.45
20
0.69
0
VERTEX
8
Sketch
10
75.81
20
0.69
0
VERTEX
8
Sketch
10
75.89
20
0.61
0
VERTEX
8
Sketch
10
76.05
20
0.61
0
VERTEX
8
Sketch
10
76.21
20
0.65
0
VERTEX
8
Sketch
10
76.37
20
0.57
0
VERTEX
8
Sketch
10
76.49
20
0.57
0
VERTEX
8
Sketch
10
76.57
20
0.53
0
VERTEX
8
Sketch
10
76.65
20
0.57
0
VERTEX
8
Sketch
10
76.89
20
0.49
0
VERTEX
8
Sketch
10
76.97
20
0.37
0
SEQEND
0
POLYLINE
66
1
8
Sketch
62
5
0
VERTEX
8
Sketch
10
36.01
20
-3.83
0
VERTEX
8
Sketch
10
36.13
20
-3.79
0
VERTEX
8
Sketch
10
36.41
20
-3.47
0
VERTEX
8
Sketch
10
37.33
20
-2.11
0
VERTEX
8
Sketch
10
37.81
20
-1.63
0
VERTEX
8
Sketch
10
37.89
20
-1.47
0
SEQEND
0
POLYLINE
66
1
8
Sketch
62
5
0
VERTEX
8
Sketch
10
42.41
20
-3.51
0
VERTEX
8
Sketch
10
42.69
20
-3.15
0
VERTEX
8
Sketch
10
43.45
20
-2.47
0
VERTEX
8
Sketch
10
43.73
20
-2.23
0
VERTEX
8
Sketch
10
43.89
20
-2.15
0
VERTEX
8
Sketch
10
44.09
20
-1.95
0
VERTEX
8
Sketch
10
44.37
20
-1.75
0
VERTEX
8
Sketch
10
44.57
20
-1.59
0
VERTEX
8
Sketch
10
44.61
20
-1.47
0
VERTEX
8
Sketch
10
44.81
20
-1.35
0
SEQEND
0
POLYLINE
66
1
8
Sketch
62
5
0
VERTEX
8
Sketch
10
43.13
20
-3.83
0
VERTEX
8
Sketch
10
43.41
20
-3.55
0
VERTEX
8
Sketch
10
44.41
20
-2.63
0
VERTEX
8
Sketch
10
45.25
20
-1.75
0
VERTEX
8
Sketch
10
45.45
20
-1.47
0
SEQEND
0
POLYLINE
66
1
8
Sketch
62
5
0
VERTEX
8
Sketch
10
44.57
20
-3.95
0
VERTEX
8
Sketch
10
44.65
20
-3.75
0
VERTEX
8
Sketch
10
45.65
20
-2.55
0
VERTEX
8
Sketch
10
46.21
20
-1.59
0
SEQEND
0
POLYLINE
66
1
8
Sketch
62
5
0
VERTEX
8
Sketch
10
46.09
20
-3.75
0
VERTEX
8
Sketch
10
46.01
20
-3.67
0
VERTEX
8
Sketch
10
46.25
20
-3.19
0
VERTEX
8
Sketch
10
46.45
20
-2.91
0
VERTEX
8
Sketch
10
46.89
20
-2.31
0
VERTEX
8
Sketch
10
47.65
20
-1.47
0
VERTEX
8
Sketch
10
47.85
20
-1.23
0
SEQEND
0
POLYLINE
66
1
8
Sketch
62
5
0
VERTEX
8
Sketch
10
47.01
20
-3.79
0
VERTEX
8
Sketch
10
47.05
20
-3.59
0
VERTEX
8
Sketch
10
47.45
20
-3.03
0
VERTEX
8
Sketch
10
48.25
20
-2.03
0
VERTEX
8
Sketch
10
48.57
20
-1.67
0
VERTEX
8
Sketch
10
48.77
20
-1.43
0
SEQEND
0
POLYLINE
66
1
8
Sketch
62
5
0
VERTEX
8
Sketch
10
47.85
20
-3.71
0
VERTEX
8
Sketch
10
47.93
20
-3.51
0
VERTEX
8
Sketch
10
48.69
20
-2.67
0
VERTEX
8
Sketch
10
49.09
20
-2.15
0
VERTEX
8
Sketch
10
49.61
20
-1.47
0
VERTEX
8
Sketch
10
49.65
20
-1.39
0
SEQEND
0
POLYLINE
66
1
8
Sketch
62
5
0
VERTEX
8
Sketch
10
48.69
20
-4.19
0
VERTEX
8
Sketch
10
48.69
20
-4.27
0
VERTEX
8
Sketch
10
48.93
20
-3.63
0
VERTEX
8
Sketch
10
49.53
20
-2.71
0
VERTEX
8
Sketch
10
49.93
20
-2.23
0
VERTEX
8
Sketch
10
50.13
20
-2.03
0
VERTEX
8
Sketch
10
50.41
20
-1.67
0
VERTEX
8
Sketch
10
50.61
20
-1.43
0
VERTEX
8
Sketch
10
50.77
20
-1.11
0
SEQEND
0
POLYLINE
66
1
8
Sketch
62
5
0
VERTEX
8
Sketch
10
49.85
20
-3.99
0
VERTEX
8
Sketch
10
50.01
20
-3.59
0
VERTEX
8
Sketch
10
50.53
20
-2.95
0
VERTEX
8
Sketch
10
51.41
20
-1.83
0
VERTEX
8
Sketch
10
51.45
20
-1.71
0
VERTEX
8
Sketch
10
51.61
20
-1.55
0
VERTEX
8
Sketch
10
51.97
20
-1.07
0
SEQEND
0
POLYLINE
66
1
8
Sketch
62
5
0
VERTEX
8
Sketch
10
50.57
20
-4.11
0
VERTEX
8
Sketch
10
50.81
20
-3.83
0
VERTEX
8
Sketch
10
50.93
20
-3.59
0
VERTEX
8
Sketch
10
51.13
20
-3.31
0
VERTEX
8
Sketch
10
51.41
20
-2.95
0
VERTEX
8
Sketch
10
52.21
20
-1.95
0
VERTEX
8
Sketch
10
52.57
20
-1.39
0
VERTEX
8
Sketch
10
52.81
20
-1.03
0
VERTEX
8
Sketch
10
52.81
20
-0.95
0
SEQEND
0
POLYLINE
66
1
8
Sketch
62
5
0
VERTEX
8
Sketch
10
51.45
20
-4.43
0
VERTEX
8
Sketch
10
52.01
20
-3.59
0
VERTEX
8
Sketch
10
52.33
20
-3.23
0
VERTEX
8
Sketch
10
52.85
20
-2.55
0
VERTEX
8
Sketch
10
53.17
20
-2.19
0
VERTEX
8
Sketch
10
53.41
20
-1.95
0
VERTEX
8
Sketch
10
53.85
20
-1.27
0
VERTEX
8
Sketch
10
53.97
20
-1.07
0
VERTEX
8
Sketch
10
54.01
20
-0.99
0
SEQEND
0
POLYLINE
66
1
8
Sketch
62
5
0
VERTEX
8
Sketch
10
52.81
20
-4.43
0
VERTEX
8
Sketch
10
52.93
20
-4.27
0
VERTEX
8
Sketch
10
53.17
20
-3.75
0
VERTEX
8
Sketch
10
54.09
20
-2.47
0
VERTEX
8
Sketch
10
54.33
20
-2.15
0
VERTEX
8
Sketch
10
54.45
20
-2.07
0
VERTEX
8
Sketch
10
54.57
20
-1.87
0
VERTEX
8
Sketch
10
55.21
20
-1.15
0
SEQEND
0
POLYLINE
66
1
8
Sketch
62
5
0
VERTEX
8
Sketch
10
53.45
20
-4.67
0
VERTEX
8
Sketch
10
54.13
20
-3.55
0
VERTEX
8
Sketch
10
54.33
20
-3.35
0
VERTEX
8
Sketch
10
54.61
20
-2.99
0
VERTEX
8
Sketch
10
55.73
20
-1.63
0
VERTEX
8
Sketch
10
56.09
20
-1.23
0
VERTEX
8
Sketch
10
56.29
20
-0.99
0
SEQEND
0
POLYLINE
66
1
8
Sketch
62
5
0
VERTEX
8
Sketch
10
54.85
20
-4.35
0
VERTEX
8
Sketch
10
54.97
20
-4.03
0
VERTEX
8
Sketch
10
55.69
20
-2.95
0
VERTEX
8
Sketch
10
56.25
20
-2.31
0
VERTEX
8
Sketch
10
56.45
20
-2.03
0
VERTEX
8
Sketch
10
56.97
20
-1.47
0
VERTEX
8
Sketch
10
57.21
20
-1.15
0
SEQEND
0
POLYLINE
66
1
8
Sketch
62
5
0
VERTEX
8
Sketch
10
55.65
20
-4.43
0
VERTEX
8
Sketch
10
56.13
20
-3.71
0
VERTEX
8
Sketch
10
57.05
20
-2.63
0
VERTEX
8
Sketch
10
57.89
20
-1.79
0
VERTEX
8
Sketch
10
58.29
20
-1.27
0
SEQEND
0
POLYLINE
66
1
8
Sketch
62
5
0
VERTEX
8
Sketch
10
56.93
20
-4.19
0
VERTEX
8
Sketch
10
57.09
20
-3.91
0
VERTEX
8
Sketch
10
57.81
20
-3.03
0
VERTEX
8
Sketch
10
58.89
20
-1.95
0
VERTEX
8
Sketch
10
59.17
20
-1.67
0
SEQEND
0
POLYLINE
66
1
8
Sketch
62
5
0
VERTEX
8
Sketch
10
57.97
20
-4.27
0
VERTEX
8
Sketch
10
58.81
20
-3.27
0
VERTEX
8
Sketch
10
58.85
20
-3.15
0
VERTEX
8
Sketch
10
59.21
20
-2.79
0
VERTEX
8
Sketch
10
59.81
20
-2.03
0
SEQEND
0
POLYLINE
66
1
8
Sketch
62
5
0
VERTEX
8
Sketch
10
59.13
20
-4.63
0
VERTEX
8
Sketch
10
59.17
20
-4.43
0
VERTEX
8
Sketch
10
60.01
20
-3.15
0
VERTEX
8
Sketch
10
61.17
20
-1.59
0
SEQEND
0
POLYLINE
66
1
8
Sketch
62
5
0
VERTEX
8
Sketch
10
60.25
20
-3.99
0
VERTEX
8
Sketch
10
60.49
20
-3.67
0
VERTEX
8
Sketch
10
60.89
20
-3.15
0
VERTEX
8
Sketch
10
61.25
20
-2.71
0
VERTEX
8
Sketch
10
61.49
20
-2.47
0
VERTEX
8
Sketch
10
61.93
20
-1.91
0
VERTEX
8
Sketch
10
62.37
20
-1.23
0
SEQEND
0
POLYLINE
66
1
8
Sketch
62
5
0
VERTEX
8
Sketch
10
62.17
20
-3.71
0
VERTEX
8
Sketch
10
62.17
20
-3.59
0
VERTEX
8
Sketch
10
62.25
20
-3.31
0
VERTEX
8
Sketch
10
62.69
20
-2.71
0
VERTEX
8
Sketch
10
63.25
20
-2.15
0
SEQEND
0
POLYLINE
66
1
8
Sketch
62
5
0
VERTEX
8
Sketch
10
62.69
20
-3.91
0
VERTEX
8
Sketch
10
62.69
20
-3.83
0
VERTEX
8
Sketch
10
63.37
20
-2.91
0
VERTEX
8
Sketch
10
64.37
20
-1.95
0
VERTEX
8
Sketch
10
64.69
20
-1.51
0
SEQEND
0
POLYLINE
66
1
8
Sketch
62
5
0
VERTEX
8
Sketch
10
63.65
20
-3.71
0
VERTEX
8
Sketch
10
64.29
20
-2.87
0
VERTEX
8
Sketch
10
65.29
20
-1.71
0
SEQEND
0
POLYLINE
66
1
8
Sketch
62
5
0
VERTEX
8
Sketch
10
64.73
20
-3.87
0
VERTEX
8
Sketch
10
64.97
20
-3.47
0
VERTEX
8
Sketch
10
65.81
20
-2.39
0
VERTEX
8
Sketch
10
66.53
20
-1.59
0
SEQEND
0
POLYLINE
66
1
8
Sketch
62
5
0
VERTEX
8
Sketch
10
65.97
20
-3.47
0
VERTEX
8
Sketch
10
66.09
20
-3.35
0
VERTEX
8
Sketch
10
66.61
20
-2.67
0
VERTEX
8
Sketch
10
67.77
20
-1.47
0
SEQEND
0
POLYLINE
66
1
8
Sketch
62
5
0
VERTEX
8
Sketch
10
66.77
20
-3.95
0
VERTEX
8
Sketch
10
67.01
20
-3.55
0
VERTEX
8
Sketch
10
67.73
20
-2.71
0
VERTEX
8
Sketch
10
68.17
20
-2.19
0
VERTEX
8
Sketch
10
68.73
20
-1.63
0
VERTEX
8
Sketch
10
68.85
20
-1.43
0
SEQEND
0
POLYLINE
66
1
8
Sketch
62
5
0
VERTEX
8
Sketch
10
67.93
20
-3.87
0
VERTEX
8
Sketch
10
67.93
20
-3.79
0
VERTEX
8
Sketch
10
68.49
20
-3.23
0
VERTEX
8
Sketch
10
68.69
20
-2.95
0
VERTEX
8
Sketch
10
69.73
20
-1.91
0
VERTEX
8
Sketch
10
69.77
20
-1.79
0
VERTEX
8
Sketch
10
69.85
20
-1.75
0
SEQEND
0
POLYLINE
66
1
8
Sketch
62
5
0
VERTEX
8
Sketch
10
68.89
20
-3.99
0
VERTEX
8
Sketch
10
69.77
20
-3.11
0
VERTEX
8
Sketch
10
70.85
20
-2.19
0
VERTEX
8
Sketch
10
70.93
20
-2.15
0
SEQEND
0
POLYLINE
66
1
8
Sketch
62
5
0
VERTEX
8
Sketch
10
69.93
20
-3.83
0
VERTEX
8
Sketch
10
70.01
20
-3.63
0
VERTEX
8
Sketch
10
71.53
20
-2.27
0
VERTEX
8
Sketch
10
72.13
20
-1.55
0
VERTEX
8
Sketch
10
72.17
20
-1.43
0
VERTEX
8
Sketch
10
72.45
20
-1.19
0
SEQEND
0
POLYLINE
66
1
8
Sketch
62
5
0
VERTEX
8
Sketch
10
70.97
20
-3.99
0
VERTEX
8
Sketch
10
70.97
20
-3.91
0
VERTEX
8
Sketch
10
72.29
20
-2.55
0
VERTEX
8
Sketch
10
73.09
20
-1.71
0
SEQEND
0
POLYLINE
66
1
8
Sketch
62
5
0
VERTEX
8
Sketch
10
72.01
20
-3.95
0
VERTEX
8
Sketch
10
73.57
20
-2.67
0
VERTEX
8
Sketch
10
74.77
20
-1.47
0
SEQEND
0
POLYLINE
66
1
8
Sketch
62
5
0
VERTEX
8
Sketch
10
72.97
20
-4.39
0
VERTEX
8
Sketch
10
73.45
20
-3.87
0
VERTEX
8
Sketch
10
73.93
20
-3.31
0
VERTEX
8
Sketch
10
75.13
20
-2.11
0
VERTEX
8
Sketch
10
75.17
20
-2.03
0
SEQEND
0
POLYLINE
66
1
8
Sketch
62
5
0
VERTEX
8
Sketch
10
73.97
20
-4.63
0
VERTEX
8
Sketch
10
74.33
20
-4.27
0
VERTEX
8
Sketch
10
74.41
20
-4.11
0
VERTEX
8
Sketch
10
74.81
20
-3.71
0
VERTEX
8
Sketch
10
75.85
20
-2.51
0
VERTEX
8
Sketch
10
76.05
20
-2.23
0
VERTEX
8
Sketch
10
76.61
20
-1.59
0
SEQEND
0
POLYLINE
66
1
8
Sketch
62
5
0
VERTEX
8
Sketch
10
75.25
20
-4.59
0
VERTEX
8
Sketch
10
75.29
20
-4.43
0
VERTEX
8
Sketch
10
75.97
20
-3.67
0
VERTEX
8
Sketch
10
76.65
20
-2.95
0
VERTEX
8
Sketch
10
77.01
20
-2.47
0
VERTEX
8
Sketch
10
77.21
20
-2.07
0
VERTEX
8
Sketch
10
77.49
20
-1.75
0
SEQEND
0
POINT
8
Sketch
62
5
10
80.33
20
2.97
0
POLYLINE
66
1
8
Sketch
62
5
0
VERTEX
8
Sketch
10
77.05
20
-3.71
0
VERTEX
8
Sketch
10
77.05
20
-3.59
0
VERTEX
8
Sketch
10
77.37
20
-3.03
0
VERTEX
8
Sketch
10
78.17
20
-2.03
0
VERTEX
8
Sketch
10
78.89
20
-1.31
0
SEQEND
0
POLYLINE
66
1
8
Sketch
62
5
0
VERTEX
8
Sketch
10
77.41
20
-4.07
0
VERTEX
8
Sketch
10
77.81
20
-3.43
0
VERTEX
8
Sketch
10
78.29
20
-2.75
0
VERTEX
8
Sketch
10
78.73
20
-2.23
0
VERTEX
8
Sketch
10
79.33
20
-1.67
0
VERTEX
8
Sketch
10
79.45
20
-1.47
0
SEQEND
0
POLYLINE
66
1
8
Sketch
62
5
0
VERTEX
8
Sketch
10
78.29
20
-4.19
0
VERTEX
8
Sketch
10
78.57
20
-3.67
0
VERTEX
8
Sketch
10
79.17
20
-2.95
0
VERTEX
8
Sketch
10
79.89
20
-2.23
0
VERTEX
8
Sketch
10
80.13
20
-1.87
0
VERTEX
8
Sketch
10
80.25
20
-1.79
0
VERTEX
8
Sketch
10
80.73
20
-1.07
0
VERTEX
8
Sketch
10
80.81
20
-1.03
0
SEQEND
0
POLYLINE
66
1
8
Sketch
62
5
0
VERTEX
8
Sketch
10
79.53
20
-4.15
0
VERTEX
8
Sketch
10
79.57
20
-3.95
0
VERTEX
8
Sketch
10
79.81
20
-3.55
0
VERTEX
8
Sketch
10
80.97
20
-2.31
0
VERTEX
8
Sketch
10
81.61
20
-1.35
0
VERTEX
8
Sketch
10
81.93
20
-0.99
0
SEQEND
0
POLYLINE
66
1
8
Sketch
62
5
0
VERTEX
8
Sketch
10
80.57
20
-4.03
0
VERTEX
8
Sketch
10
80.89
20
-3.55
0
VERTEX
8
Sketch
10
83.13
20
-1.27
0
SEQEND
0
POLYLINE
66
1
8
Sketch
62
5
0
VERTEX
8
Sketch
10
81.89
20
-4.15
0
VERTEX
8
Sketch
10
82.33
20
-3.47
0
VERTEX
8
Sketch
10
82.85
20
-2.95
0
VERTEX
8
Sketch
10
84.01
20
-1.75
0
SEQEND
0
POLYLINE
66
1
8
Sketch
62
5
0
VERTEX
8
Sketch
10
83.05
20
-3.95
0
VERTEX
8
Sketch
10
83.17
20
-3.83
0
VERTEX
8
Sketch
10
83.57
20
-3.31
0
VERTEX
8
Sketch
10
84.53
20
-2.43
0
VERTEX
8
Sketch
10
84.85
20
-2.11
0
SEQEND
0
POLYLINE
66
1
8
Sketch
62
5
0
VERTEX
8
Sketch
10
84.33
20
-3.91
0
VERTEX
8
Sketch
10
84.85
20
-3.31
0
VERTEX
8
Sketch
10
85.61
20
-2.55
0
VERTEX
8
Sketch
10
86.33
20
-1.95
0
VERTEX
8
Sketch
10
87.13
20
-1.11
0
SEQEND
0
POLYLINE
66
1
8
Sketch
62
5
0
VERTEX
8
Sketch
10
85.37
20
-3.71
0
VERTEX
8
Sketch
10
86.85
20
-2.31
0
VERTEX
8
Sketch
10
87.93
20
-1.31
0
SEQEND
0
POLYLINE
66
1
8
Sketch
62
5
0
VERTEX
8
Sketch
10
86.89
20
-3.71
0
VERTEX
8
Sketch
10
87.89
20
-2.55
0
VERTEX
8
Sketch
10
88.53
20
-1.99
0
SEQEND
0
POLYLINE
66
1
8
Sketch
62
5
0
VERTEX
8
Sketch
10
88.29
20
-3.63
0
VERTEX
8
Sketch
10
88.33
20
-3.43
0
VERTEX
8
Sketch
10
88.57
20
-3.11
0
VERTEX
8
Sketch
10
89.81
20
-1.87
0
VERTEX
8
Sketch
10
90.25
20
-1.31
0
VERTEX
8
Sketch
10
90.25
20
-1.23
0
VERTEX
8
Sketch
10
90.53
20
-0.99
0
SEQEND
0
POLYLINE
66
1
8
Sketch
62
5
0
VERTEX
8
Sketch
10
89.73
20
-3.43
0
VERTEX
8
Sketch
10
91.09
20
-1.87
0
VERTEX
8
Sketch
10
92.05
20
-1.03
0
VERTEX
8
Sketch
10
92.21
20
-0.87
0
SEQEND
0
POLYLINE
66
1
8
Sketch
62
5
0
VERTEX
8
Sketch
10
90.73
20
-3.59
0
VERTEX
8
Sketch
10
93.41
20
-1.03
0
SEQEND
0
POLYLINE
66
1
8
Sketch
62
5
0
VERTEX
8
Sketch
10
91.09
20
-3.91
0
VERTEX
8
Sketch
10
93.73
20
-1.07
0
SEQEND
0
POLYLINE
66
1
8
Sketch
62
5
0
VERTEX
8
Sketch
10
92.29
20
-3.63
0
VERTEX
8
Sketch
10
92.29
20
-3.55
0
VERTEX
8
Sketch
10
92.81
20
-2.95
0
VERTEX
8
Sketch
10
93.17
20
-2.67
0
VERTEX
8
Sketch
10
93.33
20
-2.59
0
VERTEX
8
Sketch
10
93.93
20
-2.03
0
SEQEND
0
POLYLINE
66
1
8
Sketch
62
5
0
VERTEX
8
Sketch
10
93.61
20
-3.67
0
VERTEX
8
Sketch
10
93.81
20
-3.31
0
VERTEX
8
Sketch
10
94.41
20
-2.47
0
VERTEX
8
Sketch
10
95.25
20
-1.59
0
VERTEX
8
Sketch
10
95.69
20
-1.27
0
VERTEX
8
Sketch
10
95.73
20
-1.19
0
SEQEND
0
POLYLINE
66
1
8
Sketch
62
5
0
VERTEX
8
Sketch
10
94.65
20
-3.27
0
VERTEX
8
Sketch
10
95.37
20
-2.67
0
VERTEX
8
Sketch
10
95.49
20
-2.47
0
VERTEX
8
Sketch
10
96.29
20
-1.71
0
SEQEND
0
POLYLINE
66
1
8
Sketch
62
5
0
VERTEX
8
Sketch
10
95.81
20
-3.35
0
VERTEX
8
Sketch
10
96.85
20
-2.23
0
VERTEX
8
Sketch
10
97.69
20
-1.47
0
VERTEX
8
Sketch
10
97.89
20
-1.19
0
SEQEND
0
POLYLINE
66
1
8
Sketch
62
5
0
VERTEX
8
Sketch
10
96.81
20
-3.67
0
VERTEX
8
Sketch
10
96.89
20
-3.43
0
VERTEX
8
Sketch
10
97.41
20
-2.71
0
VERTEX
8
Sketch
10
98.17
20
-1.99
0
VERTEX
8
Sketch
10
98.57
20
-1.67
0
VERTEX
8
Sketch
10
98.85
20
-1.35
0
SEQEND
0
POLYLINE
66
1
8
Sketch
62
5
0
VERTEX
8
Sketch
10
98.13
20
-3.43
0
VERTEX
8
Sketch
10
98.45
20
-2.87
0
VERTEX
8
Sketch
10
99.29
20
-2.07
0
SEQEND
0
POLYLINE
66
1
8
Sketch
62
5
0
VERTEX
8
Sketch
10
99.29
20
-3.31
0
VERTEX
8
Sketch
10
100.05
20
-2.43
0
SEQEND
0
POLYLINE
66
1
8
Sketch
62
5
0
VERTEX
8
Sketch
10
100.09
20
-3.47
0
VERTEX
8
Sketch
10
101.17
20
-2.47
0
SEQEND
0
POLYLINE
66
1
8
Sketch
62
5
0
VERTEX
8
Sketch
10
101.77
20
-3.23
0
VERTEX
8
Sketch
10
101.93
20
-2.91
0
VERTEX
8
Sketch
10
102.85
20
-1.99
0
SEQEND
0
POLYLINE
66
1
8
Sketch
62
5
0
VERTEX
8
Sketch
10
102.81
20
-3.19
0
VERTEX
8
Sketch
10
102.93
20
-2.99
0
VERTEX
8
Sketch
10
104.13
20
-1.91
0
SEQEND
0
POLYLINE
66
1
8
Sketch
62
5
0
VERTEX
8
Sketch
10
103.57
20
-3.35
0
VERTEX
8
Sketch
10
103.81
20
-3.11
0
VERTEX
8
Sketch
10
104.25
20
-2.59
0
VERTEX
8
Sketch
10
104.93
20
-2.07
0
SEQEND
0
POLYLINE
66
1
8
Sketch
62
5
0
VERTEX
8
Sketch
10
104.61
20
-3.47
0
VERTEX
8
Sketch
10
104.77
20
-3.31
0
VERTEX
8
Sketch
10
104.81
20
-3.19
0
VERTEX
8
Sketch
10
104.93
20
-3.11
0
VERTEX
8
Sketch
10
105.01
20
-2.95
0
VERTEX
8
Sketch
10
105.53
20
-2.43
0
VERTEX
8
Sketch
10
105.89
20
-2.11
0
SEQEND
0
POLYLINE
66
1
8
Sketch
62
5
0
VERTEX
8
Sketch
10
105.57
20
-3.63
0
VERTEX
8
Sketch
10
105.57
20
-3.55
0
VERTEX
8
Sketch
10
106.73
20
-2.67
0
VERTEX
8
Sketch
10
107.09
20
-2.35
0
SEQEND
0
POLYLINE
66
1
8
Sketch
62
5
0
VERTEX
8
Sketch
10
106.61
20
-3.59
0
VERTEX
8
Sketch
10
107.25
20
-2.95
0
VERTEX
8
Sketch
10
107.85
20
-2.47
0
SEQEND
0
POLYLINE
66
1
8
Sketch
62
5
0
VERTEX
8
Sketch
10
108.17
20
-3.39
0
VERTEX
8
Sketch
10
108.57
20
-2.99
0
VERTEX
8
Sketch
10
108.81
20
-2.75
0
VERTEX
8
Sketch
10
109.33
20
-2.39
0
VERTEX
8
Sketch
10
110.05
20
-1.79
0
SEQEND
0
POLYLINE
66
1
8
Sketch
62
5
0
VERTEX
8
Sketch
10
109.21
20
-3.47
0
VERTEX
8
Sketch
10
110.45
20
-2.15
0
VERTEX
8
Sketch
10
110.61
20
-2.07
0
SEQEND
0
POLYLINE
66
1
8
Sketch
62
5
0
VERTEX
8
Sketch
10
110.85
20
-3.55
0
VERTEX
8
Sketch
10
111.13
20
-3.15
0
VERTEX
8
Sketch
10
111.57
20
-2.67
0
SEQEND
0
POLYLINE
66
1
8
Sketch
62
5
0
VERTEX
8
Sketch
10
112.41
20
-2.67
0
VERTEX
8
Sketch
10
112.49
20
-2.67
0
VERTEX
8
Sketch
10
113.21
20
-1.99
0
VERTEX
8
Sketch
10
113.85
20
-1.51
0
SEQEND
0
POLYLINE
66
1
8
Sketch
62
5
0
VERTEX
8
Sketch
10
112.57
20
-3.39
0
VERTEX
8
Sketch
10
112.57
20
-3.19
0
VERTEX
8
Sketch
10
112.97
20
-2.59
0
SEQEND
0
POLYLINE
66
1
8
Sketch
62
5
0
VERTEX
8
Sketch
10
113.29
20
-3.35
0
VERTEX
8
Sketch
10
113.17
20
-3.47
0
VERTEX
8
Sketch
10
113.17
20
-3.35
0
VERTEX
8
Sketch
10
114.05
20
-2.43
0
SEQEND
0
POLYLINE
66
1
8
Sketch
62
5
0
VERTEX
8
Sketch
10
114.25
20
-3.03
0
VERTEX
8
Sketch
10
114.25
20
-3.03
0
VERTEX
8
Sketch
10
114.57
20
-2.67
0
VERTEX
8
Sketch
10
114.97
20
-2.39
0
VERTEX
8
Sketch
10
115.29
20
-2.11
0
SEQEND
0
POLYLINE
66
1
8
Sketch
62
5
0
VERTEX
8
Sketch
10
114.85
20
-3.55
0
VERTEX
8
Sketch
10
115.21
20
-3.07
0
VERTEX
8
Sketch
10
115.49
20
-2.79
0
VERTEX
8
Sketch
10
116.05
20
-2.11
0
SEQEND
0
POLYLINE
66
1
8
Sketch
62
5
0
VERTEX
8
Sketch
10
115.65
20
-3.79
0
VERTEX
8
Sketch
10
115.61
20
-3.71
0
VERTEX
8
Sketch
10
115.69
20
-3.51
0
VERTEX
8
Sketch
10
116.49
20
-2.59
0
VERTEX
8
Sketch
10
116.89
20
-1.99
0
VERTEX
8
Sketch
10
117.05
20
-1.79
0
SEQEND
0
POLYLINE
66
1
8
Sketch
62
5
0
VERTEX
8
Sketch
10
116.73
20
-3.43
0
VERTEX
8
Sketch
10
116.73
20
-3.31
0
VERTEX
8
Sketch
10
117.61
20
-2.27
0
VERTEX
8
Sketch
10
117.89
20
-1.83
0
SEQEND
0
POLYLINE
66
1
8
Sketch
62
5
0
VERTEX
8
Sketch
10
117.73
20
-3.35
0
VERTEX
8
Sketch
10
117.81
20
-3.35
0
VERTEX
8
Sketch
10
118.33
20
-2.67
0
VERTEX
8
Sketch
10
118.65
20
-2.39
0
VERTEX
8
Sketch
10
118.89
20
-2.23
0
VERTEX
8
Sketch
10
118.97
20
-2.15
0
SEQEND
0
POLYLINE
66
1
8
Sketch
62
5
0
VERTEX
8
Sketch
10
118.37
20
-3.55
0
VERTEX
8
Sketch
10
118.85
20
-3.19
0
VERTEX
8
Sketch
10
119.81
20
-2.27
0
SEQEND
0
POLYLINE
66
1
8
Sketch
62
5
0
VERTEX
8
Sketch
10
119.21
20
-3.67
0
VERTEX
8
Sketch
10
119.21
20
-3.51
0
VERTEX
8
Sketch
10
119.49
20
-3.15
0
VERTEX
8
Sketch
10
119.61
20
-3.11
0
VERTEX
8
Sketch
10
120.21
20
-2.63
0
SEQEND
0
POLYLINE
66
1
8
Sketch
62
5
0
VERTEX
8
Sketch
10
120.37
20
-3.63
0
VERTEX
8
Sketch
10
120.33
20
-3.55
0
VERTEX
8
Sketch
10
121.05
20
-2.79
0
SEQEND
0
POLYLINE
66
1
8
Sketch
62
5
0
VERTEX
8
Sketch
10
120.97
20
-3.63
0
VERTEX
8
Sketch
10
121.85
20
-2.75
0
SEQEND
0
POLYLINE
66
1
8
Sketch
62
5
0
VERTEX
8
Sketch
10
121.85
20
-3.75
0
VERTEX
8
Sketch
10
122.33
20
-3.31
0
VERTEX
8
Sketch
10
122.69
20
-2.99
0
VERTEX
8
Sketch
10
122.85
20
-2.91
0
SEQEND
0
POLYLINE
66
1
8
Sketch
62
5
0
VERTEX
8
Sketch
10
122.17
20
-4.11
0
VERTEX
8
Sketch
10
122.65
20
-3.63
0
VERTEX
8
Sketch
10
123.57
20
-2.83
0
SEQEND
0
POLYLINE
66
1
8
Sketch
62
5
0
VERTEX
8
Sketch
10
123.73
20
-4.15
0
VERTEX
8
Sketch
10
123.77
20
-3.95
0
VERTEX
8
Sketch
10
124.13
20
-3.51
0
SEQEND
0
POLYLINE
66
1
8
Sketch
62
5
0
VERTEX
8
Sketch
10
124.97
20
-4.63
0
VERTEX
8
Sketch
10
125.09
20
-4.43
0
VERTEX
8
Sketch
10
125.73
20
-3.67
0
VERTEX
8
Sketch
10
125.77
20
-3.59
0
SEQEND
0
POLYLINE
66
1
8
Sketch
62
5
0
VERTEX
8
Sketch
10
126.21
20
-4.87
0
VERTEX
8
Sketch
10
126.25
20
-4.71
0
VERTEX
8
Sketch
10
126.89
20
-3.87
0
SEQEND
0
POLYLINE
66
1
8
Sketch
62
5
0
VERTEX
8
Sketch
10
127.01
20
-5.15
0
VERTEX
8
Sketch
10
127.01
20
-5.03
0
VERTEX
8
Sketch
10
127.17
20
-4.87
0
VERTEX
8
Sketch
10
127.37
20
-4.75
0
VERTEX
8
Sketch
10
127.93
20
-4.35
0
VERTEX
8
Sketch
10
128.05
20
-4.15
0
SEQEND
0
POLYLINE
66
1
8
Sketch
62
0
0
VERTEX
8
Sketch
10
109.75
20
-3.63
0
VERTEX
8
Sketch
10
109.75
20
-3.83
0
VERTEX
8
Sketch
10
110.25
20
-3.93
0
VERTEX
8
Sketch
10
110.65
20
-3.83
0
VERTEX
8
Sketch
10
111.05
20
-3.83
0
VERTEX
8
Sketch
10
111.25
20
-3.73
0
VERTEX
8
Sketch
10
111.65
20
-3.83
0
VERTEX
8
Sketch
10
112.15
20
-3.63
0
VERTEX
8
Sketch
10
112.55
20
-3.83
0
VERTEX
8
Sketch
10
112.75
20
-3.73
0
VERTEX
8
Sketch
10
112.95
20
-3.83
0
VERTEX
8
Sketch
10
113.75
20
-3.53
0
VERTEX
8
Sketch
10
114.15
20
-3.63
0
VERTEX
8
Sketch
10
115.25
20
-3.63
0
VERTEX
8
Sketch
10
115.45
20
-3.73
0
VERTEX
8
Sketch
10
116.05
20
-3.53
0
VERTEX
8
Sketch
10
116.75
20
-3.63
0
VERTEX
8
Sketch
10
117.15
20
-3.53
0
VERTEX
8
Sketch
10
117.55
20
-3.63
0
VERTEX
8
Sketch
10
118.55
20
-3.83
0
VERTEX
8
Sketch
10
119.25
20
-3.83
0
VERTEX
8
Sketch
10
119.45
20
-3.73
0
VERTEX
8
Sketch
10
120.05
20
-3.93
0
VERTEX
8
Sketch
10
120.35
20
-3.93
0
VERTEX
8
Sketch
10
120.75
20
-3.83
0
VERTEX
8
Sketch
10
121.85
20
-4.03
0
VERTEX
8
Sketch
10
122.05
20
-3.93
0
VERTEX
8
Sketch
10
122.85
20
-4.13
0
VERTEX
8
Sketch
10
123.25
20
-4.13
0
VERTEX
8
Sketch
10
123.45
20
-4.23
0
VERTEX
8
Sketch
10
123.75
20
-4.13
0
VERTEX
8
Sketch
10
124.55
20
-4.43
0
VERTEX
8
Sketch
10
124.75
20
-4.43
0
VERTEX
8
Sketch
10
125.15
20
-4.73
0
VERTEX
8
Sketch
10
125.35
20
-4.73
0
VERTEX
8
Sketch
10
125.55
20
-4.93
0
VERTEX
8
Sketch
10
126.15
20
-4.93
0
VERTEX
8
Sketch
10
126.35
20
-5.13
0
VERTEX
8
Sketch
10
126.55
20
-5.03
0
VERTEX
8
Sketch
10
126.75
20
-5.23
0
VERTEX
8
Sketch
10
127.15
20
-5.33
0
VERTEX
8
Sketch
10
127.55
20
-5.53
0
VERTEX
8
Sketch
10
127.75
20
-5.43
0
VERTEX
8
Sketch
10
128.35
20
-5.73
0
VERTEX
8
Sketch
10
128.65
20
-5.73
0
VERTEX
8
Sketch
10
128.75
20
-5.93
0
VERTEX
8
Sketch
10
129.15
20
-6.03
0
VERTEX
8
Sketch
10
130.15
20
-6.63
0
VERTEX
8
Sketch
10
130.55
20
-6.73
0
VERTEX
8
Sketch
10
130.95
20
-6.83
0
VERTEX
8
Sketch
10
131.75
20
-7.33
0
VERTEX
8
Sketch
10
132.15
20
-7.43
0
VERTEX
8
Sketch
10
133.15
20
-7.93
0
VERTEX
8
Sketch
10
133.65
20
-8.03
0
VERTEX
8
Sketch
10
134.05
20
-8.13
0
VERTEX
8
Sketch
10
134.25
20
-8.33
0
VERTEX
8
Sketch
10
134.65
20
-8.33
0
VERTEX
8
Sketch
10
134.75
20
-8.53
0
VERTEX
8
Sketch
10
135.25
20
-8.53
0
VERTEX
8
Sketch
10
135.45
20
-8.73
0
VERTEX
8
Sketch
10
135.85
20
-8.83
0
VERTEX
8
Sketch
10
136.25
20
-9.03
0
VERTEX
8
Sketch
10
136.45
20
-8.93
0
VERTEX
8
Sketch
10
136.85
20
-9.33
0
VERTEX
8
Sketch
10
137.25
20
-9.33
0
VERTEX
8
Sketch
10
137.65
20
-9.73
0
VERTEX
8
Sketch
10
137.85
20
-9.73
0
VERTEX
8
Sketch
10
138.05
20
-9.93
0
VERTEX
8
Sketch
10
138.25
20
-9.83
0
VERTEX
8
Sketch
10
138.75
20
-10.13
0
VERTEX
8
Sketch
10
139.75
20
-10.33
0
VERTEX
8
Sketch
10
140.15
20
-10.33
0
VERTEX
8
Sketch
10
140.75
20
-10.53
0
VERTEX
8
Sketch
10
140.95
20
-10.53
0
SEQEND
0
POLYLINE
66
1
8
Sketch
62
0
0
VERTEX
8
Sketch
10
96.85
20
7.17
0
VERTEX
8
Sketch
10
96.65
20
7.37
0
VERTEX
8
Sketch
10
96.75
20
7.57
0
SEQEND
0
POLYLINE
66
1
8
Sketch
62
0
0
VERTEX
8
Sketch
10
71.35
20
-4.63
0
VERTEX
8
Sketch
10
71.75
20
-4.53
0
VERTEX
8
Sketch
10
72.15
20
-4.53
0
VERTEX
8
Sketch
10
72.35
20
-4.63
0
VERTEX
8
Sketch
10
73.05
20
-4.53
0
VERTEX
8
Sketch
10
73.75
20
-4.53
0
VERTEX
8
Sketch
10
74.35
20
-4.73
0
VERTEX
8
Sketch
10
75.05
20
-4.63
0
VERTEX
8
Sketch
10
75.55
20
-4.63
0
VERTEX
8
Sketch
10
75.75
20
-4.53
0
VERTEX
8
Sketch
10
76.15
20
-4.63
0
VERTEX
8
Sketch
10
76.35
20
-4.53
0
VERTEX
8
Sketch
10
76.55
20
-4.63
0
VERTEX
8
Sketch
10
76.95
20
-4.53
0
VERTEX
8
Sketch
10
77.35
20
-4.53
0
VERTEX
8
Sketch
10
78.05
20
-4.43
0
VERTEX
8
Sketch
10
78.65
20
-4.43
0
VERTEX
8
Sketch
10
78.85
20
-4.33
0
VERTEX
8
Sketch
10
79.45
20
-4.53
0
VERTEX
8
Sketch
10
79.85
20
-4.53
0
VERTEX
8
Sketch
10
80.85
20
-4.33
0
VERTEX
8
Sketch
10
81.25
20
-4.43
0
VERTEX
8
Sketch
10
81.65
20
-4.33
0
VERTEX
8
Sketch
10
82.95
20
-4.33
0
VERTEX
8
Sketch
10
83.35
20
-4.23
0
VERTEX
8
Sketch
10
83.85
20
-4.23
0
VERTEX
8
Sketch
10
84.05
20
-4.13
0
VERTEX
8
Sketch
10
84.25
20
-4.33
0
VERTEX
8
Sketch
10
85.45
20
-4.03
0
VERTEX
8
Sketch
10
86.75
20
-4.03
0
VERTEX
8
Sketch
10
87.15
20
-3.93
0
VERTEX
8
Sketch
10
88.85
20
-3.93
0
VERTEX
8
Sketch
10
89.05
20
-3.83
0
VERTEX
8
Sketch
10
89.45
20
-3.93
0
VERTEX
8
Sketch
10
89.85
20
-4.03
0
VERTEX
8
Sketch
10
90.05
20
-4.13
0
SEQEND
0
POLYLINE
66
1
8
Sketch
62
32
0
VERTEX
8
Sketch
10
101.75
20
25.07
0
VERTEX
8
Sketch
10
101.55
20
25.27
0
SEQEND
0
POLYLINE
66
1
8
Sketch
62
32
0
VERTEX
8
Sketch
10
100.15
20
25.27
0
VERTEX
8
Sketch
10
100.05
20
25.47
0
SEQEND
0
POLYLINE
66
1
8
Sketch
62
32
0
VERTEX
8
Sketch
10
86.75
20
-3.33
0
VERTEX
8
Sketch
10
86.75
20
-3.53
0
VERTEX
8
Sketch
10
87.15
20
-3.73
0
VERTEX
8
Sketch
10
87.45
20
-3.73
0
VERTEX
8
Sketch
10
87.85
20
-3.83
0
VERTEX
8
Sketch
10
88.25
20
-3.73
0
VERTEX
8
Sketch
10
88.85
20
-3.73
0
VERTEX
8
Sketch
10
89.25
20
-3.63
0
VERTEX
8
Sketch
10
90.15
20
-3.83
0
VERTEX
8
Sketch
10
90.35
20
-3.73
0
VERTEX
8
Sketch
10
90.95
20
-3.93
0
VERTEX
8
Sketch
10
91.65
20
-3.83
0
VERTEX
8
Sketch
10
92.55
20
-3.63
0
VERTEX
8
Sketch
10
92.95
20
-3.73
0
VERTEX
8
Sketch
10
93.15
20
-3.63
0
VERTEX
8
Sketch
10
93.55
20
-3.73
0
VERTEX
8
Sketch
10
94.15
20
-3.73
0
VERTEX
8
Sketch
10
94.55
20
-3.63
0
VERTEX
8
Sketch
10
94.95
20
-3.73
0
VERTEX
8
Sketch
10
95.65
20
-3.63
0
VERTEX
8
Sketch
10
96.35
20
-3.63
0
VERTEX
8
Sketch
10
96.75
20
-3.73
0
VERTEX
8
Sketch
10
97.25
20
-3.63
0
VERTEX
8
Sketch
10
97.75
20
-3.63
0
VERTEX
8
Sketch
10
98.15
20
-3.53
0
VERTEX
8
Sketch
10
99.95
20
-3.53
0
VERTEX
8
Sketch
10
100.45
20
-3.43
0
VERTEX
8
Sketch
10
101.15
20
-3.43
0
VERTEX
8
Sketch
10
101.55
20
-3.53
0
VERTEX
8
Sketch
10
102.75
20
-3.53
0
VERTEX
8
Sketch
10
103.15
20
-3.63
0
VERTEX
8
Sketch
10
103.55
20
-3.53
0
VERTEX
8
Sketch
10
104.55
20
-3.83
0
VERTEX
8
Sketch
10
104.95
20
-3.73
0
VERTEX
8
Sketch
10
105.35
20
-3.83
0
VERTEX
8
Sketch
10
105.65
20
-3.73
0
VERTEX
8
Sketch
10
106.05
20
-3.83
0
VERTEX
8
Sketch
10
106.95
20
-3.73
0
VERTEX
8
Sketch
10
107.65
20
-3.53
0
VERTEX
8
Sketch
10
108.25
20
-3.53
0
VERTEX
8
Sketch
10
108.95
20
-3.73
0
VERTEX
8
Sketch
10
109.35
20
-3.63
0
VERTEX
8
Sketch
10
109.75
20
-3.63
0
VERTEX
8
Sketch
10
109.95
20
-3.73
0
VERTEX
8
Sketch
10
110.15
20
-3.63
0
SEQEND
0
POLYLINE
66
1
8
Sketch
62
0
0
VERTEX
8
Sketch
10
34.95
20
-4.13
0
VERTEX
8
Sketch
10
36.75
20
-4.13
0
VERTEX
8
Sketch
10
36.95
20
-4.23
0
VERTEX
8
Sketch
10
37.85
20
-3.93
0
VERTEX
8
Sketch
10
38.25
20
-4.03
0
VERTEX
8
Sketch
10
39.25
20
-4.03
0
VERTEX
8
Sketch
10
39.45
20
-4.13
0
VERTEX
8
Sketch
10
39.95
20
-4.03
0
VERTEX
8
Sketch
10
40.75
20
-4.03
0
VERTEX
8
Sketch
10
41.15
20
-3.83
0
VERTEX
8
Sketch
10
43.65
20
-3.83
0
VERTEX
8
Sketch
10
44.05
20
-3.93
0
VERTEX
8
Sketch
10
44.45
20
-4.03
0
VERTEX
8
Sketch
10
44.65
20
-4.13
0
VERTEX
8
Sketch
10
45.25
20
-3.93
0
VERTEX
8
Sketch
10
45.65
20
-4.03
0
VERTEX
8
Sketch
10
45.95
20
-3.93
0
VERTEX
8
Sketch
10
46.35
20
-4.03
0
VERTEX
8
Sketch
10
47.25
20
-3.93
0
VERTEX
8
Sketch
10
47.65
20
-3.93
0
VERTEX
8
Sketch
10
48.05
20
-4.03
0
VERTEX
8
Sketch
10
48.85
20
-4.13
0
VERTEX
8
Sketch
10
49.25
20
-4.23
0
VERTEX
8
Sketch
10
49.85
20
-4.43
0
VERTEX
8
Sketch
10
50.35
20
-4.43
0
VERTEX
8
Sketch
10
50.95
20
-4.63
0
VERTEX
8
Sketch
10
51.25
20
-4.53
0
VERTEX
8
Sketch
10
51.65
20
-4.63
0
VERTEX
8
Sketch
10
53.15
20
-4.63
0
VERTEX
8
Sketch
10
53.85
20
-4.83
0
VERTEX
8
Sketch
10
54.45
20
-4.63
0
VERTEX
8
Sketch
10
54.75
20
-4.73
0
VERTEX
8
Sketch
10
55.15
20
-4.63
0
VERTEX
8
Sketch
10
55.55
20
-4.73
0
VERTEX
8
Sketch
10
56.05
20
-4.73
0
VERTEX
8
Sketch
10
56.45
20
-4.63
0
VERTEX
8
Sketch
10
56.85
20
-4.53
0
VERTEX
8
Sketch
10
57.05
20
-4.63
0
VERTEX
8
Sketch
10
57.65
20
-4.43
0
VERTEX
8
Sketch
10
58.05
20
-4.53
0
VERTEX
8
Sketch
10
58.35
20
-4.53
0
VERTEX
8
Sketch
10
58.75
20
-4.43
0
VERTEX
8
Sketch
10
59.45
20
-4.53
0
VERTEX
8
Sketch
10
59.75
20
-4.53
0
VERTEX
8
Sketch
10
60.25
20
-4.43
0
VERTEX
8
Sketch
10
61.05
20
-4.43
0
VERTEX
8
Sketch
10
61.25
20
-4.23
0
VERTEX
8
Sketch
10
61.45
20
-4.33
0
VERTEX
8
Sketch
10
62.05
20
-4.13
0
VERTEX
8
Sketch
10
63.25
20
-4.13
0
VERTEX
8
Sketch
10
63.65
20
-4.23
0
VERTEX
8
Sketch
10
66.45
20
-4.23
0
VERTEX
8
Sketch
10
66.65
20
-4.13
0
VERTEX
8
Sketch
10
67.15
20
-4.33
0
VERTEX
8
Sketch
10
67.35
20
-4.23
0
VERTEX
8
Sketch
10
67.95
20
-4.43
0
VERTEX
8
Sketch
10
68.35
20
-4.33
0
VERTEX
8
Sketch
10
68.95
20
-4.33
0
VERTEX
8
Sketch
10
69.35
20
-4.23
0
VERTEX
8
Sketch
10
71.55
20
-4.23
0
SEQEND
0
POLYLINE
66
1
8
Sketch
62
5
0
VERTEX
8
Sketch
10
1.22
20
-1.54
0
VERTEX
8
Sketch
10
1.14
20
-1.54
0
VERTEX
8
Sketch
10
0.9
20
-1.86
0
VERTEX
8
Sketch
10
0.3
20
-2.46
0
VERTEX
8
Sketch
10
0.26
20
-2.54
0
SEQEND
0
POLYLINE
66
1
8
Sketch
62
5
0
VERTEX
8
Sketch
10
2.3
20
-1.58
0
VERTEX
8
Sketch
10
1.98
20
-1.66
0
VERTEX
8
Sketch
10
1.38
20
-2.3
0
VERTEX
8
Sketch
10
1.1
20
-2.5
0
VERTEX
8
Sketch
10
0.34
20
-3.3
0
SEQEND
0
POLYLINE
66
1
8
Sketch
62
5
0
VERTEX
8
Sketch
10
3.3
20
-1.54
0
VERTEX
8
Sketch
10
3.14
20
-1.58
0
VERTEX
8
Sketch
10
2.82
20
-1.78
0
VERTEX
8
Sketch
10
1.06
20
-3.5
0
VERTEX
8
Sketch
10
0.18
20
-4.26
0
VERTEX
8
Sketch
10
0.1
20
-4.42
0
VERTEX
8
Sketch
10
0.22
20
-4.46
0
SEQEND
0
POLYLINE
66
1
8
Sketch
62
5
0
VERTEX
8
Sketch
10
4.14
20
-1.46
0
VERTEX
8
Sketch
10
4.06
20
-1.42
0
VERTEX
8
Sketch
10
1.86
20
-3.62
0
VERTEX
8
Sketch
10
1.22
20
-4.26
0
VERTEX
8
Sketch
10
0.62
20
-4.86
0
VERTEX
8
Sketch
10
0.74
20
-4.78
0
SEQEND
0
POLYLINE
66
1
8
Sketch
62
5
0
VERTEX
8
Sketch
10
5.58
20
-1.3
0
VERTEX
8
Sketch
10
5.22
20
-1.54
0
VERTEX
8
Sketch
10
3.66
20
-3.02
0
VERTEX
8
Sketch
10
3.1
20
-3.66
0
VERTEX
8
Sketch
10
1.98
20
-4.74
0
SEQEND
0
POLYLINE
66
1
8
Sketch
62
5
0
VERTEX
8
Sketch
10
6.3
20
-1.46
0
VERTEX
8
Sketch
10
6.22
20
-1.46
0
VERTEX
8
Sketch
10
5.58
20
-2.1
0
VERTEX
8
Sketch
10
5.18
20
-2.58
0
VERTEX
8
Sketch
10
3.06
20
-4.58
0
VERTEX
8
Sketch
10
3.1
20
-4.5
0
SEQEND
0
POLYLINE
66
1
8
Sketch
62
5
0
VERTEX
8
Sketch
10
7.5
20
-1.54
0
VERTEX
8
Sketch
10
7.06
20
-1.82
0
VERTEX
8
Sketch
10
5.94
20
-2.94
0
VERTEX
8
Sketch
10
4.18
20
-4.5
0
VERTEX
8
Sketch
10
4.06
20
-4.62
0
VERTEX
8
Sketch
10
4.06
20
-4.54
0
SEQEND
0
POLYLINE
66
1
8
Sketch
62
5
0
VERTEX
8
Sketch
10
8.7
20
-1.5
0
VERTEX
8
Sketch
10
8.54
20
-1.58
0
VERTEX
8
Sketch
10
7.26
20
-2.86
0
VERTEX
8
Sketch
10
6.5
20
-3.46
0
VERTEX
8
Sketch
10
5.14
20
-4.54
0
SEQEND
0
POLYLINE
66
1
8
Sketch
62
5
0
VERTEX
8
Sketch
10
9.62
20
-1.58
0
VERTEX
8
Sketch
10
9.42
20
-1.62
0
VERTEX
8
Sketch
10
9.14
20
-1.86
0
VERTEX
8
Sketch
10
8.62
20
-2.46
0
VERTEX
8
Sketch
10
6.06
20
-4.98
0
SEQEND
0
POLYLINE
66
1
8
Sketch
62
5
0
VERTEX
8
Sketch
10
11.06
20
-1.66
0
VERTEX
8
Sketch
10
10.94
20
-1.7
0
VERTEX
8
Sketch
10
9.7
20
-2.7
0
VERTEX
8
Sketch
10
8.98
20
-3.42
0
VERTEX
8
Sketch
10
7.78
20
-4.38
0
VERTEX
8
Sketch
10
7.66
20
-4.46
0
SEQEND
0
POLYLINE
66
1
8
Sketch
62
5
0
VERTEX
8
Sketch
10
12.42
20
-1.82
0
VERTEX
8
Sketch
10
11.74
20
-2.26
0
VERTEX
8
Sketch
10
10.94
20
-2.98
0
VERTEX
8
Sketch
10
9.3
20
-4.26
0
SEQEND
0
POLYLINE
66
1
8
Sketch
62
5
0
VERTEX
8
Sketch
10
13.66
20
-1.7
0
VERTEX
8
Sketch
10
12.98
20
-2.26
0
VERTEX
8
Sketch
10
11.86
20
-3.22
0
VERTEX
8
Sketch
10
11.3
20
-3.62
0
VERTEX
8
Sketch
10
11.22
20
-3.74
0
VERTEX
8
Sketch
10
10.74
20
-4.02
0
VERTEX
8
Sketch
10
10.38
20
-4.34
0
SEQEND
0
POLYLINE
66
1
8
Sketch
62
5
0
VERTEX
8
Sketch
10
14.58
20
-1.62
0
VERTEX
8
Sketch
10
12.7
20
-3.34
0
VERTEX
8
Sketch
10
12.38
20
-3.54
0
VERTEX
8
Sketch
10
12.22
20
-3.74
0
VERTEX
8
Sketch
10
11.82
20
-3.98
0
VERTEX
8
Sketch
10
11.78
20
-4.06
0
SEQEND
0
POLYLINE
66
1
8
Sketch
62
5
0
VERTEX
8
Sketch
10
15.78
20
-1.7
0
VERTEX
8
Sketch
10
15.34
20
-2.18
0
VERTEX
8
Sketch
10
14.62
20
-2.74
0
VERTEX
8
Sketch
10
13.62
20
-3.54
0
VERTEX
8
Sketch
10
13.02
20
-4.14
0
SEQEND
0
POLYLINE
66
1
8
Sketch
62
5
0
VERTEX
8
Sketch
10
16.82
20
-1.82
0
VERTEX
8
Sketch
10
16.46
20
-2.06
0
VERTEX
8
Sketch
10
16.34
20
-2.22
0
VERTEX
8
Sketch
10
16.1
20
-2.38
0
VERTEX
8
Sketch
10
15.1
20
-3.42
0
VERTEX
8
Sketch
10
14.94
20
-3.62
0
VERTEX
8
Sketch
10
14.9
20
-3.74
0
VERTEX
8
Sketch
10
14.78
20
-3.82
0
SEQEND
0
POLYLINE
66
1
8
Sketch
62
5
0
VERTEX
8
Sketch
10
18.02
20
-1.5
0
VERTEX
8
Sketch
10
17.14
20
-2.54
0
VERTEX
8
Sketch
10
16.38
20
-3.58
0
VERTEX
8
Sketch
10
15.7
20
-4.38
0
SEQEND
0
POLYLINE
66
1
8
Sketch
62
5
0
VERTEX
8
Sketch
10
18.34
20
-2.5
0
VERTEX
8
Sketch
10
18.18
20
-2.82
0
VERTEX
8
Sketch
10
16.98
20
-4.06
0
SEQEND
0
POLYLINE
66
1
8
Sketch
62
5
0
VERTEX
8
Sketch
10
20.1
20
-1.42
0
VERTEX
8
Sketch
10
18.74
20
-3.1
0
SEQEND
0
POLYLINE
66
1
8
Sketch
62
5
0
VERTEX
8
Sketch
10
19.86
20
-1.5
0
VERTEX
8
Sketch
10
18.82
20
-2.54
0
SEQEND
0
POLYLINE
66
1
8
Sketch
62
5
0
VERTEX
8
Sketch
10
20.7
20
-1.5
0
VERTEX
8
Sketch
10
18.94
20
-3.18
0
SEQEND
0
POLYLINE
66
1
8
Sketch
62
5
0
VERTEX
8
Sketch
10
21.42
20
-1.54
0
VERTEX
8
Sketch
10
21.3
20
-1.54
0
VERTEX
8
Sketch
10
21.02
20
-1.7
0
VERTEX
8
Sketch
10
19.74
20
-3.06
0
VERTEX
8
Sketch
10
19.22
20
-3.58
0
VERTEX
8
Sketch
10
18.78
20
-4.06
0
SEQEND
0
POLYLINE
66
1
8
Sketch
62
5
0
VERTEX
8
Sketch
10
22.3
20
-1.82
0
VERTEX
8
Sketch
10
22.14
20
-1.78
0
VERTEX
8
Sketch
10
19.78
20
-4.14
0
VERTEX
8
Sketch
10
19.58
20
-4.26
0
VERTEX
8
Sketch
10
19.66
20
-4.18
0
SEQEND
0
POLYLINE
66
1
8
Sketch
62
5
0
VERTEX
8
Sketch
10
23.5
20
-1.66
0
VERTEX
8
Sketch
10
23.38
20
-1.62
0
VERTEX
8
Sketch
10
22.74
20
-2.1
0
VERTEX
8
Sketch
10
21.18
20
-3.66
0
VERTEX
8
Sketch
10
20.9
20
-3.9
0
VERTEX
8
Sketch
10
20.62
20
-4.06
0
VERTEX
8
Sketch
10
20.7
20
-3.94
0
SEQEND
0
POLYLINE
66
1
8
Sketch
62
5
0
VERTEX
8
Sketch
10
24.62
20
-1.66
0
VERTEX
8
Sketch
10
24.34
20
-1.78
0
VERTEX
8
Sketch
10
24.14
20
-1.98
0
VERTEX
8
Sketch
10
23.14
20
-2.7
0
VERTEX
8
Sketch
10
22.34
20
-3.38
0
VERTEX
8
Sketch
10
22.02
20
-3.62
0
VERTEX
8
Sketch
10
21.7
20
-3.9
0
SEQEND
0
POLYLINE
66
1
8
Sketch
62
5
0
VERTEX
8
Sketch
10
26.02
20
-1.42
0
VERTEX
8
Sketch
10
25.66
20
-1.7
0
VERTEX
8
Sketch
10
25.1
20
-2.1
0
VERTEX
8
Sketch
10
23.98
20
-3.1
0
VERTEX
8
Sketch
10
23.62
20
-3.38
0
VERTEX
8
Sketch
10
23.14
20
-3.78
0
SEQEND
0
POLYLINE
66
1
8
Sketch
62
5
0
VERTEX
8
Sketch
10
27.38
20
-1.7
0
VERTEX
8
Sketch
10
26.94
20
-1.98
0
VERTEX
8
Sketch
10
26.78
20
-2.02
0
VERTEX
8
Sketch
10
26.14
20
-2.34
0
VERTEX
8
Sketch
10
24.74
20
-3.42
0
VERTEX
8
Sketch
10
24.18
20
-3.74
0
SEQEND
0
POLYLINE
66
1
8
Sketch
62
5
0
VERTEX
8
Sketch
10
28.22
20
-1.5
0
VERTEX
8
Sketch
10
28.14
20
-1.7
0
VERTEX
8
Sketch
10
27.1
20
-2.58
0
VERTEX
8
Sketch
10
25.46
20
-3.74
0
VERTEX
8
Sketch
10
25.18
20
-3.9
0
SEQEND
0
POLYLINE
66
1
8
Sketch
62
5
0
VERTEX
8
Sketch
10
29.58
20
-1.7
0
VERTEX
8
Sketch
10
29.34
20
-1.74
0
VERTEX
8
Sketch
10
28.74
20
-2.22
0
VERTEX
8
Sketch
10
27.5
20
-3.3
0
VERTEX
8
Sketch
10
26.34
20
-4.14
0
VERTEX
8
Sketch
10
26.26
20
-4.18
0
SEQEND
0
POLYLINE
66
1
8
Sketch
62
5
0
VERTEX
8
Sketch
10
30.82
20
-1.74
0
VERTEX
8
Sketch
10
30.66
20
-1.7
0
VERTEX
8
Sketch
10
30.26
20
-1.94
0
VERTEX
8
Sketch
10
28.7
20
-3.18
0
VERTEX
8
Sketch
10
27.74
20
-3.74
0
VERTEX
8
Sketch
10
27.58
20
-3.86
0
SEQEND
0
POLYLINE
66
1
8
Sketch
62
5
0
VERTEX
8
Sketch
10
31.9
20
-1.62
0
VERTEX
8
Sketch
10
31.3
20
-2.26
0
VERTEX
8
Sketch
10
31.02
20
-2.46
0
VERTEX
8
Sketch
10
30.86
20
-2.66
0
VERTEX
8
Sketch
10
30.3
20
-3.06
0
VERTEX
8
Sketch
10
29.98
20
-3.38
0
VERTEX
8
Sketch
10
28.94
20
-4.06
0
VERTEX
8
Sketch
10
28.86
20
-4.06
0
SEQEND
0
POLYLINE
66
1
8
Sketch
62
5
0
VERTEX
8
Sketch
10
33.14
20
-1.82
0
VERTEX
8
Sketch
10
32.9
20
-1.98
0
VERTEX
8
Sketch
10
31.46
20
-3.3
0
VERTEX
8
Sketch
10
30.54
20
-3.94
0
VERTEX
8
Sketch
10
30.22
20
-4.18
0
VERTEX
8
Sketch
10
30.14
20
-4.22
0
SEQEND
0
POLYLINE
66
1
8
Sketch
62
5
0
VERTEX
8
Sketch
10
34.26
20
-1.5
0
VERTEX
8
Sketch
10
32.94
20
-2.78
0
VERTEX
8
Sketch
10
32.18
20
-3.46
0
VERTEX
8
Sketch
10
31.7
20
-3.94
0
VERTEX
8
Sketch
10
31.58
20
-3.98
0
SEQEND
0
POLYLINE
66
1
8
Sketch
62
5
0
VERTEX
8
Sketch
10
35.26
20
-1.46
0
VERTEX
8
Sketch
10
33.7
20
-2.9
0
VERTEX
8
Sketch
10
32.78
20
-3.66
0
SEQEND
0
POLYLINE
66
1
8
Sketch
62
5
0
VERTEX
8
Sketch
10
35.94
20
-1.46
0
VERTEX
8
Sketch
10
34.7
20
-2.78
0
VERTEX
8
Sketch
10
34.06
20
-3.42
0
VERTEX
8
Sketch
10
33.82
20
-3.7
0
SEQEND
0
POLYLINE
66
1
8
Sketch
62
5
0
VERTEX
8
Sketch
10
36.98
20
-1.38
0
VERTEX
8
Sketch
10
36.94
20
-1.58
0
VERTEX
8
Sketch
10
36.54
20
-2.1
0
VERTEX
8
Sketch
10
36.38
20
-2.38
0
VERTEX
8
Sketch
10
35.74
20
-3.14
0
VERTEX
8
Sketch
10
35.54
20
-3.3
0
VERTEX
8
Sketch
10
35.34
20
-3.58
0
VERTEX
8
Sketch
10
35.14
20
-3.7
0
VERTEX
8
Sketch
10
35.06
20
-3.82
0
SEQEND
0
POINT
8
Sketch
62
5
10
40.38
20
3.42
0
POLYLINE
66
1
8
Sketch
62
5
0
VERTEX
8
Sketch
10
38.14
20
-1.54
0
VERTEX
8
Sketch
10
37.98
20
-1.58
0
VERTEX
8
Sketch
10
37.9
20
-1.54
0
VERTEX
8
Sketch
10
37.5
20
-1.74
0
VERTEX
8
Sketch
10
37.26
20
-1.94
0
SEQEND
0
POLYLINE
66
1
8
Sketch
62
5
0
VERTEX
8
Sketch
10
38.94
20
-1.5
0
VERTEX
8
Sketch
10
38.7
20
-1.66
0
VERTEX
8
Sketch
10
37.34
20
-3.14
0
SEQEND
0
POLYLINE
66
1
8
Sketch
62
5
0
VERTEX
8
Sketch
10
40.5
20
-1.62
0
VERTEX
8
Sketch
10
40.5
20
-1.54
0
VERTEX
8
Sketch
10
40.42
20
-1.54
0
VERTEX
8
Sketch
10
40.14
20
-1.78
0
VERTEX
8
Sketch
10
39.74
20
-2.06
0
VERTEX
8
Sketch
10
38.78
20
-2.86
0
VERTEX
8
Sketch
10
37.78
20
-3.58
0
VERTEX
8
Sketch
10
37.42
20
-3.74
0
VERTEX
8
Sketch
10
37.26
20
-3.86
0
SEQEND
0
POLYLINE
66
1
8
Sketch
62
5
0
VERTEX
8
Sketch
10
41.54
20
-1.66
0
VERTEX
8
Sketch
10
41.38
20
-1.7
0
VERTEX
8
Sketch
10
41.3
20
-1.7
0
VERTEX
8
Sketch
10
40.22
20
-2.54
0
VERTEX
8
Sketch
10
39.9
20
-2.86
0
VERTEX
8
Sketch
10
39.66
20
-3.02
0
VERTEX
8
Sketch
10
38.9
20
-3.7
0
VERTEX
8
Sketch
10
38.22
20
-4.22
0
SEQEND
0
POLYLINE
66
1
8
Sketch
62
5
0
VERTEX
8
Sketch
10
43.02
20
-1.62
0
VERTEX
8
Sketch
10
42.82
20
-1.54
0
VERTEX
8
Sketch
10
42.3
20
-1.9
0
VERTEX
8
Sketch
10
40.42
20
-3.34
0
VERTEX
8
Sketch
10
39.78
20
-3.9
0
SEQEND
0
POLYLINE
66
1
8
Sketch
62
5
0
VERTEX
8
Sketch
10
44.42
20
-1.3
0
VERTEX
8
Sketch
10
44.02
20
-1.54
0
VERTEX
8
Sketch
10
42.66
20
-2.66
0
VERTEX
8
Sketch
10
41.94
20
-3.14
0
VERTEX
8
Sketch
10
41.66
20
-3.26
0
VERTEX
8
Sketch
10
41.5
20
-3.38
0
SEQEND
0
POLYLINE
66
1
8
Sketch
62
5
0
VERTEX
8
Sketch
10
45.54
20
-1.58
0
VERTEX
8
Sketch
10
45.34
20
-1.66
0
VERTEX
8
Sketch
10
44.82
20
-2.06
0
VERTEX
8
Sketch
10
44.5
20
-2.18
0
VERTEX
8
Sketch
10
43.7
20
-2.66
0
SEQEND
0
POLYLINE
66
1
8
Sketch
62
5
0
VERTEX
8
Sketch
10
46.62
20
-1.58
0
VERTEX
8
Sketch
10
46.22
20
-1.78
0
VERTEX
8
Sketch
10
45.66
20
-2.14
0
VERTEX
8
Sketch
10
45.42
20
-2.26
0
SEQEND
0
POLYLINE
66
1
8
Sketch
62
5
0
VERTEX
8
Sketch
10
47.86
20
-1.3
0
VERTEX
8
Sketch
10
47.18
20
-1.78
0
VERTEX
8
Sketch
10
46.7
20
-2.02
0
SEQEND
0
POLYLINE
66
1
8
Sketch
62
5
0
VERTEX
8
Sketch
10
48.94
20
-1.34
0
VERTEX
8
Sketch
10
48.82
20
-1.42
0
VERTEX
8
Sketch
10
48.74
20
-1.42
0
VERTEX
8
Sketch
10
48.46
20
-1.58
0
VERTEX
8
Sketch
10
48.38
20
-1.7
0
VERTEX
8
Sketch
10
48.18
20
-1.78
0
SEQEND
0
POLYLINE
66
1
8
Sketch
62
5
0
VERTEX
8
Sketch
10
49.98
20
-1.22
0
VERTEX
8
Sketch
10
49.5
20
-1.42
0
VERTEX
8
Sketch
10
49.14
20
-1.7
0
SEQEND
0
POLYLINE
66
1
8
Sketch
62
5
0
VERTEX
8
Sketch
10
50.9
20
-1.34
0
VERTEX
8
Sketch
10
50.66
20
-1.46
0
VERTEX
8
Sketch
10
50.54
20
-1.46
0
VERTEX
8
Sketch
10
50.46
20
-1.5
0
SEQEND
0
POLYLINE
66
1
8
Sketch
62
5
0
VERTEX
8
Sketch
10
51.9
20
-1.1
0
VERTEX
8
Sketch
10
51.26
20
-1.42
0
SEQEND
0
POLYLINE
66
1
8
Sketch
62
5
0
VERTEX
8
Sketch
10
52.7
20
-1.3
0
VERTEX
8
Sketch
10
52.46
20
-1.5
0
VERTEX
8
Sketch
10
52.38
20
-1.5
0
SEQEND
0
POLYLINE
66
1
8
Sketch
62
5
0
VERTEX
8
Sketch
10
53.7
20
-1.14
0
VERTEX
8
Sketch
10
53.54
20
-1.18
0
VERTEX
8
Sketch
10
53.34
20
-1.26
0
VERTEX
8
Sketch
10
53.14
20
-1.38
0
SEQEND
0
POLYLINE
66
1
8
Sketch
62
5
0
VERTEX
8
Sketch
10
54.18
20
-1.22
0
VERTEX
8
Sketch
10
53.86
20
-1.46
0
SEQEND
0
POLYLINE
66
1
8
Sketch
62
5
0
VERTEX
8
Sketch
10
57.3
20
4.78
0
VERTEX
8
Sketch
10
57.3
20
4.86
0
VERTEX
8
Sketch
10
57.38
20
4.9
0
SEQEND
0
POINT
8
Sketch
62
5
10
54.66
20
-1.18
0
POLYLINE
66
1
8
Sketch
62
5
0
VERTEX
8
Sketch
10
55.46
20
-1.38
0
VERTEX
8
Sketch
10
55.3
20
-1.34
0
VERTEX
8
Sketch
10
55.14
20
-1.38
0
VERTEX
8
Sketch
10
55.06
20
-1.46
0
VERTEX
8
Sketch
10
54.98
20
-1.46
0
VERTEX
8
Sketch
10
54.78
20
-1.62
0
SEQEND
0
POLYLINE
66
1
8
Sketch
62
5
0
VERTEX
8
Sketch
10
55.82
20
-1.46
0
VERTEX
8
Sketch
10
55.7
20
-1.5
0
VERTEX
8
Sketch
10
55.62
20
-1.46
0
VERTEX
8
Sketch
10
55.38
20
-1.66
0
SEQEND
0
POLYLINE
66
1
8
Sketch
62
5
0
VERTEX
8
Sketch
10
56.58
20
-1.5
0
VERTEX
8
Sketch
10
56.46
20
-1.5
0
VERTEX
8
Sketch
10
56.02
20
-1.78
0
VERTEX
8
Sketch
10
55.86
20
-1.86
0
SEQEND
0
POLYLINE
66
1
8
Sketch
62
5
0
VERTEX
8
Sketch
10
57.66
20
-1.66
0
VERTEX
8
Sketch
10
57.58
20
-1.74
0
VERTEX
8
Sketch
10
57.42
20
-1.78
0
SEQEND
0
POLYLINE
66
1
8
Sketch
62
5
0
VERTEX
8
Sketch
10
59.86
20
-1.54
0
VERTEX
8
Sketch
10
59.46
20
-1.58
0
VERTEX
8
Sketch
10
59.06
20
-1.66
0
VERTEX
8
Sketch
10
58.82
20
-1.78
0
SEQEND
0
POLYLINE
66
1
8
Sketch
62
5
0
VERTEX
8
Sketch
10
60.94
20
-1.14
0
VERTEX
8
Sketch
10
60.86
20
-1.1
0
VERTEX
8
Sketch
10
59.26
20
-2.02
0
SEQEND
0
POLYLINE
66
1
8
Sketch
62
5
0
VERTEX
8
Sketch
10
62.26
20
-1.26
0
VERTEX
8
Sketch
10
62.18
20
-1.26
0
VERTEX
8
Sketch
10
61.74
20
-1.5
0
VERTEX
8
Sketch
10
61.18
20
-1.74
0
VERTEX
8
Sketch
10
60.1
20
-2.34
0
VERTEX
8
Sketch
10
59.94
20
-2.38
0
SEQEND
0
POLYLINE
66
1
8
Sketch
62
5
0
VERTEX
8
Sketch
10
63.46
20
-1.3
0
VERTEX
8
Sketch
10
63.3
20
-1.3
0
VERTEX
8
Sketch
10
62.82
20
-1.46
0
VERTEX
8
Sketch
10
60.94
20
-2.46
0
SEQEND
0
POLYLINE
66
1
8
Sketch
62
5
0
VERTEX
8
Sketch
10
64.94
20
-1.14
0
VERTEX
8
Sketch
10
64.34
20
-1.42
0
VERTEX
8
Sketch
10
63.82
20
-1.74
0
VERTEX
8
Sketch
10
63.54
20
-1.86
0
VERTEX
8
Sketch
10
62.5
20
-2.5
0
SEQEND
0
POLYLINE
66
1
8
Sketch
62
5
0
VERTEX
8
Sketch
10
66.46
20
-1.14
0
VERTEX
8
Sketch
10
66.18
20
-1.14
0
VERTEX
8
Sketch
10
65.82
20
-1.3
0
VERTEX
8
Sketch
10
65.3
20
-1.62
0
VERTEX
8
Sketch
10
64.74
20
-1.9
0
VERTEX
8
Sketch
10
64.38
20
-2.02
0
SEQEND
0
POLYLINE
66
1
8
Sketch
62
5
0
VERTEX
8
Sketch
10
67.62
20
-1.1
0
VERTEX
8
Sketch
10
67.02
20
-1.38
0
VERTEX
8
Sketch
10
66.5
20
-1.66
0
VERTEX
8
Sketch
10
66.06
20
-1.86
0
VERTEX
8
Sketch
10
65.74
20
-2.06
0
SEQEND
0
POLYLINE
66
1
8
Sketch
62
5
0
VERTEX
8
Sketch
10
68.78
20
-1.18
0
VERTEX
8
Sketch
10
68.62
20
-1.22
0
VERTEX
8
Sketch
10
68.14
20
-1.46
0
VERTEX
8
Sketch
10
67.3
20
-1.86
0
VERTEX
8
Sketch
10
67.18
20
-1.86
0
VERTEX
8
Sketch
10
67.1
20
-1.9
0
SEQEND
0
POLYLINE
66
1
8
Sketch
62
5
0
VERTEX
8
Sketch
10
69.82
20
-1.14
0
VERTEX
8
Sketch
10
69.02
20
-1.62
0
VERTEX
8
Sketch
10
68.62
20
-1.9
0
VERTEX
8
Sketch
10
68.34
20
-2.02
0
VERTEX
8
Sketch
10
68.26
20
-2.1
0
SEQEND
0
POLYLINE
66
1
8
Sketch
62
5
0
VERTEX
8
Sketch
10
71.02
20
-1.18
0
VERTEX
8
Sketch
10
70.74
20
-1.42
0
VERTEX
8
Sketch
10
70.62
20
-1.46
0
VERTEX
8
Sketch
10
70.38
20
-1.7
0
VERTEX
8
Sketch
10
69.74
20
-1.98
0
VERTEX
8
Sketch
10
69.62
20
-2.14
0
SEQEND
0
POLYLINE
66
1
8
Sketch
62
5
0
VERTEX
8
Sketch
10
72.18
20
-1.22
0
VERTEX
8
Sketch
10
71.7
20
-1.62
0
VERTEX
8
Sketch
10
71.06
20
-2.02
0
VERTEX
8
Sketch
10
70.74
20
-2.18
0
VERTEX
8
Sketch
10
70.58
20
-2.3
0
SEQEND
0
POLYLINE
66
1
8
Sketch
62
5
0
VERTEX
8
Sketch
10
75.74
20
5.38
0
VERTEX
8
Sketch
10
75.66
20
5.34
0
SEQEND
0
POLYLINE
66
1
8
Sketch
62
5
0
VERTEX
8
Sketch
10
73.18
20
-1.26
0
VERTEX
8
Sketch
10
72.9
20
-1.38
0
VERTEX
8
Sketch
10
72.74
20
-1.54
0
SEQEND
0
POLYLINE
66
1
8
Sketch
62
5
0
VERTEX
8
Sketch
10
74.14
20
-1.34
0
VERTEX
8
Sketch
10
74.1
20
-1.26
0
VERTEX
8
Sketch
10
73.9
20
-1.3
0
VERTEX
8
Sketch
10
73.54
20
-1.62
0
VERTEX
8
Sketch
10
72.9
20
-2.02
0
SEQEND
0
POLYLINE
66
1
8
Sketch
62
5
0
VERTEX
8
Sketch
10
75.42
20
-1.02
0
VERTEX
8
Sketch
10
73.66
20
-2.14
0
SEQEND
0
POLYLINE
66
1
8
Sketch
62
5
0
VERTEX
8
Sketch
10
76.22
20
-1.42
0
VERTEX
8
Sketch
10
75.86
20
-1.58
0
VERTEX
8
Sketch
10
75.46
20
-1.86
0
VERTEX
8
Sketch
10
75.34
20
-1.9
0
VERTEX
8
Sketch
10
74.5
20
-2.54
0
SEQEND
0
POLYLINE
66
1
8
Sketch
62
5
0
VERTEX
8
Sketch
10
77.74
20
-1.22
0
VERTEX
8
Sketch
10
77.42
20
-1.3
0
VERTEX
8
Sketch
10
76.66
20
-1.66
0
VERTEX
8
Sketch
10
75.94
20
-2.1
0
SEQEND
0
POLYLINE
66
1
8
Sketch
62
5
0
VERTEX
8
Sketch
10
78.98
20
-0.98
0
VERTEX
8
Sketch
10
78.78
20
-1.06
0
VERTEX
8
Sketch
10
77.62
20
-1.9
0
VERTEX
8
Sketch
10
77.06
20
-2.18
0
SEQEND
0
POLYLINE
66
1
8
Sketch
62
5
0
VERTEX
8
Sketch
10
80.7
20
-1.14
0
VERTEX
8
Sketch
10
80.62
20
-1.1
0
VERTEX
8
Sketch
10
80.06
20
-1.3
0
VERTEX
8
Sketch
10
79.42
20
-1.7
0
VERTEX
8
Sketch
10
78.86
20
-2.1
0
VERTEX
8
Sketch
10
78.54
20
-2.26
0
VERTEX
8
Sketch
10
78.38
20
-2.42
0
SEQEND
0
POLYLINE
66
1
8
Sketch
62
5
0
VERTEX
8
Sketch
10
82.1
20
-0.94
0
VERTEX
8
Sketch
10
81.02
20
-1.5
0
VERTEX
8
Sketch
10
80.06
20
-2.1
0
SEQEND
0
POLYLINE
66
1
8
Sketch
62
5
0
VERTEX
8
Sketch
10
83.98
20
-1.14
0
VERTEX
8
Sketch
10
83.26
20
-1.38
0
VERTEX
8
Sketch
10
81.38
20
-2.46
0
VERTEX
8
Sketch
10
81.26
20
-2.5
0
SEQEND
0
POLYLINE
66
1
8
Sketch
62
5
0
VERTEX
8
Sketch
10
85.1
20
-1.18
0
VERTEX
8
Sketch
10
84.7
20
-1.34
0
VERTEX
8
Sketch
10
84.62
20
-1.46
0
VERTEX
8
Sketch
10
83.82
20
-1.98
0
VERTEX
8
Sketch
10
83.54
20
-2.06
0
VERTEX
8
Sketch
10
83.26
20
-2.26
0
SEQEND
0
POLYLINE
66
1
8
Sketch
62
5
0
VERTEX
8
Sketch
10
86.14
20
-1.18
0
VERTEX
8
Sketch
10
85.5
20
-1.7
0
VERTEX
8
Sketch
10
84.26
20
-2.5
0
SEQEND
0
POLYLINE
66
1
8
Sketch
62
5
0
VERTEX
8
Sketch
10
88.78
20
-1.02
0
VERTEX
8
Sketch
10
88.66
20
-1.02
0
VERTEX
8
Sketch
10
88.34
20
-1.3
0
VERTEX
8
Sketch
10
88.06
20
-1.46
0
VERTEX
8
Sketch
10
87.7
20
-1.86
0
VERTEX
8
Sketch
10
87.22
20
-2.22
0
VERTEX
8
Sketch
10
87.02
20
-2.38
0
SEQEND
0
POLYLINE
66
1
8
Sketch
62
5
0
VERTEX
8
Sketch
10
89.94
20
-1.22
0
VERTEX
8
Sketch
10
88.98
20
-1.94
0
VERTEX
8
Sketch
10
88.54
20
-2.26
0
VERTEX
8
Sketch
10
88.42
20
-2.3
0
VERTEX
8
Sketch
10
88.38
20
-2.38
0
SEQEND
0
POLYLINE
66
1
8
Sketch
62
5
0
VERTEX
8
Sketch
10
91.62
20
-1.86
0
VERTEX
8
Sketch
10
91.5
20
-1.86
0
VERTEX
8
Sketch
10
91.26
20
-2.02
0
SEQEND
0
POLYLINE
66
1
8
Sketch
62
5
0
VERTEX
8
Sketch
10
94.38
20
-1.42
0
VERTEX
8
Sketch
10
94.3
20
-1.38
0
VERTEX
8
Sketch
10
93.06
20
-1.98
0
VERTEX
8
Sketch
10
92.78
20
-2.18
0
SEQEND
0
POLYLINE
66
1
8
Sketch
62
5
0
VERTEX
8
Sketch
10
95.54
20
-1.18
0
VERTEX
8
Sketch
10
95.38
20
-1.3
0
VERTEX
8
Sketch
10
95.18
20
-1.34
0
VERTEX
8
Sketch
10
94.82
20
-1.54
0
VERTEX
8
Sketch
10
94.58
20
-1.74
0
VERTEX
8
Sketch
10
94.34
20
-1.86
0
VERTEX
8
Sketch
10
94.02
20
-2.14
0
VERTEX
8
Sketch
10
93.9
20
-2.18
0
SEQEND
0
POLYLINE
66
1
8
Sketch
62
5
0
VERTEX
8
Sketch
10
97.26
20
-1.02
0
VERTEX
8
Sketch
10
97.1
20
-1.14
0
VERTEX
8
Sketch
10
96.98
20
-1.14
0
VERTEX
8
Sketch
10
96.7
20
-1.3
0
VERTEX
8
Sketch
10
96.5
20
-1.5
0
VERTEX
8
Sketch
10
95.86
20
-1.9
0
SEQEND
0
POLYLINE
66
1
8
Sketch
62
5
0
VERTEX
8
Sketch
10
99.54
20
-1.1
0
VERTEX
8
Sketch
10
99.26
20
-1.26
0
VERTEX
8
Sketch
10
99.1
20
-1.3
0
VERTEX
8
Sketch
10
98.7
20
-1.54
0
VERTEX
8
Sketch
10
98.46
20
-1.66
0
VERTEX
8
Sketch
10
98.22
20
-1.86
0
SEQEND
0
POLYLINE
66
1
8
Sketch
62
5
0
VERTEX
8
Sketch
10
100.62
20
-1.26
0
VERTEX
8
Sketch
10
99.94
20
-1.58
0
VERTEX
8
Sketch
10
99.78
20
-1.74
0
VERTEX
8
Sketch
10
99.3
20
-1.98
0
VERTEX
8
Sketch
10
99.22
20
-2.06
0
SEQEND
0
POLYLINE
66
1
8
Sketch
62
5
0
VERTEX
8
Sketch
10
101.66
20
-1.26
0
VERTEX
8
Sketch
10
101.3
20
-1.42
0
VERTEX
8
Sketch
10
100.42
20
-2.06
0
VERTEX
8
Sketch
10
100.02
20
-2.3
0
SEQEND
0
POLYLINE
66
1
8
Sketch
62
5
0
VERTEX
8
Sketch
10
102.74
20
-1.3
0
VERTEX
8
Sketch
10
102.46
20
-1.5
0
VERTEX
8
Sketch
10
101.98
20
-1.78
0
VERTEX
8
Sketch
10
101.66
20
-2.02
0
VERTEX
8
Sketch
10
101.22
20
-2.22
0
SEQEND
0
POLYLINE
66
1
8
Sketch
62
5
0
VERTEX
8
Sketch
10
104.1
20
-1.26
0
VERTEX
8
Sketch
10
103.74
20
-1.42
0
VERTEX
8
Sketch
10
103.18
20
-1.9
0
VERTEX
8
Sketch
10
102.9
20
-2.1
0
VERTEX
8
Sketch
10
102.62
20
-2.22
0
VERTEX
8
Sketch
10
102.38
20
-2.38
0
SEQEND
0
POLYLINE
66
1
8
Sketch
62
5
0
VERTEX
8
Sketch
10
105.38
20
-1.18
0
VERTEX
8
Sketch
10
104.9
20
-1.42
0
VERTEX
8
Sketch
10
104.42
20
-1.78
0
VERTEX
8
Sketch
10
103.74
20
-2.1
0
SEQEND
0
POLYLINE
66
1
8
Sketch
62
5
0
VERTEX
8
Sketch
10
106.62
20
-1.06
0
VERTEX
8
Sketch
10
106.5
20
-1.06
0
VERTEX
8
Sketch
10
105.9
20
-1.46
0
VERTEX
8
Sketch
10
105.14
20
-2.06
0
VERTEX
8
Sketch
10
104.86
20
-2.18
0
SEQEND
0
POLYLINE
66
1
8
Sketch
62
5
0
VERTEX
8
Sketch
10
107.5
20
-1.1
0
VERTEX
8
Sketch
10
107.18
20
-1.22
0
VERTEX
8
Sketch
10
106.34
20
-1.98
0
VERTEX
8
Sketch
10
106.02
20
-2.22
0
VERTEX
8
Sketch
10
105.82
20
-2.34
0
VERTEX
8
Sketch
10
105.74
20
-2.42
0
SEQEND
0
POLYLINE
66
1
8
Sketch
62
5
0
VERTEX
8
Sketch
10
108.34
20
-1.3
0
VERTEX
8
Sketch
10
107.42
20
-2.02
0
VERTEX
8
Sketch
10
107.14
20
-2.22
0
VERTEX
8
Sketch
10
106.78
20
-2.5
0
VERTEX
8
Sketch
10
106.7
20
-2.5
0
SEQEND
0
POLYLINE
66
1
8
Sketch
62
5
0
VERTEX
8
Sketch
10
109.22
20
-1.5
0
VERTEX
8
Sketch
10
108.94
20
-1.78
0
VERTEX
8
Sketch
10
107.86
20
-2.5
0
VERTEX
8
Sketch
10
107.5
20
-2.78
0
SEQEND
0
POLYLINE
66
1
8
Sketch
62
5
0
VERTEX
8
Sketch
10
110.78
20
-1.26
0
VERTEX
8
Sketch
10
110.5
20
-1.34
0
VERTEX
8
Sketch
10
109.7
20
-2.1
0
VERTEX
8
Sketch
10
109.5
20
-2.3
0
VERTEX
8
Sketch
10
109.3
20
-2.34
0
VERTEX
8
Sketch
10
109.22
20
-2.42
0
SEQEND
0
POLYLINE
66
1
8
Sketch
62
5
0
VERTEX
8
Sketch
10
112.02
20
-1.14
0
VERTEX
8
Sketch
10
111.9
20
-1.18
0
VERTEX
8
Sketch
10
111.74
20
-1.34
0
VERTEX
8
Sketch
10
111.46
20
-1.58
0
VERTEX
8
Sketch
10
111.18
20
-1.78
0
VERTEX
8
Sketch
10
110.18
20
-2.5
0
SEQEND
0
POLYLINE
66
1
8
Sketch
62
5
0
VERTEX
8
Sketch
10
113.42
20
-1.3
0
VERTEX
8
Sketch
10
113.22
20
-1.38
0
VERTEX
8
Sketch
10
112.46
20
-1.94
0
VERTEX
8
Sketch
10
111.54
20
-2.74
0
SEQEND
0
POLYLINE
66
1
8
Sketch
62
5
0
VERTEX
8
Sketch
10
115.1
20
-1.3
0
VERTEX
8
Sketch
10
114.14
20
-1.98
0
VERTEX
8
Sketch
10
113.3
20
-2.62
0
VERTEX
8
Sketch
10
112.98
20
-2.82
0
SEQEND
0
POLYLINE
66
1
8
Sketch
62
5
0
VERTEX
8
Sketch
10
116.18
20
-1.1
0
VERTEX
8
Sketch
10
114.54
20
-2.3
0
SEQEND
0
POLYLINE
66
1
8
Sketch
62
5
0
VERTEX
8
Sketch
10
117.34
20
-1.26
0
VERTEX
8
Sketch
10
115.82
20
-2.54
0
SEQEND
0
POLYLINE
66
1
8
Sketch
62
5
0
VERTEX
8
Sketch
10
117.3
20
-1.26
0
VERTEX
8
Sketch
10
115.66
20
-2.3
0
SEQEND
0
POLYLINE
66
1
8
Sketch
62
5
0
VERTEX
8
Sketch
10
117.14
20
-1.46
0
VERTEX
8
Sketch
10
115.94
20
-2.26
0
SEQEND
0
POLYLINE
66
1
8
Sketch
62
5
0
VERTEX
8
Sketch
10
116.58
20
-1.22
0
VERTEX
8
Sketch
10
115.18
20
-2.18
0
SEQEND
0
POLYLINE
66
1
8
Sketch
62
5
0
VERTEX
8
Sketch
10
117.58
20
-1.34
0
VERTEX
8
Sketch
10
115.9
20
-2.34
0
SEQEND
0
POLYLINE
66
1
8
Sketch
62
5
0
VERTEX
8
Sketch
10
118.82
20
-1.62
0
VERTEX
8
Sketch
10
118.66
20
-1.5
0
VERTEX
8
Sketch
10
117.46
20
-2.1
0
VERTEX
8
Sketch
10
117.38
20
-2.1
0
VERTEX
8
Sketch
10
117.3
20
-2.18
0
SEQEND
0
POLYLINE
66
1
8
Sketch
62
5
0
VERTEX
8
Sketch
10
119.9
20
-1.66
0
VERTEX
8
Sketch
10
119.74
20
-1.66
0
VERTEX
8
Sketch
10
119.34
20
-1.86
0
VERTEX
8
Sketch
10
118.7
20
-2.34
0
SEQEND
0
POLYLINE
66
1
8
Sketch
62
5
0
VERTEX
8
Sketch
10
120.78
20
-1.7
0
VERTEX
8
Sketch
10
120.58
20
-1.74
0
VERTEX
8
Sketch
10
119.74
20
-2.38
0
VERTEX
8
Sketch
10
119.54
20
-2.46
0
SEQEND
0
POLYLINE
66
1
8
Sketch
62
5
0
VERTEX
8
Sketch
10
121.5
20
-1.78
0
VERTEX
8
Sketch
10
121.3
20
-1.82
0
VERTEX
8
Sketch
10
121.1
20
-1.98
0
VERTEX
8
Sketch
10
120.98
20
-2.02
0
VERTEX
8
Sketch
10
120.9
20
-2.14
0
VERTEX
8
Sketch
10
120.78
20
-2.18
0
VERTEX
8
Sketch
10
120.46
20
-2.46
0
SEQEND
0
POLYLINE
66
1
8
Sketch
62
5
0
VERTEX
8
Sketch
10
122.3
20
-1.9
0
VERTEX
8
Sketch
10
121.94
20
-2.18
0
VERTEX
8
Sketch
10
121.38
20
-2.58
0
VERTEX
8
Sketch
10
120.98
20
-2.9
0
SEQEND
0
POLYLINE
66
1
8
Sketch
62
5
0
VERTEX
8
Sketch
10
123.34
20
-1.82
0
VERTEX
8
Sketch
10
123.18
20
-1.86
0
VERTEX
8
Sketch
10
122.22
20
-2.58
0
VERTEX
8
Sketch
10
121.62
20
-2.94
0
SEQEND
0
POLYLINE
66
1
8
Sketch
62
5
0
VERTEX
8
Sketch
10
124.22
20
-1.62
0
VERTEX
8
Sketch
10
123.26
20
-2.5
0
VERTEX
8
Sketch
10
122.9
20
-2.74
0
VERTEX
8
Sketch
10
122.78
20
-2.86
0
VERTEX
8
Sketch
10
122.58
20
-2.94
0
SEQEND
0
POLYLINE
66
1
8
Sketch
62
5
0
VERTEX
8
Sketch
10
125.1
20
-1.78
0
VERTEX
8
Sketch
10
124.86
20
-1.98
0
VERTEX
8
Sketch
10
124.66
20
-2.1
0
VERTEX
8
Sketch
10
123.82
20
-2.78
0
VERTEX
8
Sketch
10
123.5
20
-3.02
0
VERTEX
8
Sketch
10
123.3
20
-3.14
0
SEQEND
0
POLYLINE
66
1
8
Sketch
62
5
0
VERTEX
8
Sketch
10
126.22
20
-1.78
0
VERTEX
8
Sketch
10
125.98
20
-1.94
0
VERTEX
8
Sketch
10
125.9
20
-2.06
0
VERTEX
8
Sketch
10
125.34
20
-2.46
0
VERTEX
8
Sketch
10
124.34
20
-3.34
0
VERTEX
8
Sketch
10
124.22
20
-3.5
0
SEQEND
0
POLYLINE
66
1
8
Sketch
62
5
0
VERTEX
8
Sketch
10
127.94
20
-1.9
0
VERTEX
8
Sketch
10
127.86
20
-1.82
0
VERTEX
8
Sketch
10
127.5
20
-2.06
0
VERTEX
8
Sketch
10
126.34
20
-3.14
0
VERTEX
8
Sketch
10
126.18
20
-3.34
0
VERTEX
8
Sketch
10
126.14
20
-3.46
0
VERTEX
8
Sketch
10
125.98
20
-3.58
0
SEQEND
0
POLYLINE
66
1
8
Sketch
62
5
0
VERTEX
8
Sketch
10
129.02
20
-1.86
0
VERTEX
8
Sketch
10
128.58
20
-2.1
0
VERTEX
8
Sketch
10
127.74
20
-2.98
0
VERTEX
8
Sketch
10
127.46
20
-3.34
0
VERTEX
8
Sketch
10
126.7
20
-4.06
0
SEQEND
0
POLYLINE
66
1
8
Sketch
62
5
0
VERTEX
8
Sketch
10
130.18
20
-1.82
0
VERTEX
8
Sketch
10
129.82
20
-2.22
0
VERTEX
8
Sketch
10
129.54
20
-2.58
0
VERTEX
8
Sketch
10
128.98
20
-3.06
0
VERTEX
8
Sketch
10
128.46
20
-3.54
0
VERTEX
8
Sketch
10
128.38
20
-3.7
0
VERTEX
8
Sketch
10
128.18
20
-3.9
0
VERTEX
8
Sketch
10
127.82
20
-4.3
0
SEQEND
0
POLYLINE
66
1
8
Sketch
62
5
0
VERTEX
8
Sketch
10
131.86
20
-1.7
0
VERTEX
8
Sketch
10
130.94
20
-2.62
0
VERTEX
8
Sketch
10
130.22
20
-3.38
0
VERTEX
8
Sketch
10
129.58
20
-4.1
0
VERTEX
8
Sketch
10
128.9
20
-4.7
0
VERTEX
8
Sketch
10
128.66
20
-5.06
0
SEQEND
0
POLYLINE
66
1
8
Sketch
62
5
0
VERTEX
8
Sketch
10
133.46
20
-1.7
0
VERTEX
8
Sketch
10
133.38
20
-1.7
0
VERTEX
8
Sketch
10
132.9
20
-2.1
0
VERTEX
8
Sketch
10
132.38
20
-2.66
0
VERTEX
8
Sketch
10
131.46
20
-3.66
0
VERTEX
8
Sketch
10
130.7
20
-4.66
0
VERTEX
8
Sketch
10
129.9
20
-5.58
0
SEQEND
0
POLYLINE
66
1
8
Sketch
62
5
0
VERTEX
8
Sketch
10
135.06
20
-1.86
0
VERTEX
8
Sketch
10
134.9
20
-1.82
0
VERTEX
8
Sketch
10
134.3
20
-2.26
0
VERTEX
8
Sketch
10
134.06
20
-2.34
0
VERTEX
8
Sketch
10
133.62
20
-2.7
0
VERTEX
8
Sketch
10
133.3
20
-3.06
0
VERTEX
8
Sketch
10
132.7
20
-4.22
0
VERTEX
8
Sketch
10
132.38
20
-4.74
0
VERTEX
8
Sketch
10
132.18
20
-5.02
0
VERTEX
8
Sketch
10
131.74
20
-5.54
0
VERTEX
8
Sketch
10
131.42
20
-5.94
0
VERTEX
8
Sketch
10
131.06
20
-6.3
0
SEQEND
0
POLYLINE
66
1
8
Sketch
62
5
0
VERTEX
8
Sketch
10
136.9
20
-1.86
0
VERTEX
8
Sketch
10
136.1
20
-2.66
0
VERTEX
8
Sketch
10
135.58
20
-3.18
0
VERTEX
8
Sketch
10
135.34
20
-3.42
0
VERTEX
8
Sketch
10
134.66
20
-4.34
0
VERTEX
8
Sketch
10
134.46
20
-4.62
0
VERTEX
8
Sketch
10
134.18
20
-4.98
0
VERTEX
8
Sketch
10
133.66
20
-5.42
0
VERTEX
8
Sketch
10
132.98
20
-5.82
0
VERTEX
8
Sketch
10
132.5
20
-6.3
0
VERTEX
8
Sketch
10
132.3
20
-6.42
0
SEQEND
0
POLYLINE
66
1
8
Sketch
62
5
0
VERTEX
8
Sketch
10
138.34
20
-1.94
0
VERTEX
8
Sketch
10
138.26
20
-1.94
0
VERTEX
8
Sketch
10
138.06
20
-2.22
0
VERTEX
8
Sketch
10
137.66
20
-2.54
0
VERTEX
8
Sketch
10
137.5
20
-2.78
0
VERTEX
8
Sketch
10
136.5
20
-3.82
0
VERTEX
8
Sketch
10
135.74
20
-4.78
0
VERTEX
8
Sketch
10
135.42
20
-5.18
0
VERTEX
8
Sketch
10
135.18
20
-5.42
0
VERTEX
8
Sketch
10
134.74
20
-5.9
0
VERTEX
8
Sketch
10
134.66
20
-5.9
0
VERTEX
8
Sketch
10
134.42
20
-6.18
0
VERTEX
8
Sketch
10
134.02
20
-6.42
0
VERTEX
8
Sketch
10
133.5
20
-6.9
0
VERTEX
8
Sketch
10
133.42
20
-6.94
0
SEQEND
0
POLYLINE
66
1
8
Sketch
62
5
0
VERTEX
8
Sketch
10
140.7
20
-5.3
0
VERTEX
8
Sketch
10
140.98
20
-5.86
0
VERTEX
8
Sketch
10
141.3
20
-6.1
0
VERTEX
8
Sketch
10
141.74
20
-6.34
0
VERTEX
8
Sketch
10
142.1
20
-6.66
0
SEQEND
0
POLYLINE
66
1
8
Sketch
62
5
0
VERTEX
8
Sketch
10
139.78
20
-3.78
0
VERTEX
8
Sketch
10
139.94
20
-3.82
0
VERTEX
8
Sketch
10
140.02
20
-3.86
0
SEQEND
0
POLYLINE
66
1
8
Sketch
62
5
0
VERTEX
8
Sketch
10
136.18
20
-6.3
0
VERTEX
8
Sketch
10
136.38
20
-6.7
0
VERTEX
8
Sketch
10
136.98
20
-7.46
0
VERTEX
8
Sketch
10
138.06
20
-8.42
0
SEQEND
0
POLYLINE
66
1
8
Sketch
62
5
0
VERTEX
8
Sketch
10
136.54
20
-5.38
0
VERTEX
8
Sketch
10
136.74
20
-5.5
0
VERTEX
8
Sketch
10
137.94
20
-6.54
0
VERTEX
8
Sketch
10
138.46
20
-7.06
0
VERTEX
8
Sketch
10
139.18
20
-7.94
0
SEQEND
0
POLYLINE
66
1
8
Sketch
62
5
0
VERTEX
8
Sketch
10
137.78
20
-4.06
0
VERTEX
8
Sketch
10
137.94
20
-4.1
0
VERTEX
8
Sketch
10
139.1
20
-5.06
0
VERTEX
8
Sketch
10
139.46
20
-5.54
0
VERTEX
8
Sketch
10
140.1
20
-6.58
0
VERTEX
8
Sketch
10
140.78
20
-7.1
0
SEQEND
0
POLYLINE
66
1
8
Sketch
62
5
0
VERTEX
8
Sketch
10
141.38
20
-5.62
0
VERTEX
8
Sketch
10
141.78
20
-5.94
0
VERTEX
8
Sketch
10
142.06
20
-6.14
0
SEQEND
0
POLYLINE
66
1
8
Sketch
62
5
0
VERTEX
8
Sketch
10
138.9
20
-2.86
0
VERTEX
8
Sketch
10
139.9
20
-3.5
0
SEQEND
0
POLYLINE
66
1
8
Sketch
62
5
0
VERTEX
8
Sketch
10
139.78
20
-2.14
0
VERTEX
8
Sketch
10
139.98
20
-2.18
0
VERTEX
8
Sketch
10
140.62
20
-2.5
0
VERTEX
8
Sketch
10
141.3
20
-2.98
0
VERTEX
8
Sketch
10
141.98
20
-3.58
0
VERTEX
8
Sketch
10
143.58
20
-5.38
0
VERTEX
8
Sketch
10
143.66
20
-5.46
0
SEQEND
0
POLYLINE
66
1
8
Sketch
62
5
0
VERTEX
8
Sketch
10
140.9
20
-1.78
0
VERTEX
8
Sketch
10
142.14
20
-2.42
0
VERTEX
8
Sketch
10
143.3
20
-3.34
0
VERTEX
8
Sketch
10
144.06
20
-4.1
0
VERTEX
8
Sketch
10
145.14
20
-4.98
0
VERTEX
8
Sketch
10
145.5
20
-5.22
0
VERTEX
8
Sketch
10
145.62
20
-5.38
0
SEQEND
0
POLYLINE
66
1
8
Sketch
62
5
0
VERTEX
8
Sketch
10
139.66
20
-1.74
0
VERTEX
8
Sketch
10
139.26
20
-2.1
0
VERTEX
8
Sketch
10
139.06
20
-2.3
0
VERTEX
8
Sketch
10
138.54
20
-2.82
0
VERTEX
8
Sketch
10
137.78
20
-3.5
0
VERTEX
8
Sketch
10
137.22
20
-4.06
0
VERTEX
8
Sketch
10
136.1
20
-5.1
0
VERTEX
8
Sketch
10
135.54
20
-5.66
0
VERTEX
8
Sketch
10
135.22
20
-6.1
0
VERTEX
8
Sketch
10
134.98
20
-6.26
0
VERTEX
8
Sketch
10
134.78
20
-6.5
0
SEQEND
0
POLYLINE
66
1
8
Sketch
62
5
0
VERTEX
8
Sketch
10
141.74
20
-1.62
0
VERTEX
8
Sketch
10
141.66
20
-1.58
0
VERTEX
8
Sketch
10
140.82
20
-2.14
0
VERTEX
8
Sketch
10
139.9
20
-2.94
0
VERTEX
8
Sketch
10
139.58
20
-3.14
0
VERTEX
8
Sketch
10
138.46
20
-4.34
0
VERTEX
8
Sketch
10
137.5
20
-5.3
0
VERTEX
8
Sketch
10
137.14
20
-5.58
0
VERTEX
8
Sketch
10
136.62
20
-6.42
0
VERTEX
8
Sketch
10
136.22
20
-6.94
0
VERTEX
8
Sketch
10
135.98
20
-7.18
0
SEQEND
0
POLYLINE
66
1
8
Sketch
62
5
0
VERTEX
8
Sketch
10
143.58
20
-2.98
0
VERTEX
8
Sketch
10
143.38
20
-3.06
0
VERTEX
8
Sketch
10
143.02
20
-3.42
0
VERTEX
8
Sketch
10
142.38
20
-3.94
0
VERTEX
8
Sketch
10
141.9
20
-4.5
0
VERTEX
8
Sketch
10
141.66
20
-4.74
0
VERTEX
8
Sketch
10
141.1
20
-5.66
0
VERTEX
8
Sketch
10
140.62
20
-6.14
0
VERTEX
8
Sketch
10
140.14
20
-6.38
0
VERTEX
8
Sketch
10
139.74
20
-6.38
0
VERTEX
8
Sketch
10
139.26
20
-6.58
0
VERTEX
8
Sketch
10
138.9
20
-6.86
0
VERTEX
8
Sketch
10
138.58
20
-7.1
0
VERTEX
8
Sketch
10
138.18
20
-7.46
0
VERTEX
8
Sketch
10
138.1
20
-7.46
0
VERTEX
8
Sketch
10
138.06
20
-7.54
0
SEQEND
0
POLYLINE
66
1
8
Sketch
62
5
0
VERTEX
8
Sketch
10
142.74
20
-2.3
0
VERTEX
8
Sketch
10
142.58
20
-2.54
0
VERTEX
8
Sketch
10
142.02
20
-2.94
0
VERTEX
8
Sketch
10
141.42
20
-3.22
0
VERTEX
8
Sketch
10
141.02
20
-3.34
0
VERTEX
8
Sketch
10
140.78
20
-3.38
0
VERTEX
8
Sketch
10
140.3
20
-3.58
0
VERTEX
8
Sketch
10
139.62
20
-4.34
0
VERTEX
8
Sketch
10
139.3
20
-4.78
0
VERTEX
8
Sketch
10
139.06
20
-5.02
0
VERTEX
8
Sketch
10
138.9
20
-5.3
0
VERTEX
8
Sketch
10
138.58
20
-5.66
0
VERTEX
8
Sketch
10
138.26
20
-6.06
0
VERTEX
8
Sketch
10
137.1
20
-7.34
0
VERTEX
8
Sketch
10
136.94
20
-7.5
0
VERTEX
8
Sketch
10
136.9
20
-7.58
0
SEQEND
0
POLYLINE
66
1
8
Sketch
62
5
0
VERTEX
8
Sketch
10
143.42
20
-2.38
0
VERTEX
8
Sketch
10
143.34
20
-2.38
0
VERTEX
8
Sketch
10
142.74
20
-2.74
0
VERTEX
8
Sketch
10
141.9
20
-3.38
0
VERTEX
8
Sketch
10
141.54
20
-3.58
0
SEQEND
0
POLYLINE
66
1
8
Sketch
62
5
0
VERTEX
8
Sketch
10
144.9
20
-3.06
0
VERTEX
8
Sketch
10
144.74
20
-3.06
0
VERTEX
8
Sketch
10
144.54
20
-3.14
0
VERTEX
8
Sketch
10
142.14
20
-5.26
0
VERTEX
8
Sketch
10
141.06
20
-6.38
0
VERTEX
8
Sketch
10
139.46
20
-7.58
0
VERTEX
8
Sketch
10
138.98
20
-7.9
0
VERTEX
8
Sketch
10
138.82
20
-8.02
0
SEQEND
0
POLYLINE
66
1
8
Sketch
62
5
0
VERTEX
8
Sketch
10
145.86
20
-3.38
0
VERTEX
8
Sketch
10
145.46
20
-3.62
0
VERTEX
8
Sketch
10
143.9
20
-4.98
0
VERTEX
8
Sketch
10
142.58
20
-6.26
0
VERTEX
8
Sketch
10
142.38
20
-6.38
0
VERTEX
8
Sketch
10
141.42
20
-7.26
0
VERTEX
8
Sketch
10
140.22
20
-8.14
0
VERTEX
8
Sketch
10
140.1
20
-8.26
0
VERTEX
8
Sketch
10
139.98
20
-8.3
0
VERTEX
8
Sketch
10
139.54
20
-8.74
0
SEQEND
0
POLYLINE
66
1
8
Sketch
62
0
0
VERTEX
8
Sketch
10
142.86
20
-1.94
0
VERTEX
8
Sketch
10
142.94
20
-2.02
0
VERTEX
8
Sketch
10
143.06
20
-2.02
0
VERTEX
8
Sketch
10
143.22
20
-2.06
0
VERTEX
8
Sketch
10
143.46
20
-2.06
0
VERTEX
8
Sketch
10
143.82
20
-2.14
0
VERTEX
8
Sketch
10
143.98
20
-2.26
0
VERTEX
8
Sketch
10
144.14
20
-2.3
0
VERTEX
8
Sketch
10
144.7
20
-2.58
0
VERTEX
8
Sketch
10
144.78
20
-2.66
0
VERTEX
8
Sketch
10
144.9
20
-2.66
0
VERTEX
8
Sketch
10
145.22
20
-2.74
0
VERTEX
8
Sketch
10
145.38
20
-2.78
0
VERTEX
8
Sketch
10
145.62
20
-2.86
0
VERTEX
8
Sketch
10
145.7
20
-2.94
0
VERTEX
8
Sketch
10
146.3
20
-3.02
0
VERTEX
8
Sketch
10
146.46
20
-3.06
0
SEQEND
0
POLYLINE
66
1
8
Sketch
62
5
0
VERTEX
8
Sketch
10
135.54
20
-1.26
0
VERTEX
8
Sketch
10
135.7
20
-1.26
0
VERTEX
8
Sketch
10
136.02
20
-1.14
0
VERTEX
8
Sketch
10
136.18
20
-1.14
0
VERTEX
8
Sketch
10
136.26
20
-1.1
0
VERTEX
8
Sketch
10
136.5
20
-1.18
0
VERTEX
8
Sketch
10
136.66
20
-1.22
0
VERTEX
8
Sketch
10
136.82
20
-1.18
0
VERTEX
8
Sketch
10
136.94
20
-1.18
0
VERTEX
8
Sketch
10
137.1
20
-1.22
0
VERTEX
8
Sketch
10
137.46
20
-1.22
0
VERTEX
8
Sketch
10
137.54
20
-1.26
0
VERTEX
8
Sketch
10
137.7
20
-1.22
0
VERTEX
8
Sketch
10
137.78
20
-1.26
0
VERTEX
8
Sketch
10
137.86
20
-1.22
0
VERTEX
8
Sketch
10
137.94
20
-1.26
0
VERTEX
8
Sketch
10
138.22
20
-1.22
0
VERTEX
8
Sketch
10
138.62
20
-1.22
0
VERTEX
8
Sketch
10
138.7
20
-1.26
0
VERTEX
8
Sketch
10
138.78
20
-1.22
0
VERTEX
8
Sketch
10
138.86
20
-1.26
0
VERTEX
8
Sketch
10
139.06
20
-1.22
0
VERTEX
8
Sketch
10
139.14
20
-1.3
0
VERTEX
8
Sketch
10
139.3
20
-1.3
0
VERTEX
8
Sketch
10
139.38
20
-1.26
0
VERTEX
8
Sketch
10
139.54
20
-1.3
0
VERTEX
8
Sketch
10
139.7
20
-1.26
0
VERTEX
8
Sketch
10
139.86
20
-1.22
0
VERTEX
8
Sketch
10
140.06
20
-1.26
0
VERTEX
8
Sketch
10
140.3
20
-1.26
0
VERTEX
8
Sketch
10
140.38
20
-1.3
0
VERTEX
8
Sketch
10
140.46
20
-1.26
0
VERTEX
8
Sketch
10
140.54
20
-1.34
0
VERTEX
8
Sketch
10
140.62
20
-1.34
0
VERTEX
8
Sketch
10
140.74
20
-1.22
0
VERTEX
8
Sketch
10
140.9
20
-1.26
0
VERTEX
8
Sketch
10
140.98
20
-1.3
0
VERTEX
8
Sketch
10
141.14
20
-1.26
0
VERTEX
8
Sketch
10
141.34
20
-1.26
0
VERTEX
8
Sketch
10
141.5
20
-1.3
0
VERTEX
8
Sketch
10
141.66
20
-1.26
0
VERTEX
8
Sketch
10
141.86
20
-1.34
0
VERTEX
8
Sketch
10
142.02
20
-1.22
0
VERTEX
8
Sketch
10
142.1
20
-1.3
0
VERTEX
8
Sketch
10
142.26
20
-1.3
0
VERTEX
8
Sketch
10
142.42
20
-1.34
0
VERTEX
8
Sketch
10
142.5
20
-1.3
0
VERTEX
8
Sketch
10
142.66
20
-1.38
0
VERTEX
8
Sketch
10
142.74
20
-1.34
0
VERTEX
8
Sketch
10
142.9
20
-1.38
0
VERTEX
8
Sketch
10
142.98
20
-1.34
0
VERTEX
8
Sketch
10
143.14
20
-1.38
0
VERTEX
8
Sketch
10
143.22
20
-1.38
0
SEQEND
0
POLYLINE
66
1
8
Sketch
62
5
0
VERTEX
8
Sketch
10
123.74
20
8.54
0
VERTEX
8
Sketch
10
123.74
20
8.62
0
SEQEND
0
POLYLINE
66
1
8
Sketch
62
5
0
VERTEX
8
Sketch
10
135.1
20
7.58
0
VERTEX
8
Sketch
10
135.18
20
7.62
0
SEQEND
0
POLYLINE
66
1
8
Sketch
62
0
0
VERTEX
8
Sketch
10
145.74
20
1.58
0
VERTEX
8
Sketch
10
145.66
20
1.5
0
VERTEX
8
Sketch
10
145.62
20
1.34
0
VERTEX
8
Sketch
10
145.54
20
1.14
0
VERTEX
8
Sketch
10
145.34
20
0.94
0
VERTEX
8
Sketch
10
145.1
20
0.62
0
VERTEX
8
Sketch
10
145.02
20
0.62
0
VERTEX
8
Sketch
10
144.62
20
0.22
0
VERTEX
8
Sketch
10
144.54
20
0.22
0
VERTEX
8
Sketch
10
144.54
20
0.14
0
VERTEX
8
Sketch
10
144.1
20
-0.3
0
VERTEX
8
Sketch
10
143.78
20
-0.62
0
VERTEX
8
Sketch
10
143.74
20
-0.78
0
VERTEX
8
Sketch
10
143.62
20
-0.94
0
VERTEX
8
Sketch
10
143.62
20
-1.02
0
VERTEX
8
Sketch
10
143.34
20
-1.3
0
VERTEX
8
Sketch
10
143.34
20
-1.46
0
VERTEX
8
Sketch
10
143.1
20
-1.78
0
VERTEX
8
Sketch
10
143.02
20
-1.78
0
VERTEX
8
Sketch
10
142.98
20
-2.02
0
SEQEND
0
POLYLINE
66
1
8
Sketch
62
0
0
VERTEX
8
Sketch
10
135.78
20
2.5
0
VERTEX
8
Sketch
10
136.1
20
2.62
0
VERTEX
8
Sketch
10
136.3
20
2.58
0
VERTEX
8
Sketch
10
136.7
20
2.66
0
VERTEX
8
Sketch
10
137.14
20
2.62
0
VERTEX
8
Sketch
10
137.34
20
2.58
0
VERTEX
8
Sketch
10
137.62
20
2.58
0
VERTEX
8
Sketch
10
137.94
20
2.5
0
VERTEX
8
Sketch
10
138.1
20
2.54
0
VERTEX
8
Sketch
10
138.26
20
2.54
0
VERTEX
8
Sketch
10
138.46
20
2.5
0
VERTEX
8
Sketch
10
138.66
20
2.46
0
VERTEX
8
Sketch
10
138.82
20
2.42
0
VERTEX
8
Sketch
10
139.18
20
2.42
0
VERTEX
8
Sketch
10
139.46
20
2.38
0
VERTEX
8
Sketch
10
139.58
20
2.38
0
VERTEX
8
Sketch
10
139.82
20
2.3
0
VERTEX
8
Sketch
10
140.14
20
2.26
0
VERTEX
8
Sketch
10
140.26
20
2.26
0
VERTEX
8
Sketch
10
140.42
20
2.22
0
VERTEX
8
Sketch
10
140.78
20
2.22
0
VERTEX
8
Sketch
10
140.94
20
2.18
0
VERTEX
8
Sketch
10
141.1
20
2.18
0
VERTEX
8
Sketch
10
141.38
20
2.14
0
VERTEX
8
Sketch
10
141.58
20
2.1
0
VERTEX
8
Sketch
10
141.82
20
2.02
0
VERTEX
8
Sketch
10
142.14
20
1.98
0
VERTEX
8
Sketch
10
142.38
20
2.02
0
VERTEX
8
Sketch
10
142.58
20
1.98
0
VERTEX
8
Sketch
10
142.74
20
2.02
0
VERTEX
8
Sketch
10
142.9
20
1.98
0
VERTEX
8
Sketch
10
143.06
20
1.94
0
VERTEX
8
Sketch
10
143.22
20
1.98
0
VERTEX
8
Sketch
10
143.42
20
1.94
0
VERTEX
8
Sketch
10
143.58
20
1.94
0
VERTEX
8
Sketch
10
143.74
20
1.9
0
VERTEX
8
Sketch
10
144.02
20
1.9
0
VERTEX
8
Sketch
10
144.18
20
1.86
0
VERTEX
8
Sketch
10
144.26
20
1.9
0
VERTEX
8
Sketch
10
144.34
20
1.86
0
VERTEX
8
Sketch
10
144.42
20
1.9
0
VERTEX
8
Sketch
10
144.7
20
1.86
0
VERTEX
8
Sketch
10
144.78
20
1.9
0
VERTEX
8
Sketch
10
145.1
20
1.82
0
VERTEX
8
Sketch
10
145.26
20
1.82
0
VERTEX
8
Sketch
10
145.34
20
1.78
0
VERTEX
8
Sketch
10
145.5
20
1.82
0
VERTEX
8
Sketch
10
145.78
20
1.66
0
VERTEX
8
Sketch
10
145.86
20
1.7
0
VERTEX
8
Sketch
10
145.98
20
1.58
0
SEQEND
0
POLYLINE
66
1
8
Sketch
62
0
0
VERTEX
8
Sketch
10
134.74
20
0.02
0
VERTEX
8
Sketch
10
134.82
20
-0.22
0
VERTEX
8
Sketch
10
134.74
20
-0.14
0
VERTEX
8
Sketch
10
134.82
20
-0.34
0
VERTEX
8
Sketch
10
134.98
20
0.18
0
VERTEX
8
Sketch
10
134.98
20
0.3
0
VERTEX
8
Sketch
10
135.18
20
0.82
0
VERTEX
8
Sketch
10
135.46
20
1.54
0
VERTEX
8
Sketch
10
135.5
20
1.74
0
VERTEX
8
Sketch
10
135.66
20
2.1
0
VERTEX
8
Sketch
10
135.74
20
2.18
0
VERTEX
8
Sketch
10
135.78
20
2.34
0
VERTEX
8
Sketch
10
135.94
20
2.58
0
VERTEX
8
Sketch
10
136.02
20
2.62
0
SEQEND
0
POLYLINE
66
1
8
Sketch
62
0
0
VERTEX
8
Sketch
10
134.7
20
0.02
0
VERTEX
8
Sketch
10
134.78
20
-0.18
0
SEQEND
0
POLYLINE
66
1
8
Sketch
62
0
0
VERTEX
8
Sketch
10
124.62
20
0.18
0
VERTEX
8
Sketch
10
124.78
20
0.18
0
VERTEX
8
Sketch
10
124.86
20
0.1
0
VERTEX
8
Sketch
10
125.1
20
0.1
0
VERTEX
8
Sketch
10
125.26
20
0.02
0
VERTEX
8
Sketch
10
125.46
20
0.02
0
VERTEX
8
Sketch
10
125.78
20
-0.14
0
VERTEX
8
Sketch
10
125.86
20
-0.1
0
VERTEX
8
Sketch
10
126.1
20
-0.18
0
VERTEX
8
Sketch
10
126.18
20
-0.14
0
VERTEX
8
Sketch
10
126.5
20
-0.26
0
VERTEX
8
Sketch
10
126.66
20
-0.3
0
VERTEX
8
Sketch
10
127.7
20
-0.58
0
VERTEX
8
Sketch
10
127.78
20
-0.54
0
VERTEX
8
Sketch
10
127.94
20
-0.58
0
VERTEX
8
Sketch
10
128.18
20
-0.54
0
VERTEX
8
Sketch
10
128.34
20
-0.58
0
VERTEX
8
Sketch
10
128.5
20
-0.62
0
VERTEX
8
Sketch
10
128.58
20
-0.54
0
VERTEX
8
Sketch
10
128.66
20
-0.62
0
VERTEX
8
Sketch
10
128.82
20
-0.58
0
VERTEX
8
Sketch
10
129.06
20
-0.7
0
VERTEX
8
Sketch
10
129.22
20
-0.74
0
VERTEX
8
Sketch
10
129.38
20
-0.7
0
VERTEX
8
Sketch
10
129.54
20
-0.7
0
VERTEX
8
Sketch
10
129.62
20
-0.78
0
VERTEX
8
Sketch
10
129.94
20
-0.7
0
VERTEX
8
Sketch
10
130.1
20
-0.7
0
VERTEX
8
Sketch
10
130.26
20
-0.66
0
VERTEX
8
Sketch
10
130.42
20
-0.7
0
VERTEX
8
Sketch
10
130.66
20
-0.58
0
VERTEX
8
Sketch
10
130.94
20
-0.58
0
VERTEX
8
Sketch
10
131.1
20
-0.54
0
VERTEX
8
Sketch
10
131.5
20
-0.5
0
VERTEX
8
Sketch
10
131.66
20
-0.54
0
VERTEX
8
Sketch
10
131.82
20
-0.5
0
VERTEX
8
Sketch
10
131.98
20
-0.54
0
VERTEX
8
Sketch
10
132.06
20
-0.5
0
VERTEX
8
Sketch
10
132.14
20
-0.54
0
VERTEX
8
Sketch
10
132.22
20
-0.5
0
VERTEX
8
Sketch
10
132.3
20
-0.54
0
VERTEX
8
Sketch
10
132.38
20
-0.46
0
VERTEX
8
Sketch
10
132.54
20
-0.46
0
VERTEX
8
Sketch
10
132.7
20
-0.5
0
VERTEX
8
Sketch
10
132.86
20
-0.5
0
VERTEX
8
Sketch
10
132.94
20
-0.46
0
VERTEX
8
Sketch
10
133.1
20
-0.5
0
VERTEX
8
Sketch
10
133.26
20
-0.5
0
VERTEX
8
Sketch
10
133.34
20
-0.46
0
VERTEX
8
Sketch
10
133.7
20
-0.54
0
VERTEX
8
Sketch
10
133.86
20
-0.5
0
VERTEX
8
Sketch
10
133.94
20
-0.46
0
VERTEX
8
Sketch
10
134.26
20
-0.54
0
VERTEX
8
Sketch
10
134.58
20
-0.46
0
VERTEX
8
Sketch
10
134.74
20
-0.34
0
VERTEX
8
Sketch
10
134.82
20
-0.38
0
VERTEX
8
Sketch
10
134.9
20
-0.3
0
SEQEND
0
POLYLINE
66
1
8
Sketch
62
0
0
VERTEX
8
Sketch
10
124.82
20
0.1
0
VERTEX
8
Sketch
10
124.98
20
0.06
0
VERTEX
8
Sketch
10
125.14
20
0.1
0
VERTEX
8
Sketch
10
125.26
20
0.1
0
VERTEX
8
Sketch
10
125.62
20
0.02
0
VERTEX
8
Sketch
10
125.78
20
-0.02
0
VERTEX
8
Sketch
10
125.94
20
-0.06
0
VERTEX
8
Sketch
10
126.18
20
-0.06
0
SEQEND
0
POLYLINE
66
1
8
Sketch
62
5
0
VERTEX
8
Sketch
10
120.98
20
-1.34
0
VERTEX
8
Sketch
10
120.98
20
-1.42
0
VERTEX
8
Sketch
10
121.14
20
-1.46
0
VERTEX
8
Sketch
10
121.42
20
-1.46
0
VERTEX
8
Sketch
10
121.62
20
-1.5
0
VERTEX
8
Sketch
10
122.3
20
-1.5
0
VERTEX
8
Sketch
10
122.54
20
-1.42
0
VERTEX
8
Sketch
10
122.7
20
-1.5
0
VERTEX
8
Sketch
10
122.9
20
-1.46
0
VERTEX
8
Sketch
10
123.14
20
-1.46
0
VERTEX
8
Sketch
10
123.3
20
-1.5
0
VERTEX
8
Sketch
10
123.5
20
-1.46
0
VERTEX
8
Sketch
10
123.82
20
-1.42
0
VERTEX
8
Sketch
10
123.98
20
-1.38
0
VERTEX
8
Sketch
10
124.14
20
-1.42
0
VERTEX
8
Sketch
10
124.26
20
-1.42
0
VERTEX
8
Sketch
10
124.42
20
-1.46
0
VERTEX
8
Sketch
10
124.74
20
-1.42
0
VERTEX
8
Sketch
10
125.18
20
-1.42
0
VERTEX
8
Sketch
10
125.22
20
-1.34
0
VERTEX
8
Sketch
10
125.3
20
-1.34
0
VERTEX
8
Sketch
10
125.38
20
-1.42
0
VERTEX
8
Sketch
10
125.54
20
-1.38
0
VERTEX
8
Sketch
10
125.74
20
-1.34
0
VERTEX
8
Sketch
10
125.9
20
-1.34
0
VERTEX
8
Sketch
10
125.98
20
-1.3
0
VERTEX
8
Sketch
10
126.14
20
-1.34
0
VERTEX
8
Sketch
10
126.22
20
-1.34
0
VERTEX
8
Sketch
10
126.26
20
-1.26
0
VERTEX
8
Sketch
10
126.58
20
-1.34
0
VERTEX
8
Sketch
10
126.74
20
-1.34
0
VERTEX
8
Sketch
10
126.94
20
-1.38
0
VERTEX
8
Sketch
10
127.1
20
-1.34
0
VERTEX
8
Sketch
10
127.26
20
-1.42
0
VERTEX
8
Sketch
10
127.5
20
-1.3
0
VERTEX
8
Sketch
10
127.66
20
-1.3
0
VERTEX
8
Sketch
10
127.74
20
-1.26
0
VERTEX
8
Sketch
10
127.94
20
-1.3
0
VERTEX
8
Sketch
10
128.1
20
-1.22
0
VERTEX
8
Sketch
10
128.26
20
-1.3
0
VERTEX
8
Sketch
10
128.34
20
-1.26
0
VERTEX
8
Sketch
10
128.54
20
-1.3
0
VERTEX
8
Sketch
10
128.78
20
-1.22
0
VERTEX
8
Sketch
10
128.94
20
-1.22
0
VERTEX
8
Sketch
10
129.22
20
-1.3
0
VERTEX
8
Sketch
10
129.38
20
-1.18
0
VERTEX
8
Sketch
10
129.54
20
-1.22
0
VERTEX
8
Sketch
10
129.62
20
-1.18
0
VERTEX
8
Sketch
10
129.78
20
-1.26
0
VERTEX
8
Sketch
10
129.86
20
-1.22
0
VERTEX
8
Sketch
10
129.94
20
-1.3
0
VERTEX
8
Sketch
10
130.14
20
-1.3
0
VERTEX
8
Sketch
10
130.3
20
-1.26
0
VERTEX
8
Sketch
10
130.46
20
-1.3
0
VERTEX
8
Sketch
10
130.58
20
-1.26
0
VERTEX
8
Sketch
10
130.66
20
-1.3
0
VERTEX
8
Sketch
10
130.82
20
-1.26
0
VERTEX
8
Sketch
10
131.14
20
-1.26
0
VERTEX
8
Sketch
10
131.34
20
-1.22
0
VERTEX
8
Sketch
10
131.58
20
-1.3
0
VERTEX
8
Sketch
10
131.86
20
-1.22
0
VERTEX
8
Sketch
10
132.02
20
-1.26
0
VERTEX
8
Sketch
10
132.1
20
-1.22
0
VERTEX
8
Sketch
10
132.38
20
-1.22
0
VERTEX
8
Sketch
10
132.66
20
-1.26
0
VERTEX
8
Sketch
10
132.82
20
-1.22
0
VERTEX
8
Sketch
10
132.98
20
-1.26
0
VERTEX
8
Sketch
10
133.1
20
-1.22
0
VERTEX
8
Sketch
10
133.26
20
-1.34
0
VERTEX
8
Sketch
10
133.42
20
-1.3
0
VERTEX
8
Sketch
10
133.58
20
-1.3
0
VERTEX
8
Sketch
10
133.74
20
-1.26
0
VERTEX
8
Sketch
10
133.94
20
-1.34
0
VERTEX
8
Sketch
10
134.1
20
-1.3
0
VERTEX
8
Sketch
10
134.34
20
-1.3
0
VERTEX
8
Sketch
10
134.5
20
-1.34
0
VERTEX
8
Sketch
10
134.74
20
-1.26
0
VERTEX
8
Sketch
10
134.9
20
-1.3
0
VERTEX
8
Sketch
10
135.06
20
-1.22
0
VERTEX
8
Sketch
10
135.14
20
-1.26
0
VERTEX
8
Sketch
10
135.3
20
-1.22
0
VERTEX
8
Sketch
10
135.38
20
-1.26
0
VERTEX
8
Sketch
10
135.54
20
-1.22
0
VERTEX
8
Sketch
10
135.78
20
-1.22
0
VERTEX
8
Sketch
10
135.78
20
-1.14
0
VERTEX
8
Sketch
10
135.86
20
-1.18
0
SEQEND
0
POLYLINE
66
1
8
Sketch
62
5
0
VERTEX
8
Sketch
10
111.74
20
6.14
0
VERTEX
8
Sketch
10
111.74
20
6.22
0
SEQEND
0
POLYLINE
66
1
8
Sketch
62
5
0
VERTEX
8
Sketch
10
108.42
20
-1.06
0
VERTEX
8
Sketch
10
108.54
20
-0.94
0
VERTEX
8
Sketch
10
108.7
20
-1.06
0
VERTEX
8
Sketch
10
108.78
20
-1.06
0
VERTEX
8
Sketch
10
108.86
20
-1.14
0
VERTEX
8
Sketch
10
109.26
20
-1.14
0
VERTEX
8
Sketch
10
109.42
20
-1.18
0
VERTEX
8
Sketch
10
109.62
20
-1.18
0
VERTEX
8
Sketch
10
109.78
20
-1.22
0
VERTEX
8
Sketch
10
109.94
20
-1.22
0
VERTEX
8
Sketch
10
110.1
20
-1.18
0
VERTEX
8
Sketch
10
110.5
20
-1.1
0
VERTEX
8
Sketch
10
110.58
20
-1.14
0
VERTEX
8
Sketch
10
110.78
20
-1.06
0
VERTEX
8
Sketch
10
110.94
20
-1.1
0
VERTEX
8
Sketch
10
111.22
20
-1.02
0
VERTEX
8
Sketch
10
111.46
20
-1.1
0
VERTEX
8
Sketch
10
112.02
20
-1.1
0
VERTEX
8
Sketch
10
112.18
20
-1.06
0
VERTEX
8
Sketch
10
112.42
20
-1.14
0
VERTEX
8
Sketch
10
112.7
20
-1.14
0
VERTEX
8
Sketch
10
112.86
20
-1.1
0
VERTEX
8
Sketch
10
113.02
20
-1.1
0
VERTEX
8
Sketch
10
113.3
20
-1.06
0
VERTEX
8
Sketch
10
113.74
20
-1.02
0
VERTEX
8
Sketch
10
113.98
20
-1.02
0
VERTEX
8
Sketch
10
114.14
20
-1.06
0
VERTEX
8
Sketch
10
114.26
20
-1.06
0
VERTEX
8
Sketch
10
114.42
20
-1.1
0
VERTEX
8
Sketch
10
114.7
20
-1.1
0
VERTEX
8
Sketch
10
114.78
20
-1.06
0
VERTEX
8
Sketch
10
114.98
20
-1.14
0
VERTEX
8
Sketch
10
115.14
20
-1.1
0
VERTEX
8
Sketch
10
115.22
20
-1.14
0
VERTEX
8
Sketch
10
115.3
20
-1.1
0
VERTEX
8
Sketch
10
115.5
20
-1.14
0
VERTEX
8
Sketch
10
115.58
20
-1.1
0
VERTEX
8
Sketch
10
115.66
20
-1.14
0
VERTEX
8
Sketch
10
115.94
20
-1.06
0
VERTEX
8
Sketch
10
116.02
20
-1.06
0
VERTEX
8
Sketch
10
116.1
20
-1.14
0
VERTEX
8
Sketch
10
116.26
20
-1.1
0
VERTEX
8
Sketch
10
116.62
20
-1.14
0
VERTEX
8
Sketch
10
116.78
20
-1.1
0
VERTEX
8
Sketch
10
116.94
20
-1.1
0
VERTEX
8
Sketch
10
117.1
20
-1.18
0
VERTEX
8
Sketch
10
117.62
20
-1.18
0
VERTEX
8
Sketch
10
117.7
20
-1.14
0
VERTEX
8
Sketch
10
117.86
20
-1.18
0
VERTEX
8
Sketch
10
118.1
20
-1.18
0
VERTEX
8
Sketch
10
118.42
20
-1.3
0
VERTEX
8
Sketch
10
118.62
20
-1.3
0
VERTEX
8
Sketch
10
118.7
20
-1.26
0
VERTEX
8
Sketch
10
118.86
20
-1.3
0
VERTEX
8
Sketch
10
119.1
20
-1.3
0
VERTEX
8
Sketch
10
119.26
20
-1.34
0
VERTEX
8
Sketch
10
119.38
20
-1.34
0
VERTEX
8
Sketch
10
119.54
20
-1.38
0
VERTEX
8
Sketch
10
119.7
20
-1.34
0
VERTEX
8
Sketch
10
119.86
20
-1.38
0
VERTEX
8
Sketch
10
120.38
20
-1.38
0
VERTEX
8
Sketch
10
120.54
20
-1.42
0
VERTEX
8
Sketch
10
120.62
20
-1.38
0
VERTEX
8
Sketch
10
120.86
20
-1.46
0
VERTEX
8
Sketch
10
120.94
20
-1.46
0
SEQEND
0
POLYLINE
66
1
8
Sketch
62
5
0
VERTEX
8
Sketch
10
88.3
20
-1.06
0
VERTEX
8
Sketch
10
88.38
20
-1.02
0
VERTEX
8
Sketch
10
88.74
20
-1.1
0
VERTEX
8
Sketch
10
89.06
20
-1.14
0
VERTEX
8
Sketch
10
89.42
20
-1.14
0
VERTEX
8
Sketch
10
89.5
20
-1.18
0
VERTEX
8
Sketch
10
89.58
20
-1.14
0
VERTEX
8
Sketch
10
89.9
20
-1.22
0
SEQEND
0
POLYLINE
66
1
8
Sketch
62
5
0
VERTEX
8
Sketch
10
78.42
20
-0.86
0
VERTEX
8
Sketch
10
78.58
20
-0.9
0
VERTEX
8
Sketch
10
78.74
20
-0.9
0
VERTEX
8
Sketch
10
78.98
20
-0.98
0
VERTEX
8
Sketch
10
79.14
20
-0.94
0
VERTEX
8
Sketch
10
79.5
20
-1.02
0
VERTEX
8
Sketch
10
79.66
20
-0.98
0
VERTEX
8
Sketch
10
79.82
20
-1.02
0
VERTEX
8
Sketch
10
79.98
20
-0.9
0
VERTEX
8
Sketch
10
80.1
20
-0.9
0
VERTEX
8
Sketch
10
80.26
20
-0.94
0
VERTEX
8
Sketch
10
80.34
20
-0.86
0
VERTEX
8
Sketch
10
80.66
20
-0.86
0
VERTEX
8
Sketch
10
80.82
20
-0.82
0
VERTEX
8
Sketch
10
81.06
20
-0.86
0
VERTEX
8
Sketch
10
81.38
20
-0.78
0
VERTEX
8
Sketch
10
81.66
20
-0.82
0
VERTEX
8
Sketch
10
81.74
20
-0.78
0
VERTEX
8
Sketch
10
81.9
20
-0.82
0
VERTEX
8
Sketch
10
82.3
20
-0.82
0
VERTEX
8
Sketch
10
82.54
20
-0.74
0
VERTEX
8
Sketch
10
82.82
20
-0.74
0
VERTEX
8
Sketch
10
83.02
20
-0.78
0
VERTEX
8
Sketch
10
83.18
20
-0.74
0
VERTEX
8
Sketch
10
83.54
20
-0.74
0
VERTEX
8
Sketch
10
83.7
20
-0.78
0
VERTEX
8
Sketch
10
84.22
20
-0.78
0
VERTEX
8
Sketch
10
84.5
20
-0.82
0
VERTEX
8
Sketch
10
84.66
20
-0.78
0
VERTEX
8
Sketch
10
84.82
20
-0.82
0
VERTEX
8
Sketch
10
85.06
20
-0.82
0
VERTEX
8
Sketch
10
85.22
20
-0.86
0
VERTEX
8
Sketch
10
85.5
20
-0.86
0
VERTEX
8
Sketch
10
85.66
20
-0.94
0
VERTEX
8
Sketch
10
85.74
20
-0.9
0
VERTEX
8
Sketch
10
85.82
20
-0.94
0
VERTEX
8
Sketch
10
85.9
20
-0.9
0
VERTEX
8
Sketch
10
86.06
20
-0.94
0
VERTEX
8
Sketch
10
86.14
20
-0.9
0
VERTEX
8
Sketch
10
86.46
20
-0.98
0
VERTEX
8
Sketch
10
86.7
20
-0.98
0
VERTEX
8
Sketch
10
86.86
20
-0.94
0
VERTEX
8
Sketch
10
87.18
20
-1.02
0
VERTEX
8
Sketch
10
87.42
20
-0.98
0
VERTEX
8
Sketch
10
87.58
20
-1.02
0
VERTEX
8
Sketch
10
87.74
20
-0.98
0
VERTEX
8
Sketch
10
87.98
20
-1.1
0
VERTEX
8
Sketch
10
88.06
20
-1.02
0
VERTEX
8
Sketch
10
88.22
20
-1.1
0
VERTEX
8
Sketch
10
88.3
20
-1.06
0
VERTEX
8
Sketch
10
88.42
20
-1.1
0
VERTEX
8
Sketch
10
88.58
20
-1.06
0
SEQEND
0
POINT
8
Sketch
62
5
10
63.74
20
8.62
0
POLYLINE
66
1
8
Sketch
62
5
0
VERTEX
8
Sketch
10
64.62
20
-1.02
0
VERTEX
8
Sketch
10
64.7
20
-1.06
0
VERTEX
8
Sketch
10
64.86
20
-0.98
0
VERTEX
8
Sketch
10
65.06
20
-1.02
0
VERTEX
8
Sketch
10
65.22
20
-0.98
0
VERTEX
8
Sketch
10
65.46
20
-0.94
0
VERTEX
8
Sketch
10
65.66
20
-0.98
0
VERTEX
8
Sketch
10
65.82
20
-0.94
0
VERTEX
8
Sketch
10
65.98
20
-0.94
0
VERTEX
8
Sketch
10
66.06
20
-0.9
0
VERTEX
8
Sketch
10
66.26
20
-0.98
0
VERTEX
8
Sketch
10
66.42
20
-0.94
0
VERTEX
8
Sketch
10
67.1
20
-0.94
0
VERTEX
8
Sketch
10
67.26
20
-0.9
0
VERTEX
8
Sketch
10
67.62
20
-0.9
0
VERTEX
8
Sketch
10
67.78
20
-0.86
0
VERTEX
8
Sketch
10
68.06
20
-0.94
0
VERTEX
8
Sketch
10
68.14
20
-0.86
0
VERTEX
8
Sketch
10
68.5
20
-0.86
0
VERTEX
8
Sketch
10
68.66
20
-0.94
0
VERTEX
8
Sketch
10
68.86
20
-0.94
0
VERTEX
8
Sketch
10
69.02
20
-0.98
0
VERTEX
8
Sketch
10
69.62
20
-0.98
0
VERTEX
8
Sketch
10
69.82
20
-1.02
0
VERTEX
8
Sketch
10
69.98
20
-0.98
0
VERTEX
8
Sketch
10
70.46
20
-0.98
0
VERTEX
8
Sketch
10
70.58
20
-1.02
0
VERTEX
8
Sketch
10
70.66
20
-0.98
0
VERTEX
8
Sketch
10
70.74
20
-1.02
0
VERTEX
8
Sketch
10
70.82
20
-0.98
0
VERTEX
8
Sketch
10
70.98
20
-1.02
0
VERTEX
8
Sketch
10
71.14
20
-0.98
0
VERTEX
8
Sketch
10
71.3
20
-1.02
0
VERTEX
8
Sketch
10
71.38
20
-0.98
0
VERTEX
8
Sketch
10
71.54
20
-1.06
0
VERTEX
8
Sketch
10
71.7
20
-1.02
0
VERTEX
8
Sketch
10
71.9
20
-1.02
0
VERTEX
8
Sketch
10
72.06
20
-0.98
0
VERTEX
8
Sketch
10
72.14
20
-1.02
0
VERTEX
8
Sketch
10
72.3
20
-0.98
0
VERTEX
8
Sketch
10
72.62
20
-0.94
0
VERTEX
8
Sketch
10
73.18
20
-0.94
0
VERTEX
8
Sketch
10
73.26
20
-0.98
0
VERTEX
8
Sketch
10
73.5
20
-0.9
0
VERTEX
8
Sketch
10
73.66
20
-0.9
0
VERTEX
8
Sketch
10
73.74
20
-0.94
0
VERTEX
8
Sketch
10
73.86
20
-0.9
0
VERTEX
8
Sketch
10
74.02
20
-0.94
0
VERTEX
8
Sketch
10
74.18
20
-0.9
0
VERTEX
8
Sketch
10
74.5
20
-0.94
0
VERTEX
8
Sketch
10
74.66
20
-0.9
0
VERTEX
8
Sketch
10
74.82
20
-0.9
0
VERTEX
8
Sketch
10
74.94
20
-0.86
0
VERTEX
8
Sketch
10
75.02
20
-0.9
0
VERTEX
8
Sketch
10
75.1
20
-0.86
0
VERTEX
8
Sketch
10
75.18
20
-0.9
0
VERTEX
8
Sketch
10
75.26
20
-0.86
0
VERTEX
8
Sketch
10
75.62
20
-0.94
0
VERTEX
8
Sketch
10
75.74
20
-0.94
0
VERTEX
8
Sketch
10
75.9
20
-0.98
0
VERTEX
8
Sketch
10
76.5
20
-0.98
0
VERTEX
8
Sketch
10
76.58
20
-0.94
0
VERTEX
8
Sketch
10
76.66
20
-0.98
0
VERTEX
8
Sketch
10
76.74
20
-0.94
0
VERTEX
8
Sketch
10
76.9
20
-0.98
0
VERTEX
8
Sketch
10
77.1
20
-0.98
0
VERTEX
8
Sketch
10
77.26
20
-0.94
0
VERTEX
8
Sketch
10
77.42
20
-0.9
0
VERTEX
8
Sketch
10
77.62
20
-0.94
0
VERTEX
8
Sketch
10
77.86
20
-0.98
0
VERTEX
8
Sketch
10
77.94
20
-0.94
0
VERTEX
8
Sketch
10
78.14
20
-0.98
0
VERTEX
8
Sketch
10
78.34
20
-0.94
0
VERTEX
8
Sketch
10
78.5
20
-0.98
0
VERTEX
8
Sketch
10
78.58
20
-0.94
0
SEQEND
0
POLYLINE
66
1
8
Sketch
62
5
0
VERTEX
8
Sketch
10
49.5
20
9.26
0
VERTEX
8
Sketch
10
49.54
20
9.18
0
SEQEND
0
POLYLINE
66
1
8
Sketch
62
5
0
VERTEX
8
Sketch
10
47.86
20
-1.26
0
VERTEX
8
Sketch
10
48.02
20
-1.26
0
VERTEX
8
Sketch
10
48.1
20
-1.22
0
VERTEX
8
Sketch
10
48.3
20
-1.26
0
VERTEX
8
Sketch
10
48.46
20
-1.26
0
VERTEX
8
Sketch
10
48.54
20
-1.22
0
VERTEX
8
Sketch
10
48.62
20
-1.26
0
VERTEX
8
Sketch
10
48.86
20
-1.18
0
VERTEX
8
Sketch
10
49.02
20
-1.14
0
VERTEX
8
Sketch
10
49.1
20
-1.18
0
VERTEX
8
Sketch
10
49.18
20
-1.14
0
VERTEX
8
Sketch
10
49.26
20
-1.18
0
VERTEX
8
Sketch
10
49.54
20
-1.1
0
VERTEX
8
Sketch
10
49.7
20
-1.1
0
VERTEX
8
Sketch
10
49.86
20
-1.06
0
VERTEX
8
Sketch
10
49.94
20
-1.1
0
VERTEX
8
Sketch
10
50.02
20
-1.06
0
VERTEX
8
Sketch
10
50.1
20
-1.1
0
VERTEX
8
Sketch
10
50.38
20
-1.06
0
VERTEX
8
Sketch
10
50.58
20
-1.1
0
VERTEX
8
Sketch
10
50.82
20
-1.1
0
VERTEX
8
Sketch
10
50.98
20
-1.06
0
VERTEX
8
Sketch
10
51.14
20
-1.1
0
VERTEX
8
Sketch
10
51.5
20
-1.06
0
VERTEX
8
Sketch
10
51.58
20
-1.02
0
VERTEX
8
Sketch
10
51.66
20
-1.06
0
VERTEX
8
Sketch
10
51.94
20
-1.02
0
VERTEX
8
Sketch
10
52.1
20
-0.98
0
VERTEX
8
Sketch
10
52.26
20
-1.02
0
VERTEX
8
Sketch
10
52.46
20
-0.98
0
VERTEX
8
Sketch
10
53.06
20
-0.98
0
VERTEX
8
Sketch
10
53.14
20
-0.94
0
VERTEX
8
Sketch
10
53.3
20
-0.98
0
VERTEX
8
Sketch
10
53.46
20
-0.94
0
VERTEX
8
Sketch
10
53.54
20
-0.98
0
VERTEX
8
Sketch
10
53.74
20
-0.94
0
VERTEX
8
Sketch
10
53.9
20
-0.9
0
VERTEX
8
Sketch
10
53.98
20
-0.94
0
VERTEX
8
Sketch
10
54.14
20
-0.9
0
VERTEX
8
Sketch
10
54.34
20
-0.94
0
VERTEX
8
Sketch
10
54.5
20
-0.86
0
VERTEX
8
Sketch
10
54.66
20
-0.9
0
VERTEX
8
Sketch
10
54.9
20
-0.94
0
VERTEX
8
Sketch
10
55.06
20
-0.9
0
VERTEX
8
Sketch
10
55.22
20
-0.94
0
VERTEX
8
Sketch
10
55.42
20
-0.94
0
VERTEX
8
Sketch
10
55.58
20
-1.02
0
VERTEX
8
Sketch
10
55.7
20
-1.02
0
VERTEX
8
Sketch
10
55.86
20
-1.14
0
VERTEX
8
Sketch
10
56.22
20
-1.14
0
VERTEX
8
Sketch
10
56.54
20
-1.26
0
VERTEX
8
Sketch
10
57.34
20
-1.26
0
VERTEX
8
Sketch
10
57.42
20
-1.22
0
VERTEX
8
Sketch
10
57.58
20
-1.3
0
VERTEX
8
Sketch
10
57.74
20
-1.22
0
VERTEX
8
Sketch
10
58.02
20
-1.26
0
VERTEX
8
Sketch
10
58.26
20
-1.26
0
VERTEX
8
Sketch
10
58.34
20
-1.22
0
VERTEX
8
Sketch
10
58.5
20
-1.26
0
VERTEX
8
Sketch
10
58.74
20
-1.18
0
VERTEX
8
Sketch
10
58.94
20
-1.22
0
VERTEX
8
Sketch
10
59.34
20
-1.14
0
VERTEX
8
Sketch
10
59.42
20
-1.18
0
VERTEX
8
Sketch
10
59.74
20
-1.1
0
VERTEX
8
Sketch
10
60.18
20
-1.1
0
VERTEX
8
Sketch
10
60.34
20
-1.14
0
VERTEX
8
Sketch
10
60.5
20
-1.1
0
VERTEX
8
Sketch
10
60.66
20
-1.14
0
VERTEX
8
Sketch
10
60.86
20
-1.14
0
VERTEX
8
Sketch
10
61.1
20
-1.06
0
VERTEX
8
Sketch
10
61.26
20
-1.06
0
VERTEX
8
Sketch
10
61.62
20
-0.98
0
VERTEX
8
Sketch
10
62.06
20
-0.98
0
VERTEX
8
Sketch
10
62.14
20
-1.02
0
VERTEX
8
Sketch
10
62.22
20
-0.98
0
VERTEX
8
Sketch
10
62.3
20
-1.02
0
VERTEX
8
Sketch
10
62.38
20
-0.98
0
VERTEX
8
Sketch
10
62.46
20
-1.02
0
VERTEX
8
Sketch
10
62.58
20
-0.98
0
VERTEX
8
Sketch
10
62.78
20
-1.02
0
VERTEX
8
Sketch
10
63.1
20
-1.02
0
VERTEX
8
Sketch
10
63.26
20
-1.06
0
VERTEX
8
Sketch
10
63.62
20
-1.1
0
VERTEX
8
Sketch
10
63.74
20
-1.1
0
VERTEX
8
Sketch
10
63.82
20
-1.06
0
VERTEX
8
Sketch
10
63.9
20
-1.1
0
VERTEX
8
Sketch
10
64.06
20
-1.06
0
VERTEX
8
Sketch
10
64.14
20
-1.1
0
VERTEX
8
Sketch
10
64.22
20
-1.06
0
VERTEX
8
Sketch
10
64.3
20
-1.14
0
VERTEX
8
Sketch
10
64.66
20
-1.1
0
VERTEX
8
Sketch
10
64.82
20
-1.06
0
SEQEND
0
POLYLINE
66
1
8
Sketch
62
5
0
VERTEX
8
Sketch
10
29.74
20
-1.26
0
VERTEX
8
Sketch
10
29.82
20
-1.3
0
VERTEX
8
Sketch
10
30.02
20
-1.26
0
VERTEX
8
Sketch
10
30.58
20
-1.26
0
VERTEX
8
Sketch
10
30.74
20
-1.3
0
VERTEX
8
Sketch
10
30.86
20
-1.3
0
VERTEX
8
Sketch
10
31.02
20
-1.26
0
VERTEX
8
Sketch
10
31.58
20
-1.26
0
VERTEX
8
Sketch
10
31.78
20
-1.3
0
VERTEX
8
Sketch
10
32.02
20
-1.18
0
VERTEX
8
Sketch
10
32.18
20
-1.18
0
VERTEX
8
Sketch
10
32.38
20
-1.22
0
VERTEX
8
Sketch
10
32.78
20
-1.22
0
VERTEX
8
Sketch
10
32.94
20
-1.18
0
VERTEX
8
Sketch
10
33.42
20
-1.18
0
VERTEX
8
Sketch
10
33.62
20
-1.14
0
VERTEX
8
Sketch
10
33.78
20
-1.18
0
VERTEX
8
Sketch
10
33.94
20
-1.14
0
VERTEX
8
Sketch
10
34.3
20
-1.14
0
VERTEX
8
Sketch
10
34.46
20
-1.1
0
VERTEX
8
Sketch
10
34.74
20
-1.1
0
VERTEX
8
Sketch
10
34.98
20
-0.98
0
VERTEX
8
Sketch
10
35.06
20
-1.02
0
VERTEX
8
Sketch
10
35.3
20
-0.94
0
VERTEX
8
Sketch
10
35.5
20
-0.98
0
VERTEX
8
Sketch
10
35.78
20
-0.9
0
VERTEX
8
Sketch
10
36.34
20
-0.9
0
VERTEX
8
Sketch
10
36.42
20
-0.86
0
VERTEX
8
Sketch
10
36.7
20
-0.94
0
VERTEX
8
Sketch
10
36.98
20
-0.86
0
VERTEX
8
Sketch
10
37.3
20
-0.94
0
VERTEX
8
Sketch
10
37.54
20
-0.9
0
VERTEX
8
Sketch
10
37.98
20
-1.02
0
VERTEX
8
Sketch
10
38.22
20
-1.14
0
VERTEX
8
Sketch
10
38.38
20
-1.18
0
VERTEX
8
Sketch
10
38.66
20
-1.22
0
VERTEX
8
Sketch
10
39.62
20
-1.22
0
VERTEX
8
Sketch
10
39.7
20
-1.26
0
VERTEX
8
Sketch
10
39.86
20
-1.22
0
VERTEX
8
Sketch
10
39.94
20
-1.26
0
VERTEX
8
Sketch
10
40.14
20
-1.18
0
VERTEX
8
Sketch
10
40.3
20
-1.22
0
VERTEX
8
Sketch
10
40.58
20
-1.18
0
VERTEX
8
Sketch
10
40.98
20
-1.1
0
VERTEX
8
Sketch
10
41.22
20
-1.18
0
VERTEX
8
Sketch
10
41.38
20
-1.18
0
VERTEX
8
Sketch
10
41.5
20
-1.1
0
VERTEX
8
Sketch
10
41.66
20
-1.1
0
VERTEX
8
Sketch
10
41.74
20
-1.14
0
VERTEX
8
Sketch
10
41.9
20
-1.1
0
VERTEX
8
Sketch
10
42.06
20
-1.14
0
VERTEX
8
Sketch
10
42.34
20
-1.14
0
VERTEX
8
Sketch
10
42.5
20
-1.06
0
VERTEX
8
Sketch
10
42.78
20
-1.1
0
VERTEX
8
Sketch
10
42.86
20
-1.06
0
VERTEX
8
Sketch
10
43.1
20
-1.14
0
VERTEX
8
Sketch
10
43.34
20
-1.14
0
VERTEX
8
Sketch
10
43.5
20
-1.18
0
VERTEX
8
Sketch
10
43.66
20
-1.14
0
VERTEX
8
Sketch
10
43.82
20
-1.18
0
VERTEX
8
Sketch
10
43.9
20
-1.14
0
VERTEX
8
Sketch
10
44.06
20
-1.18
0
VERTEX
8
Sketch
10
44.22
20
-1.22
0
VERTEX
8
Sketch
10
44.42
20
-1.1
0
VERTEX
8
Sketch
10
44.58
20
-1.14
0
VERTEX
8
Sketch
10
44.66
20
-1.14
0
VERTEX
8
Sketch
10
44.74
20
-1.06
0
VERTEX
8
Sketch
10
45.06
20
-1.1
0
SEQEND
0
POLYLINE
66
1
8
Sketch
62
5
0
VERTEX
8
Sketch
10
15.1
20
-1.14
0
VERTEX
8
Sketch
10
15.38
20
-1.14
0
VERTEX
8
Sketch
10
15.58
20
-1.06
0
VERTEX
8
Sketch
10
15.78
20
-1.1
0
VERTEX
8
Sketch
10
15.94
20
-1.06
0
VERTEX
8
Sketch
10
16.14
20
-1.06
0
VERTEX
8
Sketch
10
16.38
20
-1.14
0
VERTEX
8
Sketch
10
16.74
20
-1.1
0
VERTEX
8
Sketch
10
16.9
20
-1.06
0
VERTEX
8
Sketch
10
17.06
20
-1.06
0
VERTEX
8
Sketch
10
17.26
20
-1.1
0
VERTEX
8
Sketch
10
17.42
20
-1.06
0
VERTEX
8
Sketch
10
17.58
20
-1.06
0
VERTEX
8
Sketch
10
17.82
20
-0.98
0
VERTEX
8
Sketch
10
18.02
20
-0.98
0
VERTEX
8
Sketch
10
18.26
20
-0.9
0
VERTEX
8
Sketch
10
18.46
20
-0.94
0
VERTEX
8
Sketch
10
18.54
20
-0.9
0
VERTEX
8
Sketch
10
18.7
20
-0.94
0
VERTEX
8
Sketch
10
18.86
20
-0.9
0
VERTEX
8
Sketch
10
19.22
20
-0.9
0
VERTEX
8
Sketch
10
19.42
20
-0.86
0
VERTEX
8
Sketch
10
19.74
20
-0.86
0
VERTEX
8
Sketch
10
19.98
20
-0.94
0
VERTEX
8
Sketch
10
20.06
20
-0.9
0
VERTEX
8
Sketch
10
20.42
20
-1.02
0
VERTEX
8
Sketch
10
20.82
20
-1.1
0
VERTEX
8
Sketch
10
21.18
20
-1.1
0
VERTEX
8
Sketch
10
21.42
20
-1.18
0
VERTEX
8
Sketch
10
21.74
20
-1.18
0
VERTEX
8
Sketch
10
21.86
20
-1.22
0
VERTEX
8
Sketch
10
22.18
20
-1.14
0
VERTEX
8
Sketch
10
22.62
20
-1.1
0
VERTEX
8
Sketch
10
22.94
20
-1.1
0
VERTEX
8
Sketch
10
23.1
20
-1.14
0
VERTEX
8
Sketch
10
23.26
20
-1.1
0
VERTEX
8
Sketch
10
23.42
20
-1.1
0
VERTEX
8
Sketch
10
23.5
20
-1.06
0
VERTEX
8
Sketch
10
23.58
20
-1.1
0
VERTEX
8
Sketch
10
23.7
20
-1.06
0
VERTEX
8
Sketch
10
23.86
20
-1.1
0
VERTEX
8
Sketch
10
23.94
20
-1.06
0
VERTEX
8
Sketch
10
24.18
20
-1.14
0
VERTEX
8
Sketch
10
24.42
20
-1.06
0
VERTEX
8
Sketch
10
24.66
20
-1.14
0
VERTEX
8
Sketch
10
24.94
20
-1.1
0
VERTEX
8
Sketch
10
25.1
20
-1.06
0
VERTEX
8
Sketch
10
25.54
20
-1.14
0
VERTEX
8
Sketch
10
25.94
20
-1.14
0
VERTEX
8
Sketch
10
26.22
20
-1.1
0
VERTEX
8
Sketch
10
26.62
20
-1.1
0
VERTEX
8
Sketch
10
26.9
20
-1.06
0
VERTEX
8
Sketch
10
27.1
20
-1.1
0
VERTEX
8
Sketch
10
27.42
20
-1.02
0
VERTEX
8
Sketch
10
27.58
20
-1.06
0
VERTEX
8
Sketch
10
27.94
20
-1.1
0
VERTEX
8
Sketch
10
28.02
20
-1.06
0
VERTEX
8
Sketch
10
28.18
20
-1.1
0
VERTEX
8
Sketch
10
28.46
20
-1.1
0
VERTEX
8
Sketch
10
28.66
20
-1.14
0
VERTEX
8
Sketch
10
28.82
20
-1.1
0
VERTEX
8
Sketch
10
29.22
20
-1.1
0
VERTEX
8
Sketch
10
29.3
20
-1.06
0
VERTEX
8
Sketch
10
29.58
20
-1.14
0
VERTEX
8
Sketch
10
29.66
20
-1.1
0
VERTEX
8
Sketch
10
29.74
20
-1.14
0
SEQEND
0
POLYLINE
66
1
8
Sketch
62
5
0
VERTEX
8
Sketch
10
10.38
20
-1.14
0
VERTEX
8
Sketch
10
10.62
20
-1.06
0
VERTEX
8
Sketch
10
11.1
20
-1.06
0
VERTEX
8
Sketch
10
11.18
20
-1.1
0
VERTEX
8
Sketch
10
11.38
20
-1.06
0
VERTEX
8
Sketch
10
12.02
20
-1.06
0
VERTEX
8
Sketch
10
12.42
20
-1.14
0
VERTEX
8
Sketch
10
12.5
20
-1.1
0
VERTEX
8
Sketch
10
12.58
20
-1.14
0
VERTEX
8
Sketch
10
12.74
20
-1.1
0
VERTEX
8
Sketch
10
13.1
20
-1.1
0
VERTEX
8
Sketch
10
13.3
20
-1.14
0
VERTEX
8
Sketch
10
13.5
20
-1.18
0
VERTEX
8
Sketch
10
13.7
20
-1.14
0
VERTEX
8
Sketch
10
13.9
20
-1.18
0
VERTEX
8
Sketch
10
13.98
20
-1.14
0
VERTEX
8
Sketch
10
14.06
20
-1.18
0
VERTEX
8
Sketch
10
14.14
20
-1.14
0
VERTEX
8
Sketch
10
14.34
20
-1.18
0
VERTEX
8
Sketch
10
14.7
20
-1.1
0
VERTEX
8
Sketch
10
14.86
20
-1.14
0
VERTEX
8
Sketch
10
14.98
20
-1.14
0
VERTEX
8
Sketch
10
15.06
20
-1.18
0
VERTEX
8
Sketch
10
15.18
20
-1.14
0
VERTEX
8
Sketch
10
15.26
20
-1.18
0
SEQEND
0
POLYLINE
66
1
8
Sketch
62
5
0
VERTEX
8
Sketch
10
9.82
20
-1.02
0
VERTEX
8
Sketch
10
11.58
20
-1.14
0
SEQEND
0
POLYLINE
66
1
8
Sketch
62
5
0
VERTEX
8
Sketch
10
0.06
20
-1.14
0
VERTEX
8
Sketch
10
0.34
20
-1.22
0
VERTEX
8
Sketch
10
0.54
20
-1.18
0
VERTEX
8
Sketch
10
0.86
20
-1.14
0
VERTEX
8
Sketch
10
1.22
20
-1.1
0
VERTEX
8
Sketch
10
1.34
20
-1.1
0
VERTEX
8
Sketch
10
1.42
20
-1.06
0
VERTEX
8
Sketch
10
1.5
20
-1.1
0
VERTEX
8
Sketch
10
1.58
20
-1.06
0
VERTEX
8
Sketch
10
1.66
20
-1.1
0
VERTEX
8
Sketch
10
1.82
20
-1.06
0
VERTEX
8
Sketch
10
2.02
20
-1.06
0
VERTEX
8
Sketch
10
2.38
20
-0.98
0
VERTEX
8
Sketch
10
2.62
20
-0.98
0
VERTEX
8
Sketch
10
2.82
20
-0.94
0
VERTEX
8
Sketch
10
3.14
20
-0.98
0
VERTEX
8
Sketch
10
3.42
20
-0.9
0
VERTEX
8
Sketch
10
3.62
20
-0.86
0
VERTEX
8
Sketch
10
3.78
20
-0.9
0
VERTEX
8
Sketch
10
4.54
20
-0.9
0
VERTEX
8
Sketch
10
4.62
20
-0.86
0
VERTEX
8
Sketch
10
4.82
20
-0.9
0
VERTEX
8
Sketch
10
4.98
20
-0.86
0
VERTEX
8
Sketch
10
5.06
20
-0.9
0
VERTEX
8
Sketch
10
5.26
20
-0.82
0
VERTEX
8
Sketch
10
5.5
20
-0.9
0
VERTEX
8
Sketch
10
5.86
20
-0.94
0
VERTEX
8
Sketch
10
6.02
20
-0.98
0
VERTEX
8
Sketch
10
6.38
20
-1.02
0
VERTEX
8
Sketch
10
6.54
20
-1.02
0
VERTEX
8
Sketch
10
6.74
20
-1.06
0
VERTEX
8
Sketch
10
6.98
20
-1.06
0
VERTEX
8
Sketch
10
7.26
20
-1.02
0
VERTEX
8
Sketch
10
7.54
20
-1.02
0
VERTEX
8
Sketch
10
7.7
20
-1.06
0
VERTEX
8
Sketch
10
7.86
20
-1.06
0
VERTEX
8
Sketch
10
8.06
20
-1.1
0
VERTEX
8
Sketch
10
8.22
20
-1.06
0
VERTEX
8
Sketch
10
8.42
20
-1.1
0
VERTEX
8
Sketch
10
8.54
20
-1.1
0
VERTEX
8
Sketch
10
8.62
20
-1.06
0
VERTEX
8
Sketch
10
8.7
20
-1.1
0
VERTEX
8
Sketch
10
8.86
20
-1.06
0
VERTEX
8
Sketch
10
9.06
20
-1.02
0
VERTEX
8
Sketch
10
9.22
20
-0.98
0
VERTEX
8
Sketch
10
9.38
20
-1.02
0
VERTEX
8
Sketch
10
9.54
20
-0.98
0
VERTEX
8
Sketch
10
9.7
20
-1.02
0
VERTEX
8
Sketch
10
10.06
20
-0.98
0
VERTEX
8
Sketch
10
12.34
20
-0.98
0
SEQEND
0
POINT
8
Sketch
62
5
10
2.02
20
10.34
0
POLYLINE
66
1
8
Sketch
62
0
0
VERTEX
8
Sketch
10
125.08
20
0.2
0
VERTEX
8
Sketch
10
123.7
20
0.2
0
VERTEX
8
Sketch
10
123.28
20
0.32
0
VERTEX
8
Sketch
10
123.04
20
0.26
0
VERTEX
8
Sketch
10
122.62
20
0.26
0
VERTEX
8
Sketch
10
122.44
20
0.32
0
VERTEX
8
Sketch
10
122.2
20
0.26
0
VERTEX
8
Sketch
10
121.78
20
0.26
0
VERTEX
8
Sketch
10
121.54
20
0.32
0
VERTEX
8
Sketch
10
121
20
0.44
0
VERTEX
8
Sketch
10
120.7
20
0.38
0
VERTEX
8
Sketch
10
120.4
20
0.44
0
VERTEX
8
Sketch
10
119.86
20
0.5
0
VERTEX
8
Sketch
10
119.02
20
0.5
0
VERTEX
8
Sketch
10
118.42
20
0.62
0
VERTEX
8
Sketch
10
118.12
20
0.62
0
VERTEX
8
Sketch
10
117.58
20
0.74
0
VERTEX
8
Sketch
10
117.4
20
0.74
0
VERTEX
8
Sketch
10
117.1
20
0.68
0
VERTEX
8
Sketch
10
116.92
20
0.68
0
VERTEX
8
Sketch
10
116.5
20
0.8
0
VERTEX
8
Sketch
10
116.2
20
0.86
0
VERTEX
8
Sketch
10
115.96
20
0.8
0
VERTEX
8
Sketch
10
115.6
20
0.8
0
VERTEX
8
Sketch
10
115.36
20
0.92
0
VERTEX
8
Sketch
10
115.24
20
0.86
0
VERTEX
8
Sketch
10
115.12
20
0.92
0
VERTEX
8
Sketch
10
115
20
0.86
0
VERTEX
8
Sketch
10
114.76
20
0.92
0
VERTEX
8
Sketch
10
114.1
20
0.92
0
VERTEX
8
Sketch
10
113.86
20
0.86
0
VERTEX
8
Sketch
10
113.56
20
0.86
0
VERTEX
8
Sketch
10
113.32
20
0.92
0
VERTEX
8
Sketch
10
113.08
20
0.92
0
VERTEX
8
Sketch
10
112.84
20
0.86
0
VERTEX
8
Sketch
10
112.24
20
0.98
0
VERTEX
8
Sketch
10
111.94
20
0.8
0
VERTEX
8
Sketch
10
111.58
20
0.92
0
VERTEX
8
Sketch
10
111.34
20
0.86
0
VERTEX
8
Sketch
10
111.22
20
0.8
0
VERTEX
8
Sketch
10
110.98
20
0.86
0
VERTEX
8
Sketch
10
110.74
20
0.86
0
VERTEX
8
Sketch
10
110.44
20
0.92
0
VERTEX
8
Sketch
10
110.2
20
0.86
0
VERTEX
8
Sketch
10
109.84
20
0.86
0
VERTEX
8
Sketch
10
109.72
20
0.92
0
VERTEX
8
Sketch
10
109.48
20
0.86
0
VERTEX
8
Sketch
10
109.24
20
0.92
0
VERTEX
8
Sketch
10
109
20
0.86
0
VERTEX
8
Sketch
10
108.76
20
0.8
0
SEQEND
0
POLYLINE
66
1
8
Sketch
62
0
0
VERTEX
8
Sketch
10
108.88
20
0.68
0
VERTEX
8
Sketch
10
108.4
20
0.56
0
VERTEX
8
Sketch
10
108.16
20
0.62
0
VERTEX
8
Sketch
10
107.92
20
0.62
0
VERTEX
8
Sketch
10
107.68
20
0.68
0
VERTEX
8
Sketch
10
107.02
20
0.68
0
VERTEX
8
Sketch
10
106.78
20
0.74
0
VERTEX
8
Sketch
10
106.54
20
0.8
0
VERTEX
8
Sketch
10
106.36
20
0.86
0
VERTEX
8
Sketch
10
106.24
20
0.8
0
VERTEX
8
Sketch
10
105.7
20
1.04
0
VERTEX
8
Sketch
10
105.16
20
1.04
0
VERTEX
8
Sketch
10
104.68
20
1.16
0
VERTEX
8
Sketch
10
104.44
20
1.1
0
VERTEX
8
Sketch
10
103.78
20
1.22
0
VERTEX
8
Sketch
10
102.94
20
1.22
0
VERTEX
8
Sketch
10
102.7
20
1.28
0
VERTEX
8
Sketch
10
102.4
20
1.22
0
VERTEX
8
Sketch
10
101.98
20
1.22
0
VERTEX
8
Sketch
10
101.74
20
1.28
0
VERTEX
8
Sketch
10
101.44
20
1.28
0
VERTEX
8
Sketch
10
101.02
20
1.16
0
VERTEX
8
Sketch
10
100.72
20
1.16
0
VERTEX
8
Sketch
10
100.42
20
1.04
0
VERTEX
8
Sketch
10
99.94
20
1.22
0
VERTEX
8
Sketch
10
99.34
20
1.22
0
VERTEX
8
Sketch
10
99.22
20
1.28
0
VERTEX
8
Sketch
10
98.8
20
1.16
0
VERTEX
8
Sketch
10
98.56
20
1.22
0
VERTEX
8
Sketch
10
98.32
20
1.28
0
VERTEX
8
Sketch
10
98.2
20
1.16
0
VERTEX
8
Sketch
10
98.02
20
1.16
0
VERTEX
8
Sketch
10
97.78
20
1.22
0
VERTEX
8
Sketch
10
97.54
20
1.1
0
VERTEX
8
Sketch
10
97.3
20
1.16
0
VERTEX
8
Sketch
10
96.88
20
1.04
0
VERTEX
8
Sketch
10
96.34
20
0.92
0
VERTEX
8
Sketch
10
96.22
20
0.86
0
VERTEX
8
Sketch
10
96.1
20
0.92
0
VERTEX
8
Sketch
10
95.98
20
0.86
0
VERTEX
8
Sketch
10
95.86
20
0.92
0
VERTEX
8
Sketch
10
95.62
20
0.86
0
VERTEX
8
Sketch
10
95.02
20
0.86
0
SEQEND
0
POLYLINE
66
1
8
Sketch
62
5
0
VERTEX
8
Sketch
10
87.94
20
-1.3
0
VERTEX
8
Sketch
10
88.18
20
-1.24
0
VERTEX
8
Sketch
10
88.3
20
-1.18
0
VERTEX
8
Sketch
10
88.42
20
-1.24
0
VERTEX
8
Sketch
10
89.08
20
-1.24
0
VERTEX
8
Sketch
10
89.62
20
-1.18
0
VERTEX
8
Sketch
10
91.06
20
-1.18
0
VERTEX
8
Sketch
10
91.3
20
-1.24
0
VERTEX
8
Sketch
10
91.96
20
-1.18
0
VERTEX
8
Sketch
10
92.62
20
-1.18
0
VERTEX
8
Sketch
10
92.74
20
-1.12
0
VERTEX
8
Sketch
10
92.98
20
-1.18
0
VERTEX
8
Sketch
10
93.1
20
-1.12
0
VERTEX
8
Sketch
10
93.46
20
-1.18
0
VERTEX
8
Sketch
10
93.76
20
-1.12
0
VERTEX
8
Sketch
10
93.94
20
-1.12
0
VERTEX
8
Sketch
10
94.24
20
-1.06
0
VERTEX
8
Sketch
10
94.6
20
-1
0
VERTEX
8
Sketch
10
94.9
20
-1.06
0
VERTEX
8
Sketch
10
95.5
20
-1
0
VERTEX
8
Sketch
10
95.8
20
-0.94
0
VERTEX
8
Sketch
10
96.04
20
-1
0
VERTEX
8
Sketch
10
96.16
20
-0.94
0
VERTEX
8
Sketch
10
96.28
20
-1
0
VERTEX
8
Sketch
10
96.52
20
-0.94
0
VERTEX
8
Sketch
10
96.64
20
-1
0
VERTEX
8
Sketch
10
97.36
20
-1
0
VERTEX
8
Sketch
10
97.54
20
-1.06
0
VERTEX
8
Sketch
10
97.84
20
-1
0
VERTEX
8
Sketch
10
98.68
20
-0.94
0
VERTEX
8
Sketch
10
98.86
20
-0.94
0
VERTEX
8
Sketch
10
99.22
20
-1.06
0
VERTEX
8
Sketch
10
99.34
20
-1
0
VERTEX
8
Sketch
10
99.52
20
-1.06
0
VERTEX
8
Sketch
10
99.76
20
-0.94
0
VERTEX
8
Sketch
10
99.94
20
-0.94
0
VERTEX
8
Sketch
10
100.06
20
-1
0
VERTEX
8
Sketch
10
100.18
20
-0.94
0
VERTEX
8
Sketch
10
100.48
20
-1.06
0
VERTEX
8
Sketch
10
100.78
20
-1
0
VERTEX
8
Sketch
10
101.8
20
-1
0
VERTEX
8
Sketch
10
102.22
20
-1.12
0
VERTEX
8
Sketch
10
102.34
20
-1
0
VERTEX
8
Sketch
10
102.94
20
-1
0
VERTEX
8
Sketch
10
103.18
20
-1.06
0
VERTEX
8
Sketch
10
103.9
20
-1.06
0
VERTEX
8
Sketch
10
104.38
20
-0.94
0
VERTEX
8
Sketch
10
104.92
20
-0.94
0
VERTEX
8
Sketch
10
105.04
20
-1
0
VERTEX
8
Sketch
10
105.46
20
-0.88
0
VERTEX
8
Sketch
10
105.7
20
-0.88
0
VERTEX
8
Sketch
10
105.94
20
-0.94
0
VERTEX
8
Sketch
10
106.36
20
-0.88
0
VERTEX
8
Sketch
10
107.14
20
-0.88
0
VERTEX
8
Sketch
10
107.38
20
-0.82
0
VERTEX
8
Sketch
10
107.62
20
-0.82
0
VERTEX
8
Sketch
10
107.74
20
-0.76
0
VERTEX
8
Sketch
10
107.86
20
-0.88
0
VERTEX
8
Sketch
10
108.1
20
-0.88
0
VERTEX
8
Sketch
10
108.22
20
-0.94
0
VERTEX
8
Sketch
10
108.34
20
-0.88
0
VERTEX
8
Sketch
10
108.46
20
-0.94
0
VERTEX
8
Sketch
10
108.34
20
-0.82
0
SEQEND
0
POLYLINE
66
1
8
Sketch
62
0
0
VERTEX
8
Sketch
10
76.84
20
0.62
0
VERTEX
8
Sketch
10
77.38
20
0.44
0
VERTEX
8
Sketch
10
77.62
20
0.5
0
VERTEX
8
Sketch
10
77.98
20
0.5
0
VERTEX
8
Sketch
10
78.28
20
0.44
0
VERTEX
8
Sketch
10
78.7
20
0.44
0
VERTEX
8
Sketch
10
79
20
0.5
0
VERTEX
8
Sketch
10
79.48
20
0.44
0
VERTEX
8
Sketch
10
79.72
20
0.5
0
VERTEX
8
Sketch
10
79.96
20
0.44
0
VERTEX
8
Sketch
10
80.26
20
0.5
0
VERTEX
8
Sketch
10
80.5
20
0.38
0
VERTEX
8
Sketch
10
81.04
20
0.56
0
VERTEX
8
Sketch
10
81.58
20
0.5
0
VERTEX
8
Sketch
10
81.76
20
0.5
0
VERTEX
8
Sketch
10
82
20
0.56
0
VERTEX
8
Sketch
10
82.18
20
0.5
0
VERTEX
8
Sketch
10
82.42
20
0.56
0
VERTEX
8
Sketch
10
82.9
20
0.62
0
VERTEX
8
Sketch
10
83.14
20
0.68
0
VERTEX
8
Sketch
10
83.44
20
0.62
0
VERTEX
8
Sketch
10
85.72
20
0.62
0
VERTEX
8
Sketch
10
85.84
20
0.56
0
VERTEX
8
Sketch
10
85.96
20
0.62
0
VERTEX
8
Sketch
10
86.2
20
0.56
0
VERTEX
8
Sketch
10
86.5
20
0.56
0
VERTEX
8
Sketch
10
86.74
20
0.62
0
VERTEX
8
Sketch
10
87.4
20
0.62
0
VERTEX
8
Sketch
10
87.7
20
0.56
0
VERTEX
8
Sketch
10
87.94
20
0.62
0
VERTEX
8
Sketch
10
88.54
20
0.62
0
VERTEX
8
Sketch
10
88.78
20
0.56
0
VERTEX
8
Sketch
10
89.2
20
0.62
0
VERTEX
8
Sketch
10
89.5
20
0.56
0
VERTEX
8
Sketch
10
89.8
20
0.62
0
VERTEX
8
Sketch
10
90.82
20
0.62
0
VERTEX
8
Sketch
10
90.94
20
0.56
0
VERTEX
8
Sketch
10
91.18
20
0.62
0
VERTEX
8
Sketch
10
91.48
20
0.56
0
VERTEX
8
Sketch
10
92.32
20
0.56
0
VERTEX
8
Sketch
10
92.5
20
0.5
0
VERTEX
8
Sketch
10
92.62
20
0.56
0
VERTEX
8
Sketch
10
92.74
20
0.5
0
VERTEX
8
Sketch
10
93.16
20
0.62
0
VERTEX
8
Sketch
10
93.52
20
0.62
0
VERTEX
8
Sketch
10
93.82
20
0.68
0
VERTEX
8
Sketch
10
94.36
20
0.68
0
VERTEX
8
Sketch
10
94.6
20
0.74
0
VERTEX
8
Sketch
10
94.84
20
0.8
0
VERTEX
8
Sketch
10
94.96
20
0.86
0
VERTEX
8
Sketch
10
95.08
20
0.8
0
VERTEX
8
Sketch
10
95.74
20
0.92
0
VERTEX
8
Sketch
10
95.86
20
0.86
0
SEQEND
0
POLYLINE
66
1
8
Sketch
62
0
0
VERTEX
8
Sketch
10
58.84
20
1.82
0
VERTEX
8
Sketch
10
58.96
20
1.82
0
VERTEX
8
Sketch
10
59.2
20
1.64
0
VERTEX
8
Sketch
10
59.32
20
1.7
0
VERTEX
8
Sketch
10
59.44
20
1.64
0
VERTEX
8
Sketch
10
59.56
20
1.7
0
VERTEX
8
Sketch
10
59.8
20
1.64
0
VERTEX
8
Sketch
10
60.46
20
1.58
0
VERTEX
8
Sketch
10
60.94
20
1.58
0
VERTEX
8
Sketch
10
61.06
20
1.52
0
VERTEX
8
Sketch
10
61.36
20
1.58
0
VERTEX
8
Sketch
10
61.6
20
1.52
0
VERTEX
8
Sketch
10
61.96
20
1.46
0
VERTEX
8
Sketch
10
62.2
20
1.52
0
VERTEX
8
Sketch
10
62.56
20
1.4
0
VERTEX
8
Sketch
10
62.8
20
1.4
0
VERTEX
8
Sketch
10
63.4
20
1.28
0
VERTEX
8
Sketch
10
63.82
20
1.34
0
VERTEX
8
Sketch
10
64.06
20
1.34
0
VERTEX
8
Sketch
10
64.36
20
1.28
0
VERTEX
8
Sketch
10
65.02
20
1.28
0
VERTEX
8
Sketch
10
65.26
20
1.22
0
VERTEX
8
Sketch
10
65.5
20
1.28
0
VERTEX
8
Sketch
10
65.68
20
1.28
0
VERTEX
8
Sketch
10
65.92
20
1.34
0
VERTEX
8
Sketch
10
66.34
20
1.28
0
VERTEX
8
Sketch
10
68.02
20
1.28
0
VERTEX
8
Sketch
10
68.26
20
1.22
0
VERTEX
8
Sketch
10
68.56
20
1.22
0
VERTEX
8
Sketch
10
68.8
20
1.28
0
VERTEX
8
Sketch
10
69.28
20
1.16
0
VERTEX
8
Sketch
10
69.58
20
1.22
0
VERTEX
8
Sketch
10
69.82
20
1.22
0
VERTEX
8
Sketch
10
70.06
20
1.16
0
VERTEX
8
Sketch
10
70.54
20
1.04
0
VERTEX
8
Sketch
10
70.84
20
0.98
0
VERTEX
8
Sketch
10
70.96
20
1.04
0
VERTEX
8
Sketch
10
71.2
20
0.98
0
VERTEX
8
Sketch
10
71.44
20
0.92
0
VERTEX
8
Sketch
10
71.68
20
0.86
0
VERTEX
8
Sketch
10
73.12
20
0.86
0
VERTEX
8
Sketch
10
73.36
20
0.92
0
VERTEX
8
Sketch
10
73.96
20
0.92
0
VERTEX
8
Sketch
10
74.26
20
0.86
0
VERTEX
8
Sketch
10
74.38
20
0.92
0
VERTEX
8
Sketch
10
74.62
20
0.86
0
VERTEX
8
Sketch
10
74.86
20
0.92
0
SEQEND
0
POLYLINE
66
1
8
Sketch
62
0
0
VERTEX
8
Sketch
10
46.18
20
3.02
0
VERTEX
8
Sketch
10
46.42
20
2.96
0
VERTEX
8
Sketch
10
47.62
20
2.96
0
VERTEX
8
Sketch
10
47.98
20
2.84
0
VERTEX
8
Sketch
10
48.22
20
2.84
0
VERTEX
8
Sketch
10
48.88
20
2.72
0
VERTEX
8
Sketch
10
49.84
20
2.72
0
VERTEX
8
Sketch
10
50.08
20
2.66
0
VERTEX
8
Sketch
10
50.56
20
2.6
0
VERTEX
8
Sketch
10
50.92
20
2.54
0
VERTEX
8
Sketch
10
51.16
20
2.54
0
VERTEX
8
Sketch
10
51.4
20
2.42
0
VERTEX
8
Sketch
10
51.58
20
2.42
0
VERTEX
8
Sketch
10
51.88
20
2.48
0
VERTEX
8
Sketch
10
52.12
20
2.48
0
VERTEX
8
Sketch
10
52.54
20
2.36
0
VERTEX
8
Sketch
10
52.78
20
2.42
0
VERTEX
8
Sketch
10
53.32
20
2.3
0
VERTEX
8
Sketch
10
53.62
20
2.3
0
VERTEX
8
Sketch
10
53.86
20
2.24
0
VERTEX
8
Sketch
10
54.1
20
2.24
0
VERTEX
8
Sketch
10
54.22
20
2.18
0
VERTEX
8
Sketch
10
54.34
20
2.24
0
VERTEX
8
Sketch
10
54.76
20
2.18
0
VERTEX
8
Sketch
10
54.94
20
2.18
0
VERTEX
8
Sketch
10
55.3
20
2.06
0
VERTEX
8
Sketch
10
55.48
20
2.06
0
VERTEX
8
Sketch
10
55.6
20
2
0
VERTEX
8
Sketch
10
55.84
20
2.06
0
VERTEX
8
Sketch
10
56.26
20
1.94
0
VERTEX
8
Sketch
10
57.04
20
1.94
0
VERTEX
8
Sketch
10
57.28
20
1.88
0
VERTEX
8
Sketch
10
57.52
20
1.82
0
VERTEX
8
Sketch
10
57.76
20
1.88
0
VERTEX
8
Sketch
10
57.88
20
1.82
0
VERTEX
8
Sketch
10
58
20
1.88
0
VERTEX
8
Sketch
10
58.24
20
1.76
0
VERTEX
8
Sketch
10
58.42
20
1.76
0
VERTEX
8
Sketch
10
58.66
20
1.82
0
SEQEND
0
POINT
8
Sketch
62
32
10
112.18
20
-2.56
0
POINT
8
Sketch
62
5
10
135.76
20
-1.24
0
POLYLINE
66
1
8
Sketch
62
0
0
VERTEX
8
Sketch
10
46.96
20
2.3
0
VERTEX
8
Sketch
10
46.66
20
2.48
0
VERTEX
8
Sketch
10
45.88
20
2.48
0
VERTEX
8
Sketch
10
45.4
20
2.54
0
VERTEX
8
Sketch
10
45.28
20
2.54
0
SEQEND
0
POLYLINE
66
1
8
Sketch
62
0
0
VERTEX
8
Sketch
10
36.82
20
2
0
VERTEX
8
Sketch
10
37.6
20
2
0
VERTEX
8
Sketch
10
37.96
20
2.18
0
VERTEX
8
Sketch
10
38.26
20
2.12
0
VERTEX
8
Sketch
10
38.5
20
2.18
0
VERTEX
8
Sketch
10
38.8
20
2.12
0
VERTEX
8
Sketch
10
39.04
20
2.18
0
VERTEX
8
Sketch
10
39.22
20
2.18
0
VERTEX
8
Sketch
10
39.94
20
2.36
0
VERTEX
8
Sketch
10
40.06
20
2.3
0
VERTEX
8
Sketch
10
40.18
20
2.42
0
VERTEX
8
Sketch
10
40.36
20
2.42
0
VERTEX
8
Sketch
10
40.6
20
2.48
0
VERTEX
8
Sketch
10
41.32
20
2.6
0
VERTEX
8
Sketch
10
41.5
20
2.6
0
VERTEX
8
Sketch
10
41.74
20
2.66
0
VERTEX
8
Sketch
10
42.28
20
2.72
0
VERTEX
8
Sketch
10
42.64
20
2.66
0
VERTEX
8
Sketch
10
43
20
2.78
0
VERTEX
8
Sketch
10
43.18
20
2.78
0
VERTEX
8
Sketch
10
43.42
20
2.9
0
VERTEX
8
Sketch
10
43.6
20
2.9
0
VERTEX
8
Sketch
10
43.72
20
2.84
0
VERTEX
8
Sketch
10
44.02
20
2.9
0
VERTEX
8
Sketch
10
44.2
20
2.9
0
VERTEX
8
Sketch
10
44.5
20
2.84
0
VERTEX
8
Sketch
10
44.86
20
2.78
0
VERTEX
8
Sketch
10
45.28
20
2.84
0
VERTEX
8
Sketch
10
45.88
20
2.84
0
VERTEX
8
Sketch
10
46.12
20
2.9
0
VERTEX
8
Sketch
10
46.36
20
2.84
0
VERTEX
8
Sketch
10
46.48
20
2.9
0
SEQEND
0
POLYLINE
66
1
8
Sketch
62
5
0
VERTEX
8
Sketch
10
44.86
20
-1.18
0
VERTEX
8
Sketch
10
45.16
20
-1.24
0
VERTEX
8
Sketch
10
45.4
20
-1.24
0
VERTEX
8
Sketch
10
45.52
20
-1.3
0
VERTEX
8
Sketch
10
45.82
20
-1.3
0
VERTEX
8
Sketch
10
46
20
-1.36
0
VERTEX
8
Sketch
10
46.12
20
-1.3
0
VERTEX
8
Sketch
10
46.54
20
-1.36
0
VERTEX
8
Sketch
10
47.08
20
-1.3
0
VERTEX
8
Sketch
10
47.32
20
-1.3
0
VERTEX
8
Sketch
10
47.56
20
-1.36
0
VERTEX
8
Sketch
10
47.8
20
-1.3
0
VERTEX
8
Sketch
10
47.92
20
-1.36
0
SEQEND
0
POLYLINE
66
1
8
Sketch
62
32
0
VERTEX
8
Sketch
10
18.7
20
-4
0
VERTEX
8
Sketch
10
18.34
20
-4.12
0
VERTEX
8
Sketch
10
18.04
20
-4.12
0
VERTEX
8
Sketch
10
17.8
20
-4.24
0
VERTEX
8
Sketch
10
17.62
20
-4.24
0
VERTEX
8
Sketch
10
17.44
20
-4.36
0
VERTEX
8
Sketch
10
17.14
20
-4.42
0
VERTEX
8
Sketch
10
16.9
20
-4.48
0
VERTEX
8
Sketch
10
16.66
20
-4.42
0
VERTEX
8
Sketch
10
16.18
20
-4.6
0
VERTEX
8
Sketch
10
15.88
20
-4.6
0
VERTEX
8
Sketch
10
15.58
20
-4.54
0
VERTEX
8
Sketch
10
14.86
20
-4.54
0
VERTEX
8
Sketch
10
14.62
20
-4.48
0
VERTEX
8
Sketch
10
14.2
20
-4.48
0
VERTEX
8
Sketch
10
14.08
20
-4.6
0
VERTEX
8
Sketch
10
13.96
20
-4.6
0
VERTEX
8
Sketch
10
13.84
20
-4.42
0
VERTEX
8
Sketch
10
13.6
20
-4.48
0
VERTEX
8
Sketch
10
13.12
20
-4.42
0
VERTEX
8
Sketch
10
12.88
20
-4.48
0
VERTEX
8
Sketch
10
12.76
20
-4.48
0
SEQEND
0
POLYLINE
66
1
8
Sketch
62
32
0
VERTEX
8
Sketch
10
35.38
20
-4.18
0
VERTEX
8
Sketch
10
35.08
20
-4.18
0
VERTEX
8
Sketch
10
34.84
20
-4.24
0
VERTEX
8
Sketch
10
34.54
20
-4.18
0
VERTEX
8
Sketch
10
34.24
20
-4.18
0
VERTEX
8
Sketch
10
34.06
20
-4.12
0
VERTEX
8
Sketch
10
33.52
20
-4.3
0
VERTEX
8
Sketch
10
33.4
20
-4.24
0
VERTEX
8
Sketch
10
33.1
20
-4.3
0
VERTEX
8
Sketch
10
32.74
20
-4.36
0
VERTEX
8
Sketch
10
32.02
20
-4.54
0
VERTEX
8
Sketch
10
31.72
20
-4.6
0
VERTEX
8
Sketch
10
30.52
20
-4.6
0
VERTEX
8
Sketch
10
30.4
20
-4.66
0
VERTEX
8
Sketch
10
30.16
20
-4.6
0
VERTEX
8
Sketch
10
28.6
20
-4.6
0
VERTEX
8
Sketch
10
27.82
20
-4.36
0
VERTEX
8
Sketch
10
27.64
20
-4.36
0
VERTEX
8
Sketch
10
27.4
20
-4.3
0
VERTEX
8
Sketch
10
27.16
20
-4.3
0
VERTEX
8
Sketch
10
26.74
20
-4.24
0
VERTEX
8
Sketch
10
26.5
20
-4.24
0
VERTEX
8
Sketch
10
26.26
20
-4.18
0
VERTEX
8
Sketch
10
25.6
20
-4.18
0
VERTEX
8
Sketch
10
25.18
20
-4.12
0
VERTEX
8
Sketch
10
24.52
20
-4.12
0
VERTEX
8
Sketch
10
24.22
20
-4.18
0
VERTEX
8
Sketch
10
23.92
20
-4.12
0
VERTEX
8
Sketch
10
23.44
20
-4.12
0
VERTEX
8
Sketch
10
23.2
20
-4.18
0
VERTEX
8
Sketch
10
22.54
20
-4.06
0
VERTEX
8
Sketch
10
22.12
20
-4.06
0
VERTEX
8
Sketch
10
21.58
20
-4.18
0
VERTEX
8
Sketch
10
21.4
20
-4.18
0
VERTEX
8
Sketch
10
21.16
20
-4.12
0
VERTEX
8
Sketch
10
20.98
20
-4.12
0
VERTEX
8
Sketch
10
20.74
20
-4.18
0
VERTEX
8
Sketch
10
20.32
20
-4.24
0
VERTEX
8
Sketch
10
20.02
20
-4.18
0
VERTEX
8
Sketch
10
19.78
20
-4.24
0
VERTEX
8
Sketch
10
19
20
-4.24
0
VERTEX
8
Sketch
10
18.88
20
-4.3
0
VERTEX
8
Sketch
10
18.64
20
-4.24
0
VERTEX
8
Sketch
10
18.52
20
-4.24
0
SEQEND
0
POLYLINE
66
1
8
Sketch
62
0
0
VERTEX
8
Sketch
10
37
20
1.9
0
VERTEX
8
Sketch
10
36.2
20
1.9
0
VERTEX
8
Sketch
10
35.8
20
1.8
0
VERTEX
8
Sketch
10
35.3
20
1.7
0
VERTEX
8
Sketch
10
34.9
20
1.8
0
VERTEX
8
Sketch
10
34.3
20
1.8
0
VERTEX
8
Sketch
10
33.8
20
1.9
0
VERTEX
8
Sketch
10
33.4
20
1.8
0
VERTEX
8
Sketch
10
32.7
20
2
0
VERTEX
8
Sketch
10
32.3
20
1.9
0
VERTEX
8
Sketch
10
31.6
20
1.9
0
VERTEX
8
Sketch
10
31.1
20
2
0
VERTEX
8
Sketch
10
30.6
20
2
0
VERTEX
8
Sketch
10
30
20
1.8
0
VERTEX
8
Sketch
10
29.6
20
1.9
0
VERTEX
8
Sketch
10
29.2
20
1.8
0
VERTEX
8
Sketch
10
28.1
20
1.7
0
VERTEX
8
Sketch
10
27.2
20
1.7
0
VERTEX
8
Sketch
10
26.7
20
1.6
0
VERTEX
8
Sketch
10
26.5
20
1.7
0
VERTEX
8
Sketch
10
26.3
20
1.6
0
VERTEX
8
Sketch
10
25.9
20
1.7
0
VERTEX
8
Sketch
10
25.7
20
1.6
0
VERTEX
8
Sketch
10
25.5
20
1.7
0
VERTEX
8
Sketch
10
25.3
20
1.6
0
VERTEX
8
Sketch
10
24.9
20
1.7
0
VERTEX
8
Sketch
10
24.6
20
1.7
0
VERTEX
8
Sketch
10
23.8
20
2
0
VERTEX
8
Sketch
10
23.2
20
2
0
VERTEX
8
Sketch
10
22.8
20
1.9
0
VERTEX
8
Sketch
10
22.6
20
2.1
0
VERTEX
8
Sketch
10
22
20
1.9
0
SEQEND
0
POLYLINE
66
1
8
Sketch
62
0
0
VERTEX
8
Sketch
10
23.2
20
1.7
0
VERTEX
8
Sketch
10
22.8
20
1.6
0
VERTEX
8
Sketch
10
22.6
20
1.7
0
VERTEX
8
Sketch
10
22.2
20
1.6
0
VERTEX
8
Sketch
10
21.8
20
1.7
0
VERTEX
8
Sketch
10
20.8
20
1.9
0
VERTEX
8
Sketch
10
20.4
20
1.8
0
VERTEX
8
Sketch
10
20
20
2
0
VERTEX
8
Sketch
10
19.1
20
1.8
0
VERTEX
8
Sketch
10
18.7
20
1.9
0
VERTEX
8
Sketch
10
17.9
20
2
0
VERTEX
8
Sketch
10
17.4
20
2
0
VERTEX
8
Sketch
10
17.2
20
2.1
0
VERTEX
8
Sketch
10
17
20
2
0
VERTEX
8
Sketch
10
16.4
20
2.2
0
VERTEX
8
Sketch
10
15.6
20
2.2
0
VERTEX
8
Sketch
10
15.2
20
2.4
0
VERTEX
8
Sketch
10
15
20
2.3
0
VERTEX
8
Sketch
10
14.8
20
2.5
0
VERTEX
8
Sketch
10
14.4
20
2.5
0
VERTEX
8
Sketch
10
14
20
2.6
0
VERTEX
8
Sketch
10
13
20
2.8
0
VERTEX
8
Sketch
10
12.6
20
2.9
0
VERTEX
8
Sketch
10
12.2
20
3
0
VERTEX
8
Sketch
10
11.6
20
3.3
0
VERTEX
8
Sketch
10
10.6
20
3.3
0
SEQEND
0
POLYLINE
66
1
8
Sketch
62
0
0
VERTEX
8
Sketch
10
-0.5
20
2.5
0
VERTEX
8
Sketch
10
-0.3
20
2.7
0
VERTEX
8
Sketch
10
0.1
20
2.6
0
VERTEX
8
Sketch
10
0.4
20
2.6
0
VERTEX
8
Sketch
10
0.8
20
2.4
0
VERTEX
8
Sketch
10
1.3
20
2.4
0
VERTEX
8
Sketch
10
1.8
20
2.5
0
VERTEX
8
Sketch
10
2.1
20
2.5
0
VERTEX
8
Sketch
10
2.6
20
2.6
0
VERTEX
8
Sketch
10
3.5
20
2.5
0
VERTEX
8
Sketch
10
4.5
20
2.8
0
VERTEX
8
Sketch
10
5
20
2.7
0
VERTEX
8
Sketch
10
5.4
20
2.8
0
VERTEX
8
Sketch
10
5.8
20
2.7
0
VERTEX
8
Sketch
10
6.2
20
2.8
0
VERTEX
8
Sketch
10
6.7
20
2.8
0
VERTEX
8
Sketch
10
6.9
20
2.7
0
VERTEX
8
Sketch
10
7.5
20
2.9
0
VERTEX
8
Sketch
10
8.6
20
2.9
0
VERTEX
8
Sketch
10
9
20
3
0
VERTEX
8
Sketch
10
9.9
20
3.1
0
VERTEX
8
Sketch
10
10.3
20
3
0
VERTEX
8
Sketch
10
10.7
20
3
0
VERTEX
8
Sketch
10
11.2
20
3.1
0
VERTEX
8
Sketch
10
11.4
20
2.9
0
VERTEX
8
Sketch
10
11.8
20
3
0
SEQEND
0
POLYLINE
66
1
8
Sketch
62
5
0
VERTEX
8
Sketch
10
-0.2
20
-4.8
0
VERTEX
8
Sketch
10
0
20
-5
0
VERTEX
8
Sketch
10
0.6
20
-5
0
VERTEX
8
Sketch
10
1
20
-5.1
0
VERTEX
8
Sketch
10
1.2
20
-5
0
VERTEX
8
Sketch
10
1.6
20
-5.1
0
VERTEX
8
Sketch
10
2.3
20
-5.1
0
VERTEX
8
Sketch
10
2.7
20
-5
0
VERTEX
8
Sketch
10
3.5
20
-4.9
0
VERTEX
8
Sketch
10
3.9
20
-5
0
VERTEX
8
Sketch
10
4.6
20
-4.9
0
VERTEX
8
Sketch
10
4.8
20
-5
0
VERTEX
8
Sketch
10
5
20
-4.9
0
VERTEX
8
Sketch
10
5.2
20
-5
0
VERTEX
8
Sketch
10
5.6
20
-4.9
0
VERTEX
8
Sketch
10
6.5
20
-4.9
0
VERTEX
8
Sketch
10
6.7
20
-5
0
VERTEX
8
Sketch
10
7.1
20
-4.9
0
VERTEX
8
Sketch
10
7.6
20
-4.8
0
VERTEX
8
Sketch
10
8
20
-4.7
0
VERTEX
8
Sketch
10
8.8
20
-4.6
0
VERTEX
8
Sketch
10
9.1
20
-4.6
0
VERTEX
8
Sketch
10
9.5
20
-4.5
0
VERTEX
8
Sketch
10
11.4
20
-4.5
0
VERTEX
8
Sketch
10
11.6
20
-4.6
0
VERTEX
8
Sketch
10
11.9
20
-4.5
0
VERTEX
8
Sketch
10
12.3
20
-4.6
0
VERTEX
8
Sketch
10
12.7
20
-4.6
0
VERTEX
8
Sketch
10
12.9
20
-4.7
0
VERTEX
8
Sketch
10
13.4
20
-4.6
0
VERTEX
8
Sketch
10
13.8
20
-4.7
0
VERTEX
8
Sketch
10
14
20
-4.7
0
SEQEND
0
LINE
8
Shots
62
1
10
138.522
20
-0.27
11
150.21
21
3.374
0
CIRCLE
8
Shots
62
1
10
150.21
20
3.374
40
0.1
0
TEXT
8
Label
40
1
1
51.2
10
150.21
20
3.374
0
LINE
8
Shots
62
1
10
135.654
20
-0.84
11
138.522
21
-0.27
0
CIRCLE
8
Shots
62
1
10
138.522
20
-0.27
40
0.1
0
TEXT
8
Label
40
1
1
51.1
10
138.522
20
-0.27
0
LINE
8
XSect
62
1
6
DASH
10
138.522
20
-0.27
11
138.738
21
0.352
0
LINE
8
XSect
62
1
10
138.522
20
-0.27
11
138.82
21
0.778
0
LINE
8
XSect
62
1
10
138.522
20
-0.27
11
139.256
21
2.302
0
LINE
8
XSect
62
1
10
138.522
20
-0.27
11
138.524
21
-0.674
0
LINE
8
Shots
62
1
10
135.654
20
-0.84
11
135.654
21
-0.84
0
CIRCLE
8
Shots
62
1
10
135.654
20
-0.84
40
0.1
0
LINE
8
Shots
62
1
10
135.654
20
-0.84
11
146.044
21
1.67
0
CIRCLE
8
Shots
62
1
10
146.044
20
1.67
40
0.1
0
TEXT
8
Label
40
1
1
50.8
10
146.044
20
1.67
0
LINE
8
Shots
62
1
10
126.02
20
-0.812
11
135.654
21
-0.84
0
CIRCLE
8
Shots
62
1
10
135.654
20
-0.84
40
0.1
0
TEXT
8
Label
40
1
1
50.7
10
135.654
20
-0.84
0
LINE
8
XSect
62
1
6
DASH
10
135.654
20
-0.84
11
135.724
21
-0.878
0
LINE
8
XSect
62
1
6
DASH
10
135.654
20
-0.84
11
131.11
21
2.356
0
LINE
8
XSect
62
1
10
135.654
20
-0.84
11
136.082
21
2.804
0
LINE
8
Shots
62
1
10
108.976
20
-0.262
11
126.02
21
-0.812
0
CIRCLE
8
Shots
62
1
10
126.02
20
-0.812
40
0.1
0
TEXT
8
Label
40
1
1
50.6
10
126.02
20
-0.812
0
LINE
8
XSect
62
1
6
DASH
10
126.02
20
-0.812
11
125.896
21
-0.81
0
LINE
8
XSect
62
1
6
DASH
10
126.02
20
-0.812
11
128.136
21
-0.81
0
LINE
8
XSect
62
1
10
126.02
20
-0.812
11
126.026
21
-0.05
0
LINE
8
Shots
62
1
10
86.838
20
-0.198
11
108.976
21
-0.262
0
CIRCLE
8
Shots
62
1
10
108.976
20
-0.262
40
0.1
0
TEXT
8
Label
40
1
1
50.5
10
108.976
20
-0.262
0
LINE
8
XSect
62
1
6
DASH
10
108.976
20
-0.262
11
108.344
21
-0.828
0
LINE
8
XSect
62
1
10
108.976
20
-0.262
11
109.066
21
0.324
0
LINE
8
XSect
62
1
10
108.976
20
-0.262
11
108.962
21
-1.062
0
LINE
8
Shots
62
1
10
73.374
20
-0.4
11
86.838
21
-0.198
0
CIRCLE
8
Shots
62
1
10
86.838
20
-0.198
40
0.1
0
TEXT
8
Label
40
1
1
50.4
10
86.838
20
-0.198
0
LINE
8
XSect
62
1
6
DASH
10
86.838
20
-0.198
11
87.242
21
-0.376
0
LINE
8
XSect
62
1
10
86.838
20
-0.198
11
86.944
21
0.502
0
LINE
8
XSect
62
1
10
86.838
20
-0.198
11
86.888
21
-1.13
0
LINE
8
Shots
62
1
10
47.128
20
-0.608
11
73.374
21
-0.4
0
CIRCLE
8
Shots
62
1
10
73.374
20
-0.4
40
0.1
0
TEXT
8
Label
40
1
1
50.3
10
73.374
20
-0.4
0
LINE
8
XSect
62
1
6
DASH
10
73.374
20
-0.4
11
75.698
21
-0.526
0
LINE
8
XSect
62
1
10
73.374
20
-0.4
11
73.812
21
0.898
0
LINE
8
XSect
62
1
10
73.374
20
-0.4
11
73.308
21
-1.042
0
LINE
8
Shots
62
1
10
23.198
20
-0.588
11
47.128
21
-0.608
0
CIRCLE
8
Shots
62
1
10
47.128
20
-0.608
40
0.1
0
TEXT
8
Label
40
1
1
50.2
10
47.128
20
-0.608
0
LINE
8
XSect
62
1
6
DASH
10
47.128
20
-0.608
11
47.474
21
-0.54
0
LINE
8
XSect
62
1
6
DASH
10
47.128
20
-0.608
11
46.81
21
-0.608
0
LINE
8
XSect
62
1
10
47.128
20
-0.608
11
47.19
21
2.058
0
LINE
8
XSect
62
1
10
47.128
20
-0.608
11
47.166
21
-1.082
0
LINE
8
Shots
62
1
10
0
20
0
11
23.198
21
-0.588
0
CIRCLE
8
Shots
62
1
10
23.198
20
-0.588
40
0.1
0
TEXT
8
Label
40
1
1
50.1
10
23.198
20
-0.588
0
LINE
8
XSect
62
1
6
DASH
10
23.198
20
-0.588
11
23.764
21
-0.684
0
LINE
8
XSect
62
1
10
23.198
20
-0.588
11
23.146
21
0.938
0
LINE
8
XSect
62
1
10
23.198
20
-0.588
11
23.234
21
-1.102
0
LINE
8
Shots
62
1
10
0
20
0
11
0
21
0
0
CIRCLE
8
Shots
62
1
10
0
20
0
40
0.1
0
LINE
8
XSect
62
1
10
0
20
0
11
5.362
21
-0.22
0
LINE
8
XSect
62
1
10
0
20
0
11
0.252
21
1.974
0
LINE
8
XSect
62
1
10
0
20
0
11
-0.012
21
-1.132
0
LINE
8
XSect
62
1
10
0
20
0
11
5.876
21
-0.218
0
ENDSEC
0
EOF
