0
SECTION
2
HEADER
9
$ACADVER
1
AC1002
9
$INSUNITS
70
4
0
ENDSEC
0
SECTION
2
TABLES
0
TABLE
2
LTYPE
70
1
0
LTYPE
2
DASH
70
0
3
---
72
65
73
2
40
0.6
49
0.3
49
-0.3
0
ENDTAB
0
ENDSEC
0
SECTION
2
ENTITIES
0
LINE
8
Shots
62
1
10
134.298
20
6.7
11
161.404
21
6.138
0
CIRCLE
8
Shots
62
1
10
161.404
20
6.138
40
0.1
0
TEXT
8
Label
40
1
1
22.7
10
161.404
20
6.138
0
LINE
8
XSect
62
1
6
DASH
10
161.404
20
6.138
11
161.648
21
6.356
0
LINE
8
XSect
62
1
6
DASH
10
161.404
20
6.138
11
160.276
21
6.678
0
LINE
8
XSect
62
1
10
161.404
20
6.138
11
161.23
21
4.086
0
LINE
8
XSect
62
1
10
161.404
20
6.138
11
161.59
21
7.102
0
LINE
8
Shots
62
1
10
119.542
20
4.444
11
134.298
21
6.7
0
CIRCLE
8
Shots
62
1
10
134.298
20
6.7
40
0.1
0
TEXT
8
Label
40
1
1
22.6
10
134.298
20
6.7
0
LINE
8
XSect
62
1
10
134.298
20
6.7
11
139.26
21
6.552
0
LINE
8
XSect
62
1
6
DASH
10
134.298
20
6.7
11
136.098
21
6.208
0
LINE
8
Shots
62
1
10
111.378
20
6.2
11
119.542
21
4.444
0
CIRCLE
8
Shots
62
1
10
119.542
20
4.444
40
0.1
0
TEXT
8
Label
40
1
1
22.5
10
119.542
20
4.444
0
LINE
8
XSect
62
1
6
DASH
10
119.542
20
4.444
11
120.568
21
4.562
0
LINE
8
XSect
62
1
10
119.542
20
4.444
11
119.898
21
6.362
0
LINE
8
XSect
62
1
10
119.542
20
4.444
11
119.446
21
3.158
0
LINE
8
Shots
62
1
10
101.178
20
7.058
11
111.378
21
6.2
0
CIRCLE
8
Shots
62
1
10
111.378
20
6.2
40
0.1
0
TEXT
8
Label
40
1
1
22.4
10
111.378
20
6.2
0
LINE
8
XSect
62
1
6
DASH
10
111.378
20
6.2
11
111.18
21
6.074
0
LINE
8
XSect
62
1
6
DASH
10
111.378
20
6.2
11
112.49
21
5.608
0
LINE
8
XSect
62
1
10
111.378
20
6.2
11
111.016
21
5.108
0
LINE
8
XSect
62
1
10
111.378
20
6.2
11
111.468
21
6.962
0
LINE
8
Shots
62
1
10
87.716
20
6.888
11
101.178
21
7.058
0
CIRCLE
8
Shots
62
1
10
101.178
20
7.058
40
0.1
0
TEXT
8
Label
40
1
1
22.3
10
101.178
20
7.058
0
LINE
8
XSect
62
1
6
DASH
10
101.178
20
7.058
11
100.096
21
8.988
0
LINE
8
XSect
62
1
6
DASH
10
101.178
20
7.058
11
101.77
21
7.058
0
LINE
8
XSect
62
1
10
101.178
20
7.058
11
101.11
21
7.634
0
LINE
8
XSect
62
1
10
101.178
20
7.058
11
101.25
21
4.84
0
LINE
8
Shots
62
1
10
73.126
20
6.394
11
87.716
21
6.888
0
CIRCLE
8
Shots
62
1
10
87.716
20
6.888
40
0.1
0
TEXT
8
Label
40
1
1
22.2
10
87.716
20
6.888
0
LINE
8
XSect
62
1
6
DASH
10
87.716
20
6.888
11
92.194
21
7.156
0
LINE
8
XSect
62
1
6
DASH
10
87.716
20
6.888
11
88.14
21
7.636
0
LINE
8
XSect
62
1
10
87.716
20
6.888
11
87.796
21
5.396
0
LINE
8
XSect
62
1
10
87.716
20
6.888
11
88.024
21
8.548
0
LINE
8
Shots
62
1
10
57.422
20
4.326
11
73.126
21
6.394
0
CIRCLE
8
Shots
62
1
10
73.126
20
6.394
40
0.1
0
TEXT
8
Label
40
1
1
22.1
10
73.126
20
6.394
0
LINE
8
XSect
62
1
6
DASH
10
73.126
20
6.394
11
73.232
21
6.92
0
LINE
8
XSect
62
1
6
DASH
10
73.126
20
6.394
11
73.856
21
7.43
0
LINE
8
XSect
62
1
10
73.126
20
6.394
11
72.866
21
4.822
0
LINE
8
Shots
62
1
10
57.422
20
4.326
11
57.422
21
4.326
0
CIRCLE
8
Shots
62
1
10
57.422
20
4.326
40
0.1
0
LINE
8
Shots
62
1
10
63.676
20
2.652
11
72.05
21
2.524
0
CIRCLE
8
Shots
62
1
10
72.05
20
2.524
40
0.1
0
TEXT
8
Label
40
1
1
21.5
10
72.05
20
2.524
0
LINE
8
Shots
62
1
10
57.422
20
4.326
11
63.676
21
2.652
0
CIRCLE
8
Shots
62
1
10
63.676
20
2.652
40
0.1
0
TEXT
8
Label
40
1
1
21.4
10
63.676
20
2.652
0
LINE
8
XSect
62
1
6
DASH
10
63.676
20
2.652
11
63.752
21
3.122
0
LINE
8
XSect
62
1
6
DASH
10
63.676
20
2.652
11
63.962
21
3.226
0
LINE
8
XSect
62
1
10
63.676
20
2.652
11
64.06
21
4.31
0
LINE
8
XSect
62
1
10
63.676
20
2.652
11
64.644
21
-4.412
0
LINE
8
Shots
62
1
10
47.812
20
5.566
11
57.422
21
4.326
0
CIRCLE
8
Shots
62
1
10
57.422
20
4.326
40
0.1
0
TEXT
8
Label
40
1
1
21.3
10
57.422
20
4.326
0
LINE
8
XSect
62
1
6
DASH
10
57.422
20
4.326
11
56.652
21
3.48
0
LINE
8
XSect
62
1
10
57.422
20
4.326
11
64.004
21
3.036
0
LINE
8
XSect
62
1
6
DASH
10
57.422
20
4.326
11
58.94
21
6.308
0
LINE
8
XSect
62
1
10
57.422
20
4.326
11
57.418
21
1.824
0
LINE
8
XSect
62
1
10
57.422
20
4.326
11
57.662
21
6.892
0
LINE
8
Shots
62
1
10
11.636
20
4.566
11
47.812
21
5.566
0
CIRCLE
8
Shots
62
1
10
47.812
20
5.566
40
0.1
0
TEXT
8
Label
40
1
1
21.2
10
47.812
20
5.566
0
LINE
8
XSect
62
1
6
DASH
10
47.812
20
5.566
11
46.456
21
4.056
0
LINE
8
XSect
62
1
6
DASH
10
47.812
20
5.566
11
48.702
21
5.802
0
LINE
8
XSect
62
1
10
47.812
20
5.566
11
48.02
21
7.95
0
LINE
8
XSect
62
1
10
47.812
20
5.566
11
47.566
21
2.676
0
LINE
8
Shots
62
1
10
0
20
0
11
11.636
21
4.566
0
CIRCLE
8
Shots
62
1
10
11.636
20
4.566
40
0.1
0
TEXT
8
Label
40
1
1
21.1
10
11.636
20
4.566
0
LINE
8
XSect
62
1
6
DASH
10
11.636
20
4.566
11
13.784
21
5.602
0
LINE
8
XSect
62
1
6
DASH
10
11.636
20
4.566
11
12.146
21
4.558
0
LINE
8
XSect
62
1
10
11.636
20
4.566
11
11.62
21
6.926
0
LINE
8
XSect
62
1
10
11.636
20
4.566
11
11.868
21
2.076
0
LINE
8
Shots
62
1
10
0
20
0
11
0
21
0
0
CIRCLE
8
Shots
62
1
10
0
20
0
40
0.1
0
LINE
8
Shots
62
1
10
69.552
20
3.738
11
75.37
21
5.756
0
CIRCLE
8
Shots
62
1
10
75.37
20
5.756
40
0.1
0
TEXT
8
Label
40
1
1
20.30
10
75.37
20
5.756
0
LINE
8
XSect
62
1
6
DASH
10
75.37
20
5.756
11
75.98
21
6.468
0
LINE
8
XSect
62
1
6
DASH
10
75.37
20
5.756
11
74.66
21
5.71
0
LINE
8
XSect
62
1
10
75.37
20
5.756
11
75.406
21
10.374
0
LINE
8
XSect
62
1
10
75.37
20
5.756
11
75.546
21
4.968
0
LINE
8
Shots
62
1
10
60.624
20
1.304
11
69.552
21
3.738
0
CIRCLE
8
Shots
62
1
10
69.552
20
3.738
40
0.1
0
TEXT
8
Label
40
1
1
20.29
10
69.552
20
3.738
0
LINE
8
XSect
62
1
6
DASH
10
69.552
20
3.738
11
69.148
21
3.626
0
LINE
8
XSect
62
1
6
DASH
10
69.552
20
3.738
11
69.668
21
3.914
0
LINE
8
XSect
62
1
10
69.552
20
3.738
11
69.32
21
5.206
0
LINE
8
XSect
62
1
10
69.552
20
3.738
11
70.534
21
1.546
0
LINE
8
Shots
62
1
10
37.08
20
7.596
11
60.624
21
1.304
0
CIRCLE
8
Shots
62
1
10
60.624
20
1.304
40
0.1
0
TEXT
8
Label
40
1
1
20.28
10
60.624
20
1.304
0
LINE
8
XSect
62
1
6
DASH
10
60.624
20
1.304
11
67.604
21
3.04
0
LINE
8
XSect
62
1
6
DASH
10
60.624
20
1.304
11
58.726
21
6.728
0
LINE
8
XSect
62
1
10
60.624
20
1.304
11
60.506
21
4.196
0
LINE
8
XSect
62
1
10
60.624
20
1.304
11
60.966
21
-1.318
0
LINE
8
Shots
62
1
10
19.226
20
-0.888
11
37.08
21
7.596
0
CIRCLE
8
Shots
62
1
10
37.08
20
7.596
40
0.1
0
TEXT
8
Label
40
1
1
20.27
10
37.08
20
7.596
0
LINE
8
XSect
62
1
6
DASH
10
37.08
20
7.596
11
34.534
21
7.76
0
LINE
8
XSect
62
1
6
DASH
10
37.08
20
7.596
11
39.752
21
7.594
0
LINE
8
XSect
62
1
10
37.08
20
7.596
11
37.276
21
9.184
0
LINE
8
XSect
62
1
10
37.08
20
7.596
11
36.144
21
1.32
0
LINE
8
Shots
62
1
10
0
20
0
11
19.226
21
-0.888
0
CIRCLE
8
Shots
62
1
10
19.226
20
-0.888
40
0.1
0
TEXT
8
Label
40
1
1
20.26
10
19.226
20
-0.888
0
LINE
8
XSect
62
1
6
DASH
10
19.226
20
-0.888
11
20.16
21
3.432
0
LINE
8
XSect
62
1
10
19.226
20
-0.888
11
26.414
21
0.572
0
LINE
8
XSect
62
1
10
19.226
20
-0.888
11
35.758
21
4.168
0
LINE
8
XSect
62
1
10
19.226
20
-0.888
11
16.226
21
5.73
0
LINE
8
XSect
62
1
10
19.226
20
-0.888
11
19.252
21
-3.67
0
LINE
8
XSect
62
1
6
DASH
10
0
20
0
11
3.6
21
5.56
0
LINE
8
XSect
62
1
6
DASH
10
0
20
0
11
3.088
21
8.61
0
LINE
8
XSect
62
1
10
0
20
0
11
1.092
21
8.054
0
LINE
8
XSect
62
1
10
0
20
0
11
0.25
21
-1.972
0
LINE
8
Grid
62
255
10
-4
20
10
11
-4
21
-4
0
LINE
8
Grid
62
255
10
-2
20
10
11
-2
21
-4
0
LINE
8
Grid
62
255
10
0
20
10
11
0
21
-4
0
LINE
8
Grid
62
255
10
2
20
10
11
2
21
-4
0
LINE
8
Grid
62
255
10
4
20
10
11
4
21
-4
0
LINE
8
Grid
62
255
10
6
20
10
11
6
21
-4
0
LINE
8
Grid
62
255
10
8
20
10
11
8
21
-4
0
LINE
8
Grid
62
255
10
10
20
10
11
10
21
-4
0
LINE
8
Grid
62
255
10
12
20
10
11
12
21
-4
0
LINE
8
Grid
62
255
10
14
20
10
11
14
21
-4
0
LINE
8
Grid
62
255
10
16
20
10
11
16
21
-4
0
LINE
8
Grid
62
255
10
18
20
10
11
18
21
-4
0
LINE
8
Grid
62
255
10
20
20
10
11
20
21
-4
0
LINE
8
Grid
62
255
10
22
20
10
11
22
21
-4
0
LINE
8
Grid
62
255
10
24
20
10
11
24
21
-4
0
LINE
8
Grid
62
255
10
26
20
10
11
26
21
-4
0
LINE
8
Grid
62
255
10
28
20
10
11
28
21
-4
0
LINE
8
Grid
62
255
10
30
20
10
11
30
21
-4
0
LINE
8
Grid
62
255
10
32
20
10
11
32
21
-4
0
LINE
8
Grid
62
255
10
34
20
10
11
34
21
-4
0
LINE
8
Grid
62
255
10
36
20
10
11
36
21
-4
0
LINE
8
Grid
62
255
10
38
20
10
11
38
21
-4
0
LINE
8
Grid
62
255
10
40
20
10
11
40
21
-4
0
LINE
8
Grid
62
255
10
42
20
10
11
42
21
-4
0
LINE
8
Grid
62
255
10
44
20
10
11
44
21
-4
0
LINE
8
Grid
62
255
10
46
20
10
11
46
21
-4
0
LINE
8
Grid
62
255
10
48
20
10
11
48
21
-4
0
LINE
8
Grid
62
255
10
50
20
10
11
50
21
-4
0
LINE
8
Grid
62
255
10
52
20
10
11
52
21
-4
0
LINE
8
Grid
62
255
10
54
20
10
11
54
21
-4
0
LINE
8
Grid
62
255
10
56
20
10
11
56
21
-4
0
LINE
8
Grid
62
255
10
58
20
10
11
58
21
-4
0
LINE
8
Grid
62
255
10
60
20
10
11
60
21
-4
0
LINE
8
Grid
62
255
10
62
20
10
11
62
21
-4
0
LINE
8
Grid
62
255
10
64
20
10
11
64
21
-4
0
LINE
8
Grid
62
255
10
66
20
10
11
66
21
-4
0
LINE
8
Grid
62
255
10
68
20
10
11
68
21
-4
0
LINE
8
Grid
62
255
10
70
20
10
11
70
21
-4
0
LINE
8
Grid
62
255
10
72
20
10
11
72
21
-4
0
LINE
8
Grid
62
255
10
74
20
10
11
74
21
-4
0
LINE
8
Grid
62
255
10
76
20
10
11
76
21
-4
0
LINE
8
Grid
62
255
10
78
20
10
11
78
21
-4
0
LINE
8
Grid
62
255
10
80
20
10
11
80
21
-4
0
LINE
8
Grid
62
255
10
82
20
10
11
82
21
-4
0
LINE
8
Grid
62
255
10
84
20
10
11
84
21
-4
0
LINE
8
Grid
62
255
10
86
20
10
11
86
21
-4
0
LINE
8
Grid
62
255
10
88
20
10
11
88
21
-4
0
LINE
8
Grid
62
255
10
90
20
10
11
90
21
-4
0
LINE
8
Grid
62
255
10
92
20
10
11
92
21
-4
0
LINE
8
Grid
62
255
10
94
20
10
11
94
21
-4
0
LINE
8
Grid
62
255
10
96
20
10
11
96
21
-4
0
LINE
8
Grid
62
255
10
98
20
10
11
98
21
-4
0
LINE
8
Grid
62
255
10
100
20
10
11
100
21
-4
0
LINE
8
Grid
62
255
10
102
20
10
11
102
21
-4
0
LINE
8
Grid
62
255
10
104
20
10
11
104
21
-4
0
LINE
8
Grid
62
255
10
106
20
10
11
106
21
-4
0
LINE
8
Grid
62
255
10
108
20
10
11
108
21
-4
0
LINE
8
Grid
62
255
10
110
20
10
11
110
21
-4
0
LINE
8
Grid
62
255
10
112
20
10
11
112
21
-4
0
LINE
8
Grid
62
255
10
114
20
10
11
114
21
-4
0
LINE
8
Grid
62
255
10
116
20
10
11
116
21
-4
0
LINE
8
Grid
62
255
10
118
20
10
11
118
21
-4
0
LINE
8
Grid
62
255
10
120
20
10
11
120
21
-4
0
LINE
8
Grid
62
255
10
122
20
10
11
122
21
-4
0
LINE
8
Grid
62
255
10
124
20
10
11
124
21
-4
0
LINE
8
Grid
62
255
10
126
20
10
11
126
21
-4
0
LINE
8
Grid
62
255
10
128
20
10
11
128
21
-4
0
LINE
8
Grid
62
255
10
130
20
10
11
130
21
-4
0
LINE
8
Grid
62
255
10
132
20
10
11
132
21
-4
0
LINE
8
Grid
62
255
10
134
20
10
11
134
21
-4
0
LINE
8
Grid
62
255
10
136
20
10
11
136
21
-4
0
LINE
8
Grid
62
255
10
138
20
10
11
138
21
-4
0
LINE
8
Grid
62
255
10
140
20
10
11
140
21
-4
0
LINE
8
Grid
62
255
10
142
20
10
11
142
21
-4
0
LINE
8
Grid
62
255
10
144
20
10
11
144
21
-4
0
LINE
8
Grid
62
255
10
146
20
10
11
146
21
-4
0
LINE
8
Grid
62
255
10
148
20
10
11
148
21
-4
0
LINE
8
Grid
62
255
10
150
20
10
11
150
21
-4
0
LINE
8
Grid
62
255
10
152
20
10
11
152
21
-4
0
LINE
8
Grid
62
255
10
154
20
10
11
154
21
-4
0
LINE
8
Grid
62
255
10
156
20
10
11
156
21
-4
0
LINE
8
Grid
62
255
10
158
20
10
11
158
21
-4
0
LINE
8
Grid
62
255
10
160
20
10
11
160
21
-4
0
LINE
8
Grid
62
255
10
162
20
10
11
162
21
-4
0
LINE
8
Grid
62
255
10
164
20
10
11
164
21
-4
0
LINE
8
Grid
62
255
10
-4
20
10
11
164
21
10
0
LINE
8
Grid
62
255
10
-4
20
8
11
164
21
8
0
LINE
8
Grid
62
255
10
-4
20
6
11
164
21
6
0
LINE
8
Grid
62
255
10
-4
20
4
11
164
21
4
0
LINE
8
Grid
62
255
10
-4
20
2
11
164
21
2
0
LINE
8
Grid
62
255
10
-4
20
0
11
164
21
0
0
LINE
8
Grid
62
255
10
-4
20
-2
11
164
21
-2
0
LINE
8
Grid
62
255
10
-4
20
-4
11
164
21
-4
0
ENDSEC
0
EOF
