0
SECTION
2
HEADER
9
$ACADVER
1
AC1002
9
$INSUNITS
70
4
0
ENDSEC
0
SECTION
2
TABLES
0
TABLE
2
LTYPE
70
1
0
LTYPE
2
DASH
70
0
3
---
72
65
73
2
40
0.6
49
0.3
49
-0.3
0
ENDTAB
0
ENDSEC
0
SECTION
2
ENTITIES
0
POLYLINE
66
1
8
Sketch
62
0
0
VERTEX
8
Sketch
10
-33.44
20
-111.06
0
VERTEX
8
Sketch
10
-33.94
20
-112.26
0
VERTEX
8
Sketch
10
-35.04
20
-116.26
0
VERTEX
8
Sketch
10
-36.34
20
-120.16
0
VERTEX
8
Sketch
10
-37.24
20
-121.96
0
VERTEX
8
Sketch
10
-38.64
20
-124.46
0
SEQEND
0
POLYLINE
66
1
8
Sketch
62
32
0
VERTEX
8
Sketch
10
-19.34
20
-103.76
0
VERTEX
8
Sketch
10
-19.44
20
-103.96
0
SEQEND
0
POINT
8
Sketch
62
32
10
-22.94
20
-108.16
0
POLYLINE
66
1
8
Sketch
62
32
0
VERTEX
8
Sketch
10
-46.64
20
-90.86
0
VERTEX
8
Sketch
10
-46.34
20
-91.06
0
SEQEND
0
POLYLINE
66
1
8
Sketch
62
32
0
VERTEX
8
Sketch
10
-44.44
20
-89.56
0
VERTEX
8
Sketch
10
-43.34
20
-90.06
0
VERTEX
8
Sketch
10
-42.74
20
-90.46
0
VERTEX
8
Sketch
10
-42.34
20
-90.96
0
SEQEND
0
POLYLINE
66
1
8
Sketch
62
32
0
VERTEX
8
Sketch
10
-44.24
20
-87.76
0
VERTEX
8
Sketch
10
-43.94
20
-87.66
0
VERTEX
8
Sketch
10
-42.74
20
-88.26
0
SEQEND
0
POLYLINE
66
1
8
Sketch
62
32
0
VERTEX
8
Sketch
10
-42.54
20
-88.46
0
VERTEX
8
Sketch
10
-41.74
20
-88.76
0
SEQEND
0
POLYLINE
66
1
8
Sketch
62
32
0
VERTEX
8
Sketch
10
-39.84
20
-89.36
0
VERTEX
8
Sketch
10
-37.34
20
-90.36
0
SEQEND
0
POINT
8
Sketch
62
32
10
-37.04
20
-91.16
0
POLYLINE
66
1
8
Sketch
62
32
0
VERTEX
8
Sketch
10
-39.14
20
-90.16
0
VERTEX
8
Sketch
10
-38.84
20
-90.16
0
VERTEX
8
Sketch
10
-38.34
20
-90.46
0
SEQEND
0
POLYLINE
66
1
8
Sketch
62
32
0
VERTEX
8
Sketch
10
-36.64
20
-91.66
0
VERTEX
8
Sketch
10
-36.44
20
-91.46
0
VERTEX
8
Sketch
10
-35.14
20
-91.36
0
SEQEND
0
POLYLINE
66
1
8
Sketch
62
32
0
VERTEX
8
Sketch
10
-29.44
20
-95.66
0
VERTEX
8
Sketch
10
-29.64
20
-95.76
0
VERTEX
8
Sketch
10
-29.64
20
-95.96
0
SEQEND
0
POLYLINE
66
1
8
Sketch
62
32
0
VERTEX
8
Sketch
10
-26.94
20
-94.66
0
VERTEX
8
Sketch
10
-26.34
20
-95.26
0
SEQEND
0
POLYLINE
66
1
8
Sketch
62
32
0
VERTEX
8
Sketch
10
-29.94
20
-92.66
0
VERTEX
8
Sketch
10
-29.74
20
-92.76
0
VERTEX
8
Sketch
10
-29.44
20
-92.66
0
SEQEND
0
POLYLINE
66
1
8
Sketch
62
32
0
VERTEX
8
Sketch
10
-29.84
20
-94.76
0
VERTEX
8
Sketch
10
-29.34
20
-94.66
0
VERTEX
8
Sketch
10
-28.74
20
-94.36
0
SEQEND
0
POLYLINE
66
1
8
Sketch
62
32
0
VERTEX
8
Sketch
10
-28.84
20
-93.36
0
VERTEX
8
Sketch
10
-28.44
20
-93.06
0
SEQEND
0
POLYLINE
66
1
8
Sketch
62
32
0
VERTEX
8
Sketch
10
-29.14
20
-92.96
0
VERTEX
8
Sketch
10
-29.24
20
-92.56
0
VERTEX
8
Sketch
10
-28.74
20
-92.56
0
SEQEND
0
POLYLINE
66
1
8
Sketch
62
32
0
VERTEX
8
Sketch
10
-31.84
20
-95.26
0
VERTEX
8
Sketch
10
-31.34
20
-95.56
0
VERTEX
8
Sketch
10
-30.64
20
-95.66
0
VERTEX
8
Sketch
10
-29.84
20
-95.56
0
VERTEX
8
Sketch
10
-29.04
20
-95.26
0
SEQEND
0
POLYLINE
66
1
8
Sketch
62
32
0
VERTEX
8
Sketch
10
-32.44
20
-94.96
0
VERTEX
8
Sketch
10
-31.64
20
-95.16
0
VERTEX
8
Sketch
10
-30.84
20
-95.16
0
SEQEND
0
POLYLINE
66
1
8
Sketch
62
32
0
VERTEX
8
Sketch
10
-33.94
20
-91.66
0
VERTEX
8
Sketch
10
-33.44
20
-92.06
0
VERTEX
8
Sketch
10
-33.14
20
-92.16
0
SEQEND
0
POLYLINE
66
1
8
Sketch
62
32
0
VERTEX
8
Sketch
10
-36.84
20
-92.66
0
VERTEX
8
Sketch
10
-36.64
20
-92.46
0
VERTEX
8
Sketch
10
-36.04
20
-92.26
0
SEQEND
0
POLYLINE
66
1
8
Sketch
62
32
0
VERTEX
8
Sketch
10
-36.54
20
-95.76
0
VERTEX
8
Sketch
10
-35.74
20
-96.26
0
VERTEX
8
Sketch
10
-34.94
20
-96.36
0
SEQEND
0
POLYLINE
66
1
8
Sketch
62
32
0
VERTEX
8
Sketch
10
-37.24
20
-93.46
0
VERTEX
8
Sketch
10
-36.94
20
-93.66
0
VERTEX
8
Sketch
10
-34.84
20
-93.86
0
VERTEX
8
Sketch
10
-33.94
20
-93.76
0
SEQEND
0
POLYLINE
66
1
8
Sketch
62
32
0
VERTEX
8
Sketch
10
-33.54
20
-91.16
0
VERTEX
8
Sketch
10
-33.84
20
-91.66
0
VERTEX
8
Sketch
10
-33.64
20
-91.86
0
VERTEX
8
Sketch
10
-33.24
20
-91.96
0
SEQEND
0
POLYLINE
66
1
8
Sketch
62
32
0
VERTEX
8
Sketch
10
-34.94
20
-91.26
0
VERTEX
8
Sketch
10
-34.74
20
-91.16
0
VERTEX
8
Sketch
10
-34.24
20
-91.26
0
SEQEND
0
POLYLINE
66
1
8
Sketch
62
32
0
VERTEX
8
Sketch
10
-38.54
20
-92.46
0
VERTEX
8
Sketch
10
-37.94
20
-92.36
0
SEQEND
0
POLYLINE
66
1
8
Sketch
62
32
0
VERTEX
8
Sketch
10
-40.54
20
-93.66
0
VERTEX
8
Sketch
10
-39.54
20
-93.86
0
VERTEX
8
Sketch
10
-38.84
20
-93.86
0
SEQEND
0
POLYLINE
66
1
8
Sketch
62
32
0
VERTEX
8
Sketch
10
-41.24
20
-90.26
0
VERTEX
8
Sketch
10
-40.94
20
-90.56
0
VERTEX
8
Sketch
10
-39.24
20
-91.06
0
SEQEND
0
POLYLINE
66
1
8
Sketch
62
32
0
VERTEX
8
Sketch
10
-42.44
20
-89.36
0
VERTEX
8
Sketch
10
-42.64
20
-89.26
0
VERTEX
8
Sketch
10
-40.94
20
-88.86
0
VERTEX
8
Sketch
10
-40.14
20
-88.76
0
SEQEND
0
POLYLINE
66
1
8
Sketch
62
32
0
VERTEX
8
Sketch
10
-43.24
20
-91.16
0
VERTEX
8
Sketch
10
-43.04
20
-91.36
0
VERTEX
8
Sketch
10
-42.44
20
-91.36
0
VERTEX
8
Sketch
10
-40.44
20
-90.76
0
SEQEND
0
POLYLINE
66
1
8
Sketch
62
32
0
VERTEX
8
Sketch
10
-42.94
20
-89.36
0
VERTEX
8
Sketch
10
-43.34
20
-89.46
0
VERTEX
8
Sketch
10
-43.14
20
-89.36
0
VERTEX
8
Sketch
10
-42.24
20
-89.56
0
SEQEND
0
POLYLINE
66
1
8
Sketch
62
32
0
VERTEX
8
Sketch
10
-44.64
20
-90.16
0
VERTEX
8
Sketch
10
-44.64
20
-89.96
0
VERTEX
8
Sketch
10
-42.24
20
-89.46
0
SEQEND
0
POLYLINE
66
1
8
Sketch
62
32
0
VERTEX
8
Sketch
10
-46.54
20
-91.46
0
VERTEX
8
Sketch
10
-46.04
20
-91.56
0
VERTEX
8
Sketch
10
-45.54
20
-91.76
0
VERTEX
8
Sketch
10
-45.14
20
-91.76
0
SEQEND
0
POLYLINE
66
1
8
Sketch
62
32
0
VERTEX
8
Sketch
10
-48.14
20
-92.86
0
VERTEX
8
Sketch
10
-46.34
20
-92.56
0
SEQEND
0
POLYLINE
66
1
8
Sketch
62
32
0
VERTEX
8
Sketch
10
-47.34
20
-93.26
0
VERTEX
8
Sketch
10
-47.04
20
-93.16
0
VERTEX
8
Sketch
10
-45.74
20
-93.16
0
SEQEND
0
POLYLINE
66
1
8
Sketch
62
32
0
VERTEX
8
Sketch
10
-46.74
20
-93.06
0
VERTEX
8
Sketch
10
-46.44
20
-92.96
0
VERTEX
8
Sketch
10
-45.94
20
-93.06
0
VERTEX
8
Sketch
10
-45.34
20
-92.96
0
SEQEND
0
POLYLINE
66
1
8
Sketch
62
32
0
VERTEX
8
Sketch
10
-44.94
20
-92.76
0
VERTEX
8
Sketch
10
-44.74
20
-93.06
0
VERTEX
8
Sketch
10
-43.64
20
-93.36
0
SEQEND
0
POLYLINE
66
1
8
Sketch
62
32
0
VERTEX
8
Sketch
10
-41.44
20
-92.06
0
VERTEX
8
Sketch
10
-41.04
20
-91.96
0
VERTEX
8
Sketch
10
-40.54
20
-92.06
0
SEQEND
0
POLYLINE
66
1
8
Sketch
62
32
0
VERTEX
8
Sketch
10
-42.24
20
-87.36
0
VERTEX
8
Sketch
10
-41.44
20
-88.06
0
VERTEX
8
Sketch
10
-40.14
20
-88.86
0
SEQEND
0
POLYLINE
66
1
8
Sketch
62
0
0
VERTEX
8
Sketch
10
-36.84
20
-71.76
0
VERTEX
8
Sketch
10
-37.04
20
-71.86
0
SEQEND
0
POLYLINE
66
1
8
Sketch
62
0
0
VERTEX
8
Sketch
10
-50.74
20
-89.36
0
VERTEX
8
Sketch
10
-50.64
20
-89.76
0
VERTEX
8
Sketch
10
-50.64
20
-91.76
0
VERTEX
8
Sketch
10
-50.14
20
-92.66
0
VERTEX
8
Sketch
10
-48.84
20
-93.66
0
VERTEX
8
Sketch
10
-47.84
20
-94.26
0
VERTEX
8
Sketch
10
-47.14
20
-94.36
0
VERTEX
8
Sketch
10
-46.94
20
-94.56
0
VERTEX
8
Sketch
10
-46.24
20
-94.66
0
VERTEX
8
Sketch
10
-46.04
20
-94.56
0
VERTEX
8
Sketch
10
-45.54
20
-94.66
0
VERTEX
8
Sketch
10
-45.14
20
-94.66
0
VERTEX
8
Sketch
10
-44.44
20
-94.76
0
VERTEX
8
Sketch
10
-44.04
20
-94.66
0
VERTEX
8
Sketch
10
-43.54
20
-94.66
0
VERTEX
8
Sketch
10
-42.74
20
-94.86
0
VERTEX
8
Sketch
10
-41.84
20
-94.86
0
VERTEX
8
Sketch
10
-41.44
20
-94.96
0
VERTEX
8
Sketch
10
-41.04
20
-95.26
0
VERTEX
8
Sketch
10
-40.24
20
-95.46
0
VERTEX
8
Sketch
10
-39.64
20
-95.76
0
VERTEX
8
Sketch
10
-39.24
20
-95.86
0
VERTEX
8
Sketch
10
-37.84
20
-96.36
0
VERTEX
8
Sketch
10
-37.24
20
-96.36
0
VERTEX
8
Sketch
10
-36.64
20
-96.56
0
VERTEX
8
Sketch
10
-36.24
20
-96.66
0
VERTEX
8
Sketch
10
-35.64
20
-96.96
0
VERTEX
8
Sketch
10
-35.14
20
-97.06
0
VERTEX
8
Sketch
10
-34.14
20
-97.36
0
VERTEX
8
Sketch
10
-33.24
20
-97.56
0
VERTEX
8
Sketch
10
-32.64
20
-97.76
0
VERTEX
8
Sketch
10
-32.44
20
-97.66
0
VERTEX
8
Sketch
10
-32.04
20
-97.96
0
VERTEX
8
Sketch
10
-31.34
20
-98.06
0
VERTEX
8
Sketch
10
-30.94
20
-98.16
0
VERTEX
8
Sketch
10
-30.74
20
-98.36
0
VERTEX
8
Sketch
10
-30.14
20
-98.26
0
VERTEX
8
Sketch
10
-29.44
20
-98.56
0
VERTEX
8
Sketch
10
-29.04
20
-98.46
0
SEQEND
0
POLYLINE
66
1
8
Sketch
62
0
0
VERTEX
8
Sketch
10
-46.34
20
-87.56
0
VERTEX
8
Sketch
10
-46.54
20
-87.26
0
VERTEX
8
Sketch
10
-47.04
20
-87.36
0
VERTEX
8
Sketch
10
-47.84
20
-87.76
0
VERTEX
8
Sketch
10
-48.04
20
-88.16
0
VERTEX
8
Sketch
10
-48.04
20
-88.46
0
VERTEX
8
Sketch
10
-48.14
20
-88.86
0
VERTEX
8
Sketch
10
-47.84
20
-89.16
0
VERTEX
8
Sketch
10
-47.34
20
-89.26
0
VERTEX
8
Sketch
10
-46.34
20
-88.76
0
VERTEX
8
Sketch
10
-45.94
20
-88.26
0
VERTEX
8
Sketch
10
-45.74
20
-87.56
0
VERTEX
8
Sketch
10
-46.14
20
-87.16
0
VERTEX
8
Sketch
10
-46.64
20
-87.06
0
SEQEND
0
POLYLINE
66
1
8
Sketch
62
0
0
VERTEX
8
Sketch
10
-49.84
20
-88.76
0
VERTEX
8
Sketch
10
-50.24
20
-89.36
0
VERTEX
8
Sketch
10
-50.44
20
-90.26
0
VERTEX
8
Sketch
10
-49.54
20
-90.86
0
VERTEX
8
Sketch
10
-49.34
20
-90.66
0
VERTEX
8
Sketch
10
-49.14
20
-90.66
0
VERTEX
8
Sketch
10
-48.34
20
-89.86
0
VERTEX
8
Sketch
10
-48.34
20
-89.06
0
VERTEX
8
Sketch
10
-48.74
20
-88.76
0
VERTEX
8
Sketch
10
-49.14
20
-88.76
0
SEQEND
0
POLYLINE
66
1
8
Sketch
62
0
0
VERTEX
8
Sketch
10
-48.14
20
-87.26
0
VERTEX
8
Sketch
10
-48.14
20
-87.06
0
VERTEX
8
Sketch
10
-48.24
20
-87.26
0
VERTEX
8
Sketch
10
-48.64
20
-87.16
0
VERTEX
8
Sketch
10
-49.04
20
-87.26
0
VERTEX
8
Sketch
10
-49.24
20
-87.26
0
VERTEX
8
Sketch
10
-49.54
20
-87.66
0
VERTEX
8
Sketch
10
-49.84
20
-88.56
0
VERTEX
8
Sketch
10
-49.54
20
-88.86
0
VERTEX
8
Sketch
10
-49.24
20
-89.06
0
VERTEX
8
Sketch
10
-48.84
20
-88.96
0
VERTEX
8
Sketch
10
-48.44
20
-88.76
0
VERTEX
8
Sketch
10
-47.84
20
-88.06
0
VERTEX
8
Sketch
10
-47.84
20
-87.66
0
VERTEX
8
Sketch
10
-48.14
20
-87.26
0
VERTEX
8
Sketch
10
-48.34
20
-87.26
0
SEQEND
0
POLYLINE
66
1
8
Sketch
62
0
0
VERTEX
8
Sketch
10
-50.74
20
-90.16
0
VERTEX
8
Sketch
10
-50.64
20
-90.36
0
VERTEX
8
Sketch
10
-50.64
20
-90.16
0
VERTEX
8
Sketch
10
-50.64
20
-90.16
0
VERTEX
8
Sketch
10
-50.34
20
-88.76
0
VERTEX
8
Sketch
10
-49.74
20
-87.46
0
VERTEX
8
Sketch
10
-48.94
20
-86.96
0
VERTEX
8
Sketch
10
-48.54
20
-86.86
0
VERTEX
8
Sketch
10
-47.84
20
-86.66
0
VERTEX
8
Sketch
10
-47.64
20
-86.86
0
VERTEX
8
Sketch
10
-47.44
20
-86.76
0
VERTEX
8
Sketch
10
-46.84
20
-86.96
0
VERTEX
8
Sketch
10
-46.24
20
-87.06
0
VERTEX
8
Sketch
10
-46.14
20
-86.76
0
VERTEX
8
Sketch
10
-45.64
20
-87.06
0
VERTEX
8
Sketch
10
-45.44
20
-87.16
0
VERTEX
8
Sketch
10
-43.64
20
-87.16
0
VERTEX
8
Sketch
10
-43.44
20
-87.26
0
VERTEX
8
Sketch
10
-43.24
20
-87.06
0
VERTEX
8
Sketch
10
-42.14
20
-87.26
0
VERTEX
8
Sketch
10
-41.34
20
-87.26
0
VERTEX
8
Sketch
10
-40.74
20
-87.56
0
VERTEX
8
Sketch
10
-40.24
20
-87.56
0
VERTEX
8
Sketch
10
-39.14
20
-87.96
0
VERTEX
8
Sketch
10
-38.94
20
-87.96
0
VERTEX
8
Sketch
10
-38.14
20
-88.36
0
VERTEX
8
Sketch
10
-37.64
20
-88.46
0
VERTEX
8
Sketch
10
-37.04
20
-88.76
0
VERTEX
8
Sketch
10
-36.74
20
-88.76
0
VERTEX
8
Sketch
10
-36.24
20
-89.06
0
VERTEX
8
Sketch
10
-35.74
20
-89.16
0
VERTEX
8
Sketch
10
-35.54
20
-89.36
0
VERTEX
8
Sketch
10
-34.84
20
-89.46
0
VERTEX
8
Sketch
10
-34.64
20
-89.66
0
VERTEX
8
Sketch
10
-33.14
20
-90.16
0
VERTEX
8
Sketch
10
-32.64
20
-90.26
0
VERTEX
8
Sketch
10
-31.54
20
-90.26
0
VERTEX
8
Sketch
10
-30.64
20
-90.56
0
VERTEX
8
Sketch
10
-30.24
20
-90.56
0
VERTEX
8
Sketch
10
-30.04
20
-90.46
0
VERTEX
8
Sketch
10
-29.44
20
-90.76
0
VERTEX
8
Sketch
10
-29.04
20
-90.66
0
VERTEX
8
Sketch
10
-28.84
20
-90.76
0
VERTEX
8
Sketch
10
-28.64
20
-90.66
0
VERTEX
8
Sketch
10
-28.44
20
-90.86
0
VERTEX
8
Sketch
10
-27.64
20
-90.56
0
VERTEX
8
Sketch
10
-27.44
20
-90.66
0
SEQEND
0
POLYLINE
66
1
8
Sketch
62
32
0
VERTEX
8
Sketch
10
-26.04
20
-97.62
0
VERTEX
8
Sketch
10
-25.92
20
-97.68
0
SEQEND
0
POLYLINE
66
1
8
Sketch
62
32
0
VERTEX
8
Sketch
10
-21.72
20
-91.44
0
VERTEX
8
Sketch
10
-21.66
20
-92.28
0
SEQEND
0
POLYLINE
66
1
8
Sketch
62
32
0
VERTEX
8
Sketch
10
-21.9
20
-91.2
0
VERTEX
8
Sketch
10
-21.42
20
-91.74
0
SEQEND
0
POINT
8
Sketch
62
32
10
-22.02
20
-91.38
0
POLYLINE
66
1
8
Sketch
62
32
0
VERTEX
8
Sketch
10
-20.16
20
-85.68
0
VERTEX
8
Sketch
10
-20.16
20
-86.04
0
SEQEND
0
POLYLINE
66
1
8
Sketch
62
32
0
VERTEX
8
Sketch
10
-19.62
20
-82.2
0
VERTEX
8
Sketch
10
-19.14
20
-82.44
0
SEQEND
0
POLYLINE
66
1
8
Sketch
62
32
0
VERTEX
8
Sketch
10
-19.68
20
-82.44
0
VERTEX
8
Sketch
10
-19.56
20
-82.38
0
VERTEX
8
Sketch
10
-19.44
20
-82.44
0
SEQEND
0
POLYLINE
66
1
8
Sketch
62
32
0
VERTEX
8
Sketch
10
-20.1
20
-83.64
0
VERTEX
8
Sketch
10
-19.8
20
-83.58
0
SEQEND
0
POLYLINE
66
1
8
Sketch
62
32
0
VERTEX
8
Sketch
10
-20.16
20
-84.66
0
VERTEX
8
Sketch
10
-20.04
20
-84.66
0
VERTEX
8
Sketch
10
-19.92
20
-84.78
0
VERTEX
8
Sketch
10
-19.74
20
-84.78
0
SEQEND
0
POLYLINE
66
1
8
Sketch
62
32
0
VERTEX
8
Sketch
10
-20.22
20
-85.8
0
VERTEX
8
Sketch
10
-20.1
20
-85.68
0
SEQEND
0
POLYLINE
66
1
8
Sketch
62
32
0
VERTEX
8
Sketch
10
-20.52
20
-87.06
0
VERTEX
8
Sketch
10
-20.52
20
-87.18
0
VERTEX
8
Sketch
10
-20.4
20
-87.3
0
SEQEND
0
POLYLINE
66
1
8
Sketch
62
32
0
VERTEX
8
Sketch
10
-21.12
20
-88.44
0
VERTEX
8
Sketch
10
-21
20
-88.44
0
SEQEND
0
POLYLINE
66
1
8
Sketch
62
32
0
VERTEX
8
Sketch
10
-21.6
20
-89.4
0
VERTEX
8
Sketch
10
-21.36
20
-89.64
0
SEQEND
0
POLYLINE
66
1
8
Sketch
62
32
0
VERTEX
8
Sketch
10
-22.56
20
-90.96
0
VERTEX
8
Sketch
10
-22.32
20
-90.96
0
SEQEND
0
POLYLINE
66
1
8
Sketch
62
32
0
VERTEX
8
Sketch
10
-22.14
20
-90.78
0
VERTEX
8
Sketch
10
-21.84
20
-90.96
0
VERTEX
8
Sketch
10
-21.54
20
-91.02
0
SEQEND
0
POLYLINE
66
1
8
Sketch
62
32
0
VERTEX
8
Sketch
10
-22.02
20
-90.6
0
VERTEX
8
Sketch
10
-21.72
20
-90.66
0
VERTEX
8
Sketch
10
-21.6
20
-90.72
0
SEQEND
0
POLYLINE
66
1
8
Sketch
62
32
0
VERTEX
8
Sketch
10
-22.86
20
-91.74
0
VERTEX
8
Sketch
10
-22.74
20
-91.86
0
VERTEX
8
Sketch
10
-22.38
20
-91.86
0
SEQEND
0
POLYLINE
66
1
8
Sketch
62
32
0
VERTEX
8
Sketch
10
-23.88
20
-92.28
0
VERTEX
8
Sketch
10
-23.52
20
-92.58
0
SEQEND
0
POLYLINE
66
1
8
Sketch
62
32
0
VERTEX
8
Sketch
10
-24.36
20
-93.48
0
VERTEX
8
Sketch
10
-24.06
20
-93.9
0
SEQEND
0
POLYLINE
66
1
8
Sketch
62
32
0
VERTEX
8
Sketch
10
-24.6
20
-93.96
0
VERTEX
8
Sketch
10
-24.54
20
-94.2
0
VERTEX
8
Sketch
10
-24.18
20
-94.44
0
SEQEND
0
POLYLINE
66
1
8
Sketch
62
32
0
VERTEX
8
Sketch
10
-25.26
20
-92.82
0
VERTEX
8
Sketch
10
-25.2
20
-93.12
0
VERTEX
8
Sketch
10
-24.78
20
-93.9
0
SEQEND
0
POLYLINE
66
1
8
Sketch
62
32
0
VERTEX
8
Sketch
10
-25.74
20
-93.54
0
VERTEX
8
Sketch
10
-25.62
20
-93.66
0
SEQEND
0
POLYLINE
66
1
8
Sketch
62
32
0
VERTEX
8
Sketch
10
-25.26
20
-91.44
0
VERTEX
8
Sketch
10
-25.08
20
-91.86
0
SEQEND
0
POLYLINE
66
1
8
Sketch
62
32
0
VERTEX
8
Sketch
10
-25.38
20
-90.18
0
VERTEX
8
Sketch
10
-25.02
20
-90.3
0
SEQEND
0
POLYLINE
66
1
8
Sketch
62
32
0
VERTEX
8
Sketch
10
-25.44
20
-90.9
0
VERTEX
8
Sketch
10
-25.38
20
-91.14
0
SEQEND
0
POINT
8
Sketch
62
32
10
-24.9
20
-91.68
0
POLYLINE
66
1
8
Sketch
62
32
0
VERTEX
8
Sketch
10
-24.18
20
-90.36
0
VERTEX
8
Sketch
10
-24
20
-90.78
0
SEQEND
0
POLYLINE
66
1
8
Sketch
62
32
0
VERTEX
8
Sketch
10
-23.1
20
-88.74
0
VERTEX
8
Sketch
10
-22.92
20
-89.04
0
VERTEX
8
Sketch
10
-22.62
20
-89.16
0
SEQEND
0
POLYLINE
66
1
8
Sketch
62
32
0
VERTEX
8
Sketch
10
-21.78
20
-85.62
0
VERTEX
8
Sketch
10
-21.6
20
-85.68
0
SEQEND
0
POLYLINE
66
1
8
Sketch
62
32
0
VERTEX
8
Sketch
10
-22.62
20
-85.86
0
VERTEX
8
Sketch
10
-22.5
20
-85.86
0
SEQEND
0
POINT
8
Sketch
62
32
10
-23.34
20
-87.36
0
POLYLINE
66
1
8
Sketch
62
32
0
VERTEX
8
Sketch
10
-22.5
20
-87.54
0
VERTEX
8
Sketch
10
-22.5
20
-87.72
0
VERTEX
8
Sketch
10
-22.44
20
-87.84
0
SEQEND
0
POLYLINE
66
1
8
Sketch
62
32
0
VERTEX
8
Sketch
10
-22.38
20
-86.88
0
VERTEX
8
Sketch
10
-22.26
20
-86.94
0
SEQEND
0
POINT
8
Sketch
62
32
10
-21.18
20
-85.08
0
POLYLINE
66
1
8
Sketch
62
32
0
VERTEX
8
Sketch
10
-20.76
20
-84.84
0
VERTEX
8
Sketch
10
-20.76
20
-84.72
0
SEQEND
0
POINT
8
Sketch
62
32
10
-20.76
20
-85.14
0
POLYLINE
66
1
8
Sketch
62
32
0
VERTEX
8
Sketch
10
-20.76
20
-84.3
0
VERTEX
8
Sketch
10
-20.7
20
-84.42
0
SEQEND
0
POLYLINE
66
1
8
Sketch
62
32
0
VERTEX
8
Sketch
10
-22.2
20
-85.2
0
VERTEX
8
Sketch
10
-22.08
20
-85.2
0
SEQEND
0
POLYLINE
66
1
8
Sketch
62
32
0
VERTEX
8
Sketch
10
-21.9
20
-87.06
0
VERTEX
8
Sketch
10
-21.72
20
-87.06
0
SEQEND
0
POLYLINE
66
1
8
Sketch
62
32
0
VERTEX
8
Sketch
10
-21.6
20
-86.04
0
VERTEX
8
Sketch
10
-21.36
20
-86.04
0
SEQEND
0
POLYLINE
66
1
8
Sketch
62
32
0
VERTEX
8
Sketch
10
-21.72
20
-86.34
0
VERTEX
8
Sketch
10
-21.48
20
-86.4
0
SEQEND
0
POLYLINE
66
1
8
Sketch
62
32
0
VERTEX
8
Sketch
10
-22.38
20
-87.96
0
VERTEX
8
Sketch
10
-21.96
20
-88.14
0
VERTEX
8
Sketch
10
-21.78
20
-88.08
0
SEQEND
0
POLYLINE
66
1
8
Sketch
62
0
0
VERTEX
8
Sketch
10
-23.22
20
-82.44
0
VERTEX
8
Sketch
10
-22.92
20
-83.1
0
VERTEX
8
Sketch
10
-22.92
20
-83.58
0
VERTEX
8
Sketch
10
-23.16
20
-84.48
0
VERTEX
8
Sketch
10
-23.28
20
-84.72
0
VERTEX
8
Sketch
10
-23.28
20
-84.9
0
VERTEX
8
Sketch
10
-23.34
20
-85.02
0
SEQEND
0
POLYLINE
66
1
8
Sketch
62
0
0
VERTEX
8
Sketch
10
-22.86
20
-82.68
0
VERTEX
8
Sketch
10
-22.86
20
-82.8
0
SEQEND
0
POLYLINE
66
1
8
Sketch
62
0
0
VERTEX
8
Sketch
10
-30.36
20
-98.88
0
VERTEX
8
Sketch
10
-30.12
20
-98.82
0
VERTEX
8
Sketch
10
-29.88
20
-98.76
0
VERTEX
8
Sketch
10
-29.76
20
-98.82
0
VERTEX
8
Sketch
10
-29.52
20
-98.76
0
VERTEX
8
Sketch
10
-28.62
20
-98.88
0
VERTEX
8
Sketch
10
-28.38
20
-98.82
0
VERTEX
8
Sketch
10
-28.26
20
-98.88
0
VERTEX
8
Sketch
10
-27.96
20
-98.82
0
VERTEX
8
Sketch
10
-27.72
20
-98.88
0
VERTEX
8
Sketch
10
-27.3
20
-98.76
0
VERTEX
8
Sketch
10
-26.76
20
-98.7
0
VERTEX
8
Sketch
10
-26.52
20
-98.64
0
VERTEX
8
Sketch
10
-26.28
20
-98.52
0
VERTEX
8
Sketch
10
-25.86
20
-98.52
0
VERTEX
8
Sketch
10
-25.32
20
-98.34
0
VERTEX
8
Sketch
10
-25.2
20
-98.4
0
VERTEX
8
Sketch
10
-25.08
20
-98.34
0
VERTEX
8
Sketch
10
-24.84
20
-98.4
0
VERTEX
8
Sketch
10
-24.48
20
-98.28
0
VERTEX
8
Sketch
10
-24.36
20
-98.28
0
VERTEX
8
Sketch
10
-23.88
20
-97.98
0
VERTEX
8
Sketch
10
-23.82
20
-97.86
0
SEQEND
0
POINT
8
Sketch
62
0
10
-26.88
20
-75.96
0
POLYLINE
66
1
8
Sketch
62
0
0
VERTEX
8
Sketch
10
-24.24
20
-97.74
0
VERTEX
8
Sketch
10
-24.24
20
-97.62
0
VERTEX
8
Sketch
10
-24.12
20
-97.62
0
VERTEX
8
Sketch
10
-23.82
20
-97.38
0
VERTEX
8
Sketch
10
-23.82
20
-97.26
0
VERTEX
8
Sketch
10
-23.7
20
-97.2
0
VERTEX
8
Sketch
10
-23.4
20
-96.66
0
VERTEX
8
Sketch
10
-23.1
20
-96.3
0
VERTEX
8
Sketch
10
-23.1
20
-96.18
0
VERTEX
8
Sketch
10
-22.86
20
-95.94
0
VERTEX
8
Sketch
10
-22.62
20
-95.52
0
VERTEX
8
Sketch
10
-22.44
20
-95.28
0
VERTEX
8
Sketch
10
-21.42
20
-93.24
0
VERTEX
8
Sketch
10
-20.28
20
-91.56
0
VERTEX
8
Sketch
10
-20.1
20
-91.26
0
VERTEX
8
Sketch
10
-19.26
20
-89.52
0
VERTEX
8
Sketch
10
-19.2
20
-89.28
0
VERTEX
8
Sketch
10
-18.96
20
-88.44
0
VERTEX
8
Sketch
10
-18.78
20
-87.72
0
VERTEX
8
Sketch
10
-18.6
20
-86.88
0
VERTEX
8
Sketch
10
-18.6
20
-86.64
0
VERTEX
8
Sketch
10
-18.54
20
-86.34
0
VERTEX
8
Sketch
10
-18.54
20
-86.16
0
VERTEX
8
Sketch
10
-18.42
20
-85.56
0
VERTEX
8
Sketch
10
-18.24
20
-84.48
0
VERTEX
8
Sketch
10
-18.18
20
-84.24
0
VERTEX
8
Sketch
10
-18.12
20
-83.94
0
VERTEX
8
Sketch
10
-18.06
20
-83.46
0
VERTEX
8
Sketch
10
-18.06
20
-83.28
0
SEQEND
0
POLYLINE
66
1
8
Sketch
62
0
0
VERTEX
8
Sketch
10
-28.5
20
-90.96
0
VERTEX
8
Sketch
10
-28.38
20
-91.02
0
VERTEX
8
Sketch
10
-28.14
20
-90.96
0
VERTEX
8
Sketch
10
-28.02
20
-90.96
0
VERTEX
8
Sketch
10
-27.9
20
-90.84
0
VERTEX
8
Sketch
10
-27.78
20
-90.96
0
VERTEX
8
Sketch
10
-27.42
20
-90.78
0
VERTEX
8
Sketch
10
-27.18
20
-90.78
0
VERTEX
8
Sketch
10
-26.28
20
-90
0
VERTEX
8
Sketch
10
-24.84
20
-88.14
0
VERTEX
8
Sketch
10
-24.42
20
-87.42
0
VERTEX
8
Sketch
10
-24
20
-86.88
0
VERTEX
8
Sketch
10
-23.7
20
-86.46
0
VERTEX
8
Sketch
10
-23.64
20
-86.22
0
VERTEX
8
Sketch
10
-23.46
20
-85.86
0
VERTEX
8
Sketch
10
-23.46
20
-85.68
0
VERTEX
8
Sketch
10
-23.28
20
-85.32
0
VERTEX
8
Sketch
10
-23.28
20
-85.14
0
VERTEX
8
Sketch
10
-23.22
20
-84.9
0
VERTEX
8
Sketch
10
-23.22
20
-84.54
0
VERTEX
8
Sketch
10
-23.16
20
-84.3
0
VERTEX
8
Sketch
10
-23.04
20
-83.7
0
SEQEND
0
POINT
8
Sketch
62
32
10
-18.6
20
-76.92
0
POLYLINE
66
1
8
Sketch
62
32
0
VERTEX
8
Sketch
10
-18.9
20
-80.88
0
VERTEX
8
Sketch
10
-18.78
20
-80.88
0
SEQEND
0
POLYLINE
66
1
8
Sketch
62
32
0
VERTEX
8
Sketch
10
-24.54
20
-76.86
0
VERTEX
8
Sketch
10
-24.42
20
-76.8
0
SEQEND
0
POLYLINE
66
1
8
Sketch
62
32
0
VERTEX
8
Sketch
10
-24
20
-78.66
0
VERTEX
8
Sketch
10
-23.58
20
-78.9
0
VERTEX
8
Sketch
10
-23.34
20
-78.9
0
VERTEX
8
Sketch
10
-23.22
20
-78.84
0
SEQEND
0
POLYLINE
66
1
8
Sketch
62
32
0
VERTEX
8
Sketch
10
-24.24
20
-79.98
0
VERTEX
8
Sketch
10
-23.88
20
-79.8
0
SEQEND
0
POLYLINE
66
1
8
Sketch
62
32
0
VERTEX
8
Sketch
10
-22.98
20
-79.8
0
VERTEX
8
Sketch
10
-22.68
20
-79.8
0
VERTEX
8
Sketch
10
-22.56
20
-79.68
0
SEQEND
0
POLYLINE
66
1
8
Sketch
62
32
0
VERTEX
8
Sketch
10
-21.84
20
-82.98
0
VERTEX
8
Sketch
10
-21.6
20
-82.92
0
SEQEND
0
POLYLINE
66
1
8
Sketch
62
32
0
VERTEX
8
Sketch
10
-21.3
20
-83.34
0
VERTEX
8
Sketch
10
-21.06
20
-83.22
0
SEQEND
0
POLYLINE
66
1
8
Sketch
62
32
0
VERTEX
8
Sketch
10
-20.52
20
-83.04
0
VERTEX
8
Sketch
10
-20.34
20
-82.8
0
SEQEND
0
POLYLINE
66
1
8
Sketch
62
32
0
VERTEX
8
Sketch
10
-19.98
20
-82.32
0
VERTEX
8
Sketch
10
-19.86
20
-82.26
0
SEQEND
0
POLYLINE
66
1
8
Sketch
62
32
0
VERTEX
8
Sketch
10
-20.1
20
-81.42
0
VERTEX
8
Sketch
10
-19.98
20
-81.48
0
VERTEX
8
Sketch
10
-19.5
20
-81.54
0
VERTEX
8
Sketch
10
-19.38
20
-81.6
0
SEQEND
0
POLYLINE
66
1
8
Sketch
62
32
0
VERTEX
8
Sketch
10
-19.68
20
-78.48
0
VERTEX
8
Sketch
10
-19.08
20
-77.94
0
SEQEND
0
POLYLINE
66
1
8
Sketch
62
32
0
VERTEX
8
Sketch
10
-19.62
20
-80.04
0
VERTEX
8
Sketch
10
-18.96
20
-80.82
0
VERTEX
8
Sketch
10
-18.72
20
-80.88
0
SEQEND
0
POLYLINE
66
1
8
Sketch
62
32
0
VERTEX
8
Sketch
10
-19.56
20
-77.94
0
VERTEX
8
Sketch
10
-19.32
20
-78
0
VERTEX
8
Sketch
10
-19.08
20
-78
0
SEQEND
0
POINT
8
Sketch
62
32
10
-19.14
20
-76.86
0
POLYLINE
66
1
8
Sketch
62
32
0
VERTEX
8
Sketch
10
-20.34
20
-77.52
0
VERTEX
8
Sketch
10
-19.02
20
-76.8
0
SEQEND
0
POLYLINE
66
1
8
Sketch
62
32
0
VERTEX
8
Sketch
10
-19.92
20
-77.16
0
VERTEX
8
Sketch
10
-19.98
20
-77.28
0
VERTEX
8
Sketch
10
-19.86
20
-77.22
0
SEQEND
0
POLYLINE
66
1
8
Sketch
62
32
0
VERTEX
8
Sketch
10
-20.52
20
-79.26
0
VERTEX
8
Sketch
10
-20.28
20
-79.02
0
SEQEND
0
POLYLINE
66
1
8
Sketch
62
32
0
VERTEX
8
Sketch
10
-20.94
20
-79.32
0
VERTEX
8
Sketch
10
-20.82
20
-79.38
0
SEQEND
0
POLYLINE
66
1
8
Sketch
62
32
0
VERTEX
8
Sketch
10
-21.9
20
-80.7
0
VERTEX
8
Sketch
10
-21.6
20
-80.7
0
SEQEND
0
POLYLINE
66
1
8
Sketch
62
32
0
VERTEX
8
Sketch
10
-22.8
20
-81.9
0
VERTEX
8
Sketch
10
-22.2
20
-82.14
0
VERTEX
8
Sketch
10
-21.66
20
-82.2
0
SEQEND
0
POLYLINE
66
1
8
Sketch
62
32
0
VERTEX
8
Sketch
10
-22.02
20
-81.48
0
VERTEX
8
Sketch
10
-21.48
20
-81.54
0
VERTEX
8
Sketch
10
-21.36
20
-81.6
0
SEQEND
0
POLYLINE
66
1
8
Sketch
62
32
0
VERTEX
8
Sketch
10
-22.44
20
-81
0
VERTEX
8
Sketch
10
-22.32
20
-81.06
0
VERTEX
8
Sketch
10
-21.9
20
-80.94
0
SEQEND
0
POLYLINE
66
1
8
Sketch
62
32
0
VERTEX
8
Sketch
10
-22.74
20
-79.14
0
VERTEX
8
Sketch
10
-22.32
20
-79.2
0
VERTEX
8
Sketch
10
-22.2
20
-79.2
0
SEQEND
0
POLYLINE
66
1
8
Sketch
62
32
0
VERTEX
8
Sketch
10
-24.42
20
-77.22
0
VERTEX
8
Sketch
10
-23.64
20
-77.04
0
VERTEX
8
Sketch
10
-23.04
20
-76.98
0
SEQEND
0
POLYLINE
66
1
8
Sketch
62
32
0
VERTEX
8
Sketch
10
-24.54
20
-76.44
0
VERTEX
8
Sketch
10
-24.54
20
-76.32
0
SEQEND
0
POLYLINE
66
1
8
Sketch
62
32
0
VERTEX
8
Sketch
10
-24.36
20
-77.4
0
VERTEX
8
Sketch
10
-24.18
20
-77.4
0
VERTEX
8
Sketch
10
-23.94
20
-77.1
0
SEQEND
0
POLYLINE
66
1
8
Sketch
62
32
0
VERTEX
8
Sketch
10
-24.18
20
-77.34
0
VERTEX
8
Sketch
10
-24.18
20
-77.22
0
SEQEND
0
POLYLINE
66
1
8
Sketch
62
32
0
VERTEX
8
Sketch
10
-24
20
-78.6
0
VERTEX
8
Sketch
10
-23.88
20
-78.66
0
VERTEX
8
Sketch
10
-23.4
20
-78.48
0
SEQEND
0
POLYLINE
66
1
8
Sketch
62
32
0
VERTEX
8
Sketch
10
-23.52
20
-78.66
0
VERTEX
8
Sketch
10
-23.1
20
-78.72
0
VERTEX
8
Sketch
10
-22.8
20
-78.66
0
SEQEND
0
POLYLINE
66
1
8
Sketch
62
32
0
VERTEX
8
Sketch
10
-22.56
20
-75.6
0
VERTEX
8
Sketch
10
-22.32
20
-75.36
0
SEQEND
0
POLYLINE
66
1
8
Sketch
62
32
0
VERTEX
8
Sketch
10
-22.5
20
-76.08
0
VERTEX
8
Sketch
10
-22.44
20
-75.96
0
SEQEND
0
POLYLINE
66
1
8
Sketch
62
32
0
VERTEX
8
Sketch
10
-22.2
20
-76.5
0
VERTEX
8
Sketch
10
-21.9
20
-76.44
0
VERTEX
8
Sketch
10
-21.78
20
-76.38
0
SEQEND
0
POLYLINE
66
1
8
Sketch
62
32
0
VERTEX
8
Sketch
10
-21.24
20
-75.84
0
VERTEX
8
Sketch
10
-21
20
-75.78
0
SEQEND
0
POLYLINE
66
1
8
Sketch
62
32
0
VERTEX
8
Sketch
10
-21
20
-76.98
0
VERTEX
8
Sketch
10
-20.46
20
-76.92
0
SEQEND
0
POLYLINE
66
1
8
Sketch
62
32
0
VERTEX
8
Sketch
10
-21.72
20
-78.3
0
VERTEX
8
Sketch
10
-21.3
20
-78.3
0
VERTEX
8
Sketch
10
-20.94
20
-78.18
0
VERTEX
8
Sketch
10
-20.82
20
-78.06
0
SEQEND
0
POLYLINE
66
1
8
Sketch
62
32
0
VERTEX
8
Sketch
10
-23.58
20
-76.44
0
VERTEX
8
Sketch
10
-23.58
20
-76.56
0
VERTEX
8
Sketch
10
-23.34
20
-76.74
0
VERTEX
8
Sketch
10
-23.22
20
-76.74
0
SEQEND
0
POLYLINE
66
1
8
Sketch
62
32
0
VERTEX
8
Sketch
10
-25.92
20
-75.66
0
VERTEX
8
Sketch
10
-25.8
20
-75.78
0
VERTEX
8
Sketch
10
-25.68
20
-75.78
0
VERTEX
8
Sketch
10
-25.44
20
-75.9
0
VERTEX
8
Sketch
10
-25.26
20
-75.9
0
VERTEX
8
Sketch
10
-25.14
20
-75.84
0
SEQEND
0
POLYLINE
66
1
8
Sketch
62
32
0
VERTEX
8
Sketch
10
-26.16
20
-73.2
0
VERTEX
8
Sketch
10
-25.92
20
-73.32
0
SEQEND
0
POLYLINE
66
1
8
Sketch
62
32
0
VERTEX
8
Sketch
10
-26.88
20
-72.96
0
VERTEX
8
Sketch
10
-25.86
20
-72.66
0
SEQEND
0
POLYLINE
66
1
8
Sketch
62
32
0
VERTEX
8
Sketch
10
-26.76
20
-73.86
0
VERTEX
8
Sketch
10
-26.64
20
-73.8
0
VERTEX
8
Sketch
10
-26.46
20
-73.86
0
VERTEX
8
Sketch
10
-26.34
20
-73.8
0
SEQEND
0
POLYLINE
66
1
8
Sketch
62
32
0
VERTEX
8
Sketch
10
-25.8
20
-74.16
0
VERTEX
8
Sketch
10
-25.68
20
-74.1
0
VERTEX
8
Sketch
10
-25.5
20
-74.22
0
SEQEND
0
POLYLINE
66
1
8
Sketch
62
32
0
VERTEX
8
Sketch
10
-24.9
20
-74.4
0
VERTEX
8
Sketch
10
-24.6
20
-74.46
0
VERTEX
8
Sketch
10
-24.24
20
-74.4
0
SEQEND
0
POINT
8
Sketch
62
32
10
-22.26
20
-74.94
0
POINT
8
Sketch
62
32
10
-20.94
20
-74.1
0
POLYLINE
66
1
8
Sketch
62
32
0
VERTEX
8
Sketch
10
-20.4
20
-74.46
0
VERTEX
8
Sketch
10
-20.1
20
-74.34
0
SEQEND
0
POLYLINE
66
1
8
Sketch
62
32
0
VERTEX
8
Sketch
10
-20.34
20
-75.78
0
VERTEX
8
Sketch
10
-20.16
20
-75.78
0
VERTEX
8
Sketch
10
-19.74
20
-75.6
0
SEQEND
0
POLYLINE
66
1
8
Sketch
62
32
0
VERTEX
8
Sketch
10
-19.44
20
-74.76
0
VERTEX
8
Sketch
10
-19.02
20
-74.7
0
VERTEX
8
Sketch
10
-18.54
20
-74.46
0
SEQEND
0
POLYLINE
66
1
8
Sketch
62
32
0
VERTEX
8
Sketch
10
-17.34
20
-72.84
0
VERTEX
8
Sketch
10
-16.8
20
-72.78
0
SEQEND
0
POLYLINE
66
1
8
Sketch
62
32
0
VERTEX
8
Sketch
10
-16.2
20
-71.52
0
VERTEX
8
Sketch
10
-16.14
20
-71.64
0
SEQEND
0
POLYLINE
66
1
8
Sketch
62
32
0
VERTEX
8
Sketch
10
-16.68
20
-71.52
0
VERTEX
8
Sketch
10
-16.44
20
-71.46
0
VERTEX
8
Sketch
10
-16.32
20
-71.4
0
SEQEND
0
POLYLINE
66
1
8
Sketch
62
32
0
VERTEX
8
Sketch
10
-17.64
20
-72.36
0
VERTEX
8
Sketch
10
-17.22
20
-72.36
0
SEQEND
0
POLYLINE
66
1
8
Sketch
62
32
0
VERTEX
8
Sketch
10
-19.08
20
-73.5
0
VERTEX
8
Sketch
10
-18.96
20
-73.44
0
VERTEX
8
Sketch
10
-18.72
20
-73.5
0
VERTEX
8
Sketch
10
-18.48
20
-73.56
0
SEQEND
0
POLYLINE
66
1
8
Sketch
62
32
0
VERTEX
8
Sketch
10
-25.14
20
-75.84
0
VERTEX
8
Sketch
10
-24.9
20
-75.78
0
VERTEX
8
Sketch
10
-24.54
20
-75.78
0
VERTEX
8
Sketch
10
-24.24
20
-75.72
0
SEQEND
0
POLYLINE
66
1
8
Sketch
62
32
0
VERTEX
8
Sketch
10
-25.74
20
-72.18
0
VERTEX
8
Sketch
10
-25.56
20
-72.18
0
VERTEX
8
Sketch
10
-25.32
20
-72.06
0
VERTEX
8
Sketch
10
-24.9
20
-72
0
VERTEX
8
Sketch
10
-24.72
20
-71.94
0
SEQEND
0
POLYLINE
66
1
8
Sketch
62
32
0
VERTEX
8
Sketch
10
-25.5
20
-73.92
0
VERTEX
8
Sketch
10
-25.38
20
-73.98
0
VERTEX
8
Sketch
10
-24.9
20
-73.86
0
VERTEX
8
Sketch
10
-24.12
20
-73.8
0
SEQEND
0
POLYLINE
66
1
8
Sketch
62
32
0
VERTEX
8
Sketch
10
-24.3
20
-72.06
0
VERTEX
8
Sketch
10
-23.22
20
-72.06
0
VERTEX
8
Sketch
10
-22.56
20
-71.94
0
SEQEND
0
POLYLINE
66
1
8
Sketch
62
32
0
VERTEX
8
Sketch
10
-22.2
20
-72.3
0
VERTEX
8
Sketch
10
-21.96
20
-72.36
0
VERTEX
8
Sketch
10
-21.66
20
-72.3
0
SEQEND
0
POLYLINE
66
1
8
Sketch
62
32
0
VERTEX
8
Sketch
10
-23.16
20
-72.84
0
VERTEX
8
Sketch
10
-21.96
20
-72.78
0
VERTEX
8
Sketch
10
-21.84
20
-72.72
0
SEQEND
0
POLYLINE
66
1
8
Sketch
62
32
0
VERTEX
8
Sketch
10
-23.16
20
-74.82
0
VERTEX
8
Sketch
10
-22.08
20
-74.76
0
VERTEX
8
Sketch
10
-21.72
20
-74.64
0
SEQEND
0
POLYLINE
66
1
8
Sketch
62
0
0
VERTEX
8
Sketch
10
-18.48
20
-84.54
0
VERTEX
8
Sketch
10
-18.36
20
-84.54
0
VERTEX
8
Sketch
10
-18
20
-83.94
0
VERTEX
8
Sketch
10
-18
20
-83.7
0
VERTEX
8
Sketch
10
-17.64
20
-82.56
0
VERTEX
8
Sketch
10
-17.7
20
-82.32
0
VERTEX
8
Sketch
10
-17.64
20
-82.08
0
VERTEX
8
Sketch
10
-17.64
20
-81.78
0
VERTEX
8
Sketch
10
-17.52
20
-81.3
0
VERTEX
8
Sketch
10
-17.58
20
-81.06
0
VERTEX
8
Sketch
10
-17.58
20
-80.46
0
VERTEX
8
Sketch
10
-17.52
20
-80.22
0
VERTEX
8
Sketch
10
-17.52
20
-79.86
0
VERTEX
8
Sketch
10
-17.4
20
-79.56
0
VERTEX
8
Sketch
10
-17.34
20
-77.7
0
VERTEX
8
Sketch
10
-17.28
20
-77.46
0
VERTEX
8
Sketch
10
-17.28
20
-77.22
0
VERTEX
8
Sketch
10
-17.1
20
-76.44
0
VERTEX
8
Sketch
10
-16.8
20
-76.02
0
VERTEX
8
Sketch
10
-16.56
20
-75.96
0
VERTEX
8
Sketch
10
-16.26
20
-75.84
0
SEQEND
0
POLYLINE
66
1
8
Sketch
62
0
0
VERTEX
8
Sketch
10
-18.48
20
-84.54
0
VERTEX
8
Sketch
10
-18.42
20
-84.42
0
SEQEND
0
POLYLINE
66
1
8
Sketch
62
0
0
VERTEX
8
Sketch
10
-26.58
20
-72
0
VERTEX
8
Sketch
10
-26.88
20
-72.06
0
VERTEX
8
Sketch
10
-27
20
-72
0
VERTEX
8
Sketch
10
-27.18
20
-72.18
0
VERTEX
8
Sketch
10
-27.66
20
-72.6
0
VERTEX
8
Sketch
10
-27.72
20
-73.14
0
VERTEX
8
Sketch
10
-27.66
20
-73.38
0
VERTEX
8
Sketch
10
-27.54
20
-73.98
0
VERTEX
8
Sketch
10
-27.42
20
-74.1
0
VERTEX
8
Sketch
10
-27.36
20
-74.34
0
VERTEX
8
Sketch
10
-26.94
20
-75.18
0
VERTEX
8
Sketch
10
-26.82
20
-75.3
0
VERTEX
8
Sketch
10
-26.82
20
-75.42
0
VERTEX
8
Sketch
10
-26.46
20
-76.02
0
VERTEX
8
Sketch
10
-26.04
20
-76.68
0
VERTEX
8
Sketch
10
-26.04
20
-76.8
0
VERTEX
8
Sketch
10
-25.68
20
-77.4
0
VERTEX
8
Sketch
10
-24.72
20
-79.5
0
VERTEX
8
Sketch
10
-24.66
20
-79.74
0
VERTEX
8
Sketch
10
-24.48
20
-80.16
0
VERTEX
8
Sketch
10
-24.18
20
-80.64
0
VERTEX
8
Sketch
10
-24.12
20
-80.88
0
VERTEX
8
Sketch
10
-23.82
20
-81.54
0
VERTEX
8
Sketch
10
-23.64
20
-81.84
0
VERTEX
8
Sketch
10
-23.34
20
-82.32
0
VERTEX
8
Sketch
10
-23.34
20
-82.44
0
VERTEX
8
Sketch
10
-23.04
20
-82.8
0
VERTEX
8
Sketch
10
-23.04
20
-82.92
0
VERTEX
8
Sketch
10
-22.68
20
-83.52
0
SEQEND
0
POLYLINE
66
1
8
Sketch
62
32
0
VERTEX
8
Sketch
10
-19.92
20
-72.18
0
VERTEX
8
Sketch
10
-19.38
20
-72.12
0
SEQEND
0
POLYLINE
66
1
8
Sketch
62
32
0
VERTEX
8
Sketch
10
-12.48
20
-70.98
0
VERTEX
8
Sketch
10
-12.36
20
-70.92
0
VERTEX
8
Sketch
10
-12.06
20
-70.92
0
SEQEND
0
POLYLINE
66
1
8
Sketch
62
32
0
VERTEX
8
Sketch
10
-13.08
20
-71.76
0
VERTEX
8
Sketch
10
-12.66
20
-71.76
0
SEQEND
0
POLYLINE
66
1
8
Sketch
62
32
0
VERTEX
8
Sketch
10
-13.5
20
-72.72
0
VERTEX
8
Sketch
10
-12.9
20
-72.66
0
SEQEND
0
POLYLINE
66
1
8
Sketch
62
32
0
VERTEX
8
Sketch
10
-13.2
20
-73.08
0
VERTEX
8
Sketch
10
-13.08
20
-73.02
0
SEQEND
0
POLYLINE
66
1
8
Sketch
62
32
0
VERTEX
8
Sketch
10
-14.04
20
-73.38
0
VERTEX
8
Sketch
10
-13.74
20
-73.44
0
SEQEND
0
POLYLINE
66
1
8
Sketch
62
32
0
VERTEX
8
Sketch
10
-16.02
20
-74.88
0
VERTEX
8
Sketch
10
-15.42
20
-74.7
0
SEQEND
0
POLYLINE
66
1
8
Sketch
62
32
0
VERTEX
8
Sketch
10
-15.6
20
-73.98
0
VERTEX
8
Sketch
10
-15.42
20
-73.98
0
VERTEX
8
Sketch
10
-15.3
20
-73.86
0
VERTEX
8
Sketch
10
-14.94
20
-73.8
0
SEQEND
0
POLYLINE
66
1
8
Sketch
62
32
0
VERTEX
8
Sketch
10
-15.36
20
-71.1
0
VERTEX
8
Sketch
10
-15.12
20
-70.92
0
SEQEND
0
POLYLINE
66
1
8
Sketch
62
32
0
VERTEX
8
Sketch
10
-15.42
20
-71.4
0
VERTEX
8
Sketch
10
-15.18
20
-71.16
0
SEQEND
0
POLYLINE
66
1
8
Sketch
62
32
0
VERTEX
8
Sketch
10
-14.94
20
-72.24
0
VERTEX
8
Sketch
10
-14.82
20
-72.18
0
VERTEX
8
Sketch
10
-14.64
20
-71.88
0
SEQEND
0
POLYLINE
66
1
8
Sketch
62
32
0
VERTEX
8
Sketch
10
-15.54
20
-72.48
0
VERTEX
8
Sketch
10
-15.42
20
-72.48
0
VERTEX
8
Sketch
10
-15.18
20
-72.3
0
SEQEND
0
POLYLINE
66
1
8
Sketch
62
32
0
VERTEX
8
Sketch
10
-16.2
20
-73.38
0
VERTEX
8
Sketch
10
-15.96
20
-73.2
0
SEQEND
0
POLYLINE
66
1
8
Sketch
62
32
0
VERTEX
8
Sketch
10
-17.16
20
-74.1
0
VERTEX
8
Sketch
10
-16.92
20
-73.86
0
VERTEX
8
Sketch
10
-16.74
20
-73.86
0
SEQEND
0
POLYLINE
66
1
8
Sketch
62
32
0
VERTEX
8
Sketch
10
-17.58
20
-74.94
0
VERTEX
8
Sketch
10
-17.1
20
-74.88
0
SEQEND
0
POLYLINE
66
1
8
Sketch
62
32
0
VERTEX
8
Sketch
10
-16.86
20
-74.52
0
VERTEX
8
Sketch
10
-16.5
20
-74.52
0
SEQEND
0
POLYLINE
66
1
8
Sketch
62
32
0
VERTEX
8
Sketch
10
-16.08
20
-74.22
0
VERTEX
8
Sketch
10
-16.08
20
-74.1
0
VERTEX
8
Sketch
10
-15.78
20
-74.04
0
SEQEND
0
POLYLINE
66
1
8
Sketch
62
0
0
VERTEX
8
Sketch
10
-12.96
20
-72.24
0
VERTEX
8
Sketch
10
-13.32
20
-72.24
0
VERTEX
8
Sketch
10
-13.56
20
-72.3
0
VERTEX
8
Sketch
10
-13.74
20
-72.54
0
VERTEX
8
Sketch
10
-13.62
20
-72.9
0
VERTEX
8
Sketch
10
-12.72
20
-73.2
0
VERTEX
8
Sketch
10
-12.48
20
-73.08
0
VERTEX
8
Sketch
10
-12.24
20
-72.78
0
VERTEX
8
Sketch
10
-12.18
20
-72.54
0
VERTEX
8
Sketch
10
-12.24
20
-72.24
0
VERTEX
8
Sketch
10
-12.48
20
-71.94
0
VERTEX
8
Sketch
10
-12.9
20
-71.82
0
VERTEX
8
Sketch
10
-13.44
20
-71.88
0
VERTEX
8
Sketch
10
-13.8
20
-72
0
SEQEND
0
POLYLINE
66
1
8
Sketch
62
32
0
VERTEX
8
Sketch
10
-20.28
20
-73.2
0
VERTEX
8
Sketch
10
-19.56
20
-73.02
0
SEQEND
0
POLYLINE
66
1
8
Sketch
62
32
0
VERTEX
8
Sketch
10
-20.7
20
-71.88
0
VERTEX
8
Sketch
10
-20.4
20
-71.64
0
VERTEX
8
Sketch
10
-20.1
20
-71.52
0
SEQEND
0
POLYLINE
66
1
8
Sketch
62
32
0
VERTEX
8
Sketch
10
-20.76
20
-71.94
0
VERTEX
8
Sketch
10
-20.64
20
-71.82
0
VERTEX
8
Sketch
10
-20.52
20
-71.82
0
VERTEX
8
Sketch
10
-20.04
20
-71.46
0
SEQEND
0
POLYLINE
66
1
8
Sketch
62
32
0
VERTEX
8
Sketch
10
-19.32
20
-72.9
0
VERTEX
8
Sketch
10
-19.2
20
-72.78
0
VERTEX
8
Sketch
10
-18.96
20
-72.84
0
SEQEND
0
POLYLINE
66
1
8
Sketch
62
0
0
VERTEX
8
Sketch
10
-16.86
20
-76.62
0
VERTEX
8
Sketch
10
-16.38
20
-76.26
0
VERTEX
8
Sketch
10
-16.26
20
-76.26
0
VERTEX
8
Sketch
10
-15.78
20
-75.9
0
VERTEX
8
Sketch
10
-15.36
20
-75.72
0
VERTEX
8
Sketch
10
-14.88
20
-75.36
0
VERTEX
8
Sketch
10
-13.62
20
-74.7
0
VERTEX
8
Sketch
10
-13.2
20
-74.4
0
VERTEX
8
Sketch
10
-12.72
20
-74.22
0
VERTEX
8
Sketch
10
-12
20
-73.74
0
VERTEX
8
Sketch
10
-11.76
20
-73.56
0
VERTEX
8
Sketch
10
-11.52
20
-73.5
0
VERTEX
8
Sketch
10
-11.4
20
-73.38
0
VERTEX
8
Sketch
10
-11.16
20
-73.32
0
VERTEX
8
Sketch
10
-10.92
20
-73.08
0
VERTEX
8
Sketch
10
-10.8
20
-73.08
0
VERTEX
8
Sketch
10
-10.68
20
-72.96
0
VERTEX
8
Sketch
10
-10.56
20
-72.96
0
VERTEX
8
Sketch
10
-9.96
20
-72.54
0
VERTEX
8
Sketch
10
-9.9
20
-72.42
0
VERTEX
8
Sketch
10
-9.78
20
-72.42
0
VERTEX
8
Sketch
10
-9.72
20
-72.24
0
VERTEX
8
Sketch
10
-9.3
20
-72.06
0
VERTEX
8
Sketch
10
-8.7
20
-71.46
0
VERTEX
8
Sketch
10
-8.34
20
-71.1
0
VERTEX
8
Sketch
10
-8.16
20
-70.86
0
VERTEX
8
Sketch
10
-7.86
20
-70.74
0
VERTEX
8
Sketch
10
-7.56
20
-70.38
0
VERTEX
8
Sketch
10
-7.56
20
-70.08
0
VERTEX
8
Sketch
10
-7.26
20
-69.48
0
VERTEX
8
Sketch
10
-7.14
20
-69.36
0
SEQEND
0
POLYLINE
66
1
8
Sketch
62
0
0
VERTEX
8
Sketch
10
-15.78
20
-70.86
0
VERTEX
8
Sketch
10
-15.9
20
-70.74
0
VERTEX
8
Sketch
10
-15.84
20
-70.86
0
VERTEX
8
Sketch
10
-15.24
20
-70.38
0
VERTEX
8
Sketch
10
-15.24
20
-70.26
0
VERTEX
8
Sketch
10
-15.12
20
-70.32
0
VERTEX
8
Sketch
10
-15
20
-70.14
0
VERTEX
8
Sketch
10
-14.64
20
-70.14
0
VERTEX
8
Sketch
10
-14.16
20
-69.84
0
VERTEX
8
Sketch
10
-13.62
20
-69.78
0
VERTEX
8
Sketch
10
-13.38
20
-69.72
0
VERTEX
8
Sketch
10
-13.02
20
-69.72
0
VERTEX
8
Sketch
10
-12.78
20
-69.66
0
VERTEX
8
Sketch
10
-12.54
20
-69.72
0
VERTEX
8
Sketch
10
-12.06
20
-69.6
0
VERTEX
8
Sketch
10
-11.82
20
-69.6
0
VERTEX
8
Sketch
10
-11.76
20
-69.72
0
VERTEX
8
Sketch
10
-11.64
20
-69.6
0
VERTEX
8
Sketch
10
-11.52
20
-69.6
0
SEQEND
0
POLYLINE
66
1
8
Sketch
62
0
0
VERTEX
8
Sketch
10
-27.66
20
-72.78
0
VERTEX
8
Sketch
10
-27.66
20
-72.66
0
VERTEX
8
Sketch
10
-26.46
20
-71.7
0
VERTEX
8
Sketch
10
-26.34
20
-71.7
0
VERTEX
8
Sketch
10
-26.28
20
-71.58
0
VERTEX
8
Sketch
10
-26.04
20
-71.52
0
VERTEX
8
Sketch
10
-25.8
20
-71.46
0
VERTEX
8
Sketch
10
-25.68
20
-71.34
0
VERTEX
8
Sketch
10
-25.5
20
-71.34
0
VERTEX
8
Sketch
10
-25.26
20
-71.28
0
VERTEX
8
Sketch
10
-23.64
20
-70.98
0
VERTEX
8
Sketch
10
-23.34
20
-70.98
0
VERTEX
8
Sketch
10
-22.32
20
-70.86
0
VERTEX
8
Sketch
10
-21.66
20
-70.68
0
VERTEX
8
Sketch
10
-21.24
20
-70.68
0
VERTEX
8
Sketch
10
-20.94
20
-70.62
0
VERTEX
8
Sketch
10
-20.7
20
-70.62
0
VERTEX
8
Sketch
10
-20.46
20
-70.5
0
VERTEX
8
Sketch
10
-20.34
20
-70.56
0
VERTEX
8
Sketch
10
-20.22
20
-70.5
0
VERTEX
8
Sketch
10
-20.04
20
-70.56
0
VERTEX
8
Sketch
10
-19.44
20
-70.32
0
VERTEX
8
Sketch
10
-19.14
20
-70.5
0
VERTEX
8
Sketch
10
-18.72
20
-71.1
0
VERTEX
8
Sketch
10
-18.6
20
-71.4
0
VERTEX
8
Sketch
10
-18.48
20
-71.46
0
VERTEX
8
Sketch
10
-17.94
20
-71.28
0
VERTEX
8
Sketch
10
-17.82
20
-71.28
0
VERTEX
8
Sketch
10
-17.64
20
-71.1
0
VERTEX
8
Sketch
10
-17.28
20
-70.98
0
VERTEX
8
Sketch
10
-16.92
20
-70.68
0
VERTEX
8
Sketch
10
-16.38
20
-70.56
0
VERTEX
8
Sketch
10
-15.3
20
-70.2
0
SEQEND
0
POLYLINE
66
1
8
Sketch
62
0
0
VERTEX
8
Sketch
10
-7.68
20
-69.3
0
VERTEX
8
Sketch
10
-7.8
20
-69.24
0
VERTEX
8
Sketch
10
-8.22
20
-69.54
0
VERTEX
8
Sketch
10
-8.52
20
-70.02
0
VERTEX
8
Sketch
10
-8.52
20
-70.44
0
VERTEX
8
Sketch
10
-8.28
20
-70.5
0
VERTEX
8
Sketch
10
-7.68
20
-69.9
0
VERTEX
8
Sketch
10
-7.56
20
-69.66
0
VERTEX
8
Sketch
10
-7.8
20
-69.42
0
SEQEND
0
POLYLINE
66
1
8
Sketch
62
0
0
VERTEX
8
Sketch
10
-9.06
20
-70.38
0
VERTEX
8
Sketch
10
-9.24
20
-70.38
0
VERTEX
8
Sketch
10
-10.2
20
-71.16
0
VERTEX
8
Sketch
10
-10.5
20
-71.58
0
VERTEX
8
Sketch
10
-10.56
20
-72
0
VERTEX
8
Sketch
10
-10.32
20
-72.24
0
VERTEX
8
Sketch
10
-10.02
20
-72.24
0
VERTEX
8
Sketch
10
-9.42
20
-71.7
0
VERTEX
8
Sketch
10
-8.82
20
-70.8
0
VERTEX
8
Sketch
10
-8.58
20
-70.32
0
VERTEX
8
Sketch
10
-8.58
20
-70.2
0
VERTEX
8
Sketch
10
-8.7
20
-70.08
0
VERTEX
8
Sketch
10
-9.3
20
-70.2
0
SEQEND
0
POLYLINE
66
1
8
Sketch
62
0
0
VERTEX
8
Sketch
10
-10.8
20
-69.36
0
VERTEX
8
Sketch
10
-11.04
20
-69.3
0
VERTEX
8
Sketch
10
-11.58
20
-69.84
0
VERTEX
8
Sketch
10
-11.64
20
-70.08
0
VERTEX
8
Sketch
10
-11.64
20
-70.38
0
VERTEX
8
Sketch
10
-11.58
20
-70.5
0
VERTEX
8
Sketch
10
-11.34
20
-70.5
0
VERTEX
8
Sketch
10
-11.04
20
-70.38
0
VERTEX
8
Sketch
10
-10.8
20
-69.96
0
VERTEX
8
Sketch
10
-10.8
20
-69.66
0
VERTEX
8
Sketch
10
-10.86
20
-69.54
0
SEQEND
0
POLYLINE
66
1
8
Sketch
62
0
0
VERTEX
8
Sketch
10
-10.92
20
-70.32
0
VERTEX
8
Sketch
10
-11.16
20
-70.32
0
VERTEX
8
Sketch
10
-11.64
20
-70.5
0
VERTEX
8
Sketch
10
-12.12
20
-71.04
0
VERTEX
8
Sketch
10
-12.3
20
-71.4
0
VERTEX
8
Sketch
10
-12.3
20
-71.58
0
VERTEX
8
Sketch
10
-12.18
20
-72
0
VERTEX
8
Sketch
10
-12.06
20
-72.12
0
VERTEX
8
Sketch
10
-11.7
20
-72.18
0
VERTEX
8
Sketch
10
-11.4
20
-72
0
VERTEX
8
Sketch
10
-10.86
20
-71.34
0
VERTEX
8
Sketch
10
-10.74
20
-71.28
0
VERTEX
8
Sketch
10
-10.5
20
-70.74
0
VERTEX
8
Sketch
10
-10.44
20
-70.2
0
VERTEX
8
Sketch
10
-10.68
20
-69.84
0
SEQEND
0
POLYLINE
66
1
8
Sketch
62
0
0
VERTEX
8
Sketch
10
-16.98
20
-56.58
0
VERTEX
8
Sketch
10
-16.98
20
-56.82
0
VERTEX
8
Sketch
10
-16.86
20
-57.3
0
VERTEX
8
Sketch
10
-16.74
20
-57.84
0
VERTEX
8
Sketch
10
-16.5
20
-58.56
0
VERTEX
8
Sketch
10
-16.44
20
-58.86
0
VERTEX
8
Sketch
10
-16.02
20
-60.18
0
VERTEX
8
Sketch
10
-15.9
20
-60.66
0
VERTEX
8
Sketch
10
-15.18
20
-62.58
0
VERTEX
8
Sketch
10
-15.06
20
-63.12
0
VERTEX
8
Sketch
10
-14.28
20
-64.86
0
VERTEX
8
Sketch
10
-14.22
20
-65.1
0
VERTEX
8
Sketch
10
-13.8
20
-66.24
0
VERTEX
8
Sketch
10
-13.08
20
-67.2
0
VERTEX
8
Sketch
10
-12.96
20
-67.2
0
VERTEX
8
Sketch
10
-12.78
20
-67.5
0
VERTEX
8
Sketch
10
-12.36
20
-67.92
0
VERTEX
8
Sketch
10
-12.06
20
-68.46
0
VERTEX
8
Sketch
10
-11.58
20
-69
0
VERTEX
8
Sketch
10
-11.46
20
-69.36
0
VERTEX
8
Sketch
10
-11.46
20
-69.48
0
VERTEX
8
Sketch
10
-11.58
20
-69.54
0
SEQEND
0
POINT
8
Sketch
62
32
10
-15.24
20
-42.3
0
POINT
8
Sketch
62
32
10
-5.46
20
-58.8
0
POLYLINE
66
1
8
Sketch
62
32
0
VERTEX
8
Sketch
10
-8.04
20
-59.94
0
VERTEX
8
Sketch
10
-7.92
20
-59.88
0
SEQEND
0
POINT
8
Sketch
62
32
10
-14.52
20
-57.06
0
POINT
8
Sketch
62
32
10
-15.06
20
-57.84
0
POLYLINE
66
1
8
Sketch
62
32
0
VERTEX
8
Sketch
10
-14.94
20
-59.4
0
VERTEX
8
Sketch
10
-14.82
20
-59.28
0
VERTEX
8
Sketch
10
-14.7
20
-59.34
0
SEQEND
0
POLYLINE
66
1
8
Sketch
62
32
0
VERTEX
8
Sketch
10
-14.4
20
-61.62
0
VERTEX
8
Sketch
10
-14.34
20
-61.74
0
VERTEX
8
Sketch
10
-14.16
20
-61.8
0
SEQEND
0
POLYLINE
66
1
8
Sketch
62
32
0
VERTEX
8
Sketch
10
-14.4
20
-60.9
0
VERTEX
8
Sketch
10
-14.16
20
-61.02
0
SEQEND
0
POLYLINE
66
1
8
Sketch
62
32
0
VERTEX
8
Sketch
10
-14.88
20
-59.16
0
VERTEX
8
Sketch
10
-14.52
20
-59.28
0
VERTEX
8
Sketch
10
-14.34
20
-59.28
0
SEQEND
0
POINT
8
Sketch
62
32
10
-14.16
20
-59.04
0
POLYLINE
66
1
8
Sketch
62
32
0
VERTEX
8
Sketch
10
-13.14
20
-60.78
0
VERTEX
8
Sketch
10
-13.02
20
-60.9
0
VERTEX
8
Sketch
10
-12.78
20
-60.96
0
VERTEX
8
Sketch
10
-12.48
20
-60.9
0
SEQEND
0
POLYLINE
66
1
8
Sketch
62
32
0
VERTEX
8
Sketch
10
-12
20
-62.22
0
VERTEX
8
Sketch
10
-11.7
20
-62.28
0
SEQEND
0
POLYLINE
66
1
8
Sketch
62
32
0
VERTEX
8
Sketch
10
-12.9
20
-61.98
0
VERTEX
8
Sketch
10
-12.6
20
-62.04
0
SEQEND
0
POLYLINE
66
1
8
Sketch
62
32
0
VERTEX
8
Sketch
10
-14.04
20
-62.64
0
VERTEX
8
Sketch
10
-13.74
20
-62.52
0
VERTEX
8
Sketch
10
-13.32
20
-62.58
0
SEQEND
0
POLYLINE
66
1
8
Sketch
62
32
0
VERTEX
8
Sketch
10
-13.38
20
-65.58
0
VERTEX
8
Sketch
10
-13.08
20
-66.18
0
VERTEX
8
Sketch
10
-12.9
20
-66.24
0
SEQEND
0
POLYLINE
66
1
8
Sketch
62
32
0
VERTEX
8
Sketch
10
-13.62
20
-65.1
0
VERTEX
8
Sketch
10
-13.38
20
-65.16
0
VERTEX
8
Sketch
10
-13.2
20
-65.22
0
SEQEND
0
POLYLINE
66
1
8
Sketch
62
32
0
VERTEX
8
Sketch
10
-13.92
20
-64.02
0
VERTEX
8
Sketch
10
-13.56
20
-64.02
0
VERTEX
8
Sketch
10
-13.26
20
-64.08
0
SEQEND
0
POLYLINE
66
1
8
Sketch
62
32
0
VERTEX
8
Sketch
10
-14.04
20
-62.52
0
VERTEX
8
Sketch
10
-13.8
20
-62.52
0
SEQEND
0
POLYLINE
66
1
8
Sketch
62
32
0
VERTEX
8
Sketch
10
-13.38
20
-63.12
0
VERTEX
8
Sketch
10
-13.14
20
-63.12
0
SEQEND
0
POLYLINE
66
1
8
Sketch
62
32
0
VERTEX
8
Sketch
10
-12.96
20
-64.74
0
VERTEX
8
Sketch
10
-12.72
20
-64.8
0
VERTEX
8
Sketch
10
-12.24
20
-64.68
0
SEQEND
0
POLYLINE
66
1
8
Sketch
62
32
0
VERTEX
8
Sketch
10
-12.54
20
-68.52
0
VERTEX
8
Sketch
10
-12.24
20
-68.52
0
SEQEND
0
POLYLINE
66
1
8
Sketch
62
32
0
VERTEX
8
Sketch
10
-12.72
20
-66.84
0
VERTEX
8
Sketch
10
-12.06
20
-67.08
0
SEQEND
0
POLYLINE
66
1
8
Sketch
62
32
0
VERTEX
8
Sketch
10
-11.94
20
-66.3
0
VERTEX
8
Sketch
10
-11.4
20
-66.12
0
SEQEND
0
POLYLINE
66
1
8
Sketch
62
32
0
VERTEX
8
Sketch
10
-9.36
20
-68.7
0
VERTEX
8
Sketch
10
-9.3
20
-68.82
0
VERTEX
8
Sketch
10
-8.94
20
-68.76
0
SEQEND
0
POLYLINE
66
1
8
Sketch
62
32
0
VERTEX
8
Sketch
10
-9.48
20
-68.04
0
VERTEX
8
Sketch
10
-8.94
20
-67.68
0
SEQEND
0
POLYLINE
66
1
8
Sketch
62
32
0
VERTEX
8
Sketch
10
-10.38
20
-64.14
0
VERTEX
8
Sketch
10
-10.14
20
-64.02
0
VERTEX
8
Sketch
10
-9.42
20
-63.96
0
SEQEND
0
POLYLINE
66
1
8
Sketch
62
32
0
VERTEX
8
Sketch
10
-6.54
20
-60.54
0
VERTEX
8
Sketch
10
-6.18
20
-60.78
0
SEQEND
0
POLYLINE
66
1
8
Sketch
62
32
0
VERTEX
8
Sketch
10
-8.22
20
-63.24
0
VERTEX
8
Sketch
10
-8.1
20
-63.18
0
VERTEX
8
Sketch
10
-7.86
20
-63.18
0
VERTEX
8
Sketch
10
-7.74
20
-63.12
0
SEQEND
0
POLYLINE
66
1
8
Sketch
62
32
0
VERTEX
8
Sketch
10
-8.46
20
-60.18
0
VERTEX
8
Sketch
10
-8.16
20
-60.06
0
SEQEND
0
POLYLINE
66
1
8
Sketch
62
32
0
VERTEX
8
Sketch
10
-8.28
20
-60.9
0
VERTEX
8
Sketch
10
-8.82
20
-59.22
0
SEQEND
0
POLYLINE
66
1
8
Sketch
62
32
0
VERTEX
8
Sketch
10
-8.16
20
-63.24
0
VERTEX
8
Sketch
10
-7.74
20
-63.3
0
SEQEND
0
POLYLINE
66
1
8
Sketch
62
32
0
VERTEX
8
Sketch
10
-9.36
20
-63.48
0
VERTEX
8
Sketch
10
-9.12
20
-63.54
0
VERTEX
8
Sketch
10
-8.82
20
-63.66
0
SEQEND
0
POLYLINE
66
1
8
Sketch
62
32
0
VERTEX
8
Sketch
10
-10.02
20
-64.98
0
VERTEX
8
Sketch
10
-9.96
20
-64.86
0
VERTEX
8
Sketch
10
-9.6
20
-64.8
0
SEQEND
0
POLYLINE
66
1
8
Sketch
62
32
0
VERTEX
8
Sketch
10
-10.2
20
-65.46
0
VERTEX
8
Sketch
10
-9.84
20
-65.58
0
VERTEX
8
Sketch
10
-9.66
20
-65.58
0
VERTEX
8
Sketch
10
-9.42
20
-65.4
0
SEQEND
0
POLYLINE
66
1
8
Sketch
62
32
0
VERTEX
8
Sketch
10
-10.44
20
-61.92
0
VERTEX
8
Sketch
10
-10.2
20
-61.98
0
VERTEX
8
Sketch
10
-9.84
20
-61.74
0
SEQEND
0
POLYLINE
66
1
8
Sketch
62
32
0
VERTEX
8
Sketch
10
-11.34
20
-60.18
0
VERTEX
8
Sketch
10
-11.22
20
-60.24
0
VERTEX
8
Sketch
10
-10.62
20
-60.12
0
VERTEX
8
Sketch
10
-10.5
20
-60
0
SEQEND
0
POLYLINE
66
1
8
Sketch
62
0
0
VERTEX
8
Sketch
10
-7.02
20
-69.48
0
VERTEX
8
Sketch
10
-7.2
20
-69.12
0
VERTEX
8
Sketch
10
-7.44
20
-68.1
0
VERTEX
8
Sketch
10
-7.44
20
-66.66
0
VERTEX
8
Sketch
10
-7.14
20
-65.64
0
VERTEX
8
Sketch
10
-7.14
20
-65.34
0
VERTEX
8
Sketch
10
-6.84
20
-64.44
0
VERTEX
8
Sketch
10
-6.96
20
-63.96
0
SEQEND
0
POLYLINE
66
1
8
Sketch
62
0
0
VERTEX
8
Sketch
10
-16.86
20
-55.5
0
VERTEX
8
Sketch
10
-17.04
20
-55.86
0
VERTEX
8
Sketch
10
-17.1
20
-56.1
0
VERTEX
8
Sketch
10
-17.16
20
-56.34
0
VERTEX
8
Sketch
10
-17.16
20
-56.58
0
VERTEX
8
Sketch
10
-16.92
20
-57.42
0
SEQEND
0
POLYLINE
66
1
8
Sketch
62
32
0
VERTEX
8
Sketch
10
-7.14
20
-56.64
0
VERTEX
8
Sketch
10
-6.36
20
-56.4
0
SEQEND
0
POLYLINE
66
1
8
Sketch
62
32
0
VERTEX
8
Sketch
10
-6.06
20
-55.86
0
VERTEX
8
Sketch
10
-5.82
20
-55.92
0
VERTEX
8
Sketch
10
-5.7
20
-55.92
0
SEQEND
0
POLYLINE
66
1
8
Sketch
62
32
0
VERTEX
8
Sketch
10
-4.32
20
-54.36
0
VERTEX
8
Sketch
10
-4.02
20
-54.36
0
SEQEND
0
POLYLINE
66
1
8
Sketch
62
32
0
VERTEX
8
Sketch
10
-4.5
20
-52.62
0
VERTEX
8
Sketch
10
-4.38
20
-52.62
0
SEQEND
0
POLYLINE
66
1
8
Sketch
62
32
0
VERTEX
8
Sketch
10
-4.62
20
-52.26
0
VERTEX
8
Sketch
10
-4.2
20
-52.2
0
VERTEX
8
Sketch
10
-4.08
20
-52.26
0
SEQEND
0
POLYLINE
66
1
8
Sketch
62
32
0
VERTEX
8
Sketch
10
-11.52
20
-57.72
0
VERTEX
8
Sketch
10
-11.46
20
-57.84
0
SEQEND
0
POLYLINE
66
1
8
Sketch
62
32
0
VERTEX
8
Sketch
10
-11.28
20
-57.48
0
VERTEX
8
Sketch
10
-11.16
20
-57.54
0
VERTEX
8
Sketch
10
-10.98
20
-57.48
0
VERTEX
8
Sketch
10
-10.86
20
-57.54
0
SEQEND
0
POLYLINE
66
1
8
Sketch
62
32
0
VERTEX
8
Sketch
10
-10.98
20
-56.16
0
VERTEX
8
Sketch
10
-10.86
20
-56.28
0
SEQEND
0
POLYLINE
66
1
8
Sketch
62
32
0
VERTEX
8
Sketch
10
-11.88
20
-55.74
0
VERTEX
8
Sketch
10
-11.64
20
-55.74
0
SEQEND
0
POLYLINE
66
1
8
Sketch
62
32
0
VERTEX
8
Sketch
10
-12.96
20
-54.36
0
VERTEX
8
Sketch
10
-12.72
20
-54.36
0
SEQEND
0
POLYLINE
66
1
8
Sketch
62
32
0
VERTEX
8
Sketch
10
-14.28
20
-55.38
0
VERTEX
8
Sketch
10
-14.04
20
-55.38
0
VERTEX
8
Sketch
10
-13.62
20
-55.26
0
SEQEND
0
POLYLINE
66
1
8
Sketch
62
32
0
VERTEX
8
Sketch
10
-13.26
20
-55.62
0
VERTEX
8
Sketch
10
-12.3
20
-55.32
0
SEQEND
0
POLYLINE
66
1
8
Sketch
62
32
0
VERTEX
8
Sketch
10
-10.98
20
-54.12
0
VERTEX
8
Sketch
10
-10.74
20
-54.18
0
VERTEX
8
Sketch
10
-10.38
20
-54.18
0
SEQEND
0
POLYLINE
66
1
8
Sketch
62
32
0
VERTEX
8
Sketch
10
-9.48
20
-54.66
0
VERTEX
8
Sketch
10
-9.36
20
-54.54
0
VERTEX
8
Sketch
10
-8.82
20
-54.54
0
VERTEX
8
Sketch
10
-8.52
20
-54.48
0
SEQEND
0
POLYLINE
66
1
8
Sketch
62
32
0
VERTEX
8
Sketch
10
-5.7
20
-52.86
0
VERTEX
8
Sketch
10
-5.58
20
-52.86
0
SEQEND
0
POLYLINE
66
1
8
Sketch
62
32
0
VERTEX
8
Sketch
10
-6.3
20
-53.28
0
VERTEX
8
Sketch
10
-6.06
20
-53.34
0
VERTEX
8
Sketch
10
-5.04
20
-53.52
0
SEQEND
0
POLYLINE
66
1
8
Sketch
62
32
0
VERTEX
8
Sketch
10
-6.96
20
-55.8
0
VERTEX
8
Sketch
10
-6.66
20
-55.62
0
VERTEX
8
Sketch
10
-6.18
20
-55.56
0
SEQEND
0
POLYLINE
66
1
8
Sketch
62
32
0
VERTEX
8
Sketch
10
-7.62
20
-56.88
0
VERTEX
8
Sketch
10
-7.5
20
-56.88
0
SEQEND
0
POLYLINE
66
1
8
Sketch
62
32
0
VERTEX
8
Sketch
10
-8.4
20
-57.18
0
VERTEX
8
Sketch
10
-8.28
20
-57.24
0
SEQEND
0
POLYLINE
66
1
8
Sketch
62
32
0
VERTEX
8
Sketch
10
-9.84
20
-59.04
0
VERTEX
8
Sketch
10
-9.6
20
-58.98
0
VERTEX
8
Sketch
10
-9.3
20
-58.98
0
SEQEND
0
POLYLINE
66
1
8
Sketch
62
32
0
VERTEX
8
Sketch
10
-9.18
20
-58.98
0
VERTEX
8
Sketch
10
-8.82
20
-58.98
0
SEQEND
0
POLYLINE
66
1
8
Sketch
62
32
0
VERTEX
8
Sketch
10
-9.78
20
-57.9
0
VERTEX
8
Sketch
10
-9.24
20
-57.78
0
SEQEND
0
POLYLINE
66
1
8
Sketch
62
32
0
VERTEX
8
Sketch
10
-8.7
20
-58.44
0
VERTEX
8
Sketch
10
-8.04
20
-58.68
0
SEQEND
0
POLYLINE
66
1
8
Sketch
62
32
0
VERTEX
8
Sketch
10
-7.08
20
-59.58
0
VERTEX
8
Sketch
10
-6.72
20
-59.64
0
SEQEND
0
POLYLINE
66
1
8
Sketch
62
32
0
VERTEX
8
Sketch
10
-6.48
20
-58.44
0
VERTEX
8
Sketch
10
-5.52
20
-58.62
0
SEQEND
0
POLYLINE
66
1
8
Sketch
62
32
0
VERTEX
8
Sketch
10
-2.22
20
-55.92
0
VERTEX
8
Sketch
10
-1.26
20
-55.92
0
SEQEND
0
POLYLINE
66
1
8
Sketch
62
32
0
VERTEX
8
Sketch
10
-1.8
20
-55.98
0
VERTEX
8
Sketch
10
-1.62
20
-55.92
0
VERTEX
8
Sketch
10
-1.38
20
-56.04
0
SEQEND
0
POLYLINE
66
1
8
Sketch
62
32
0
VERTEX
8
Sketch
10
-1.62
20
-57.12
0
VERTEX
8
Sketch
10
-1.5
20
-57.18
0
SEQEND
0
POLYLINE
66
1
8
Sketch
62
32
0
VERTEX
8
Sketch
10
-3.3
20
-57.48
0
VERTEX
8
Sketch
10
-2.64
20
-57.48
0
VERTEX
8
Sketch
10
-2.52
20
-57.42
0
SEQEND
0
POLYLINE
66
1
8
Sketch
62
32
0
VERTEX
8
Sketch
10
-4.68
20
-55.68
0
VERTEX
8
Sketch
10
-4.5
20
-55.68
0
VERTEX
8
Sketch
10
-3.66
20
-55.92
0
VERTEX
8
Sketch
10
-3.54
20
-55.86
0
SEQEND
0
POLYLINE
66
1
8
Sketch
62
32
0
VERTEX
8
Sketch
10
-5.34
20
-57.12
0
VERTEX
8
Sketch
10
-4.5
20
-56.76
0
SEQEND
0
POINT
8
Sketch
62
32
10
-1.86
20
-52.2
0
POLYLINE
66
1
8
Sketch
62
32
0
VERTEX
8
Sketch
10
-2.52
20
-52.44
0
VERTEX
8
Sketch
10
-2.22
20
-52.2
0
VERTEX
8
Sketch
10
-1.32
20
-51.84
0
VERTEX
8
Sketch
10
-1.14
20
-51.84
0
SEQEND
0
POLYLINE
66
1
8
Sketch
62
32
0
VERTEX
8
Sketch
10
-0.48
20
-52.92
0
VERTEX
8
Sketch
10
1.02
20
-52.74
0
SEQEND
0
POLYLINE
66
1
8
Sketch
62
32
0
VERTEX
8
Sketch
10
3.9
20
-50.52
0
VERTEX
8
Sketch
10
4.02
20
-50.64
0
VERTEX
8
Sketch
10
4.5
20
-50.58
0
VERTEX
8
Sketch
10
4.62
20
-50.52
0
SEQEND
0
POLYLINE
66
1
8
Sketch
62
32
0
VERTEX
8
Sketch
10
2.04
20
-51.66
0
VERTEX
8
Sketch
10
2.28
20
-51.6
0
VERTEX
8
Sketch
10
2.88
20
-51.42
0
SEQEND
0
POLYLINE
66
1
8
Sketch
62
0
0
VERTEX
8
Sketch
10
-6.66
20
-64.5
0
VERTEX
8
Sketch
10
-6.72
20
-64.08
0
VERTEX
8
Sketch
10
-6.72
20
-63.72
0
VERTEX
8
Sketch
10
-6.42
20
-63.42
0
VERTEX
8
Sketch
10
-6.24
20
-63.24
0
VERTEX
8
Sketch
10
-5.82
20
-62.76
0
VERTEX
8
Sketch
10
-5.46
20
-62.16
0
VERTEX
8
Sketch
10
-5.34
20
-61.86
0
VERTEX
8
Sketch
10
-4.86
20
-61.26
0
VERTEX
8
Sketch
10
-4.5
20
-61.02
0
VERTEX
8
Sketch
10
-3.66
20
-60.42
0
VERTEX
8
Sketch
10
-3.48
20
-60.18
0
VERTEX
8
Sketch
10
-3.36
20
-60.18
0
VERTEX
8
Sketch
10
-3.18
20
-60
0
VERTEX
8
Sketch
10
-2.58
20
-59.64
0
VERTEX
8
Sketch
10
-2.22
20
-59.64
0
VERTEX
8
Sketch
10
-1.98
20
-59.46
0
VERTEX
8
Sketch
10
-1.56
20
-59.22
0
VERTEX
8
Sketch
10
-1.32
20
-59.22
0
VERTEX
8
Sketch
10
-1.08
20
-59.16
0
VERTEX
8
Sketch
10
-0.6
20
-59.1
0
VERTEX
8
Sketch
10
-0.18
20
-59.1
0
VERTEX
8
Sketch
10
0.06
20
-59.16
0
VERTEX
8
Sketch
10
0.18
20
-59.1
0
VERTEX
8
Sketch
10
0.9
20
-59.28
0
VERTEX
8
Sketch
10
1.26
20
-59.34
0
VERTEX
8
Sketch
10
1.38
20
-59.28
0
VERTEX
8
Sketch
10
1.62
20
-59.34
0
VERTEX
8
Sketch
10
1.86
20
-59.34
0
VERTEX
8
Sketch
10
1.86
20
-59.22
0
SEQEND
0
POLYLINE
66
1
8
Sketch
62
0
0
VERTEX
8
Sketch
10
-1.62
20
-50.04
0
VERTEX
8
Sketch
10
-1.86
20
-50.04
0
VERTEX
8
Sketch
10
-2.1
20
-49.98
0
VERTEX
8
Sketch
10
-2.22
20
-50.04
0
VERTEX
8
Sketch
10
-2.34
20
-49.92
0
VERTEX
8
Sketch
10
-3.24
20
-50.22
0
VERTEX
8
Sketch
10
-3.78
20
-50.34
0
VERTEX
8
Sketch
10
-4.02
20
-50.52
0
VERTEX
8
Sketch
10
-4.26
20
-50.58
0
VERTEX
8
Sketch
10
-5.16
20
-50.94
0
VERTEX
8
Sketch
10
-5.4
20
-51
0
VERTEX
8
Sketch
10
-6.42
20
-51.48
0
VERTEX
8
Sketch
10
-6.72
20
-51.54
0
VERTEX
8
Sketch
10
-7.2
20
-51.66
0
VERTEX
8
Sketch
10
-7.86
20
-52.02
0
VERTEX
8
Sketch
10
-8.1
20
-52.08
0
VERTEX
8
Sketch
10
-8.4
20
-52.26
0
VERTEX
8
Sketch
10
-8.76
20
-52.26
0
VERTEX
8
Sketch
10
-9.24
20
-52.44
0
VERTEX
8
Sketch
10
-9.78
20
-52.56
0
VERTEX
8
Sketch
10
-10.08
20
-52.62
0
VERTEX
8
Sketch
10
-10.44
20
-52.62
0
VERTEX
8
Sketch
10
-11.34
20
-52.92
0
VERTEX
8
Sketch
10
-11.76
20
-52.92
0
VERTEX
8
Sketch
10
-12.12
20
-53.1
0
VERTEX
8
Sketch
10
-12.36
20
-53.16
0
VERTEX
8
Sketch
10
-12.48
20
-53.28
0
VERTEX
8
Sketch
10
-12.78
20
-53.22
0
VERTEX
8
Sketch
10
-13.68
20
-53.58
0
VERTEX
8
Sketch
10
-13.92
20
-53.58
0
VERTEX
8
Sketch
10
-14.4
20
-53.76
0
VERTEX
8
Sketch
10
-14.82
20
-54.12
0
VERTEX
8
Sketch
10
-15.3
20
-54.3
0
VERTEX
8
Sketch
10
-15.42
20
-54.24
0
VERTEX
8
Sketch
10
-16.02
20
-54.66
0
VERTEX
8
Sketch
10
-16.5
20
-54.96
0
VERTEX
8
Sketch
10
-16.62
20
-54.96
0
VERTEX
8
Sketch
10
-17.16
20
-55.5
0
SEQEND
0
POLYLINE
66
1
8
Sketch
62
32
0
VERTEX
8
Sketch
10
3.48
20
-54.3
0
VERTEX
8
Sketch
10
3.6
20
-54.36
0
SEQEND
0
POLYLINE
66
1
8
Sketch
62
32
0
VERTEX
8
Sketch
10
2.46
20
-57.12
0
VERTEX
8
Sketch
10
2.46
20
-57
0
VERTEX
8
Sketch
10
3
20
-56.94
0
SEQEND
0
POLYLINE
66
1
8
Sketch
62
32
0
VERTEX
8
Sketch
10
3.84
20
-57.42
0
VERTEX
8
Sketch
10
4.44
20
-57.36
0
SEQEND
0
POLYLINE
66
1
8
Sketch
62
32
0
VERTEX
8
Sketch
10
4.74
20
-55.74
0
VERTEX
8
Sketch
10
4.74
20
-55.86
0
VERTEX
8
Sketch
10
5.04
20
-56.04
0
VERTEX
8
Sketch
10
5.16
20
-56.04
0
SEQEND
0
POLYLINE
66
1
8
Sketch
62
32
0
VERTEX
8
Sketch
10
5.34
20
-53.52
0
VERTEX
8
Sketch
10
5.64
20
-53.58
0
VERTEX
8
Sketch
10
6
20
-53.52
0
VERTEX
8
Sketch
10
6.66
20
-53.4
0
SEQEND
0
POLYLINE
66
1
8
Sketch
62
0
0
VERTEX
8
Sketch
10
10.08
20
-53.22
0
VERTEX
8
Sketch
10
9.78
20
-53.7
0
VERTEX
8
Sketch
10
9.42
20
-54.48
0
VERTEX
8
Sketch
10
9.42
20
-54.72
0
VERTEX
8
Sketch
10
9.48
20
-54.9
0
VERTEX
8
Sketch
10
9.12
20
-56.16
0
VERTEX
8
Sketch
10
9.06
20
-56.4
0
VERTEX
8
Sketch
10
8.64
20
-56.82
0
VERTEX
8
Sketch
10
7.8
20
-57.54
0
VERTEX
8
Sketch
10
7.68
20
-57.48
0
VERTEX
8
Sketch
10
7.02
20
-57.84
0
VERTEX
8
Sketch
10
6.78
20
-57.9
0
VERTEX
8
Sketch
10
6.72
20
-58.02
0
VERTEX
8
Sketch
10
6.48
20
-58.02
0
VERTEX
8
Sketch
10
6.12
20
-58.14
0
VERTEX
8
Sketch
10
6
20
-58.26
0
VERTEX
8
Sketch
10
5.88
20
-58.2
0
VERTEX
8
Sketch
10
5.64
20
-58.26
0
VERTEX
8
Sketch
10
5.52
20
-58.44
0
VERTEX
8
Sketch
10
4.98
20
-58.44
0
VERTEX
8
Sketch
10
4.2
20
-58.68
0
VERTEX
8
Sketch
10
4.08
20
-58.68
0
VERTEX
8
Sketch
10
3.84
20
-58.8
0
VERTEX
8
Sketch
10
2.76
20
-58.92
0
VERTEX
8
Sketch
10
2.64
20
-58.92
0
VERTEX
8
Sketch
10
2.52
20
-59.04
0
VERTEX
8
Sketch
10
2.16
20
-59.1
0
VERTEX
8
Sketch
10
2.04
20
-59.04
0
VERTEX
8
Sketch
10
1.92
20
-59.16
0
VERTEX
8
Sketch
10
1.8
20
-59.1
0
VERTEX
8
Sketch
10
1.56
20
-59.28
0
VERTEX
8
Sketch
10
1.44
20
-59.22
0
VERTEX
8
Sketch
10
1.32
20
-59.28
0
SEQEND
0
POLYLINE
66
1
8
Sketch
62
0
0
VERTEX
8
Sketch
10
-1.92
20
-49.98
0
VERTEX
8
Sketch
10
-1.56
20
-50.1
0
VERTEX
8
Sketch
10
-1.32
20
-50.04
0
VERTEX
8
Sketch
10
-1.08
20
-50.1
0
VERTEX
8
Sketch
10
-0.96
20
-50.16
0
VERTEX
8
Sketch
10
-0.84
20
-50.1
0
VERTEX
8
Sketch
10
-0.72
20
-50.16
0
VERTEX
8
Sketch
10
-0.6
20
-50.1
0
VERTEX
8
Sketch
10
-0.48
20
-50.16
0
VERTEX
8
Sketch
10
-0.24
20
-50.1
0
VERTEX
8
Sketch
10
0
20
-50.04
0
VERTEX
8
Sketch
10
0.24
20
-50.1
0
VERTEX
8
Sketch
10
0.36
20
-50.04
0
VERTEX
8
Sketch
10
0.48
20
-50.1
0
VERTEX
8
Sketch
10
0.66
20
-49.98
0
VERTEX
8
Sketch
10
0.78
20
-50.04
0
VERTEX
8
Sketch
10
0.9
20
-49.92
0
VERTEX
8
Sketch
10
1.38
20
-49.86
0
VERTEX
8
Sketch
10
1.56
20
-49.86
0
VERTEX
8
Sketch
10
1.68
20
-49.8
0
VERTEX
8
Sketch
10
1.8
20
-49.86
0
VERTEX
8
Sketch
10
2.16
20
-49.62
0
VERTEX
8
Sketch
10
2.34
20
-49.68
0
VERTEX
8
Sketch
10
2.7
20
-49.44
0
VERTEX
8
Sketch
10
2.82
20
-49.5
0
VERTEX
8
Sketch
10
3.18
20
-49.38
0
VERTEX
8
Sketch
10
3.24
20
-49.26
0
VERTEX
8
Sketch
10
3.12
20
-48.9
0
VERTEX
8
Sketch
10
3.12
20
-48.72
0
VERTEX
8
Sketch
10
3.06
20
-48.6
0
VERTEX
8
Sketch
10
3.12
20
-48.36
0
VERTEX
8
Sketch
10
3.18
20
-48
0
VERTEX
8
Sketch
10
3.36
20
-47.76
0
SEQEND
0
POINT
8
Sketch
62
32
10
18
20
-47.4
0
POLYLINE
66
1
8
Sketch
62
32
0
VERTEX
8
Sketch
10
17.16
20
-48.12
0
VERTEX
8
Sketch
10
17.28
20
-48.06
0
SEQEND
0
POLYLINE
66
1
8
Sketch
62
32
0
VERTEX
8
Sketch
10
17.22
20
-48.72
0
VERTEX
8
Sketch
10
17.34
20
-48.72
0
SEQEND
0
POLYLINE
66
1
8
Sketch
62
32
0
VERTEX
8
Sketch
10
16.26
20
-49.98
0
VERTEX
8
Sketch
10
16.44
20
-49.98
0
VERTEX
8
Sketch
10
16.68
20
-49.86
0
SEQEND
0
POLYLINE
66
1
8
Sketch
62
32
0
VERTEX
8
Sketch
10
15.42
20
-51.18
0
VERTEX
8
Sketch
10
15.72
20
-51.06
0
SEQEND
0
POINT
8
Sketch
62
32
10
15.6
20
-49.92
0
POLYLINE
66
1
8
Sketch
62
32
0
VERTEX
8
Sketch
10
15.36
20
-49.8
0
VERTEX
8
Sketch
10
15.66
20
-49.8
0
VERTEX
8
Sketch
10
15.9
20
-49.74
0
SEQEND
0
POLYLINE
66
1
8
Sketch
62
32
0
VERTEX
8
Sketch
10
14.22
20
-50.76
0
VERTEX
8
Sketch
10
14.34
20
-50.82
0
VERTEX
8
Sketch
10
14.58
20
-50.82
0
VERTEX
8
Sketch
10
15.18
20
-50.58
0
SEQEND
0
POLYLINE
66
1
8
Sketch
62
32
0
VERTEX
8
Sketch
10
12.3
20
-52.44
0
VERTEX
8
Sketch
10
12.42
20
-52.5
0
SEQEND
0
POLYLINE
66
1
8
Sketch
62
32
0
VERTEX
8
Sketch
10
12.12
20
-51.72
0
VERTEX
8
Sketch
10
12.24
20
-51.72
0
SEQEND
0
POLYLINE
66
1
8
Sketch
62
32
0
VERTEX
8
Sketch
10
12.3
20
-52.44
0
VERTEX
8
Sketch
10
12.78
20
-52.32
0
VERTEX
8
Sketch
10
13.14
20
-52.32
0
SEQEND
0
POLYLINE
66
1
8
Sketch
62
32
0
VERTEX
8
Sketch
10
13.08
20
-51.36
0
VERTEX
8
Sketch
10
13.2
20
-51.48
0
VERTEX
8
Sketch
10
13.62
20
-51.54
0
SEQEND
0
POLYLINE
66
1
8
Sketch
62
32
0
VERTEX
8
Sketch
10
14.1
20
-51.3
0
VERTEX
8
Sketch
10
14.46
20
-51.18
0
SEQEND
0
POLYLINE
66
1
8
Sketch
62
32
0
VERTEX
8
Sketch
10
13.68
20
-52.5
0
VERTEX
8
Sketch
10
13.8
20
-52.56
0
VERTEX
8
Sketch
10
13.92
20
-52.5
0
SEQEND
0
POLYLINE
66
1
8
Sketch
62
32
0
VERTEX
8
Sketch
10
14.22
20
-51.72
0
VERTEX
8
Sketch
10
14.52
20
-51.72
0
VERTEX
8
Sketch
10
14.7
20
-51.66
0
SEQEND
0
POLYLINE
66
1
8
Sketch
62
32
0
VERTEX
8
Sketch
10
15.36
20
-49.56
0
VERTEX
8
Sketch
10
15.96
20
-49.32
0
SEQEND
0
POLYLINE
66
1
8
Sketch
62
0
0
VERTEX
8
Sketch
10
13.86
20
-54.54
0
VERTEX
8
Sketch
10
14.04
20
-53.94
0
VERTEX
8
Sketch
10
14.22
20
-53.7
0
VERTEX
8
Sketch
10
14.34
20
-53.7
0
VERTEX
8
Sketch
10
14.76
20
-53.28
0
VERTEX
8
Sketch
10
15.12
20
-53.04
0
VERTEX
8
Sketch
10
15.54
20
-52.5
0
VERTEX
8
Sketch
10
17.04
20
-51
0
VERTEX
8
Sketch
10
17.64
20
-50.22
0
VERTEX
8
Sketch
10
18.06
20
-49.8
0
VERTEX
8
Sketch
10
18.48
20
-49.26
0
VERTEX
8
Sketch
10
19.02
20
-48.66
0
VERTEX
8
Sketch
10
19.08
20
-48.42
0
VERTEX
8
Sketch
10
19.2
20
-47.94
0
VERTEX
8
Sketch
10
19.32
20
-47.82
0
VERTEX
8
Sketch
10
19.32
20
-47.58
0
VERTEX
8
Sketch
10
19.5
20
-47.04
0
VERTEX
8
Sketch
10
19.86
20
-46.44
0
VERTEX
8
Sketch
10
19.86
20
-46.32
0
VERTEX
8
Sketch
10
19.74
20
-46.26
0
SEQEND
0
POLYLINE
66
1
8
Sketch
62
32
0
VERTEX
8
Sketch
10
11.64
20
-60.66
0
VERTEX
8
Sketch
10
11.64
20
-60.78
0
SEQEND
0
POLYLINE
66
1
8
Sketch
62
32
0
VERTEX
8
Sketch
10
11.76
20
-59.64
0
VERTEX
8
Sketch
10
11.82
20
-59.76
0
SEQEND
0
POLYLINE
66
1
8
Sketch
62
32
0
VERTEX
8
Sketch
10
12.18
20
-57.72
0
VERTEX
8
Sketch
10
12.3
20
-57.78
0
SEQEND
0
POINT
8
Sketch
62
32
10
12.66
20
-54.12
0
POLYLINE
66
1
8
Sketch
62
32
0
VERTEX
8
Sketch
10
12.48
20
-54.6
0
VERTEX
8
Sketch
10
12.6
20
-54.6
0
SEQEND
0
POLYLINE
66
1
8
Sketch
62
32
0
VERTEX
8
Sketch
10
12.42
20
-55.2
0
VERTEX
8
Sketch
10
12.54
20
-55.08
0
SEQEND
0
POLYLINE
66
1
8
Sketch
62
32
0
VERTEX
8
Sketch
10
12.24
20
-57.18
0
VERTEX
8
Sketch
10
12.48
20
-57
0
SEQEND
0
POLYLINE
66
1
8
Sketch
62
32
0
VERTEX
8
Sketch
10
12.18
20
-56.64
0
VERTEX
8
Sketch
10
12.24
20
-56.76
0
VERTEX
8
Sketch
10
12.36
20
-56.76
0
SEQEND
0
POLYLINE
66
1
8
Sketch
62
32
0
VERTEX
8
Sketch
10
11.4
20
-55.68
0
VERTEX
8
Sketch
10
11.46
20
-55.56
0
VERTEX
8
Sketch
10
11.58
20
-55.56
0
SEQEND
0
POLYLINE
66
1
8
Sketch
62
32
0
VERTEX
8
Sketch
10
11.34
20
-56.4
0
VERTEX
8
Sketch
10
11.46
20
-56.4
0
SEQEND
0
POLYLINE
66
1
8
Sketch
62
32
0
VERTEX
8
Sketch
10
11.46
20
-57.3
0
VERTEX
8
Sketch
10
11.58
20
-57.3
0
SEQEND
0
POLYLINE
66
1
8
Sketch
62
32
0
VERTEX
8
Sketch
10
11.76
20
-59.82
0
VERTEX
8
Sketch
10
11.76
20
-59.94
0
VERTEX
8
Sketch
10
11.88
20
-60
0
SEQEND
0
POLYLINE
66
1
8
Sketch
62
32
0
VERTEX
8
Sketch
10
11.46
20
-58.8
0
VERTEX
8
Sketch
10
11.58
20
-58.74
0
SEQEND
0
POLYLINE
66
1
8
Sketch
62
32
0
VERTEX
8
Sketch
10
10.86
20
-57.72
0
VERTEX
8
Sketch
10
11.1
20
-57.66
0
VERTEX
8
Sketch
10
11.4
20
-57.66
0
SEQEND
0
POLYLINE
66
1
8
Sketch
62
32
0
VERTEX
8
Sketch
10
11.76
20
-55.98
0
VERTEX
8
Sketch
10
12.06
20
-55.92
0
SEQEND
0
POLYLINE
66
1
8
Sketch
62
32
0
VERTEX
8
Sketch
10
11.7
20
-54.36
0
VERTEX
8
Sketch
10
11.88
20
-54.3
0
VERTEX
8
Sketch
10
12
20
-54.36
0
SEQEND
0
POLYLINE
66
1
8
Sketch
62
32
0
VERTEX
8
Sketch
10
11.28
20
-55.08
0
VERTEX
8
Sketch
10
11.7
20
-54.96
0
SEQEND
0
POLYLINE
66
1
8
Sketch
62
0
0
VERTEX
8
Sketch
10
14.04
20
-53.88
0
VERTEX
8
Sketch
10
13.92
20
-53.88
0
VERTEX
8
Sketch
10
13.74
20
-54.18
0
VERTEX
8
Sketch
10
13.56
20
-54.72
0
VERTEX
8
Sketch
10
13.56
20
-55.62
0
VERTEX
8
Sketch
10
13.5
20
-55.86
0
VERTEX
8
Sketch
10
13.5
20
-56.46
0
VERTEX
8
Sketch
10
13.44
20
-56.7
0
VERTEX
8
Sketch
10
13.44
20
-56.94
0
VERTEX
8
Sketch
10
13.38
20
-57.18
0
VERTEX
8
Sketch
10
13.38
20
-58.08
0
VERTEX
8
Sketch
10
13.32
20
-58.32
0
VERTEX
8
Sketch
10
13.32
20
-59.04
0
VERTEX
8
Sketch
10
13.08
20
-60.06
0
VERTEX
8
Sketch
10
12.96
20
-60.72
0
VERTEX
8
Sketch
10
12.9
20
-61.2
0
VERTEX
8
Sketch
10
12.9
20
-61.62
0
SEQEND
0
POLYLINE
66
1
8
Sketch
62
0
0
VERTEX
8
Sketch
10
10.38
20
-52.92
0
VERTEX
8
Sketch
10
10.38
20
-53.28
0
VERTEX
8
Sketch
10
10.44
20
-53.52
0
VERTEX
8
Sketch
10
10.44
20
-53.94
0
VERTEX
8
Sketch
10
10.32
20
-54.42
0
VERTEX
8
Sketch
10
10.32
20
-54.78
0
VERTEX
8
Sketch
10
10.38
20
-55.02
0
VERTEX
8
Sketch
10
10.38
20
-55.26
0
VERTEX
8
Sketch
10
10.44
20
-55.5
0
VERTEX
8
Sketch
10
10.5
20
-56.04
0
VERTEX
8
Sketch
10
10.62
20
-56.58
0
VERTEX
8
Sketch
10
10.68
20
-57.06
0
VERTEX
8
Sketch
10
10.74
20
-57.6
0
VERTEX
8
Sketch
10
10.8
20
-57.84
0
VERTEX
8
Sketch
10
10.8
20
-58.8
0
VERTEX
8
Sketch
10
11.04
20
-59.7
0
VERTEX
8
Sketch
10
11.34
20
-60.72
0
VERTEX
8
Sketch
10
11.4
20
-61.2
0
VERTEX
8
Sketch
10
11.34
20
-61.5
0
VERTEX
8
Sketch
10
11.4
20
-61.74
0
VERTEX
8
Sketch
10
11.4
20
-61.86
0
SEQEND
0
POINT
8
Sketch
62
32
10
1.05
20
-30.6
0
POLYLINE
66
1
8
Sketch
62
32
0
VERTEX
8
Sketch
10
-0.9
20
-30
0
VERTEX
8
Sketch
10
-0.45
20
-29.85
0
VERTEX
8
Sketch
10
-0.15
20
-29.55
0
VERTEX
8
Sketch
10
0.15
20
-29.55
0
SEQEND
0
POLYLINE
66
1
8
Sketch
62
32
0
VERTEX
8
Sketch
10
-1.8
20
-23.4
0
VERTEX
8
Sketch
10
-1.5
20
-23.4
0
VERTEX
8
Sketch
10
-0.75
20
-22.8
0
VERTEX
8
Sketch
10
-0.45
20
-22.35
0
SEQEND
0
POINT
8
Sketch
62
32
10
-1.8
20
-18.9
0
POLYLINE
66
1
8
Sketch
62
32
0
VERTEX
8
Sketch
10
-2.25
20
-19.2
0
VERTEX
8
Sketch
10
-0.9
20
-18.75
0
SEQEND
0
POLYLINE
66
1
8
Sketch
62
32
0
VERTEX
8
Sketch
10
-3.3
20
-23.7
0
VERTEX
8
Sketch
10
-2.7
20
-23.4
0
SEQEND
0
POLYLINE
66
1
8
Sketch
62
32
0
VERTEX
8
Sketch
10
-0.75
20
-25.05
0
VERTEX
8
Sketch
10
-0.45
20
-24.9
0
VERTEX
8
Sketch
10
0
20
-24.9
0
SEQEND
0
POLYLINE
66
1
8
Sketch
62
32
0
VERTEX
8
Sketch
10
0
20
-21.15
0
VERTEX
8
Sketch
10
0.45
20
-21.15
0
VERTEX
8
Sketch
10
0.75
20
-20.85
0
SEQEND
0
POLYLINE
66
1
8
Sketch
62
32
0
VERTEX
8
Sketch
10
-0.3
20
-18.3
0
VERTEX
8
Sketch
10
0
20
-18.45
0
VERTEX
8
Sketch
10
0.45
20
-18.3
0
VERTEX
8
Sketch
10
1.05
20
-18.45
0
SEQEND
0
POLYLINE
66
1
8
Sketch
62
32
0
VERTEX
8
Sketch
10
0.6
20
-15.9
0
VERTEX
8
Sketch
10
0.9
20
-16.2
0
VERTEX
8
Sketch
10
1.35
20
-16.2
0
SEQEND
0
POLYLINE
66
1
8
Sketch
62
32
0
VERTEX
8
Sketch
10
-0.3
20
-12
0
VERTEX
8
Sketch
10
0
20
-12.15
0
SEQEND
0
POLYLINE
66
1
8
Sketch
62
32
0
VERTEX
8
Sketch
10
-0.6
20
-12.45
0
VERTEX
8
Sketch
10
0
20
-12
0
VERTEX
8
Sketch
10
0.3
20
-12
0
SEQEND
0
POLYLINE
66
1
8
Sketch
62
32
0
VERTEX
8
Sketch
10
-2.1
20
-13.65
0
VERTEX
8
Sketch
10
-1.8
20
-13.65
0
SEQEND
0
POLYLINE
66
1
8
Sketch
62
32
0
VERTEX
8
Sketch
10
-4.2
20
-14.7
0
VERTEX
8
Sketch
10
-2.7
20
-14.1
0
VERTEX
8
Sketch
10
-1.95
20
-14.1
0
SEQEND
0
POLYLINE
66
1
8
Sketch
62
32
0
VERTEX
8
Sketch
10
-5.25
20
-19.05
0
VERTEX
8
Sketch
10
-4.2
20
-19.05
0
VERTEX
8
Sketch
10
-3.9
20
-19.2
0
VERTEX
8
Sketch
10
-3.6
20
-19.05
0
SEQEND
0
POLYLINE
66
1
8
Sketch
62
32
0
VERTEX
8
Sketch
10
-6.3
20
-15.6
0
VERTEX
8
Sketch
10
-5.25
20
-15.6
0
SEQEND
0
POLYLINE
66
1
8
Sketch
62
32
0
VERTEX
8
Sketch
10
-7.5
20
-12.6
0
VERTEX
8
Sketch
10
-7.2
20
-12.3
0
VERTEX
8
Sketch
10
-6.9
20
-12.3
0
SEQEND
0
POLYLINE
66
1
8
Sketch
62
32
0
VERTEX
8
Sketch
10
-6.15
20
-14.85
0
VERTEX
8
Sketch
10
-5.7
20
-15
0
VERTEX
8
Sketch
10
-5.1
20
-14.7
0
SEQEND
0
POLYLINE
66
1
8
Sketch
62
32
0
VERTEX
8
Sketch
10
-5.25
20
-12
0
VERTEX
8
Sketch
10
-4.95
20
-12.3
0
VERTEX
8
Sketch
10
-4.65
20
-12.15
0
VERTEX
8
Sketch
10
-4.2
20
-12.15
0
VERTEX
8
Sketch
10
-3.9
20
-11.85
0
VERTEX
8
Sketch
10
-3.6
20
-11.85
0
SEQEND
0
POLYLINE
66
1
8
Sketch
62
32
0
VERTEX
8
Sketch
10
-2.85
20
-7.35
0
VERTEX
8
Sketch
10
-2.55
20
-7.5
0
VERTEX
8
Sketch
10
-2.25
20
-7.35
0
SEQEND
0
POLYLINE
66
1
8
Sketch
62
32
0
VERTEX
8
Sketch
10
-2.4
20
-8.25
0
VERTEX
8
Sketch
10
-2.1
20
-7.2
0
VERTEX
8
Sketch
10
-0.75
20
-6.6
0
SEQEND
0
POLYLINE
66
1
8
Sketch
62
32
0
VERTEX
8
Sketch
10
-2.55
20
-10.35
0
VERTEX
8
Sketch
10
-1.65
20
-10.35
0
VERTEX
8
Sketch
10
-1.05
20
-10.2
0
SEQEND
0
POLYLINE
66
1
8
Sketch
62
32
0
VERTEX
8
Sketch
10
-3
20
-16.2
0
VERTEX
8
Sketch
10
-2.7
20
-16.35
0
VERTEX
8
Sketch
10
-1.65
20
-15.9
0
VERTEX
8
Sketch
10
-1.35
20
-15.9
0
SEQEND
0
POLYLINE
66
1
8
Sketch
62
0
0
VERTEX
8
Sketch
10
14.1
20
-32.7
0
VERTEX
8
Sketch
10
13.95
20
-33
0
VERTEX
8
Sketch
10
14.55
20
-34.35
0
VERTEX
8
Sketch
10
14.55
20
-34.65
0
VERTEX
8
Sketch
10
15.45
20
-36.75
0
VERTEX
8
Sketch
10
15.6
20
-37.5
0
VERTEX
8
Sketch
10
16.35
20
-38.7
0
VERTEX
8
Sketch
10
16.5
20
-39.3
0
VERTEX
8
Sketch
10
16.8
20
-39.6
0
VERTEX
8
Sketch
10
16.8
20
-39.9
0
VERTEX
8
Sketch
10
18.6
20
-43.5
0
VERTEX
8
Sketch
10
18.6
20
-43.8
0
VERTEX
8
Sketch
10
19.2
20
-44.7
0
VERTEX
8
Sketch
10
19.35
20
-45.45
0
VERTEX
8
Sketch
10
19.65
20
-46.05
0
VERTEX
8
Sketch
10
19.8
20
-46.8
0
SEQEND
0
POLYLINE
66
1
8
Sketch
62
0
0
VERTEX
8
Sketch
10
3.15
20
-40.8
0
VERTEX
8
Sketch
10
3.75
20
-41.7
0
VERTEX
8
Sketch
10
4.65
20
-43.5
0
VERTEX
8
Sketch
10
4.65
20
-43.95
0
VERTEX
8
Sketch
10
4.8
20
-44.55
0
VERTEX
8
Sketch
10
3.9
20
-46.5
0
VERTEX
8
Sketch
10
3.45
20
-47.1
0
VERTEX
8
Sketch
10
3.45
20
-47.4
0
VERTEX
8
Sketch
10
3.15
20
-48
0
VERTEX
8
Sketch
10
3.15
20
-48.3
0
VERTEX
8
Sketch
10
3
20
-48.6
0
SEQEND
0
POLYLINE
66
1
8
Sketch
62
0
0
VERTEX
8
Sketch
10
9.3
20
-56.55
0
VERTEX
8
Sketch
10
9.3
20
-54.9
0
VERTEX
8
Sketch
10
10.5
20
-53.1
0
VERTEX
8
Sketch
10
10.8
20
-52.95
0
VERTEX
8
Sketch
10
11.1
20
-53.25
0
VERTEX
8
Sketch
10
11.4
20
-53.25
0
SEQEND
0
POINT
8
Sketch
62
0
10
8.55
20
-57
0
POINT
8
Sketch
62
0
10
9.75
20
-55.8
0
POINT
8
Sketch
62
0
10
24.45
20
-57.3
0
POLYLINE
66
1
8
Sketch
62
0
0
VERTEX
8
Sketch
10
-9.3
20
-14.85
0
VERTEX
8
Sketch
10
-8.7
20
-15.3
0
VERTEX
8
Sketch
10
-7.95
20
-16.8
0
VERTEX
8
Sketch
10
-7.95
20
-17.25
0
VERTEX
8
Sketch
10
-7.65
20
-17.85
0
VERTEX
8
Sketch
10
-7.65
20
-18.75
0
VERTEX
8
Sketch
10
-7.35
20
-19.35
0
VERTEX
8
Sketch
10
-6.9
20
-21.45
0
VERTEX
8
Sketch
10
-4.2
20
-27.3
0
VERTEX
8
Sketch
10
-3.6
20
-28.8
0
VERTEX
8
Sketch
10
-3.6
20
-29.25
0
VERTEX
8
Sketch
10
-2.85
20
-30.9
0
VERTEX
8
Sketch
10
-2.85
20
-31.35
0
VERTEX
8
Sketch
10
-1.2
20
-35.25
0
VERTEX
8
Sketch
10
-0.45
20
-36.15
0
VERTEX
8
Sketch
10
0
20
-36.9
0
VERTEX
8
Sketch
10
0.6
20
-37.35
0
VERTEX
8
Sketch
10
1.8
20
-38.85
0
VERTEX
8
Sketch
10
2.1
20
-39.6
0
VERTEX
8
Sketch
10
2.7
20
-40.5
0
VERTEX
8
Sketch
10
2.7
20
-40.8
0
VERTEX
8
Sketch
10
3.15
20
-41.7
0
VERTEX
8
Sketch
10
3.45
20
-41.85
0
VERTEX
8
Sketch
10
3.6
20
-42.15
0
VERTEX
8
Sketch
10
3.9
20
-42
0
VERTEX
8
Sketch
10
5.4
20
-43.65
0
VERTEX
8
Sketch
10
5.7
20
-44.25
0
SEQEND
0
POLYLINE
66
1
8
Sketch
62
0
0
VERTEX
8
Sketch
10
8.7
20
-24.45
0
VERTEX
8
Sketch
10
9.45
20
-25.05
0
VERTEX
8
Sketch
10
9.75
20
-25.05
0
VERTEX
8
Sketch
10
10.65
20
-26.25
0
VERTEX
8
Sketch
10
11.7
20
-28.35
0
VERTEX
8
Sketch
10
12.15
20
-28.95
0
VERTEX
8
Sketch
10
12.15
20
-29.25
0
VERTEX
8
Sketch
10
13.35
20
-31.2
0
VERTEX
8
Sketch
10
13.65
20
-31.35
0
VERTEX
8
Sketch
10
13.95
20
-32.1
0
VERTEX
8
Sketch
10
14.55
20
-33
0
VERTEX
8
Sketch
10
14.55
20
-34.5
0
SEQEND
0
POLYLINE
66
1
8
Sketch
62
0
0
VERTEX
8
Sketch
10
2.25
20
-11.25
0
VERTEX
8
Sketch
10
1.65
20
-10.8
0
VERTEX
8
Sketch
10
1.35
20
-11.1
0
VERTEX
8
Sketch
10
1.5
20
-11.7
0
VERTEX
8
Sketch
10
1.5
20
-12.3
0
VERTEX
8
Sketch
10
1.8
20
-13.35
0
VERTEX
8
Sketch
10
2.85
20
-14.85
0
VERTEX
8
Sketch
10
3.3
20
-15.75
0
VERTEX
8
Sketch
10
3.3
20
-16.2
0
VERTEX
8
Sketch
10
3.9
20
-17.1
0
VERTEX
8
Sketch
10
3.9
20
-17.4
0
VERTEX
8
Sketch
10
4.5
20
-18.45
0
VERTEX
8
Sketch
10
5.4
20
-19.95
0
VERTEX
8
Sketch
10
5.85
20
-21
0
VERTEX
8
Sketch
10
6.45
20
-22.05
0
VERTEX
8
Sketch
10
7.35
20
-23.4
0
VERTEX
8
Sketch
10
8.1
20
-24.3
0
VERTEX
8
Sketch
10
9.3
20
-24.75
0
SEQEND
0
POLYLINE
66
1
8
Sketch
62
0
0
VERTEX
8
Sketch
10
47.55
20
-22.5
0
VERTEX
8
Sketch
10
47.25
20
-22.8
0
SEQEND
0
POLYLINE
66
1
8
Sketch
62
0
0
VERTEX
8
Sketch
10
-12.15
20
-8.25
0
VERTEX
8
Sketch
10
-11.85
20
-8.55
0
VERTEX
8
Sketch
10
-11.55
20
-8.55
0
VERTEX
8
Sketch
10
-10.65
20
-9
0
VERTEX
8
Sketch
10
-9.9
20
-10.2
0
VERTEX
8
Sketch
10
-9.6
20
-11.85
0
VERTEX
8
Sketch
10
-9.6
20
-12.45
0
VERTEX
8
Sketch
10
-9.45
20
-13.2
0
VERTEX
8
Sketch
10
-9.45
20
-13.8
0
VERTEX
8
Sketch
10
-9.3
20
-14.1
0
VERTEX
8
Sketch
10
-9.3
20
-14.85
0
VERTEX
8
Sketch
10
-9.15
20
-15.45
0
VERTEX
8
Sketch
10
-9.15
20
-15.75
0
SEQEND
0
POINT
8
Sketch
62
32
10
48.6
20
-26.25
0
POINT
8
Sketch
62
32
10
13.2
20
2.4
0
POLYLINE
66
1
8
Sketch
62
32
0
VERTEX
8
Sketch
10
19.65
20
9.15
0
VERTEX
8
Sketch
10
20.4
20
9.3
0
SEQEND
0
POLYLINE
66
1
8
Sketch
62
32
0
VERTEX
8
Sketch
10
19.05
20
11.85
0
VERTEX
8
Sketch
10
19.95
20
11.85
0
VERTEX
8
Sketch
10
20.25
20
12
0
VERTEX
8
Sketch
10
20.7
20
12
0
VERTEX
8
Sketch
10
21
20
12.15
0
SEQEND
0
POLYLINE
66
1
8
Sketch
62
32
0
VERTEX
8
Sketch
10
14.4
20
12.9
0
VERTEX
8
Sketch
10
15.15
20
12.75
0
SEQEND
0
POINT
8
Sketch
62
32
10
12.9
20
12
0
POLYLINE
66
1
8
Sketch
62
32
0
VERTEX
8
Sketch
10
11.25
20
7.35
0
VERTEX
8
Sketch
10
11.55
20
7.2
0
SEQEND
0
POLYLINE
66
1
8
Sketch
62
32
0
VERTEX
8
Sketch
10
10.35
20
9.6
0
VERTEX
8
Sketch
10
10.2
20
9.3
0
VERTEX
8
Sketch
10
10.8
20
8.7
0
VERTEX
8
Sketch
10
11.7
20
8.7
0
SEQEND
0
POLYLINE
66
1
8
Sketch
62
32
0
VERTEX
8
Sketch
10
12.15
20
11.25
0
VERTEX
8
Sketch
10
12.45
20
11.25
0
SEQEND
0
POLYLINE
66
1
8
Sketch
62
32
0
VERTEX
8
Sketch
10
12.6
20
7.5
0
VERTEX
8
Sketch
10
12.9
20
7.65
0
SEQEND
0
POLYLINE
66
1
8
Sketch
62
32
0
VERTEX
8
Sketch
10
10.8
20
3.3
0
VERTEX
8
Sketch
10
11.1
20
3.15
0
VERTEX
8
Sketch
10
11.4
20
3.3
0
VERTEX
8
Sketch
10
11.85
20
3.3
0
SEQEND
0
POLYLINE
66
1
8
Sketch
62
32
0
VERTEX
8
Sketch
10
1.5
20
-6
0
VERTEX
8
Sketch
10
2.55
20
-6
0
SEQEND
0
POINT
8
Sketch
62
32
10
46.05
20
-45.45
0
POLYLINE
66
1
8
Sketch
62
32
0
VERTEX
8
Sketch
10
29.4
20
-18.9
0
VERTEX
8
Sketch
10
29.7
20
-18.75
0
VERTEX
8
Sketch
10
29.85
20
-18.45
0
SEQEND
0
POLYLINE
66
1
8
Sketch
62
32
0
VERTEX
8
Sketch
10
28.05
20
-22.35
0
VERTEX
8
Sketch
10
28.95
20
-22.35
0
VERTEX
8
Sketch
10
29.7
20
-22.2
0
SEQEND
0
POLYLINE
66
1
8
Sketch
62
32
0
VERTEX
8
Sketch
10
25.2
20
-26.55
0
VERTEX
8
Sketch
10
26.4
20
-26.25
0
SEQEND
0
POLYLINE
66
1
8
Sketch
62
32
0
VERTEX
8
Sketch
10
22.5
20
-20.85
0
VERTEX
8
Sketch
10
23.1
20
-20.55
0
VERTEX
8
Sketch
10
25.05
20
-20.4
0
VERTEX
8
Sketch
10
26.4
20
-20.1
0
SEQEND
0
POLYLINE
66
1
8
Sketch
62
32
0
VERTEX
8
Sketch
10
26.7
20
-24.15
0
VERTEX
8
Sketch
10
27.3
20
-24.6
0
VERTEX
8
Sketch
10
27.75
20
-24.6
0
SEQEND
0
POLYLINE
66
1
8
Sketch
62
32
0
VERTEX
8
Sketch
10
27.15
20
-21
0
VERTEX
8
Sketch
10
27.75
20
-21
0
SEQEND
0
POLYLINE
66
1
8
Sketch
62
0
0
VERTEX
8
Sketch
10
32.85
20
-22.8
0
VERTEX
8
Sketch
10
33.15
20
-23.7
0
VERTEX
8
Sketch
10
33.15
20
-24.15
0
VERTEX
8
Sketch
10
33.3
20
-24.75
0
VERTEX
8
Sketch
10
33.3
20
-26.55
0
VERTEX
8
Sketch
10
33.9
20
-28.95
0
VERTEX
8
Sketch
10
33.9
20
-29.25
0
VERTEX
8
Sketch
10
34.05
20
-29.55
0
VERTEX
8
Sketch
10
33.9
20
-29.85
0
VERTEX
8
Sketch
10
34.05
20
-30.45
0
VERTEX
8
Sketch
10
34.35
20
-30.75
0
VERTEX
8
Sketch
10
34.5
20
-31.2
0
VERTEX
8
Sketch
10
34.8
20
-31.5
0
VERTEX
8
Sketch
10
34.8
20
-31.05
0
SEQEND
0
POLYLINE
66
1
8
Sketch
62
0
0
VERTEX
8
Sketch
10
32.55
20
-27.45
0
VERTEX
8
Sketch
10
32.55
20
-27.75
0
VERTEX
8
Sketch
10
32.1
20
-28.05
0
VERTEX
8
Sketch
10
31.95
20
-29.4
0
VERTEX
8
Sketch
10
31.95
20
-30
0
VERTEX
8
Sketch
10
32.25
20
-30.6
0
VERTEX
8
Sketch
10
32.55
20
-30.75
0
VERTEX
8
Sketch
10
33.45
20
-30.15
0
VERTEX
8
Sketch
10
33.6
20
-29.55
0
VERTEX
8
Sketch
10
33.6
20
-28.8
0
VERTEX
8
Sketch
10
33.45
20
-28.5
0
SEQEND
0
POLYLINE
66
1
8
Sketch
62
0
0
VERTEX
8
Sketch
10
33
20
-31.2
0
VERTEX
8
Sketch
10
32.85
20
-30.9
0
VERTEX
8
Sketch
10
32.55
20
-30.9
0
VERTEX
8
Sketch
10
31.95
20
-31.8
0
VERTEX
8
Sketch
10
31.95
20
-32.1
0
VERTEX
8
Sketch
10
32.55
20
-33
0
VERTEX
8
Sketch
10
33.45
20
-32.4
0
VERTEX
8
Sketch
10
33.6
20
-31.8
0
VERTEX
8
Sketch
10
33.6
20
-31.05
0
VERTEX
8
Sketch
10
33.15
20
-30.45
0
SEQEND
0
POLYLINE
66
1
8
Sketch
62
0
0
VERTEX
8
Sketch
10
30
20
-33.3
0
VERTEX
8
Sketch
10
29.7
20
-33.3
0
VERTEX
8
Sketch
10
30.45
20
-34.5
0
VERTEX
8
Sketch
10
30.75
20
-34.65
0
VERTEX
8
Sketch
10
31.2
20
-34.5
0
VERTEX
8
Sketch
10
32.4
20
-33.75
0
VERTEX
8
Sketch
10
32.7
20
-33.3
0
VERTEX
8
Sketch
10
32.4
20
-32.7
0
VERTEX
8
Sketch
10
32.1
20
-32.55
0
SEQEND
0
POLYLINE
66
1
8
Sketch
62
0
0
VERTEX
8
Sketch
10
33.15
20
-31.5
0
VERTEX
8
Sketch
10
32.7
20
-31.8
0
VERTEX
8
Sketch
10
32.4
20
-31.8
0
VERTEX
8
Sketch
10
31.2
20
-32.25
0
VERTEX
8
Sketch
10
30.6
20
-33.6
0
VERTEX
8
Sketch
10
30.6
20
-33.9
0
VERTEX
8
Sketch
10
30.45
20
-34.5
0
VERTEX
8
Sketch
10
30.75
20
-34.8
0
VERTEX
8
Sketch
10
31.35
20
-34.65
0
VERTEX
8
Sketch
10
31.95
20
-34.65
0
VERTEX
8
Sketch
10
32.85
20
-34.05
0
VERTEX
8
Sketch
10
32.85
20
-33.45
0
VERTEX
8
Sketch
10
32.4
20
-32.85
0
VERTEX
8
Sketch
10
31.2
20
-32.25
0
SEQEND
0
POLYLINE
66
1
8
Sketch
62
0
0
VERTEX
8
Sketch
10
16.8
20
-26.25
0
VERTEX
8
Sketch
10
17.25
20
-26.85
0
VERTEX
8
Sketch
10
17.85
20
-27
0
VERTEX
8
Sketch
10
18.45
20
-27
0
VERTEX
8
Sketch
10
19.05
20
-27.3
0
VERTEX
8
Sketch
10
20.25
20
-27.3
0
VERTEX
8
Sketch
10
21
20
-27.6
0
VERTEX
8
Sketch
10
21.6
20
-27.45
0
VERTEX
8
Sketch
10
22.2
20
-27.6
0
VERTEX
8
Sketch
10
22.5
20
-27.6
0
VERTEX
8
Sketch
10
24.15
20
-28.35
0
VERTEX
8
Sketch
10
24.45
20
-28.35
0
VERTEX
8
Sketch
10
25.35
20
-28.65
0
VERTEX
8
Sketch
10
25.95
20
-28.5
0
VERTEX
8
Sketch
10
26.55
20
-28.8
0
VERTEX
8
Sketch
10
26.85
20
-28.8
0
VERTEX
8
Sketch
10
27.45
20
-29.1
0
VERTEX
8
Sketch
10
28.05
20
-29.1
0
VERTEX
8
Sketch
10
28.35
20
-29.25
0
VERTEX
8
Sketch
10
28.95
20
-29.1
0
VERTEX
8
Sketch
10
30.15
20
-29.85
0
VERTEX
8
Sketch
10
30.45
20
-31.05
0
VERTEX
8
Sketch
10
30.45
20
-31.35
0
VERTEX
8
Sketch
10
29.85
20
-33.6
0
VERTEX
8
Sketch
10
29.7
20
-34.2
0
VERTEX
8
Sketch
10
30
20
-34.2
0
SEQEND
0
POLYLINE
66
1
8
Sketch
62
0
0
VERTEX
8
Sketch
10
30.15
20
-15.9
0
VERTEX
8
Sketch
10
30.75
20
-16.05
0
VERTEX
8
Sketch
10
31.05
20
-16.05
0
VERTEX
8
Sketch
10
33.15
20
-17.4
0
VERTEX
8
Sketch
10
33.75
20
-17.85
0
VERTEX
8
Sketch
10
34.05
20
-18.45
0
VERTEX
8
Sketch
10
34.05
20
-18.75
0
VERTEX
8
Sketch
10
34.2
20
-19.35
0
VERTEX
8
Sketch
10
34.05
20
-19.95
0
VERTEX
8
Sketch
10
34.05
20
-20.85
0
VERTEX
8
Sketch
10
33.45
20
-23.25
0
VERTEX
8
Sketch
10
33.45
20
-23.7
0
VERTEX
8
Sketch
10
33.6
20
-24.3
0
SEQEND
0
POLYLINE
66
1
8
Sketch
62
0
0
VERTEX
8
Sketch
10
31.35
20
-16.2
0
VERTEX
8
Sketch
10
31.95
20
-16.65
0
VERTEX
8
Sketch
10
32.25
20
-16.65
0
VERTEX
8
Sketch
10
32.55
20
-16.95
0
SEQEND
0
POINT
8
Sketch
62
32
10
22.8
20
-17.7
0
POLYLINE
66
1
8
Sketch
62
32
0
VERTEX
8
Sketch
10
24.3
20
-14.25
0
VERTEX
8
Sketch
10
24.9
20
-14.25
0
SEQEND
0
POLYLINE
66
1
8
Sketch
62
32
0
VERTEX
8
Sketch
10
24.75
20
-15.6
0
VERTEX
8
Sketch
10
25.35
20
-15.45
0
SEQEND
0
POLYLINE
66
1
8
Sketch
62
32
0
VERTEX
8
Sketch
10
25.05
20
-18.3
0
VERTEX
8
Sketch
10
25.35
20
-18.3
0
VERTEX
8
Sketch
10
25.65
20
-18.45
0
VERTEX
8
Sketch
10
26.55
20
-18.45
0
SEQEND
0
POINT
8
Sketch
62
32
10
27.6
20
-18.45
0
POLYLINE
66
1
8
Sketch
62
32
0
VERTEX
8
Sketch
10
24.3
20
-16.35
0
VERTEX
8
Sketch
10
24.6
20
-16.35
0
SEQEND
0
POLYLINE
66
1
8
Sketch
62
32
0
VERTEX
8
Sketch
10
21.9
20
-17.55
0
VERTEX
8
Sketch
10
22.2
20
-17.55
0
SEQEND
0
POLYLINE
66
1
8
Sketch
62
32
0
VERTEX
8
Sketch
10
19.65
20
-20.7
0
VERTEX
8
Sketch
10
20.25
20
-20.4
0
SEQEND
0
POLYLINE
66
1
8
Sketch
62
32
0
VERTEX
8
Sketch
10
16.05
20
-23.1
0
VERTEX
8
Sketch
10
16.35
20
-23.4
0
VERTEX
8
Sketch
10
16.95
20
-23.25
0
SEQEND
0
POLYLINE
66
1
8
Sketch
62
32
0
VERTEX
8
Sketch
10
9.3
20
-19.05
0
VERTEX
8
Sketch
10
10.05
20
-19.2
0
VERTEX
8
Sketch
10
10.8
20
-19.2
0
SEQEND
0
POLYLINE
66
1
8
Sketch
62
32
0
VERTEX
8
Sketch
10
12.3
20
-17.1
0
VERTEX
8
Sketch
10
13.05
20
-16.95
0
SEQEND
0
POLYLINE
66
1
8
Sketch
62
32
0
VERTEX
8
Sketch
10
14.55
20
-19.65
0
VERTEX
8
Sketch
10
15.15
20
-19.2
0
VERTEX
8
Sketch
10
17.1
20
-18.75
0
SEQEND
0
POLYLINE
66
1
8
Sketch
62
32
0
VERTEX
8
Sketch
10
15.9
20
-20.85
0
VERTEX
8
Sketch
10
16.65
20
-21.3
0
SEQEND
0
POLYLINE
66
1
8
Sketch
62
32
0
VERTEX
8
Sketch
10
18.75
20
-18
0
VERTEX
8
Sketch
10
19.05
20
-18.3
0
VERTEX
8
Sketch
10
19.35
20
-18.3
0
SEQEND
0
POLYLINE
66
1
8
Sketch
62
32
0
VERTEX
8
Sketch
10
20.55
20
-13.2
0
VERTEX
8
Sketch
10
20.85
20
-13.35
0
VERTEX
8
Sketch
10
21.3
20
-13.35
0
VERTEX
8
Sketch
10
21.9
20
-13.5
0
SEQEND
0
POLYLINE
66
1
8
Sketch
62
32
0
VERTEX
8
Sketch
10
17.1
20
-11.25
0
VERTEX
8
Sketch
10
17.4
20
-11.55
0
VERTEX
8
Sketch
10
18
20
-11.4
0
SEQEND
0
POLYLINE
66
1
8
Sketch
62
32
0
VERTEX
8
Sketch
10
15.9
20
-13.2
0
VERTEX
8
Sketch
10
16.65
20
-13.05
0
VERTEX
8
Sketch
10
16.95
20
-12.9
0
VERTEX
8
Sketch
10
17.25
20
-12.45
0
SEQEND
0
POLYLINE
66
1
8
Sketch
62
32
0
VERTEX
8
Sketch
10
17.25
20
-15.45
0
VERTEX
8
Sketch
10
17.55
20
-15.3
0
VERTEX
8
Sketch
10
18
20
-15.3
0
VERTEX
8
Sketch
10
18.3
20
-15.45
0
VERTEX
8
Sketch
10
18.6
20
-15.3
0
VERTEX
8
Sketch
10
19.05
20
-15.3
0
SEQEND
0
POINT
8
Sketch
62
32
10
11.85
20
-13.95
0
POLYLINE
66
1
8
Sketch
62
32
0
VERTEX
8
Sketch
10
21
20
9.6
0
VERTEX
8
Sketch
10
21.3
20
9.75
0
SEQEND
0
POINT
8
Sketch
62
32
10
20.85
20
11.85
0
POINT
8
Sketch
62
32
10
19.95
20
12
0
POINT
8
Sketch
62
32
10
19.95
20
10.35
0
POLYLINE
66
1
8
Sketch
62
32
0
VERTEX
8
Sketch
10
19.2
20
7.8
0
VERTEX
8
Sketch
10
19.8
20
7.95
0
SEQEND
0
POLYLINE
66
1
8
Sketch
62
32
0
VERTEX
8
Sketch
10
13.8
20
4.05
0
VERTEX
8
Sketch
10
15.3
20
4.35
0
SEQEND
0
POLYLINE
66
1
8
Sketch
62
32
0
VERTEX
8
Sketch
10
13.65
20
7.95
0
VERTEX
8
Sketch
10
13.65
20
7.65
0
VERTEX
8
Sketch
10
14.4
20
7.65
0
VERTEX
8
Sketch
10
14.7
20
7.8
0
VERTEX
8
Sketch
10
15.15
20
7.8
0
SEQEND
0
POLYLINE
66
1
8
Sketch
62
32
0
VERTEX
8
Sketch
10
17.25
20
9.9
0
VERTEX
8
Sketch
10
17.85
20
9.9
0
SEQEND
0
POLYLINE
66
1
8
Sketch
62
32
0
VERTEX
8
Sketch
10
15
20
12.9
0
VERTEX
8
Sketch
10
15.3
20
12.75
0
VERTEX
8
Sketch
10
15.75
20
12.75
0
SEQEND
0
POLYLINE
66
1
8
Sketch
62
32
0
VERTEX
8
Sketch
10
18
20
11.4
0
VERTEX
8
Sketch
10
18.3
20
11.55
0
SEQEND
0
POLYLINE
66
1
8
Sketch
62
32
0
VERTEX
8
Sketch
10
8.7
20
1.95
0
VERTEX
8
Sketch
10
9.45
20
2.4
0
SEQEND
0
POLYLINE
66
1
8
Sketch
62
32
0
VERTEX
8
Sketch
10
13.2
20
-10.2
0
VERTEX
8
Sketch
10
13.65
20
-10.05
0
SEQEND
0
POLYLINE
66
1
8
Sketch
62
32
0
VERTEX
8
Sketch
10
14.4
20
-11.55
0
VERTEX
8
Sketch
10
14.7
20
-11.4
0
SEQEND
0
POLYLINE
66
1
8
Sketch
62
32
0
VERTEX
8
Sketch
10
13.05
20
-13.05
0
VERTEX
8
Sketch
10
13.35
20
-13.05
0
SEQEND
0
POLYLINE
66
1
8
Sketch
62
32
0
VERTEX
8
Sketch
10
11.55
20
-15.6
0
VERTEX
8
Sketch
10
13.35
20
-14.7
0
SEQEND
0
POLYLINE
66
1
8
Sketch
62
32
0
VERTEX
8
Sketch
10
11.85
20
-20.4
0
VERTEX
8
Sketch
10
13.05
20
-20.55
0
SEQEND
0
POLYLINE
66
1
8
Sketch
62
32
0
VERTEX
8
Sketch
10
11.25
20
-17.55
0
VERTEX
8
Sketch
10
11.55
20
-17.55
0
VERTEX
8
Sketch
10
12.15
20
-17.25
0
SEQEND
0
POLYLINE
66
1
8
Sketch
62
32
0
VERTEX
8
Sketch
10
6.75
20
-14.7
0
VERTEX
8
Sketch
10
8.1
20
-14.4
0
SEQEND
0
POLYLINE
66
1
8
Sketch
62
32
0
VERTEX
8
Sketch
10
10.35
20
-11.25
0
VERTEX
8
Sketch
10
10.65
20
-11.4
0
VERTEX
8
Sketch
10
11.25
20
-11.25
0
SEQEND
0
POLYLINE
66
1
8
Sketch
62
32
0
VERTEX
8
Sketch
10
7.8
20
-10.05
0
VERTEX
8
Sketch
10
8.55
20
-10.05
0
VERTEX
8
Sketch
10
9.6
20
-9.6
0
SEQEND
0
POLYLINE
66
1
8
Sketch
62
32
0
VERTEX
8
Sketch
10
4.5
20
-10.65
0
VERTEX
8
Sketch
10
6.6
20
-9.6
0
VERTEX
8
Sketch
10
6.9
20
-9.6
0
SEQEND
0
POLYLINE
66
1
8
Sketch
62
32
0
VERTEX
8
Sketch
10
8.1
20
-13.5
0
VERTEX
8
Sketch
10
8.7
20
-13.5
0
VERTEX
8
Sketch
10
9.3
20
-13.2
0
SEQEND
0
POLYLINE
66
1
8
Sketch
62
0
0
VERTEX
8
Sketch
10
-0.9
20
-9
0
VERTEX
8
Sketch
10
-0.6
20
-9
0
VERTEX
8
Sketch
10
0
20
-9.3
0
VERTEX
8
Sketch
10
0.3
20
-9.15
0
VERTEX
8
Sketch
10
2.4
20
-10.95
0
VERTEX
8
Sketch
10
3.45
20
-12.45
0
VERTEX
8
Sketch
10
3.9
20
-13.35
0
VERTEX
8
Sketch
10
3.9
20
-13.8
0
VERTEX
8
Sketch
10
4.5
20
-15
0
SEQEND
0
POINT
8
Sketch
62
0
10
0
20
-8.7
0
POINT
8
Sketch
62
0
10
-11.25
20
34.8
0
POLYLINE
66
1
8
Sketch
62
0
0
VERTEX
8
Sketch
10
-0.75
20
-9
0
VERTEX
8
Sketch
10
-0.45
20
-9
0
VERTEX
8
Sketch
10
1.05
20
-9.6
0
VERTEX
8
Sketch
10
1.35
20
-9.6
0
VERTEX
8
Sketch
10
1.5
20
-9.9
0
VERTEX
8
Sketch
10
1.8
20
-10.05
0
SEQEND
0
POLYLINE
66
1
8
Sketch
62
0
0
VERTEX
8
Sketch
10
4.2
20
-14.25
0
VERTEX
8
Sketch
10
4.8
20
-15.15
0
VERTEX
8
Sketch
10
5.85
20
-16.35
0
VERTEX
8
Sketch
10
7.2
20
-18
0
VERTEX
8
Sketch
10
7.5
20
-18.75
0
VERTEX
8
Sketch
10
7.8
20
-19.05
0
VERTEX
8
Sketch
10
7.95
20
-19.5
0
VERTEX
8
Sketch
10
9.6
20
-21.6
0
VERTEX
8
Sketch
10
10.05
20
-21.9
0
VERTEX
8
Sketch
10
10.65
20
-22.8
0
VERTEX
8
Sketch
10
12
20
-23.7
0
VERTEX
8
Sketch
10
13.2
20
-24.6
0
VERTEX
8
Sketch
10
13.5
20
-24.6
0
VERTEX
8
Sketch
10
14.1
20
-25.05
0
VERTEX
8
Sketch
10
14.7
20
-25.05
0
VERTEX
8
Sketch
10
15.3
20
-25.65
0
VERTEX
8
Sketch
10
15.6
20
-25.65
0
VERTEX
8
Sketch
10
17.1
20
-27
0
SEQEND
0
POLYLINE
66
1
8
Sketch
62
0
0
VERTEX
8
Sketch
10
-0.45
20
-8.1
0
VERTEX
8
Sketch
10
0
20
-9.15
0
VERTEX
8
Sketch
10
0.6
20
-9.6
0
VERTEX
8
Sketch
10
0.9
20
-9.6
0
VERTEX
8
Sketch
10
1.2
20
-9.9
0
VERTEX
8
Sketch
10
1.8
20
-9.9
0
SEQEND
0
POLYLINE
66
1
8
Sketch
62
0
0
VERTEX
8
Sketch
10
10.05
20
-5.25
0
VERTEX
8
Sketch
10
10.5
20
-5.85
0
VERTEX
8
Sketch
10
12.6
20
-6.75
0
VERTEX
8
Sketch
10
13.5
20
-7.35
0
VERTEX
8
Sketch
10
13.8
20
-7.35
0
VERTEX
8
Sketch
10
15.75
20
-8.25
0
VERTEX
8
Sketch
10
16.35
20
-8.7
0
VERTEX
8
Sketch
10
16.65
20
-8.7
0
VERTEX
8
Sketch
10
17.85
20
-9.45
0
VERTEX
8
Sketch
10
18.9
20
-9.9
0
VERTEX
8
Sketch
10
19.2
20
-9.75
0
VERTEX
8
Sketch
10
19.5
20
-10.05
0
VERTEX
8
Sketch
10
19.8
20
-10.05
0
VERTEX
8
Sketch
10
20.4
20
-10.5
0
VERTEX
8
Sketch
10
21.9
20
-11.1
0
VERTEX
8
Sketch
10
22.35
20
-11.1
0
VERTEX
8
Sketch
10
24.75
20
-12.6
0
VERTEX
8
Sketch
10
25.05
20
-12.9
0
VERTEX
8
Sketch
10
25.5
20
-12.9
0
VERTEX
8
Sketch
10
26.55
20
-13.5
0
VERTEX
8
Sketch
10
28.2
20
-14.4
0
VERTEX
8
Sketch
10
28.8
20
-14.7
0
VERTEX
8
Sketch
10
29.1
20
-14.7
0
VERTEX
8
Sketch
10
29.7
20
-15.15
0
VERTEX
8
Sketch
10
30
20
-15.15
0
VERTEX
8
Sketch
10
31.5
20
-16.35
0
VERTEX
8
Sketch
10
32.25
20
-16.35
0
SEQEND
0
POLYLINE
66
1
8
Sketch
62
0
0
VERTEX
8
Sketch
10
9.45
20
-4.8
0
VERTEX
8
Sketch
10
10.35
20
-5.55
0
SEQEND
0
POINT
8
Sketch
62
0
10
9.9
20
-4.5
0
POINT
8
Sketch
62
32
10
6.9
20
-1
0
POLYLINE
66
1
8
Sketch
62
32
0
VERTEX
8
Sketch
10
5.2
20
-2.3
0
VERTEX
8
Sketch
10
5.4
20
-2.4
0
VERTEX
8
Sketch
10
5.8
20
-2.3
0
SEQEND
0
POLYLINE
66
1
8
Sketch
62
32
0
VERTEX
8
Sketch
10
3.4
20
-3.4
0
VERTEX
8
Sketch
10
4
20
-3.1
0
SEQEND
0
POINT
8
Sketch
62
32
10
0.6
20
-4.6
0
POINT
8
Sketch
62
32
10
0.9
20
-6.4
0
POLYLINE
66
1
8
Sketch
62
32
0
VERTEX
8
Sketch
10
2.3
20
-6.1
0
VERTEX
8
Sketch
10
3
20
-5.9
0
SEQEND
0
POLYLINE
66
1
8
Sketch
62
32
0
VERTEX
8
Sketch
10
3.4
20
-1.8
0
VERTEX
8
Sketch
10
3.6
20
-1.8
0
SEQEND
0
POLYLINE
66
1
8
Sketch
62
32
0
VERTEX
8
Sketch
10
3.4
20
5.9
0
VERTEX
8
Sketch
10
3.6
20
5.8
0
SEQEND
0
POLYLINE
66
1
8
Sketch
62
32
0
VERTEX
8
Sketch
10
4
20
8.4
0
VERTEX
8
Sketch
10
5.4
20
8.5
0
SEQEND
0
POLYLINE
66
1
8
Sketch
62
32
0
VERTEX
8
Sketch
10
7.7
20
8.5
0
VERTEX
8
Sketch
10
7.9
20
8.6
0
VERTEX
8
Sketch
10
8.1
20
8.5
0
SEQEND
0
POLYLINE
66
1
8
Sketch
62
32
0
VERTEX
8
Sketch
10
9.3
20
7.3
0
VERTEX
8
Sketch
10
9.5
20
7.2
0
VERTEX
8
Sketch
10
9.8
20
7.3
0
SEQEND
0
POLYLINE
66
1
8
Sketch
62
32
0
VERTEX
8
Sketch
10
8
20
5
0
VERTEX
8
Sketch
10
9
20
5.1
0
VERTEX
8
Sketch
10
9.6
20
5.3
0
SEQEND
0
POLYLINE
66
1
8
Sketch
62
32
0
VERTEX
8
Sketch
10
13.5
20
10.8
0
VERTEX
8
Sketch
10
13.9
20
10.7
0
VERTEX
8
Sketch
10
14.9
20
10.9
0
SEQEND
0
POLYLINE
66
1
8
Sketch
62
32
0
VERTEX
8
Sketch
10
7.8
20
15.8
0
VERTEX
8
Sketch
10
7.1
20
16
0
VERTEX
8
Sketch
10
6.9
20
16
0
VERTEX
8
Sketch
10
7.3
20
16.1
0
VERTEX
8
Sketch
10
7.9
20
15.9
0
SEQEND
0
POLYLINE
66
1
8
Sketch
62
32
0
VERTEX
8
Sketch
10
8.6
20
15.3
0
VERTEX
8
Sketch
10
9.3
20
15.3
0
VERTEX
8
Sketch
10
9.8
20
15.4
0
VERTEX
8
Sketch
10
10.3
20
15.4
0
SEQEND
0
POLYLINE
66
1
8
Sketch
62
32
0
VERTEX
8
Sketch
10
9.6
20
14.7
0
VERTEX
8
Sketch
10
9.3
20
14.7
0
VERTEX
8
Sketch
10
8.8
20
14.8
0
VERTEX
8
Sketch
10
9.3
20
14.7
0
SEQEND
0
POLYLINE
66
1
8
Sketch
62
32
0
VERTEX
8
Sketch
10
8.6
20
14
0
VERTEX
8
Sketch
10
8.8
20
14.1
0
VERTEX
8
Sketch
10
9.1
20
14
0
SEQEND
0
POINT
8
Sketch
62
32
10
6.4
20
12.8
0
POLYLINE
66
1
8
Sketch
62
32
0
VERTEX
8
Sketch
10
4.2
20
9.4
0
VERTEX
8
Sketch
10
4.6
20
9.7
0
SEQEND
0
POLYLINE
66
1
8
Sketch
62
32
0
VERTEX
8
Sketch
10
6.6
20
6.5
0
VERTEX
8
Sketch
10
6.8
20
6.5
0
SEQEND
0
POLYLINE
66
1
8
Sketch
62
32
0
VERTEX
8
Sketch
10
7
20
9.9
0
VERTEX
8
Sketch
10
7.7
20
9.7
0
VERTEX
8
Sketch
10
8.4
20
9.7
0
VERTEX
8
Sketch
10
8.6
20
9.8
0
SEQEND
0
POLYLINE
66
1
8
Sketch
62
32
0
VERTEX
8
Sketch
10
9.3
20
12.5
0
VERTEX
8
Sketch
10
9.8
20
12.7
0
VERTEX
8
Sketch
10
10.4
20
12.8
0
VERTEX
8
Sketch
10
10.9
20
13.1
0
SEQEND
0
POLYLINE
66
1
8
Sketch
62
32
0
VERTEX
8
Sketch
10
8.5
20
10.2
0
VERTEX
8
Sketch
10
9
20
10.1
0
VERTEX
8
Sketch
10
9.9
20
10.2
0
VERTEX
8
Sketch
10
10.8
20
10.2
0
SEQEND
0
POINT
8
Sketch
62
32
10
0
20
3.5
0
POINT
8
Sketch
62
32
10
0.4
20
4.2
0
POINT
8
Sketch
62
32
10
1.4
20
5.1
0
POINT
8
Sketch
62
32
10
1.1
20
2.9
0
POLYLINE
66
1
8
Sketch
62
32
0
VERTEX
8
Sketch
10
0.4
20
-0.4
0
VERTEX
8
Sketch
10
1
20
-0.3
0
SEQEND
0
POINT
8
Sketch
62
32
10
0.3
20
-6.8
0
POLYLINE
66
1
8
Sketch
62
32
0
VERTEX
8
Sketch
10
2.1
20
-5.1
0
VERTEX
8
Sketch
10
2.4
20
-5.2
0
SEQEND
0
POLYLINE
66
1
8
Sketch
62
32
0
VERTEX
8
Sketch
10
2.3
20
-2
0
VERTEX
8
Sketch
10
2.5
20
-1.9
0
SEQEND
0
POLYLINE
66
1
8
Sketch
62
32
0
VERTEX
8
Sketch
10
1.9
20
0.8
0
VERTEX
8
Sketch
10
2.3
20
0.7
0
SEQEND
0
POLYLINE
66
1
8
Sketch
62
32
0
VERTEX
8
Sketch
10
1.8
20
4.7
0
VERTEX
8
Sketch
10
2.1
20
4.7
0
SEQEND
0
POLYLINE
66
1
8
Sketch
62
32
0
VERTEX
8
Sketch
10
1.8
20
6.3
0
VERTEX
8
Sketch
10
2.3
20
6.6
0
VERTEX
8
Sketch
10
3.2
20
7
0
SEQEND
0
POLYLINE
66
1
8
Sketch
62
32
0
VERTEX
8
Sketch
10
2.7
20
3.7
0
VERTEX
8
Sketch
10
3.2
20
3.6
0
VERTEX
8
Sketch
10
3.4
20
3.5
0
SEQEND
0
POLYLINE
66
1
8
Sketch
62
32
0
VERTEX
8
Sketch
10
4.5
20
5.3
0
VERTEX
8
Sketch
10
4.6
20
5.1
0
VERTEX
8
Sketch
10
5
20
5.1
0
SEQEND
0
POLYLINE
66
1
8
Sketch
62
32
0
VERTEX
8
Sketch
10
5.8
20
12.1
0
VERTEX
8
Sketch
10
6.2
20
11.5
0
SEQEND
0
POLYLINE
66
1
8
Sketch
62
32
0
VERTEX
8
Sketch
10
4.2
20
16.6
0
VERTEX
8
Sketch
10
4.8
20
16.4
0
SEQEND
0
POLYLINE
66
1
8
Sketch
62
32
0
VERTEX
8
Sketch
10
2.6
20
15.3
0
VERTEX
8
Sketch
10
2.8
20
15.2
0
VERTEX
8
Sketch
10
3.7
20
15.5
0
SEQEND
0
POLYLINE
66
1
8
Sketch
62
32
0
VERTEX
8
Sketch
10
-1.3
20
16
0
VERTEX
8
Sketch
10
-0.1
20
16
0
VERTEX
8
Sketch
10
0.2
20
16.1
0
SEQEND
0
POLYLINE
66
1
8
Sketch
62
32
0
VERTEX
8
Sketch
10
-2.5
20
13.7
0
VERTEX
8
Sketch
10
-2.3
20
13.2
0
VERTEX
8
Sketch
10
-1.4
20
12.9
0
SEQEND
0
POLYLINE
66
1
8
Sketch
62
32
0
VERTEX
8
Sketch
10
-1.4
20
14.1
0
VERTEX
8
Sketch
10
-1.1
20
14.1
0
VERTEX
8
Sketch
10
-0.2
20
14.4
0
SEQEND
0
POLYLINE
66
1
8
Sketch
62
32
0
VERTEX
8
Sketch
10
-1.7
20
9.9
0
VERTEX
8
Sketch
10
-0.8
20
9.5
0
VERTEX
8
Sketch
10
-0.6
20
9.6
0
VERTEX
8
Sketch
10
-0.2
20
9.5
0
SEQEND
0
POLYLINE
66
1
8
Sketch
62
32
0
VERTEX
8
Sketch
10
1.2
20
13.6
0
VERTEX
8
Sketch
10
1.6
20
13.8
0
VERTEX
8
Sketch
10
2.3
20
13.7
0
VERTEX
8
Sketch
10
2.7
20
13.8
0
VERTEX
8
Sketch
10
2.9
20
13.8
0
SEQEND
0
POLYLINE
66
1
8
Sketch
62
32
0
VERTEX
8
Sketch
10
0.6
20
11.6
0
VERTEX
8
Sketch
10
1.1
20
11.4
0
VERTEX
8
Sketch
10
1.8
20
11.4
0
VERTEX
8
Sketch
10
2
20
11.5
0
SEQEND
0
POLYLINE
66
1
8
Sketch
62
0
0
VERTEX
8
Sketch
10
11
20
-7.6
0
VERTEX
8
Sketch
10
10.7
20
-7.1
0
VERTEX
8
Sketch
10
10.1
20
-5.6
0
VERTEX
8
Sketch
10
10
20
-5.2
0
VERTEX
8
Sketch
10
9.9
20
-4.8
0
VERTEX
8
Sketch
10
10
20
-4.4
0
VERTEX
8
Sketch
10
11.1
20
-3
0
VERTEX
8
Sketch
10
11.4
20
-2.7
0
VERTEX
8
Sketch
10
12.1
20
-1.8
0
VERTEX
8
Sketch
10
12.7
20
-1.2
0
VERTEX
8
Sketch
10
12.9
20
-0.7
0
VERTEX
8
Sketch
10
13.4
20
-0.2
0
VERTEX
8
Sketch
10
14.4
20
0.5
0
VERTEX
8
Sketch
10
14.6
20
0.5
0
VERTEX
8
Sketch
10
14.9
20
0.8
0
VERTEX
8
Sketch
10
15.3
20
0.9
0
VERTEX
8
Sketch
10
15.6
20
1.2
0
VERTEX
8
Sketch
10
16.3
20
1.6
0
VERTEX
8
Sketch
10
16.5
20
1.9
0
VERTEX
8
Sketch
10
16.7
20
1.9
0
VERTEX
8
Sketch
10
17.2
20
2.4
0
VERTEX
8
Sketch
10
17.9
20
2.8
0
VERTEX
8
Sketch
10
18.3
20
3.2
0
VERTEX
8
Sketch
10
18.7
20
3.6
0
VERTEX
8
Sketch
10
18.9
20
3.6
0
VERTEX
8
Sketch
10
19.9
20
4.4
0
VERTEX
8
Sketch
10
20.1
20
4.6
0
VERTEX
8
Sketch
10
20.3
20
4.6
0
VERTEX
8
Sketch
10
20.7
20
5
0
VERTEX
8
Sketch
10
21.1
20
5.1
0
VERTEX
8
Sketch
10
22
20
5.7
0
VERTEX
8
Sketch
10
22.5
20
6.2
0
VERTEX
8
Sketch
10
23
20
6.5
0
VERTEX
8
Sketch
10
23.4
20
6.9
0
VERTEX
8
Sketch
10
23.7
20
7
0
VERTEX
8
Sketch
10
25.1
20
8.3
0
VERTEX
8
Sketch
10
25.8
20
9
0
VERTEX
8
Sketch
10
26.3
20
9.8
0
VERTEX
8
Sketch
10
26.7
20
10.5
0
VERTEX
8
Sketch
10
26.8
20
11.3
0
VERTEX
8
Sketch
10
26.7
20
11.7
0
SEQEND
0
POLYLINE
66
1
8
Sketch
62
0
0
VERTEX
8
Sketch
10
10.9
20
-7.8
0
VERTEX
8
Sketch
10
10.9
20
-7.6
0
SEQEND
0
POLYLINE
66
1
8
Sketch
62
0
0
VERTEX
8
Sketch
10
-1.7
20
-7.1
0
VERTEX
8
Sketch
10
-0.8
20
-8
0
VERTEX
8
Sketch
10
0.3
20
-9.6
0
VERTEX
8
Sketch
10
0.6
20
-10
0
VERTEX
8
Sketch
10
0.7
20
-10.4
0
SEQEND
0
POINT
8
Sketch
62
0
10
20.2
20
-11.5
0
POLYLINE
66
1
8
Sketch
62
0
0
VERTEX
8
Sketch
10
6.5
20
-7.9
0
VERTEX
8
Sketch
10
6.1
20
-8
0
VERTEX
8
Sketch
10
5.7
20
-8.4
0
VERTEX
8
Sketch
10
5.7
20
-8.4
0
VERTEX
8
Sketch
10
5.8
20
-8
0
VERTEX
8
Sketch
10
6.3
20
-6.9
0
VERTEX
8
Sketch
10
7
20
-6.2
0
VERTEX
8
Sketch
10
7.8
20
-6.2
0
VERTEX
8
Sketch
10
8.7
20
-6.7
0
VERTEX
8
Sketch
10
9
20
-7.1
0
SEQEND
0
POLYLINE
66
1
8
Sketch
62
0
0
VERTEX
8
Sketch
10
-4
20
17.9
0
VERTEX
8
Sketch
10
-3.9
20
17.7
0
VERTEX
8
Sketch
10
-3.5
20
17.7
0
VERTEX
8
Sketch
10
-3.2
20
17.6
0
VERTEX
8
Sketch
10
-2.7
20
17.7
0
VERTEX
8
Sketch
10
-2.5
20
17.9
0
VERTEX
8
Sketch
10
-2.1
20
17.9
0
VERTEX
8
Sketch
10
-1.8
20
18
0
VERTEX
8
Sketch
10
-1.6
20
17.9
0
VERTEX
8
Sketch
10
-1.4
20
18
0
VERTEX
8
Sketch
10
-0.7
20
17.8
0
VERTEX
8
Sketch
10
0.1
20
18
0
VERTEX
8
Sketch
10
0.3
20
17.9
0
VERTEX
8
Sketch
10
0.6
20
18
0
VERTEX
8
Sketch
10
1.1
20
17.9
0
VERTEX
8
Sketch
10
1.7
20
18.1
0
VERTEX
8
Sketch
10
2.3
20
18
0
VERTEX
8
Sketch
10
2.8
20
18
0
VERTEX
8
Sketch
10
3.7
20
17.8
0
VERTEX
8
Sketch
10
4.3
20
17.8
0
VERTEX
8
Sketch
10
5.6
20
17.6
0
VERTEX
8
Sketch
10
5.9
20
17.7
0
VERTEX
8
Sketch
10
7.1
20
17.3
0
VERTEX
8
Sketch
10
7.4
20
17.3
0
VERTEX
8
Sketch
10
8
20
17.1
0
VERTEX
8
Sketch
10
8.6
20
17
0
VERTEX
8
Sketch
10
9.8
20
16.7
0
VERTEX
8
Sketch
10
12
20
15.8
0
VERTEX
8
Sketch
10
12.4
20
15.7
0
VERTEX
8
Sketch
10
13.5
20
15.4
0
VERTEX
8
Sketch
10
14
20
15.4
0
VERTEX
8
Sketch
10
15
20
15.2
0
VERTEX
8
Sketch
10
15.7
20
15.2
0
VERTEX
8
Sketch
10
16.5
20
15
0
VERTEX
8
Sketch
10
17.3
20
15
0
VERTEX
8
Sketch
10
18.2
20
14.6
0
VERTEX
8
Sketch
10
19.1
20
14.6
0
VERTEX
8
Sketch
10
21.1
20
13.9
0
VERTEX
8
Sketch
10
21.9
20
13.7
0
VERTEX
8
Sketch
10
22.7
20
13.3
0
VERTEX
8
Sketch
10
23.1
20
13.2
0
VERTEX
8
Sketch
10
24.3
20
12.7
0
VERTEX
8
Sketch
10
24.5
20
12.5
0
VERTEX
8
Sketch
10
24.9
20
12.4
0
VERTEX
8
Sketch
10
26.3
20
11.6
0
VERTEX
8
Sketch
10
26.7
20
11
0
SEQEND
0
POINT
8
Sketch
62
0
10
-15.2
20
23.6
0
POLYLINE
66
1
8
Sketch
62
0
0
VERTEX
8
Sketch
10
-6.2
20
16.9
0
VERTEX
8
Sketch
10
-5.9
20
17
0
VERTEX
8
Sketch
10
-5.4
20
17.5
0
VERTEX
8
Sketch
10
-4.6
20
17.9
0
VERTEX
8
Sketch
10
-4.2
20
18
0
VERTEX
8
Sketch
10
-4
20
17.9
0
VERTEX
8
Sketch
10
-3.3
20
18
0
VERTEX
8
Sketch
10
-3.1
20
18
0
SEQEND
0
POLYLINE
66
1
8
Sketch
62
0
0
VERTEX
8
Sketch
10
6.6
20
-7.6
0
VERTEX
8
Sketch
10
6.6
20
-7.2
0
VERTEX
8
Sketch
10
6.7
20
-6.8
0
VERTEX
8
Sketch
10
6.7
20
-6.6
0
VERTEX
8
Sketch
10
7.3
20
-5.6
0
VERTEX
8
Sketch
10
7.8
20
-5.1
0
VERTEX
8
Sketch
10
7.8
20
-5.3
0
VERTEX
8
Sketch
10
8
20
-4.9
0
SEQEND
0
POLYLINE
66
1
8
Sketch
62
0
0
VERTEX
8
Sketch
10
6.9
20
-7.4
0
VERTEX
8
Sketch
10
6.7
20
-7.2
0
VERTEX
8
Sketch
10
6.7
20
-6.8
0
SEQEND
0
LINE
8
Shots
62
1
10
-23.986
20
-97.19
11
-49.646
21
-88.456
0
CIRCLE
8
Shots
62
1
10
-49.646
20
-88.456
40
0.1
0
TEXT
8
Label
40
1
1
22.7
10
-49.646
20
-88.456
0
LINE
8
XSect
62
1
10
-49.646
20
-88.456
11
-50.71
21
-90.816
0
LINE
8
XSect
62
1
10
-49.646
20
-88.456
11
-47.786
21
-86.492
0
LINE
8
XSect
62
1
6
DASH
10
-49.646
20
-88.456
11
-49.568
21
-88.762
0
LINE
8
XSect
62
1
6
DASH
10
-49.646
20
-88.456
11
-49.766
21
-88.228
0
LINE
8
Shots
62
1
10
-18.47
20
-83.504
11
-23.986
21
-97.19
0
CIRCLE
8
Shots
62
1
10
-23.986
20
-97.19
40
0.1
0
TEXT
8
Label
40
1
1
22.6
10
-23.986
20
-97.19
0
LINE
8
XSect
62
1
10
-23.986
20
-97.19
11
-29.644
21
-98.406
0
LINE
8
XSect
62
1
10
-23.986
20
-97.19
11
-27.682
21
-90.988
0
LINE
8
Shots
62
1
10
-18.2
20
-75.344
11
-18.47
21
-83.504
0
CIRCLE
8
Shots
62
1
10
-18.47
20
-83.504
40
0.1
0
TEXT
8
Label
40
1
1
22.5
10
-18.47
20
-83.504
0
LINE
8
XSect
62
1
10
-18.47
20
-83.504
11
-22.63
21
-83.508
0
LINE
8
XSect
62
1
6
DASH
10
-18.47
20
-83.504
11
-18.988
21
-83.702
0
LINE
8
XSect
62
1
6
DASH
10
-18.47
20
-83.504
11
-17.88
21
-83.518
0
LINE
8
Shots
62
1
10
-9.758
20
-69.618
11
-18.2
21
-75.344
0
CIRCLE
8
Shots
62
1
10
-18.2
20
-75.344
40
0.1
0
TEXT
8
Label
40
1
1
22.4
10
-18.2
20
-75.344
0
LINE
8
XSect
62
1
10
-18.2
20
-75.344
11
-16.588
21
-76.094
0
LINE
8
XSect
62
1
10
-18.2
20
-75.344
11
-27.112
21
-71.928
0
LINE
8
XSect
62
1
6
DASH
10
-18.2
20
-75.344
11
-17.89
21
-75.158
0
LINE
8
XSect
62
1
6
DASH
10
-18.2
20
-75.344
11
-18.256
21
-75.434
0
LINE
8
Shots
62
1
10
-14.04
20
-56.854
11
-9.758
21
-69.618
0
CIRCLE
8
Shots
62
1
10
-9.758
20
-69.618
40
0.1
0
TEXT
8
Label
40
1
1
22.3
10
-9.758
20
-69.618
0
LINE
8
XSect
62
1
10
-9.758
20
-69.618
11
-7.038
21
-69.102
0
LINE
8
XSect
62
1
10
-9.758
20
-69.618
11
-11.3
21
-69.41
0
LINE
8
XSect
62
1
6
DASH
10
-9.758
20
-69.618
11
-9.828
21
-69.558
0
LINE
8
XSect
62
1
6
DASH
10
-9.758
20
-69.618
11
-9.426
21
-69.826
0
LINE
8
Shots
62
1
10
0.4
20
-54.758
11
-14.04
21
-56.854
0
CIRCLE
8
Shots
62
1
10
-14.04
20
-56.854
40
0.1
0
TEXT
8
Label
40
1
1
22.2
10
-14.04
20
-56.854
0
LINE
8
XSect
62
1
10
-14.04
20
-56.854
11
-6.272
21
-63.328
0
LINE
8
XSect
62
1
10
-14.04
20
-56.854
11
-17.272
21
-55.644
0
LINE
8
XSect
62
1
6
DASH
10
-14.04
20
-56.854
11
-13.992
21
-56.924
0
LINE
8
XSect
62
1
6
DASH
10
-14.04
20
-56.854
11
-13.738
21
-57.156
0
LINE
8
Shots
62
1
10
14.458
20
-47.76
11
0.4
21
-54.758
0
CIRCLE
8
Shots
62
1
10
0.4
20
-54.758
40
0.1
0
TEXT
8
Label
40
1
1
22.1
10
0.4
20
-54.758
0
LINE
8
XSect
62
1
10
0.4
20
-54.758
11
1.638
21
-59.122
0
LINE
8
XSect
62
1
10
0.4
20
-54.758
11
-1.74
21
-50.004
0
LINE
8
XSect
62
1
6
DASH
10
0.4
20
-54.758
11
0.808
21
-55.09
0
LINE
8
Shots
62
1
10
14.458
20
-47.76
11
14.458
21
-47.76
0
CIRCLE
8
Shots
62
1
10
14.458
20
-47.76
40
0.1
0
LINE
8
Shots
62
1
10
11.804
20
-53.422
11
12.206
21
-61.786
0
CIRCLE
8
Shots
62
1
10
12.206
20
-61.786
40
0.1
0
TEXT
8
Label
40
1
1
21.5
10
12.206
20
-61.786
0
LINE
8
Shots
62
1
10
14.458
20
-47.76
11
11.804
21
-53.422
0
CIRCLE
8
Shots
62
1
10
11.804
20
-53.422
40
0.1
0
TEXT
8
Label
40
1
1
21.4
10
11.804
20
-53.422
0
LINE
8
XSect
62
1
10
11.804
20
-53.422
11
14.17
21
-53.948
0
LINE
8
XSect
62
1
10
11.804
20
-53.422
11
10.596
21
-53.524
0
LINE
8
XSect
62
1
6
DASH
10
11.804
20
-53.422
11
12.148
21
-53.796
0
LINE
8
XSect
62
1
6
DASH
10
11.804
20
-53.422
11
11.494
21
-54.406
0
LINE
8
Shots
62
1
10
9.944
20
-39.278
11
14.458
21
-47.76
0
CIRCLE
8
Shots
62
1
10
14.458
20
-47.76
40
0.1
0
TEXT
8
Label
40
1
1
21.3
10
14.458
20
-47.76
0
LINE
8
XSect
62
1
10
14.458
20
-47.76
11
19.538
21
-46.73
0
LINE
8
XSect
62
1
10
14.458
20
-47.76
11
10.602
21
-53.226
0
LINE
8
XSect
62
1
10
14.458
20
-47.76
11
3.254
21
-48.988
0
LINE
8
XSect
62
1
6
DASH
10
14.458
20
-47.76
11
14.724
21
-47.75
0
LINE
8
XSect
62
1
6
DASH
10
14.458
20
-47.76
11
14.184
21
-47.916
0
LINE
8
Shots
62
1
10
-8.372
20
-8.082
11
9.944
21
-39.278
0
CIRCLE
8
Shots
62
1
10
9.944
20
-39.278
40
0.1
0
TEXT
8
Label
40
1
1
21.2
10
9.944
20
-39.278
0
LINE
8
XSect
62
1
10
9.944
20
-39.278
11
14.56
21
-35.118
0
LINE
8
XSect
62
1
10
9.944
20
-39.278
11
4.432
21
-43.352
0
LINE
8
XSect
62
1
6
DASH
10
9.944
20
-39.278
11
9.842
21
-39.568
0
LINE
8
XSect
62
1
6
DASH
10
9.944
20
-39.278
11
9.978
21
-38.974
0
LINE
8
Shots
62
1
10
0
20
0
11
-8.372
21
-8.082
0
CIRCLE
8
Shots
62
1
10
-8.372
20
-8.082
40
0.1
0
TEXT
8
Label
40
1
1
21.1
10
-8.372
20
-8.082
0
LINE
8
XSect
62
1
10
-8.372
20
-8.082
11
1.744
21
-10.518
0
LINE
8
XSect
62
1
10
-8.372
20
-8.082
11
-10.968
21
-8.384
0
LINE
8
XSect
62
1
6
DASH
10
-8.372
20
-8.082
11
-6.86
21
-8.282
0
LINE
8
XSect
62
1
6
DASH
10
-8.372
20
-8.082
11
-8.768
21
-8.326
0
LINE
8
Shots
62
1
10
0
20
0
11
0
21
0
0
CIRCLE
8
Shots
62
1
10
0
20
0
40
0.1
0
LINE
8
Shots
62
1
10
30.686
20
-27.38
11
33.3
21
-32.578
0
CIRCLE
8
Shots
62
1
10
33.3
20
-32.578
40
0.1
0
TEXT
8
Label
40
1
1
20.30
10
33.3
20
-32.578
0
LINE
8
XSect
62
1
10
33.3
20
-32.578
11
30.666
21
-34.588
0
LINE
8
XSect
62
1
10
33.3
20
-32.578
11
34.466
21
-31.196
0
LINE
8
XSect
62
1
6
DASH
10
33.3
20
-32.578
11
30.96
21
-33.796
0
LINE
8
XSect
62
1
6
DASH
10
33.3
20
-32.578
11
33.432
21
-32.71
0
LINE
8
Shots
62
1
10
22.874
20
-23.056
11
30.686
21
-27.38
0
CIRCLE
8
Shots
62
1
10
30.686
20
-27.38
40
0.1
0
TEXT
8
Label
40
1
1
20.29
10
30.686
20
-27.38
0
LINE
8
XSect
62
1
10
30.686
20
-27.38
11
33.34
21
-24.172
0
LINE
8
XSect
62
1
10
30.686
20
-27.38
11
29.01
21
-29.112
0
LINE
8
XSect
62
1
6
DASH
10
30.686
20
-27.38
11
30.596
21
-27.09
0
LINE
8
XSect
62
1
6
DASH
10
30.686
20
-27.38
11
31.498
21
-28.072
0
LINE
8
Shots
62
1
10
6.64
20
-6.006
11
22.874
21
-23.056
0
CIRCLE
8
Shots
62
1
10
22.874
20
-23.056
40
0.1
0
TEXT
8
Label
40
1
1
20.28
10
22.874
20
-23.056
0
LINE
8
XSect
62
1
10
22.874
20
-23.056
11
34.124
21
-18.294
0
LINE
8
XSect
62
1
10
22.874
20
-23.056
11
17.4
21
-26.67
0
LINE
8
XSect
62
1
6
DASH
10
22.874
20
-23.056
11
22.624
21
-23.164
0
LINE
8
XSect
62
1
6
DASH
10
22.874
20
-23.056
11
23.266
21
-23.054
0
LINE
8
Shots
62
1
10
17.352
20
8.276
11
6.64
21
-6.006
0
CIRCLE
8
Shots
62
1
10
6.64
20
-6.006
40
0.1
0
TEXT
8
Label
40
1
1
20.27
10
6.64
20
-6.006
0
LINE
8
XSect
62
1
10
6.64
20
-6.006
11
10.21
21
-4.614
0
LINE
8
XSect
62
1
10
6.64
20
-6.006
11
0.474
21
-9.876
0
LINE
8
XSect
62
1
6
DASH
10
6.64
20
-6.006
11
7.074
21
-6.072
0
LINE
8
XSect
62
1
6
DASH
10
6.64
20
-6.006
11
11.046
21
-5.314
0
LINE
8
Shots
62
1
10
0
20
0
11
17.352
21
8.276
0
CIRCLE
8
Shots
62
1
10
17.352
20
8.276
40
0.1
0
TEXT
8
Label
40
1
1
20.26
10
17.352
20
8.276
0
LINE
8
XSect
62
1
10
17.352
20
8.276
11
27.132
21
11.224
0
LINE
8
XSect
62
1
10
17.352
20
8.276
11
15.092
21
0.984
0
LINE
8
XSect
62
1
10
17.352
20
8.276
11
6.45
21
-4.212
0
LINE
8
XSect
62
1
6
DASH
10
17.352
20
8.276
11
14.726
21
6.812
0
LINE
8
XSect
62
1
6
DASH
10
17.352
20
8.276
11
17.63
21
8.352
0
LINE
8
XSect
62
1
10
0
20
0
11
-4.524
21
17.854
0
LINE
8
XSect
62
1
10
0
20
0
11
6.984
21
-7.472
0
LINE
8
XSect
62
1
6
DASH
10
0
20
0
11
0.906
21
0.638
0
LINE
8
XSect
62
1
6
DASH
10
0
20
0
11
0.184
21
0.194
0
LINE
8
Grid
62
255
10
-52
20
12
11
-52
21
-100
0
LINE
8
Grid
62
255
10
-50
20
12
11
-50
21
-100
0
LINE
8
Grid
62
255
10
-48
20
12
11
-48
21
-100
0
LINE
8
Grid
62
255
10
-46
20
12
11
-46
21
-100
0
LINE
8
Grid
62
255
10
-44
20
12
11
-44
21
-100
0
LINE
8
Grid
62
255
10
-42
20
12
11
-42
21
-100
0
LINE
8
Grid
62
255
10
-40
20
12
11
-40
21
-100
0
LINE
8
Grid
62
255
10
-38
20
12
11
-38
21
-100
0
LINE
8
Grid
62
255
10
-36
20
12
11
-36
21
-100
0
LINE
8
Grid
62
255
10
-34
20
12
11
-34
21
-100
0
LINE
8
Grid
62
255
10
-32
20
12
11
-32
21
-100
0
LINE
8
Grid
62
255
10
-30
20
12
11
-30
21
-100
0
LINE
8
Grid
62
255
10
-28
20
12
11
-28
21
-100
0
LINE
8
Grid
62
255
10
-26
20
12
11
-26
21
-100
0
LINE
8
Grid
62
255
10
-24
20
12
11
-24
21
-100
0
LINE
8
Grid
62
255
10
-22
20
12
11
-22
21
-100
0
LINE
8
Grid
62
255
10
-20
20
12
11
-20
21
-100
0
LINE
8
Grid
62
255
10
-18
20
12
11
-18
21
-100
0
LINE
8
Grid
62
255
10
-16
20
12
11
-16
21
-100
0
LINE
8
Grid
62
255
10
-14
20
12
11
-14
21
-100
0
LINE
8
Grid
62
255
10
-12
20
12
11
-12
21
-100
0
LINE
8
Grid
62
255
10
-10
20
12
11
-10
21
-100
0
LINE
8
Grid
62
255
10
-8
20
12
11
-8
21
-100
0
LINE
8
Grid
62
255
10
-6
20
12
11
-6
21
-100
0
LINE
8
Grid
62
255
10
-4
20
12
11
-4
21
-100
0
LINE
8
Grid
62
255
10
-2
20
12
11
-2
21
-100
0
LINE
8
Grid
62
255
10
0
20
12
11
0
21
-100
0
LINE
8
Grid
62
255
10
2
20
12
11
2
21
-100
0
LINE
8
Grid
62
255
10
4
20
12
11
4
21
-100
0
LINE
8
Grid
62
255
10
6
20
12
11
6
21
-100
0
LINE
8
Grid
62
255
10
8
20
12
11
8
21
-100
0
LINE
8
Grid
62
255
10
10
20
12
11
10
21
-100
0
LINE
8
Grid
62
255
10
12
20
12
11
12
21
-100
0
LINE
8
Grid
62
255
10
14
20
12
11
14
21
-100
0
LINE
8
Grid
62
255
10
16
20
12
11
16
21
-100
0
LINE
8
Grid
62
255
10
18
20
12
11
18
21
-100
0
LINE
8
Grid
62
255
10
20
20
12
11
20
21
-100
0
LINE
8
Grid
62
255
10
22
20
12
11
22
21
-100
0
LINE
8
Grid
62
255
10
24
20
12
11
24
21
-100
0
LINE
8
Grid
62
255
10
26
20
12
11
26
21
-100
0
LINE
8
Grid
62
255
10
28
20
12
11
28
21
-100
0
LINE
8
Grid
62
255
10
30
20
12
11
30
21
-100
0
LINE
8
Grid
62
255
10
32
20
12
11
32
21
-100
0
LINE
8
Grid
62
255
10
34
20
12
11
34
21
-100
0
LINE
8
Grid
62
255
10
36
20
12
11
36
21
-100
0
LINE
8
Grid
62
255
10
-52
20
12
11
36
21
12
0
LINE
8
Grid
62
255
10
-52
20
10
11
36
21
10
0
LINE
8
Grid
62
255
10
-52
20
8
11
36
21
8
0
LINE
8
Grid
62
255
10
-52
20
6
11
36
21
6
0
LINE
8
Grid
62
255
10
-52
20
4
11
36
21
4
0
LINE
8
Grid
62
255
10
-52
20
2
11
36
21
2
0
LINE
8
Grid
62
255
10
-52
20
0
11
36
21
0
0
LINE
8
Grid
62
255
10
-52
20
-2
11
36
21
-2
0
LINE
8
Grid
62
255
10
-52
20
-4
11
36
21
-4
0
LINE
8
Grid
62
255
10
-52
20
-6
11
36
21
-6
0
LINE
8
Grid
62
255
10
-52
20
-8
11
36
21
-8
0
LINE
8
Grid
62
255
10
-52
20
-10
11
36
21
-10
0
LINE
8
Grid
62
255
10
-52
20
-12
11
36
21
-12
0
LINE
8
Grid
62
255
10
-52
20
-14
11
36
21
-14
0
LINE
8
Grid
62
255
10
-52
20
-16
11
36
21
-16
0
LINE
8
Grid
62
255
10
-52
20
-18
11
36
21
-18
0
LINE
8
Grid
62
255
10
-52
20
-20
11
36
21
-20
0
LINE
8
Grid
62
255
10
-52
20
-22
11
36
21
-22
0
LINE
8
Grid
62
255
10
-52
20
-24
11
36
21
-24
0
LINE
8
Grid
62
255
10
-52
20
-26
11
36
21
-26
0
LINE
8
Grid
62
255
10
-52
20
-28
11
36
21
-28
0
LINE
8
Grid
62
255
10
-52
20
-30
11
36
21
-30
0
LINE
8
Grid
62
255
10
-52
20
-32
11
36
21
-32
0
LINE
8
Grid
62
255
10
-52
20
-34
11
36
21
-34
0
LINE
8
Grid
62
255
10
-52
20
-36
11
36
21
-36
0
LINE
8
Grid
62
255
10
-52
20
-38
11
36
21
-38
0
LINE
8
Grid
62
255
10
-52
20
-40
11
36
21
-40
0
LINE
8
Grid
62
255
10
-52
20
-42
11
36
21
-42
0
LINE
8
Grid
62
255
10
-52
20
-44
11
36
21
-44
0
LINE
8
Grid
62
255
10
-52
20
-46
11
36
21
-46
0
LINE
8
Grid
62
255
10
-52
20
-48
11
36
21
-48
0
LINE
8
Grid
62
255
10
-52
20
-50
11
36
21
-50
0
LINE
8
Grid
62
255
10
-52
20
-52
11
36
21
-52
0
LINE
8
Grid
62
255
10
-52
20
-54
11
36
21
-54
0
LINE
8
Grid
62
255
10
-52
20
-56
11
36
21
-56
0
LINE
8
Grid
62
255
10
-52
20
-58
11
36
21
-58
0
LINE
8
Grid
62
255
10
-52
20
-60
11
36
21
-60
0
LINE
8
Grid
62
255
10
-52
20
-62
11
36
21
-62
0
LINE
8
Grid
62
255
10
-52
20
-64
11
36
21
-64
0
LINE
8
Grid
62
255
10
-52
20
-66
11
36
21
-66
0
LINE
8
Grid
62
255
10
-52
20
-68
11
36
21
-68
0
LINE
8
Grid
62
255
10
-52
20
-70
11
36
21
-70
0
LINE
8
Grid
62
255
10
-52
20
-72
11
36
21
-72
0
LINE
8
Grid
62
255
10
-52
20
-74
11
36
21
-74
0
LINE
8
Grid
62
255
10
-52
20
-76
11
36
21
-76
0
LINE
8
Grid
62
255
10
-52
20
-78
11
36
21
-78
0
LINE
8
Grid
62
255
10
-52
20
-80
11
36
21
-80
0
LINE
8
Grid
62
255
10
-52
20
-82
11
36
21
-82
0
LINE
8
Grid
62
255
10
-52
20
-84
11
36
21
-84
0
LINE
8
Grid
62
255
10
-52
20
-86
11
36
21
-86
0
LINE
8
Grid
62
255
10
-52
20
-88
11
36
21
-88
0
LINE
8
Grid
62
255
10
-52
20
-90
11
36
21
-90
0
LINE
8
Grid
62
255
10
-52
20
-92
11
36
21
-92
0
LINE
8
Grid
62
255
10
-52
20
-94
11
36
21
-94
0
LINE
8
Grid
62
255
10
-52
20
-96
11
36
21
-96
0
LINE
8
Grid
62
255
10
-52
20
-98
11
36
21
-98
0
LINE
8
Grid
62
255
10
-52
20
-100
11
36
21
-100
0
ENDSEC
0
EOF
